<svg width="657" height="636" viewBox="0 0 657 636" fill="none" xmlns="http://www.w3.org/2000/svg">
<path d="M653.41 82.5274C646.188 97.8978 629.522 108.083 617.855 104.935C607.67 102.157 605.818 90.12 612.299 78.083C618.596 66.6016 631.188 57.3423 642.114 57.1571C654.151 56.7868 660.077 67.8978 653.41 82.5274Z" fill="#F9A01E"/>
<path d="M649.892 79.3793C642.67 94.7496 626.003 104.935 614.336 101.787C604.151 99.0089 602.299 86.9719 608.781 74.9349C615.077 63.4534 627.67 54.1942 638.596 54.009C650.633 53.6386 656.558 64.7497 649.892 79.3793Z" fill="#FFE779"/>
<path d="M643.966 78.6386C638.596 90.12 626.003 97.8978 617.114 95.8607C609.151 94.0089 607.299 84.7497 612.299 75.3052C617.114 66.2312 627.299 59.009 635.633 59.009C645.077 59.1942 649.151 67.7127 643.966 78.6386Z" fill="#F9A01E"/>
<path d="M619.892 88.4533L620.633 87.157C620.818 86.6015 620.818 86.2311 620.448 86.046C619.629 85.8888 618.9 85.4252 618.411 84.7496C618.225 84.5645 618.226 84.0089 618.596 83.4534L618.781 83.2682C619.151 82.7126 619.892 82.5274 620.077 82.8978C620.718 83.5794 621.563 84.0344 622.485 84.1941C623.434 84.3297 624.402 84.1493 625.238 83.6808C626.075 83.2123 626.734 82.4817 627.114 81.6015C627.325 81.2654 627.464 80.8891 627.522 80.4966C627.58 80.104 627.557 79.7037 627.452 79.3209C627.348 78.938 627.165 78.581 626.916 78.2723C626.666 77.9636 626.356 77.71 626.003 77.5274C625.512 77.2896 625.078 76.9486 624.731 76.5278C624.383 76.107 624.131 75.6163 623.99 75.089C623.849 74.5618 623.824 74.0104 623.916 73.4725C624.008 72.9345 624.214 72.4227 624.522 71.9719C625.042 70.871 625.817 69.9102 626.784 69.1694C627.75 68.4285 628.879 67.9291 630.077 67.7126C630.448 67.7126 630.818 67.3423 631.188 66.7867L631.929 65.4904C632.024 65.2218 632.2 64.9888 632.431 64.8231C632.663 64.6575 632.94 64.5672 633.225 64.5645C633.596 64.5645 633.781 64.9349 633.596 65.4904L633.04 66.6016C632.855 67.1571 632.855 67.5275 633.411 67.5275C634.022 67.6219 634.597 67.8776 635.077 68.2682C635.448 68.4534 635.263 69.0089 634.892 69.5645L634.707 69.7497C634.337 70.3052 633.596 70.4904 633.411 70.1201C632.776 69.6266 631.992 69.3652 631.188 69.3793C630.346 69.3252 629.507 69.5259 628.781 69.9553C628.054 70.3847 627.473 71.0228 627.114 71.7867C626.374 73.2682 626.929 74.1941 628.596 75.4904C629.108 75.7831 629.553 76.1808 629.9 76.6573C630.248 77.1339 630.491 77.6785 630.613 78.2555C630.736 78.8326 630.735 79.429 630.61 80.0056C630.486 80.5822 630.241 81.1261 629.892 81.6015C629.308 82.834 628.427 83.9021 627.328 84.7102C626.229 85.5182 624.947 86.0408 623.596 86.2311C623.343 86.2665 623.105 86.3719 622.908 86.5356C622.712 86.6992 622.565 86.9144 622.485 87.157L621.744 88.6385C621.627 88.892 621.446 89.1106 621.218 89.2729C620.991 89.4352 620.726 89.5357 620.448 89.5645C619.707 89.5645 619.522 89.0089 619.892 88.4533Z" fill="#FFE779"/>
<path d="M517.965 457.672L446.113 453.227C444.931 453.15 443.776 452.839 442.715 452.311C441.654 451.784 440.708 451.051 439.933 450.155C439.158 449.259 438.568 448.218 438.198 447.092C437.829 445.967 437.686 444.779 437.78 443.598L448.706 296.191C448.913 293.724 450 291.414 451.767 289.681C453.534 287.947 455.865 286.906 458.335 286.746L531.854 282.302C533.127 282.236 534.4 282.441 535.589 282.904C536.777 283.367 537.853 284.077 538.746 284.988C539.639 285.898 540.329 286.988 540.769 288.185C541.209 289.382 541.389 290.659 541.298 291.931L529.076 448.227C528.79 450.927 527.477 453.413 525.409 455.171C523.34 456.929 520.675 457.825 517.965 457.672Z" fill="#1A2C6A"/>
<path d="M512.965 457.672L441.113 453.227C439.931 453.15 438.776 452.839 437.715 452.311C436.654 451.784 435.708 451.051 434.933 450.155C434.158 449.259 433.568 448.218 433.198 447.092C432.829 445.967 432.686 444.779 432.78 443.598L443.706 296.191C443.913 293.724 445 291.414 446.767 289.681C448.534 287.947 450.865 286.906 453.335 286.746L526.854 282.302C528.127 282.236 529.4 282.441 530.589 282.904C531.777 283.367 532.853 284.077 533.746 284.988C534.639 285.898 535.329 286.988 535.769 288.185C536.209 289.382 536.389 290.659 536.298 291.931L524.076 448.227C523.79 450.927 522.477 453.413 520.409 455.171C518.34 456.929 515.675 457.825 512.965 457.672Z" fill="#1A2C6A"/>
<path d="M490.928 299.524L477.224 300.265C476.976 300.281 476.728 300.244 476.496 300.157C476.264 300.07 476.053 299.934 475.878 299.759C475.703 299.583 475.567 299.373 475.48 299.141C475.392 298.908 475.356 298.66 475.372 298.413C475.377 297.874 475.593 297.359 475.974 296.978C476.355 296.597 476.87 296.381 477.409 296.376L491.113 295.635C491.36 295.619 491.608 295.655 491.84 295.743C492.072 295.83 492.283 295.966 492.458 296.141C492.634 296.317 492.77 296.527 492.857 296.759C492.944 296.992 492.981 297.24 492.965 297.487C492.96 298.026 492.743 298.541 492.363 298.922C491.982 299.303 491.466 299.519 490.928 299.524Z" fill="#63737A"/>
<path d="M498.891 299.154H498.52C498.273 299.17 498.025 299.133 497.793 299.046C497.561 298.959 497.35 298.823 497.174 298.648C496.999 298.472 496.863 298.262 496.776 298.029C496.689 297.797 496.652 297.549 496.668 297.302C496.738 296.737 496.995 296.211 497.397 295.809C497.8 295.406 498.326 295.15 498.891 295.08H499.261C499.508 295.063 499.756 295.1 499.989 295.187C500.221 295.274 500.431 295.41 500.607 295.586C500.782 295.761 500.918 295.972 501.005 296.204C501.092 296.436 501.129 296.684 501.113 296.931C501.043 297.496 500.786 298.022 500.384 298.425C499.981 298.827 499.456 299.084 498.891 299.154Z" fill="#63737A"/>
<path d="M477.409 324.154L459.076 324.709C458.628 324.715 458.185 324.625 457.775 324.446C457.365 324.266 456.999 324 456.701 323.667C456.402 323.333 456.179 322.94 456.046 322.512C455.912 322.085 455.872 321.635 455.928 321.191C456.025 320.242 456.446 319.355 457.121 318.68C457.796 318.006 458.682 317.584 459.631 317.487L477.965 316.746C478.412 316.74 478.856 316.83 479.265 317.01C479.675 317.19 480.041 317.455 480.34 317.789C480.638 318.122 480.861 318.516 480.995 318.943C481.128 319.37 481.168 319.821 481.113 320.265C481.088 321.257 480.695 322.204 480.011 322.923C479.326 323.642 478.399 324.08 477.409 324.154Z" fill="#63737A"/>
<path d="M472.595 387.857L454.447 387.672C454.009 387.648 453.58 387.538 453.184 387.349C452.789 387.159 452.435 386.893 452.142 386.566C451.85 386.239 451.625 385.858 451.48 385.444C451.335 385.03 451.273 384.591 451.298 384.153C451.402 383.224 451.83 382.362 452.508 381.718C453.185 381.074 454.069 380.69 455.002 380.635L473.15 380.82C473.593 380.828 474.03 380.928 474.433 381.113C474.835 381.297 475.196 381.563 475.491 381.893C475.787 382.223 476.011 382.611 476.15 383.032C476.289 383.453 476.339 383.897 476.298 384.339C476.229 385.281 475.812 386.163 475.127 386.814C474.442 387.465 473.539 387.837 472.595 387.857Z" fill="#63737A"/>
<path d="M468.706 439.339L450.558 438.413C450.106 438.382 449.664 438.262 449.259 438.058C448.855 437.854 448.495 437.571 448.201 437.226C447.908 436.881 447.686 436.48 447.551 436.048C447.415 435.615 447.367 435.16 447.41 434.709C447.448 433.805 447.837 432.952 448.494 432.329C449.151 431.707 450.024 431.365 450.928 431.376L469.077 432.116C469.534 432.131 469.984 432.24 470.397 432.439C470.809 432.638 471.176 432.921 471.472 433.27C471.769 433.619 471.989 434.026 472.119 434.465C472.248 434.904 472.284 435.366 472.225 435.82C472.225 436.753 471.854 437.648 471.194 438.308C470.534 438.968 469.639 439.339 468.706 439.339Z" fill="#63737A"/>
<path d="M510.928 365.079L456.854 365.265C456.31 365.267 455.772 365.156 455.275 364.937C454.777 364.719 454.331 364.399 453.964 363.998C453.598 363.597 453.32 363.123 453.147 362.608C452.975 362.092 452.913 361.546 452.965 361.005L454.632 337.487C454.7 336.545 455.118 335.662 455.803 335.011C456.488 334.361 457.391 333.989 458.335 333.968L512.594 332.487C513.138 332.484 513.676 332.596 514.173 332.814C514.671 333.032 515.118 333.352 515.484 333.754C515.85 334.155 516.129 334.629 516.301 335.144C516.473 335.659 516.535 336.205 516.483 336.746L514.631 361.376C514.631 362.358 514.241 363.3 513.547 363.995C512.852 364.689 511.91 365.079 510.928 365.079Z" fill="#198F9F"/>
<path d="M471.299 419.524L452.78 418.783C452.251 418.766 451.731 418.639 451.252 418.412C450.774 418.184 450.348 417.86 450 417.461C449.652 417.061 449.391 416.594 449.232 416.088C449.073 415.583 449.02 415.05 449.077 414.524L450.188 400.45C450.211 399.963 450.331 399.486 450.539 399.046C450.748 398.605 451.041 398.21 451.402 397.884C451.763 397.557 452.186 397.304 452.644 397.141C453.103 396.978 453.59 396.906 454.077 396.931L472.78 397.302C473.858 397.359 474.869 397.838 475.597 398.635C476.324 399.432 476.709 400.483 476.669 401.561L475.558 416.005C475.389 417.006 474.866 417.912 474.084 418.558C473.302 419.204 472.313 419.547 471.299 419.524Z" fill="#FFE779"/>
<path d="M506.483 420.635L486.668 419.894C486.139 419.877 485.619 419.75 485.14 419.523C484.662 419.295 484.236 418.972 483.888 418.572C483.54 418.172 483.279 417.705 483.12 417.2C482.961 416.694 482.908 416.162 482.965 415.635L484.076 401.005C484.099 400.519 484.219 400.042 484.427 399.601C484.636 399.161 484.929 398.766 485.29 398.439C485.652 398.112 486.074 397.86 486.533 397.697C486.991 397.533 487.478 397.462 487.965 397.487L507.965 397.857C509.042 397.915 510.054 398.394 510.781 399.19C511.509 399.987 511.894 401.038 511.853 402.116L510.742 417.116C510.581 418.12 510.06 419.031 509.276 419.678C508.492 420.326 507.499 420.666 506.483 420.635Z" fill="#F4C2C9"/>
<path d="M131.484 228.598L421.484 198.598C422.739 198.472 424.007 198.623 425.198 199.041C426.388 199.459 427.472 200.134 428.373 201.017C429.274 201.901 429.97 202.971 430.412 204.153C430.853 205.335 431.029 206.6 430.928 207.858L406.113 490.079C405.83 493.419 404.263 496.519 401.743 498.729C399.222 500.939 395.943 502.087 392.595 501.931L110.929 486.746C108.649 486.612 106.515 485.584 104.989 483.884C103.463 482.185 102.67 479.953 102.781 477.672L119.818 240.82C120.034 237.743 121.318 234.838 123.448 232.607C125.578 230.375 128.421 228.957 131.484 228.598Z" fill="#F9A01E"/>
<path d="M120.929 225.45L414.261 195.08C415.535 194.942 416.824 195.092 418.032 195.518C419.241 195.944 420.338 196.636 421.244 197.542C422.15 198.448 422.842 199.545 423.268 200.754C423.694 201.962 423.843 203.25 423.706 204.524L398.706 489.894C398.455 493.281 396.871 496.43 394.303 498.651C391.734 500.873 388.39 501.985 385.002 501.746L100.003 486.375C98.8541 486.319 97.7281 486.033 96.6918 485.534C95.6556 485.035 94.73 484.333 93.9701 483.47C93.2103 482.606 92.6315 481.599 92.2682 480.507C91.9048 479.416 91.7642 478.263 91.8548 477.116L109.077 237.487C109.402 234.437 110.75 231.586 112.902 229.4C115.055 227.215 117.884 225.822 120.929 225.45Z" fill="#FFE779"/>
<path d="M141.299 276.931L127.966 277.672L126.299 302.487L139.447 302.117L141.299 276.931Z" fill="#198E9F"/>
<path d="M126.299 302.487L125.373 314.709L138.521 314.339L139.447 302.117L126.299 302.487Z" fill="#198F9F"/>
<path d="M170.003 243.228L156.67 244.154L154.447 276.191L167.595 275.635L170.003 243.228Z" fill="#198E9F"/>
<path d="M154.447 276.191L151.669 313.968L164.818 313.598L167.595 275.635L154.447 276.191Z" fill="#198F9F"/>
<path d="M182.226 254.894L180.744 274.894L193.892 274.154L195.374 253.969L182.226 254.894Z" fill="#198E9F"/>
<path d="M180.744 274.894L177.966 313.413L191.114 313.043L193.892 274.154L180.744 274.894Z" fill="#198F9F"/>
<path d="M220.188 272.672L207.04 273.413L206.114 287.487L219.262 286.746L220.188 272.672Z" fill="#198E9F"/>
<path d="M206.114 287.487L204.262 312.672L217.41 312.302L219.262 286.746L206.114 287.487Z" fill="#198F9F"/>
<path d="M248.151 250.265L246.484 271.376L245.558 285.265L232.41 286.006L233.336 271.931L235.003 251.191L248.151 250.265Z" fill="#198E9F"/>
<path d="M232.41 286.005L230.373 311.931L243.521 311.746L245.558 285.265L232.41 286.005Z" fill="#198F9F"/>
<path d="M353.891 235.08L330.373 272.302L309.817 244.339C317.78 237.653 327.608 233.58 337.965 232.672C343.387 232.281 348.828 233.103 353.891 235.08Z" fill="#1A2C6A"/>
<path d="M372.225 269.339L330.373 272.302L353.892 235.08C366.854 240.265 374.447 253.228 372.225 269.339Z" fill="#F4C2C9"/>
<path d="M372.225 269.339C372.225 269.894 372.04 270.45 372.04 271.006C368.151 293.042 347.595 311.376 325.929 313.042L330.373 272.302L372.225 269.339Z" fill="#198F9F"/>
<path d="M330.373 272.302L325.928 313.042C324.762 313.196 323.586 313.258 322.41 313.228C300.373 313.228 286.854 295.265 291.484 273.598C294.16 262.124 300.617 251.884 309.817 244.524L330.373 272.302Z" fill="white"/>
<path d="M366.298 344.709L356.669 438.598L114.632 434.153L115.003 426.931L167.41 390.82C168.58 389.99 169.987 389.559 171.422 389.593C172.857 389.626 174.242 390.121 175.373 391.005L195.003 405.45C195.73 405.99 196.558 406.38 197.437 406.597C198.317 406.815 199.231 406.857 200.127 406.719C201.022 406.581 201.881 406.267 202.655 405.795C203.428 405.323 204.1 404.702 204.632 403.968L224.076 378.042C224.726 377.173 225.573 376.471 226.547 375.993C227.521 375.515 228.594 375.275 229.679 375.293C230.764 375.311 231.829 375.586 232.787 376.097C233.745 376.607 234.567 377.337 235.188 378.227L252.41 402.116C252.946 402.872 253.629 403.513 254.418 403.999C255.207 404.485 256.086 404.806 257.002 404.945C257.918 405.083 258.853 405.035 259.751 404.804C260.648 404.572 261.489 404.162 262.225 403.598C263.391 402.715 264.806 402.222 266.269 402.188C267.731 402.155 269.167 402.584 270.373 403.413L282.595 412.116C283.356 412.652 284.218 413.03 285.128 413.227C286.038 413.425 286.979 413.437 287.894 413.265C288.809 413.092 289.68 412.738 290.456 412.222C291.231 411.707 291.896 411.041 292.41 410.264L319.817 368.042C320.331 367.266 320.995 366.6 321.771 366.085C322.547 365.569 323.418 365.215 324.333 365.042C325.248 364.87 326.189 364.882 327.099 365.079C328.009 365.277 328.87 365.654 329.632 366.19L337.595 371.931C338.322 372.473 339.149 372.866 340.029 373.085C340.909 373.304 341.824 373.346 342.72 373.208C343.616 373.07 344.476 372.755 345.249 372.282C346.023 371.808 346.694 371.185 347.224 370.45L366.298 344.709Z" fill="#198E9F"/>
<path d="M190.188 374.524H179.633C179.389 374.517 179.148 374.564 178.924 374.659C178.7 374.755 178.5 374.899 178.337 375.079L175.929 377.487C175.583 377.826 175.118 378.016 174.633 378.016C174.148 378.016 173.683 377.826 173.337 377.487L171.485 375.079C171.322 374.899 171.121 374.755 170.897 374.659C170.674 374.564 170.432 374.517 170.188 374.524H160.003C159.789 374.535 159.576 374.498 159.378 374.416C159.18 374.333 159.003 374.207 158.861 374.047C158.719 373.887 158.614 373.697 158.556 373.491C158.497 373.285 158.485 373.068 158.522 372.857L160.003 352.857C160.038 352.377 160.244 351.926 160.584 351.586C160.924 351.246 161.375 351.04 161.855 351.005L192.04 349.894C192.482 349.894 192.906 350.07 193.219 350.382C193.531 350.695 193.707 351.119 193.707 351.561L192.04 372.487C192.066 372.745 192.038 373.006 191.956 373.252C191.875 373.499 191.743 373.726 191.568 373.918C191.393 374.11 191.18 374.263 190.943 374.367C190.705 374.472 190.448 374.525 190.188 374.524Z" fill="white"/>
<path d="M289.077 384.524L278.522 384.339C278.278 384.332 278.036 384.378 277.813 384.474C277.589 384.57 277.388 384.713 277.225 384.894L274.818 387.302C274.648 387.484 274.44 387.627 274.208 387.718C273.976 387.81 273.726 387.848 273.477 387.831C273.228 387.813 272.987 387.739 272.77 387.616C272.553 387.492 272.367 387.322 272.225 387.116L270.373 384.709C270.21 384.528 270.01 384.385 269.786 384.289C269.562 384.193 269.321 384.147 269.077 384.153L259.077 383.968C258.151 383.968 257.596 383.227 257.596 382.116L259.077 361.931C259.101 361.478 259.28 361.048 259.583 360.711C259.886 360.374 260.296 360.151 260.744 360.079L290.929 359.339C291.163 359.343 291.393 359.395 291.605 359.492C291.818 359.589 292.008 359.729 292.165 359.902C292.321 360.076 292.44 360.28 292.514 360.502C292.588 360.723 292.616 360.958 292.596 361.191L290.929 382.672C290.945 382.919 290.909 383.167 290.821 383.4C290.734 383.632 290.598 383.842 290.423 384.018C290.248 384.193 290.037 384.329 289.805 384.416C289.573 384.503 289.325 384.54 289.077 384.524Z" fill="#F4C2C9"/>
<path d="M132.966 565.634L164.077 463.783C164.53 462.426 165.402 461.247 166.566 460.416C167.73 459.584 169.128 459.142 170.558 459.153L354.632 464.338C355.348 464.346 356.053 464.518 356.692 464.842C357.331 465.166 357.887 465.632 358.316 466.205C358.746 466.778 359.038 467.442 359.17 468.146C359.302 468.85 359.27 469.575 359.076 470.264L322.965 594.523C322.529 596.04 321.556 597.347 320.227 598.199C318.898 599.051 317.304 599.39 315.743 599.153L137.04 571.56C136.346 571.523 135.67 571.327 135.064 570.987C134.458 570.647 133.938 570.173 133.544 569.6C133.151 569.028 132.894 568.372 132.794 567.685C132.693 566.997 132.752 566.296 132.966 565.634Z" fill="#1A2C6A"/>
<path d="M131.299 570.82L24.2627 580.82L207.781 626.005C212.218 627.118 216.862 627.118 221.299 626.005L320.929 600.264L131.299 570.82Z" fill="#63737A"/>
<path d="M207.965 626.005L24.4473 580.82C24.4596 582.513 25.0282 584.155 26.0655 585.494C27.1028 586.832 28.5513 587.793 30.188 588.227L203.151 634.153C210.452 636.068 218.139 635.94 225.373 633.782L316.113 607.116C317.633 606.679 318.965 605.752 319.903 604.479C320.841 603.207 321.331 601.659 321.298 600.079L221.669 625.82C217.196 627.081 212.471 627.145 207.965 626.005Z" fill="#1A2C6A"/>
<path d="M253.892 481.746L240.929 525.82C240.739 526.357 240.388 526.823 239.924 527.154C239.461 527.486 238.906 527.666 238.336 527.672L165.559 521.375C165.192 521.347 164.835 521.238 164.515 521.057C164.195 520.875 163.919 520.625 163.707 520.324C163.494 520.024 163.351 519.68 163.287 519.317C163.223 518.955 163.24 518.582 163.336 518.227L175.559 477.857C175.709 477.331 176.024 476.868 176.457 476.534C176.891 476.201 177.419 476.016 177.966 476.005L251.484 478.598C251.864 478.609 252.236 478.705 252.573 478.879C252.911 479.052 253.206 479.298 253.436 479.6C253.667 479.901 253.827 480.25 253.906 480.621C253.985 480.993 253.98 481.377 253.892 481.746Z" fill="white"/>
<path d="M240.003 489.709L231.855 516.19L175.188 512.116L177.226 506.19L198.151 496.931L210.003 506.19L240.003 489.709Z" fill="#F4C2C9"/>
<path d="M197.595 543.783L192.225 560.449C192.035 561.012 191.651 561.488 191.142 561.793C190.634 562.099 190.033 562.213 189.447 562.116L154.447 557.486C154.088 557.452 153.741 557.338 153.433 557.15C153.124 556.963 152.862 556.709 152.666 556.406C152.47 556.103 152.345 555.759 152.301 555.401C152.256 555.043 152.294 554.68 152.41 554.338L157.04 538.783C157.23 538.245 157.58 537.779 158.044 537.448C158.508 537.117 159.063 536.936 159.632 536.931L195.373 540.635C195.756 540.619 196.136 540.7 196.48 540.87C196.823 541.039 197.119 541.292 197.34 541.605C197.56 541.918 197.7 542.281 197.744 542.661C197.789 543.042 197.738 543.427 197.595 543.783Z" fill="#FFE779"/>
<path d="M252.411 549.338L246.485 567.671C246.295 568.234 245.911 568.71 245.402 569.016C244.893 569.321 244.292 569.435 243.707 569.338L210.374 564.894C210.001 564.847 209.644 564.717 209.329 564.513C209.014 564.309 208.749 564.037 208.553 563.717C208.358 563.397 208.237 563.037 208.199 562.663C208.162 562.29 208.209 561.913 208.337 561.56L213.892 544.338C214.061 543.801 214.413 543.34 214.887 543.036C215.36 542.731 215.926 542.602 216.485 542.671L250.188 546.005C250.577 546.026 250.955 546.137 251.293 546.329C251.631 546.522 251.919 546.791 252.135 547.114C252.351 547.438 252.488 547.808 252.536 548.194C252.584 548.58 252.541 548.972 252.411 549.338Z" fill="#198E9F"/>
<path d="M315.373 555.634L309.077 576.005C308.887 576.567 308.503 577.044 307.994 577.349C307.485 577.654 306.884 577.769 306.299 577.671L266.114 572.301C265.742 572.254 265.385 572.124 265.069 571.92C264.754 571.717 264.489 571.445 264.294 571.124C264.098 570.804 263.977 570.444 263.939 570.071C263.902 569.697 263.949 569.32 264.077 568.968L270.188 549.894C270.357 549.357 270.709 548.896 271.182 548.591C271.656 548.287 272.222 548.158 272.78 548.227L312.966 552.301C313.364 552.309 313.755 552.41 314.108 552.595C314.462 552.78 314.767 553.044 315 553.368C315.234 553.691 315.389 554.064 315.454 554.457C315.518 554.851 315.491 555.254 315.373 555.634Z" fill="#F4C2C9"/>
<path d="M293.707 490.635C292.978 493.397 291.338 495.832 289.052 497.546C286.767 499.26 283.97 500.153 281.114 500.079C275.744 499.709 272.966 495.079 274.447 489.894C275.266 487.423 276.824 485.262 278.911 483.706C280.997 482.149 283.512 481.271 286.114 481.19C287.292 481.143 288.464 481.372 289.536 481.86C290.609 482.348 291.552 483.08 292.291 483.999C293.029 484.917 293.542 485.996 293.788 487.148C294.034 488.301 294.006 489.495 293.707 490.635Z" fill="#FFE779"/>
<path d="M306.854 484.524L333.891 485.449" stroke="#63737A" stroke-width="1.8" stroke-linecap="round" stroke-linejoin="round"/>
<path d="M264.632 519.709L322.595 523.783" stroke="#63737A" stroke-width="1.8" stroke-linecap="round" stroke-linejoin="round"/>
<path d="M303.706 495.449L330.743 496.561" stroke="#63737A" stroke-width="1.8" stroke-linecap="round" stroke-linejoin="round"/>
<path d="M442.039 218.783L301.299 229.709C300.458 229.764 299.615 229.638 298.826 229.341C298.038 229.044 297.322 228.582 296.726 227.986C296.13 227.39 295.668 226.674 295.371 225.886C295.074 225.097 294.948 224.254 295.003 223.413L300.928 142.117C301.096 139.76 302.072 137.533 303.691 135.812C305.311 134.091 307.475 132.982 309.817 132.673L452.78 113.228C453.649 113.12 454.532 113.205 455.365 113.478C456.198 113.75 456.96 114.204 457.597 114.805C458.234 115.407 458.73 116.142 459.05 116.958C459.37 117.774 459.505 118.65 459.447 119.524L451.484 209.524C451.217 211.919 450.131 214.148 448.41 215.835C446.689 217.522 444.439 218.564 442.039 218.783Z" fill="#198E9F"/>
<path d="M437.409 215.821L296.669 226.746C295.828 226.801 294.985 226.675 294.197 226.378C293.408 226.081 292.692 225.619 292.096 225.023C291.5 224.427 291.038 223.711 290.741 222.923C290.444 222.134 290.318 221.291 290.373 220.45L296.299 139.154C296.466 136.797 297.442 134.57 299.061 132.849C300.681 131.128 302.845 130.019 305.188 129.71L448.15 110.265C449.02 110.157 449.902 110.242 450.735 110.515C451.568 110.787 452.33 111.241 452.967 111.842C453.604 112.444 454.1 113.179 454.42 113.995C454.74 114.811 454.875 115.687 454.817 116.561L446.854 206.561C446.65 208.98 445.585 211.246 443.851 212.945C442.118 214.644 439.832 215.665 437.409 215.821Z" fill="#198F9F"/>
<path d="M343.706 161.376C343.445 164.143 342.263 166.742 340.349 168.756C338.435 170.771 335.9 172.085 333.15 172.487C331.946 172.645 330.721 172.524 329.57 172.133C328.42 171.742 327.375 171.092 326.516 170.233C325.657 169.374 325.007 168.329 324.616 167.178C324.225 166.028 324.104 164.803 324.262 163.598C324.482 160.848 325.627 158.252 327.51 156.235C329.393 154.217 331.903 152.897 334.632 152.487C340.187 151.747 344.076 155.821 343.706 161.376Z" fill="#1A2C6A"/>
<path d="M340.928 196.746L321.669 198.598C320.703 198.702 319.726 198.586 318.812 198.257C317.899 197.928 317.071 197.395 316.393 196.699C315.716 196.004 315.205 195.163 314.9 194.241C314.594 193.318 314.503 192.339 314.632 191.376C315.108 186.466 317.204 181.853 320.591 178.266C323.977 174.678 328.461 172.319 333.336 171.561C342.965 170.45 350.373 177.858 349.447 188.043C349.211 190.24 348.243 192.293 346.697 193.872C345.152 195.451 343.12 196.464 340.928 196.746Z" fill="#1A2C6A"/>
<path d="M366.483 151.376L426.483 144.339" stroke="#63737A" stroke-width="1.8" stroke-linecap="round" stroke-linejoin="round"/>
<path d="M365.002 167.858L425.002 161.376" stroke="#63737A" stroke-width="1.8" stroke-linecap="round" stroke-linejoin="round"/>
<path d="M363.706 184.339L399.817 180.821" stroke="#63737A" stroke-width="1.8" stroke-linecap="round" stroke-linejoin="round"/>
<path d="M303.518 18.3394C296.296 11.1172 286.111 6.85796 273.518 5.37649C265.159 4.14326 256.62 5.2988 248.889 8.7098C240 12.5987 233.333 19.4505 228.333 29.4505L220 32.969L224.815 37.969L246.481 41.8579C247.974 37.17 250.579 32.9129 254.074 29.4505C257.778 25.7468 262.778 24.2653 269.074 25.1913C275.37 26.1172 279.629 28.5246 281.296 32.4135C282.962 36.3491 283.159 40.7521 281.852 44.8208C280.728 48.6242 278.544 52.0287 275.555 54.6356C273.678 56.3082 271.554 57.6823 269.259 58.7097L261.852 62.4134C254.629 65.9319 249.815 69.2652 247.407 72.5985C245.019 76.3012 243.092 80.2812 241.667 84.4504L234.259 86.8577L239.074 91.8578L261.296 97.9688C262.153 94.394 263.525 90.963 265.37 87.7837C267.598 84.3136 270.827 81.6015 274.629 80.0059L282.222 76.4874C288.162 73.9944 293.762 70.7588 298.889 66.8578C304.583 62.0136 308.548 55.4489 310.185 48.1542C313.333 35.932 311.111 25.932 303.518 18.3394Z" fill="#F9A01E"/>
<path d="M246.852 105.191L246.112 105.006C244.506 104.593 242.834 104.507 241.194 104.751C239.554 104.996 237.98 105.566 236.564 106.429C235.149 107.293 233.92 108.431 232.952 109.776C231.984 111.122 231.295 112.649 230.927 114.265C229.883 117.535 230.125 121.079 231.605 124.176C233.085 127.273 235.69 129.689 238.889 130.932L239.63 131.302C246.297 133.524 253.334 129.45 255.371 122.043C257.408 114.635 253.519 107.043 246.852 105.191Z" fill="#F9A01E"/>
<path d="M244.259 3.7098C252.04 0.477409 260.529 -0.671457 268.889 0.376465C281.481 1.85794 291.481 6.11719 298.889 13.3394C306.296 20.5616 308.703 30.9319 305.37 43.5245C303.685 50.7999 299.729 57.3504 294.074 62.2282C290.926 65.006 285.37 68.1541 277.407 71.8578L269.815 75.3763C266.012 76.9719 262.784 79.684 260.555 83.154C258.824 86.3874 257.457 89.8035 256.481 93.3392L234.259 87.2281C237.407 77.5985 240 71.3022 242.593 67.9689C245.185 64.6356 249.815 61.3022 257.037 57.7837L264.444 54.08C266.726 53.0289 268.847 51.657 270.741 50.006C273.827 47.4846 276.032 44.0475 277.037 40.1912C278.163 36.1001 277.968 31.7579 276.481 27.7838C275 23.8949 270.741 21.4875 264.259 20.5616C257.778 19.6357 252.963 21.1171 249.259 24.8208C245.689 28.2233 243.071 32.5008 241.667 37.2282L220 33.3393C225.185 18.3394 232.963 8.70978 244.259 3.7098ZM241.852 102.228L242.593 102.413C245.9 103.54 248.638 105.91 250.228 109.021C251.818 112.132 252.135 115.74 251.111 119.08C249.074 126.487 241.852 130.561 235.37 128.339L234.63 127.969C231.43 126.726 228.825 124.31 227.345 121.213C225.866 118.117 225.623 114.572 226.667 111.302C227.479 108.087 229.535 105.325 232.382 103.624C235.229 101.922 238.635 101.42 241.852 102.228Z" fill="#FFE779"/>
<path d="M9.26314 203.969H80.3741L87.5963 208.598C88.1247 208.94 88.7359 209.132 89.3646 209.153C89.9934 209.175 90.6163 209.026 91.1672 208.722C91.7181 208.418 92.1763 207.971 92.4931 207.427C92.81 206.884 92.9736 206.265 92.9667 205.635V155.45C92.9667 152.995 91.9911 150.64 90.2547 148.903C88.5182 147.167 86.1631 146.191 83.7074 146.191H9.26314C6.80744 146.191 4.45234 147.167 2.71589 148.903C0.979451 150.64 0.00390625 152.995 0.00390625 155.45V194.71C0.00390625 197.165 0.979451 199.52 2.71589 201.257C4.45234 202.993 6.80744 203.969 9.26314 203.969Z" fill="#F9A01E"/>
<path d="M70.0034 162.673H22.5962" stroke="#1A2C6A" stroke-width="1.8" stroke-linecap="round" stroke-linejoin="round"/>
<path d="M70.0034 175.635H22.5962" stroke="#1A2C6A" stroke-width="1.8" stroke-linecap="round" stroke-linejoin="round"/>
<path d="M70.0039 188.598H42.7817" stroke="#1A2C6A" stroke-width="1.8" stroke-linecap="round" stroke-linejoin="round"/>
</svg>
