<svg width="172" height="184" viewBox="0 0 172 184" fill="none" xmlns="http://www.w3.org/2000/svg">
<g clip-path="url(#clip0_24_32454)">
<path d="M85.6682 175.101C85.7018 175.17 85.7689 175.205 85.836 175.205H87.044C87.1446 175.205 87.2453 175.101 87.2453 174.997L87.1782 167.176V166.968C87.1782 166.934 87.1446 166.865 87.1111 166.83C87.0775 166.795 87.044 166.761 86.9769 166.761L85.7353 166.795C85.6346 166.795 85.534 166.899 85.534 167.003L85.5675 172.055L82.5475 167.038L82.4804 166.934C82.4469 166.865 82.3798 166.83 82.3126 166.83H81.1047C81.004 166.83 80.9033 166.934 80.9033 167.038L80.9704 174.824V175.066C80.9704 175.101 81.004 175.17 81.0375 175.205C81.0711 175.239 81.1046 175.274 81.1718 175.274L82.4133 175.239C82.514 175.239 82.6146 175.135 82.6146 175.031L82.5811 170.014L85.6011 175.031L85.6682 175.101Z" fill="white"/>
<path d="M98.5537 165.342L97.5134 165.549C97.4463 165.549 97.3792 165.619 97.3457 165.722L96.1041 173.82L96.0706 174.132C96.0706 174.201 96.0706 174.27 96.1377 174.305C96.1712 174.339 96.2048 174.374 96.2719 174.374H96.3054L97.547 174.132C97.6141 174.132 97.6812 174.062 97.7148 173.959L97.9832 171.882L100.399 171.432L101.439 173.267C101.473 173.336 101.574 173.37 101.641 173.37L102.849 173.163C102.916 173.163 102.949 173.128 102.983 173.059C103.017 172.99 103.017 172.92 102.983 172.886L98.755 165.446C98.6879 165.376 98.6208 165.342 98.5537 165.342ZM98.1846 170.256L98.4866 168.145L99.5603 169.979L98.1846 170.256Z" fill="white"/>
<path d="M58.0521 169.944C58.0856 169.979 58.1192 170.048 58.1527 170.048L59.2936 170.567C59.3272 170.567 59.3272 170.567 59.3607 170.567C59.4278 170.567 59.4949 170.533 59.5285 170.464L62.6492 163.093C62.6827 163.058 62.6827 162.989 62.6492 162.954C62.6156 162.919 62.582 162.85 62.5485 162.85L61.5754 162.435L61.4076 162.366C61.3741 162.331 61.3069 162.331 61.2734 162.366C61.2398 162.4 61.1727 162.435 61.1727 162.47L59.9647 165.307L57.1461 164.061L58.3541 161.224C58.3876 161.12 58.3541 161.016 58.2534 160.982L57.2803 160.532L57.1125 160.462C57.079 160.428 57.0118 160.428 56.9783 160.462C56.9447 160.497 56.8776 160.532 56.8776 160.566L53.757 167.937C53.7234 168.041 53.757 168.145 53.8576 168.18L54.9985 168.699C55.0321 168.733 55.0992 168.733 55.1327 168.699C55.1663 168.664 55.2334 168.629 55.2334 168.595L56.5421 165.446L59.3607 166.691L58.0521 169.841C58.0185 169.841 58.0185 169.91 58.0521 169.944Z" fill="white"/>
<path d="M67.8168 166.207C67.9174 166.242 68.0181 166.172 68.0517 166.069L68.3872 164.927C68.3872 164.892 68.3872 164.823 68.3872 164.788C68.3537 164.754 68.3201 164.719 68.2865 164.684L65.7363 163.923C65.6357 163.888 65.535 163.958 65.5015 164.061L65.1659 165.203C65.1659 165.238 65.1659 165.307 65.1659 165.342C65.1995 165.377 65.233 165.411 65.2666 165.446L65.7699 165.584L64.327 170.637L63.8237 170.498C63.7901 170.464 63.723 170.498 63.6895 170.498C63.6559 170.533 63.6224 170.567 63.5888 170.602L63.2868 171.744C63.2532 171.848 63.3204 171.952 63.421 171.986L65.7699 172.713L65.9712 172.782C66.0048 172.782 66.0048 172.782 66.0383 172.782C66.1055 172.782 66.2061 172.713 66.2061 172.644L66.5417 171.502C66.5752 171.398 66.5081 171.294 66.4074 171.259L65.9041 171.086L67.347 166.034L67.8168 166.207Z" fill="white"/>
<path d="M74.5615 165.896C73.8904 165.792 73.2193 165.896 72.6488 166.173C72.0448 166.45 71.575 166.934 71.1724 167.522C70.7697 168.145 70.5348 168.837 70.4006 169.668C70.2664 170.464 70.2999 171.225 70.5013 171.917C70.7026 172.609 71.0382 173.198 71.5079 173.682C71.9777 174.132 72.5817 174.444 73.2528 174.547C73.4541 174.582 73.6219 174.582 73.8233 174.582C74.293 174.582 74.7628 174.478 75.199 174.271C75.803 173.994 76.2728 173.509 76.6755 172.921C77.0781 172.333 77.313 171.606 77.4472 170.81C77.5815 169.979 77.5143 169.218 77.3466 168.526C77.1452 167.799 76.8097 167.211 76.3399 166.761C75.8366 166.311 75.2326 166.034 74.5615 165.896ZM75.803 170.533C75.7359 171.087 75.5681 171.571 75.2997 171.952C75.0648 172.333 74.7964 172.609 74.4608 172.782C74.1252 172.956 73.8233 172.99 73.4541 172.956C73.1186 172.921 72.8166 172.748 72.5481 172.471C72.2797 172.194 72.1119 171.848 72.0113 171.433C71.9106 170.983 71.877 170.464 71.9777 169.91C72.0448 169.357 72.2126 168.872 72.4475 168.491C72.6824 168.111 72.9508 167.834 73.2864 167.626C73.5213 167.488 73.7561 167.419 74.0246 167.419C74.1253 167.419 74.1924 167.419 74.293 167.453C74.6286 167.522 74.9306 167.661 75.199 167.938C75.4675 168.215 75.6352 168.561 75.7359 169.01C75.8701 169.495 75.9037 170.014 75.803 170.533Z" fill="white"/>
<path d="M50.2338 158.317C50.5022 158.282 50.7707 158.386 51.1062 158.594C51.4082 158.767 51.6431 159.009 51.7774 159.251C51.9116 159.493 52.0122 159.839 52.0458 160.255L52.0794 160.462C52.0794 160.532 52.1129 160.566 52.1465 160.601C52.18 160.635 52.2471 160.635 52.2807 160.635L53.388 160.462L53.5558 160.393C53.6565 160.359 53.69 160.289 53.69 160.185L53.6565 160.012C53.5893 159.39 53.388 158.87 53.086 158.386C52.784 157.936 52.3814 157.555 51.878 157.209C51.1734 156.76 50.4687 156.587 49.8647 156.69C49.1936 156.794 48.6567 157.175 48.2876 157.832C47.65 158.94 47.952 160.151 49.2271 161.466C49.6298 161.881 49.8647 162.262 49.9654 162.573C50.0325 162.816 49.9989 163.023 49.8647 163.3C49.7305 163.542 49.5627 163.681 49.3278 163.715C49.0929 163.75 48.7909 163.681 48.4218 163.438C48.0863 163.231 47.8178 162.954 47.65 162.573C47.4487 162.193 47.348 161.812 47.348 161.327V161.085C47.348 161.016 47.3145 160.981 47.2809 160.947C47.2474 160.912 47.1803 160.878 47.1132 160.912L45.9387 161.12L45.7709 161.189C45.7038 161.224 45.6367 161.293 45.6367 161.397V161.57C45.7038 162.227 45.8716 162.85 46.2072 163.404C46.5427 163.992 46.9454 164.442 47.4823 164.753C47.952 165.065 48.4218 165.238 48.8916 165.307C49.0258 165.307 49.1265 165.342 49.2607 165.342C49.5963 165.342 49.9318 165.273 50.2338 165.134C50.6365 164.926 50.972 164.65 51.2069 164.2C51.6096 163.542 51.7102 162.85 51.5089 162.227C51.3076 161.639 50.9385 161.016 50.368 160.393C49.9318 159.943 49.6969 159.597 49.5963 159.355C49.5291 159.147 49.5627 158.94 49.6969 158.732C49.8647 158.421 49.9989 158.317 50.2338 158.317Z" fill="white"/>
<path d="M130.599 158.213C130.297 158.455 129.928 158.594 129.559 158.628C129.123 158.663 128.754 158.594 128.351 158.455L128.15 158.386C128.083 158.351 128.049 158.386 127.982 158.386C127.948 158.421 127.915 158.455 127.881 158.524L127.646 159.736V159.909C127.646 160.012 127.68 160.082 127.781 160.116L127.948 160.186C128.351 160.324 128.754 160.359 129.156 160.359C129.358 160.359 129.593 160.324 129.827 160.289C130.465 160.186 131.035 159.943 131.505 159.563C131.941 159.217 132.277 158.836 132.512 158.421C132.747 157.971 132.847 157.521 132.847 157.071C132.814 156.621 132.68 156.171 132.378 155.791C131.908 155.168 131.337 154.822 130.7 154.787C130.129 154.718 129.425 154.891 128.619 155.202C128.116 155.41 127.713 155.548 127.378 155.548C127.143 155.548 126.975 155.445 126.841 155.237C126.707 155.029 126.673 154.856 126.74 154.614C126.807 154.337 127.009 154.13 127.277 153.887C127.579 153.68 127.848 153.541 128.116 153.507C128.418 153.472 128.754 153.507 129.123 153.61L129.324 153.68C129.358 153.714 129.425 153.68 129.492 153.68C129.525 153.645 129.559 153.61 129.593 153.541L129.827 152.399V152.192C129.827 152.088 129.76 152.019 129.693 151.984L129.525 151.949C128.955 151.811 128.385 151.776 127.881 151.88C127.378 151.984 126.875 152.226 126.371 152.607C125.7 153.126 125.297 153.714 125.13 154.337C124.962 154.995 125.13 155.652 125.566 156.275C126.069 156.967 127.109 157.625 129.156 156.725C129.693 156.517 130.096 156.414 130.431 156.414C130.666 156.414 130.868 156.552 131.035 156.794C131.203 157.002 131.237 157.209 131.203 157.452C131.103 157.729 130.935 157.971 130.599 158.213Z" fill="white"/>
<path d="M112.11 162.885L114.056 161.985L116.674 167.868L116.774 168.076C116.808 168.145 116.875 168.18 116.942 168.18C116.976 168.18 117.009 168.18 117.009 168.145L117.949 167.695L118.116 167.626C118.15 167.591 118.184 167.557 118.217 167.522C118.251 167.487 118.251 167.418 118.217 167.384L115.499 161.293L117.244 160.463L117.412 160.393C117.445 160.359 117.479 160.324 117.512 160.289C117.546 160.255 117.546 160.186 117.512 160.151L117.043 159.113C117.009 159.009 116.875 158.974 116.808 159.009L111.674 161.431L111.506 161.501C111.472 161.535 111.439 161.57 111.405 161.604C111.372 161.639 111.372 161.708 111.405 161.743L111.875 162.781C111.909 162.885 112.009 162.92 112.11 162.885Z" fill="white"/>
<path d="M122.479 163.785L123.049 164.823C123.083 164.858 123.116 164.892 123.15 164.927H123.183C123.217 164.927 123.25 164.927 123.284 164.892L125.566 163.474C125.666 163.404 125.7 163.301 125.633 163.197L125.062 162.159C125.029 162.124 124.995 162.089 124.962 162.055C124.928 162.055 124.861 162.055 124.827 162.089L124.391 162.366L121.807 157.833L122.244 157.556C122.344 157.487 122.378 157.383 122.311 157.279L121.74 156.241C121.707 156.206 121.673 156.172 121.64 156.137C121.606 156.137 121.539 156.137 121.505 156.172L119.224 157.591C119.19 157.625 119.157 157.66 119.123 157.694C119.123 157.729 119.123 157.798 119.157 157.833L119.761 158.836C119.828 158.94 119.928 158.94 120.029 158.906L120.465 158.629L123.083 163.162L122.646 163.439C122.445 163.577 122.411 163.681 122.479 163.785Z" fill="white"/>
<path d="M110.197 170.706L110.265 170.775C110.298 170.81 110.399 170.844 110.432 170.81L111.741 170.395C111.808 170.36 111.842 170.325 111.875 170.256C111.875 170.187 111.875 170.118 111.808 170.083L109.057 167.488C109.359 167.211 109.56 166.899 109.694 166.553C109.895 166.034 109.929 165.481 109.761 164.892C109.627 164.442 109.392 164.062 109.057 163.75C108.721 163.439 108.352 163.231 107.882 163.162C107.446 163.093 106.976 163.127 106.506 163.266L104.157 164.027L103.956 164.096C103.923 164.096 103.855 164.131 103.855 164.2C103.822 164.235 103.822 164.304 103.855 164.339L106.137 171.779L106.204 171.986C106.238 172.056 106.305 172.125 106.372 172.125C106.406 172.125 106.406 172.125 106.439 172.125L107.614 171.744C107.647 171.744 107.714 171.71 107.714 171.64C107.748 171.606 107.748 171.537 107.714 171.502L106.808 168.491L107.58 168.249L110.197 170.706ZM106.406 167.038L105.835 165.1L106.909 164.754C107.245 164.65 107.547 164.65 107.748 164.754C107.983 164.858 108.117 165.065 108.218 165.377C108.318 165.688 108.285 165.93 108.184 166.173C108.083 166.38 107.849 166.553 107.479 166.657L106.406 167.038Z" fill="white"/>
<path d="M137.444 153.645L137.612 153.818C137.646 153.853 137.713 153.887 137.746 153.887C137.78 153.887 137.847 153.853 137.88 153.818L138.786 152.953C138.854 152.884 138.854 152.745 138.786 152.676L134.324 147.797L135.867 146.274C135.934 146.205 135.934 146.066 135.867 145.997L135.095 145.167C135.028 145.097 134.894 145.097 134.827 145.167L130.7 149.216L130.565 149.354C130.532 149.389 130.498 149.423 130.498 149.492C130.498 149.527 130.532 149.596 130.565 149.631L131.337 150.461C131.404 150.531 131.539 150.531 131.606 150.461L133.149 148.973L137.444 153.645Z" fill="white"/>
<path d="M72.8169 18.9256L73.9913 18.7525H74.1256C74.2262 18.7525 74.2933 18.6833 74.2933 18.5795L74.7967 14.3922C74.8302 14.1846 74.8302 14.0116 74.8638 13.8385C74.9309 14.0116 74.998 14.15 75.0651 14.323L76.508 18.0604L76.5751 18.1988C76.6087 18.268 76.7093 18.3373 76.7764 18.3373L77.9173 18.1642H78.0515C78.1522 18.1642 78.2193 18.095 78.2193 17.9912L79.226 10.0665L79.2595 9.82427C79.2595 9.75506 79.2595 9.68585 79.1924 9.65124C79.1589 9.61664 79.0918 9.58203 79.0246 9.58203L77.6153 9.78967C77.5147 9.78967 77.4811 9.85888 77.4475 9.96269L77.0113 14.0116L76.9778 14.323C76.9778 14.4614 76.9442 14.5652 76.9442 14.7037C76.8771 14.496 76.7764 14.2884 76.7093 14.0808L75.3336 10.4472L75.2664 10.3087C75.2329 10.2395 75.1322 10.1703 75.0651 10.2049L73.9242 10.378H73.7565C73.6558 10.378 73.5887 10.4472 73.5887 10.551L73.1189 14.6691C73.0853 14.9113 73.0518 15.1535 73.0518 15.3958C72.9511 15.1535 72.884 14.9113 72.7833 14.7037L71.3405 10.897C71.3069 10.8278 71.2062 10.7586 71.1391 10.7586L69.6963 10.9663C69.6291 10.9663 69.5956 11.0009 69.562 11.0701C69.5285 11.1047 69.5285 11.1739 69.562 11.2431L72.6156 18.7871C72.6491 18.8909 72.7162 18.9256 72.8169 18.9256Z" fill="white"/>
<path d="M88.4533 17.6107C88.4533 17.6453 88.4533 17.7145 88.4868 17.7491C88.5204 17.7837 88.5539 17.8183 88.621 17.8183L89.9968 17.8876C90.0975 17.8876 90.1981 17.8183 90.1981 17.7145L90.3324 14.427L93.0839 10.0321C93.1175 9.96286 93.1175 9.89365 93.0839 9.82444C93.0504 9.75523 92.9832 9.72062 92.9161 9.72062L91.4397 9.65141H91.339C91.2719 9.65141 91.2048 9.68601 91.1713 9.75523L89.829 12.1776C89.7284 12.3506 89.6613 12.4891 89.5941 12.6275C89.4935 12.3853 89.3928 12.143 89.2586 11.8662L88.319 9.72062L88.2855 9.6168C88.2519 9.54759 88.1848 9.51299 88.1177 9.51299L86.5406 9.44377C86.4735 9.40917 86.4064 9.47838 86.3728 9.54759C86.3393 9.6168 86.3393 9.68601 86.3728 9.75523L88.5875 14.3924L88.4533 17.4723V17.6107Z" fill="white"/>
<path d="M97.715 18.8909C97.9498 18.9255 98.1847 18.9601 98.3861 18.9601C100.332 18.9601 101.775 17.5413 102.144 15.2573C102.547 12.7657 101.372 10.8278 99.1914 10.4471C98.9565 10.4125 98.7552 10.3779 98.5203 10.3779C96.6076 10.3779 95.0976 11.8314 94.7285 14.0807C94.5272 15.2573 94.7285 16.3647 95.2318 17.2298C95.8358 18.1296 96.6747 18.7179 97.715 18.8909ZM96.5741 14.3922C96.809 12.9387 97.6143 12.039 98.5874 12.039C98.6881 12.039 98.7887 12.039 98.9229 12.0736C100.232 12.3158 100.601 13.7347 100.399 14.9805C100.265 15.8802 99.8625 16.6069 99.3256 17.0222C98.9565 17.2991 98.5203 17.4029 98.0505 17.3337C97.6143 17.2644 97.2116 17.0222 96.9767 16.6415C96.5741 16.0533 96.4398 15.2573 96.5741 14.3922Z" fill="white"/>
<path d="M116.573 16.1222C116.606 16.0876 116.606 16.0184 116.573 15.9838C116.539 15.9491 116.506 15.8799 116.472 15.8799L115.398 15.3955L115.231 15.3262C115.197 15.2916 115.13 15.2916 115.096 15.3262C115.063 15.3609 114.996 15.3955 114.996 15.4301L111.976 22.4896L111.909 22.6626C111.875 22.7665 111.909 22.8703 112.009 22.9049L113.251 23.4932C113.284 23.5278 113.351 23.5278 113.385 23.4932C113.419 23.4586 113.486 23.424 113.486 23.3894L114.627 20.7247L114.962 20.5517L115.6 24.3583V24.4621C115.6 24.5313 115.667 24.6006 115.7 24.6006L117.21 25.2927C117.244 25.2927 117.277 25.3273 117.277 25.3273C117.311 25.3273 117.345 25.3273 117.378 25.2927C117.445 25.2581 117.445 25.1888 117.445 25.1196L116.539 19.8942L120.331 18.0255C120.398 17.9909 120.432 17.9217 120.432 17.8525C120.432 17.7832 120.398 17.714 120.331 17.6794L118.754 16.9527C118.687 16.9181 118.653 16.9181 118.586 16.9527L115.533 18.5446L116.472 16.3298L116.573 16.1222Z" fill="white"/>
<path d="M110.768 16.0535C110.969 15.3613 110.902 14.7038 110.567 14.1847C110.198 13.5272 109.56 13.112 108.486 12.8005C107.815 12.5929 107.11 12.4199 106.607 12.3853H106.473C106.406 12.3853 106.305 12.4545 106.305 12.5237L104.191 19.7909L104.124 19.9639C104.124 19.9985 104.124 20.0677 104.124 20.1023C104.158 20.1369 104.191 20.1715 104.225 20.2061L105.533 20.6214C105.634 20.656 105.735 20.5868 105.768 20.483L106.607 17.5761L107.043 17.7145C107.681 17.9568 107.815 18.2336 107.748 19.1334C107.681 20.3445 107.647 20.8636 107.714 21.1405L107.748 21.2443C107.748 21.3135 107.815 21.3481 107.882 21.3827L109.292 21.8326C109.325 21.8326 109.325 21.8326 109.359 21.8326C109.392 21.8326 109.459 21.798 109.493 21.798C109.526 21.7634 109.56 21.6942 109.56 21.625L109.493 21.2443C109.426 20.9675 109.493 20.0677 109.526 19.2026C109.56 18.5797 109.493 18.0606 109.258 17.6799C109.996 17.4031 110.533 16.8494 110.768 16.0535ZM109.057 15.6382C108.889 16.2265 108.318 16.4687 107.614 16.2265L107.077 16.0535L107.614 14.1847C107.748 14.2194 107.916 14.254 108.117 14.3232C109.191 14.6692 109.157 15.2229 109.057 15.6382Z" fill="white"/>
<path d="M66.4747 13.5617C66.5753 13.5271 66.6424 13.4233 66.6089 13.3195L66.2733 12.1083C66.2733 12.0737 66.2398 12.0045 66.1727 12.0045C66.1391 11.9699 66.072 11.9699 66.0384 12.0045L62.0453 13.2157L61.8776 13.2849C61.7769 13.3195 61.7098 13.4233 61.7433 13.5271L63.8573 20.8981L63.9244 21.1058C63.9244 21.1404 63.958 21.2096 64.0251 21.2096C64.0587 21.2096 64.0922 21.2442 64.1258 21.2442C64.1593 21.2442 64.1593 21.2442 64.1929 21.2442L68.3538 19.9984L68.5215 19.9292C68.6222 19.8946 68.6893 19.7907 68.6558 19.6869L68.3202 18.4757C68.2867 18.3719 68.186 18.3027 68.0853 18.3373L65.2331 19.2024L64.7298 17.4376L67.0787 16.7108L67.2464 16.6416C67.3471 16.607 67.4142 16.5032 67.3807 16.3994L67.0451 15.1882C67.0451 15.1536 67.0115 15.0844 66.9444 15.0844C66.9109 15.0498 66.8438 15.0498 66.8102 15.0844L64.2936 15.8457L63.8909 14.3923L66.4075 13.6309L66.4747 13.5617Z" fill="white"/>
<path d="M53.7908 16.607L53.6902 16.5378C53.6231 16.5032 53.5559 16.5032 53.5224 16.5032L52.4151 16.9877L52.2473 17.0569C52.1466 17.0915 52.1131 17.2299 52.1466 17.2991L55.0995 24.3933L55.2002 24.6009C55.2337 24.6355 55.2673 24.6701 55.3008 24.7047C55.3344 24.7047 55.3344 24.7047 55.3679 24.7047C55.4015 24.7047 55.4015 24.7047 55.4351 24.7047L56.6431 24.1856C56.6766 24.151 56.7102 24.1164 56.7437 24.0818C56.7773 24.0472 56.7773 23.978 56.7437 23.9434L55.4351 20.7943C55.2337 20.3444 55.0659 19.9291 54.8982 19.5485C55.2337 19.7907 55.5357 20.033 55.8042 20.206L59.4953 22.836C59.5624 22.8706 59.6295 22.8706 59.663 22.8706L60.7033 22.4207L60.871 22.3515C60.9717 22.3169 61.0053 22.2131 60.9717 22.1093L58.0188 14.9805L57.9517 14.8075C57.9182 14.7729 57.8846 14.7383 57.851 14.7037C57.8175 14.6691 57.7504 14.6691 57.7168 14.7037L56.6766 15.1882L56.5088 15.2574C56.4082 15.292 56.3746 15.4304 56.4082 15.4996L57.6833 18.5795C57.8175 18.9256 57.9853 19.3062 58.1866 19.7215C57.9517 19.5485 57.6833 19.3408 57.4484 19.1678L53.7908 16.607Z" fill="white"/>
<path d="M41.2409 160.151L42.214 160.947C42.2475 160.982 42.2811 160.982 42.3146 160.982C42.3482 160.982 42.3482 160.982 42.3817 160.982C42.4489 160.947 42.4824 160.913 42.516 160.844L45.0662 152.711C45.0997 152.642 45.0662 152.538 44.9991 152.504L44.1602 151.846C44.0931 151.812 44.026 151.777 43.9589 151.846L37.2142 156.276L36.9793 156.414C36.9122 156.449 36.9122 156.518 36.8787 156.552C36.8787 156.622 36.9122 156.691 36.9458 156.725L37.9524 157.521C38.0195 157.556 38.1202 157.591 38.1873 157.521L39.8651 156.345L41.8113 157.902L41.1738 159.909C41.1738 160.013 41.1738 160.117 41.2409 160.151ZM41.2073 155.48L42.9522 154.338L42.3146 156.379L41.2073 155.48Z" fill="white"/>
<path d="M39.7645 150.046L39.8987 150.185C39.9658 150.254 40.1 150.254 40.1671 150.185L40.9389 149.354C41.006 149.285 41.006 149.147 40.9389 149.077L37.8518 146.067L37.7176 145.928C37.6505 145.859 37.5162 145.859 37.4491 145.928L32.248 151.638L32.1138 151.777C32.0467 151.846 32.0467 151.984 32.1138 152.054L33.0198 152.919C33.0534 152.953 33.0869 152.988 33.154 152.988C33.1876 152.988 33.2547 152.953 33.2883 152.919L35.5029 150.462L36.9458 151.881L37.08 152.019C37.1471 152.088 37.2813 152.088 37.3485 152.019L38.0867 151.188C38.1202 151.154 38.1538 151.085 38.1538 151.05C38.1538 151.015 38.1202 150.946 38.0867 150.912L36.5096 149.354L37.7176 148.039L39.7645 150.046Z" fill="white"/>
<path d="M1.9508 67.8233C3.05813 68.1694 4.16546 67.5465 4.53457 66.4391C15.6414 29.6187 48.1231 4.84108 85.5038 4.63345C123.958 4.84108 156.474 29.6187 167.58 66.4391C167.916 67.5465 169.057 68.1694 170.164 67.8233C170.701 67.6503 171.137 67.2696 171.372 66.7852C171.641 66.2661 171.674 65.7124 171.506 65.1587C159.896 26.6772 126.005 0.757615 85.8729 0.376953C85.7387 0.376953 85.638 0.376953 85.5038 0.376953C85.3696 0.376953 85.2354 0.376953 85.1347 0.376953C46.1097 0.757615 12.2188 26.6772 0.60858 65.1587C0.440803 65.7124 0.507913 66.2661 0.742801 66.7852C1.01124 67.2696 1.44747 67.6503 1.9508 67.8233Z" fill="white"/>
<path d="M169.859 97.8958L169.993 97.8266C170.731 97.3767 171.033 96.5116 170.731 95.6811C170.497 94.989 169.758 94.2968 168.517 94.6775C166.738 95.3696 164.792 96.0963 162.712 96.8577C160.967 97.5152 159.356 98.2073 157.88 98.934C157.309 98.2073 156.605 97.4806 155.833 96.8231C154.725 95.8887 153.685 95.1966 152.712 94.7121L152.679 94.6775L152.612 94.6429C152.108 94.4353 151.571 94.4699 151.034 94.8159C150.229 95.4042 149.189 95.9233 147.947 96.4078C146.639 96.9269 145.229 97.3767 143.753 97.7574C142.276 98.1381 140.834 98.4495 139.391 98.6918C137.377 99.0032 135.767 99.0724 134.726 99.0032C134.827 98.7956 134.894 98.5879 134.894 98.3457C134.961 97.446 134.458 96.6846 133.653 96.5462C133.451 96.5116 133.25 96.4424 133.082 96.3732C133.25 96.2694 133.418 96.1656 133.653 96.0617C134.055 95.9233 134.492 95.7849 134.961 95.6811C135.431 95.5773 135.867 95.5426 136.304 95.5426C137.277 95.5426 137.948 94.8159 137.948 93.7778C137.948 92.7396 137.277 92.0129 136.304 92.0129C135.599 92.0129 134.861 92.1167 134.122 92.2897C133.351 92.4628 132.646 92.7396 132.042 93.0856C131.371 93.4317 130.834 93.8816 130.364 94.3661C130.163 94.5737 129.995 94.8159 129.861 95.0928C127.445 96.304 125.062 97.2037 122.781 97.792C120.264 98.4495 118.318 98.7956 117.009 98.7956C116.472 98.7956 116.237 98.5879 116.103 98.4495C115.734 97.9996 115.432 97.5498 115.231 97.2037C114.996 96.7538 114.727 96.2694 114.425 95.7849C113.922 95.0236 113.184 94.6083 112.345 94.6083C111.473 94.6083 110.634 94.8851 109.761 95.4042L111.036 88.1716C114.056 87.8602 117.244 87.618 120.432 87.4449C121.069 87.5141 121.506 87.2719 121.774 87.0297C122.143 86.7182 122.311 86.2337 122.311 85.68C122.311 84.6073 121.573 83.8459 120.465 83.8459C115.935 84.019 111.573 84.365 107.547 84.8841C104.057 85.334 100.533 85.9223 97.0773 86.6144C97.0437 86.3375 96.9431 86.1299 96.8424 85.9915C96.6746 85.7146 96.3055 85.3686 95.6679 85.2648C94.7619 85.1264 93.9902 85.6108 93.6882 86.4414C93.554 86.7528 93.4868 87.0643 93.4533 87.3411C92.2117 87.618 90.9366 87.8948 89.6951 88.1716L85.1986 89.2098C84.494 89.3136 84.1249 89.6597 83.9571 89.9365C83.7558 90.2134 83.588 90.7325 83.7558 91.4246C83.9235 92.1167 84.3262 92.4628 84.6282 92.6358C85.0644 92.878 85.5342 92.878 86.004 92.705C87.514 92.3243 88.9569 91.9783 90.2991 91.7014C91.138 91.5284 91.9769 91.3208 92.8157 91.1477C92.7151 92.0821 92.6815 92.9818 92.6815 93.847C92.6815 94.2276 92.6815 94.6083 92.7151 95.0236C90.8024 95.5426 88.5878 95.8195 86.1047 95.8195C85.1651 95.8195 84.2255 95.7849 83.286 95.7157C82.5478 95.6465 81.8096 95.5426 81.1049 95.4042C81.0713 95.2658 81.0378 95.1274 80.9707 94.989C80.5009 93.8816 79.5613 93.6739 78.7225 93.9508C78.2191 94.1584 77.7493 94.5045 77.3131 94.9543C76.5078 95.3004 75.6689 95.5773 74.9307 95.8541C72.3134 96.8231 70.6692 97.4114 70.7027 98.7956C70.4007 98.8302 69.7967 98.8302 68.5216 98.6572C67.9847 98.5879 67.5485 98.5187 67.1794 98.5187C66.0721 98.5187 65.1996 98.3111 64.5621 97.8958C64.3607 97.7574 64.193 97.6536 64.0587 97.5152C64.4278 97.3075 64.7634 97.0653 65.0989 96.8577C66.1392 96.2694 67.1123 95.6811 67.9176 95.0582C69.394 93.9162 70.6356 92.7396 71.6423 91.5284C72.6825 90.3172 73.4542 89.0714 73.9576 87.8256C74.4945 86.5798 74.7629 85.4032 74.7629 84.3996C74.7629 83.1884 74.4274 82.1849 73.7898 81.4235C73.0851 80.593 72.0785 80.1777 70.8034 80.1777C69.5283 80.1777 68.186 80.593 66.8438 81.4235C65.5687 82.2195 64.3943 83.2577 63.3205 84.5727C62.2467 85.8877 61.3407 87.4103 60.6696 89.1406C59.965 90.9055 59.6294 92.7742 59.6294 94.7121C59.6294 95.162 59.663 95.6465 59.7301 96.0963C53.0861 99.8337 45.7375 102.637 37.9191 104.471C32.6509 105.717 27.584 106.34 22.8191 106.34C17.2154 106.305 11.6452 105.682 9.1956 100.733C6.14206 94.6429 8.5245 86.2337 16.2422 75.7136C22.0138 67.8581 30.2013 61.4561 39.9324 57.2342C52.4486 51.8011 61.0723 52.1818 66.3069 58.3416C66.9109 59.0337 67.8169 59.1029 68.4881 58.48C69.1256 57.8917 69.4276 56.819 68.6894 55.9538C63.3541 49.621 54.5961 48.306 43.3886 52.1818C39.4962 53.5314 35.7715 55.2271 32.3153 57.1996C43.8584 38.0627 63.9581 26.4006 86.0711 26.4006C110.231 26.4006 131.941 40.2775 142.78 62.6673C143.115 63.394 143.854 63.8439 144.625 63.8439C144.961 63.8439 145.263 63.7747 145.531 63.6017C146.538 63.0826 146.974 61.8022 146.471 60.764C134.693 36.9899 111.54 22.1787 85.8362 22.1787C60.0992 22.1787 36.9795 36.9553 25.4364 60.764C25.3022 61.0408 25.2351 61.3869 25.2351 61.6983C21.8124 64.2592 18.7253 67.1314 16.0409 70.3151C10.068 77.3401 3.22274 87.791 4.66562 97.792C6.14206 108.001 15.4705 109.835 22.6513 109.835C25.4029 109.835 27.8524 109.558 29.396 109.385C40.335 108.174 51.1734 104.679 60.8039 99.3147C60.9381 99.4877 61.0723 99.6953 61.2065 99.8684C62.4481 101.322 64.3943 102.083 66.9781 102.083C68.4881 102.083 70.2665 101.772 72.2798 101.114C73.2194 100.803 74.226 100.422 75.2998 99.903C75.3334 100.284 75.4005 100.63 75.5347 100.941C75.7025 101.46 76.3065 102.637 78.0513 102.637C79.36 102.637 80.4338 101.979 81.0378 100.733C81.3062 100.214 81.474 99.6953 81.6082 99.1762C82.0109 99.2108 82.4807 99.2454 82.9169 99.2801C83.8564 99.3493 84.8631 99.3493 85.9033 99.3493C88.6213 99.3493 91.0373 99.0724 93.1177 98.5533C93.3526 99.3147 93.6546 100.041 94.0573 100.699C94.6613 101.737 95.5002 102.602 96.5404 103.329C97.5806 104.056 98.8893 104.506 100.399 104.679C101.439 104.817 102.245 104.229 102.446 103.26C102.547 102.775 102.446 102.256 102.178 101.875C101.976 101.599 101.574 101.218 100.835 101.149C99.8624 101.01 99.057 100.733 98.4866 100.318C97.8826 99.903 97.3793 99.3493 97.0102 98.7264C96.6411 98.1035 96.3726 97.3767 96.2048 96.5462C96.0371 95.6811 95.9699 94.7813 95.9699 93.847C95.9699 93.1549 96.0035 92.4627 96.1042 91.736L96.3055 90.3518C100.03 89.6251 103.755 89.0022 107.345 88.5177L105.097 101.08C104.929 101.979 105.399 102.775 106.305 103.017C107.077 103.225 107.849 102.914 108.184 102.291C109.258 100.699 110.164 99.5569 110.902 98.8994C111.338 98.4841 111.674 98.2765 111.909 98.2073C111.976 98.3111 112.043 98.4841 112.11 98.6572C112.446 99.4531 112.949 100.214 113.519 100.907C114.258 101.841 115.432 102.291 116.976 102.291C117.747 102.291 118.721 102.187 119.861 101.979C120.969 101.772 122.21 101.495 123.519 101.149C124.828 100.803 126.237 100.353 127.68 99.7991C128.384 99.5223 129.089 99.2454 129.794 98.934C129.76 99.107 129.76 99.2455 129.76 99.3839C129.76 100.145 130.029 101.495 131.941 102.118C133.686 102.671 136.169 102.844 139.928 102.222C141.471 101.979 143.082 101.633 144.659 101.218C146.27 100.803 147.813 100.284 149.29 99.6953C150.363 99.2801 151.303 98.8302 152.108 98.3457C152.612 98.6572 153.148 99.0724 153.719 99.5223C154.155 99.8684 154.524 100.214 154.86 100.56C154.289 100.941 153.786 101.356 153.383 101.737C152.544 102.568 152.142 103.433 152.142 104.367C152.142 105.128 152.41 105.786 152.947 106.34C153.484 106.893 154.122 107.17 154.86 107.17C156.269 107.17 157.41 106.72 158.249 105.786C159.088 104.886 159.49 103.813 159.49 102.602C159.49 102.429 159.49 102.291 159.457 102.118C160.799 101.529 162.343 100.872 164.054 100.18C166.134 99.3839 168.047 98.6225 169.859 97.8958ZM63.6561 90.4902C64.1594 89.1406 64.8305 87.9294 65.6694 86.9258C66.4747 85.9223 67.3472 85.1264 68.2867 84.5381C69.1592 83.9844 69.9309 83.7421 70.6356 83.7421C71.0383 83.7421 71.1389 83.7421 71.1389 84.4342C71.1389 84.9879 70.9376 85.7146 70.602 86.5452C70.1994 87.4449 69.6289 88.3447 68.8236 89.279C68.0183 90.248 66.9781 91.2169 65.7365 92.1513C64.9312 92.7742 63.9581 93.3625 62.9178 93.8816C62.985 92.705 63.2198 91.563 63.6561 90.4902Z" fill="white"/>
<path d="M170.127 116.063C169.02 115.717 167.913 116.34 167.544 117.448C156.437 154.268 123.955 179.046 85.4671 179.253C48.12 179.046 15.6383 154.268 4.53147 117.482C4.19591 116.375 3.05503 115.752 1.9477 116.098C1.41081 116.271 0.974591 116.652 0.739703 117.136C0.47126 117.655 0.437704 118.209 0.605481 118.763C12.2157 157.21 46.1066 183.164 85.1316 183.51C85.2658 183.51 85.4 183.51 85.5007 183.51C85.6349 183.51 85.7356 183.51 85.8698 183.51C126.002 183.129 159.893 157.21 171.503 118.728C171.671 118.174 171.604 117.621 171.369 117.102C171.101 116.617 170.664 116.236 170.127 116.063Z" fill="white"/>
<path d="M144.39 120.043C143.618 120.043 142.914 120.493 142.545 121.22C131.706 143.575 109.996 157.486 85.836 157.486C61.6761 157.486 39.9657 143.609 29.1273 121.22C28.8924 120.7 28.4562 120.32 27.9529 120.147C27.416 119.974 26.8791 120.008 26.3758 120.285C25.8725 120.527 25.5369 120.977 25.3356 121.496C25.1678 122.05 25.2014 122.604 25.4362 123.123C36.9457 146.932 60.099 161.708 85.836 161.708C111.539 161.708 134.693 146.932 146.236 123.123C146.739 122.085 146.336 120.804 145.296 120.285C145.028 120.112 144.692 120.043 144.39 120.043Z" fill="white"/>
</g>
<defs>
<clipPath id="clip0_24_32454">
<rect width="171.099" height="183.133" fill="white" transform="translate(0.504639 0.376953)"/>
</clipPath>
</defs>
</svg>
