<svg width="147" height="180" viewBox="0 0 147 180" fill="none" xmlns="http://www.w3.org/2000/svg">
<g clip-path="url(#clip0_24_32481)">
<path d="M145.149 0.0415039H1.65511C1.08151 0.0415039 0.603516 0.543475 0.603516 1.14583V178.741C0.603516 179.343 1.08151 179.845 1.65511 179.845H145.054C145.627 179.845 146.105 179.343 146.105 178.741V1.14583C146.201 0.543475 145.723 0.0415039 145.149 0.0415039ZM144.098 2.14976V153.141H2.70669V2.14976H144.098ZM47.0647 167.698C47.1603 167.999 47.2559 168.3 47.2559 168.702C47.2559 169.906 46.5867 170.81 45.4395 171.211C45.0571 171.312 44.5791 171.412 44.1011 171.412H39.7992V162.076H43.8143C44.7703 162.076 45.5351 162.377 46.1087 162.979C46.5867 163.481 46.7779 164.084 46.7779 164.786C46.7779 165.589 46.5867 166.192 46.2043 166.593C46.6823 166.794 46.9691 167.196 47.0647 167.698ZM48.4987 166.694C48.4987 165.389 48.8811 164.184 49.7415 163.28C50.6019 162.377 51.6535 161.875 52.9919 161.875C54.3302 161.875 55.3818 162.377 56.2422 163.28C57.1026 164.184 57.485 165.288 57.485 166.694C57.485 167.999 57.1026 169.204 56.2422 170.107C55.3818 171.011 54.3302 171.513 52.9919 171.513C51.6535 171.513 50.6019 171.011 49.7415 170.107C48.8811 169.204 48.4987 167.999 48.4987 166.694ZM61.5958 169.003C61.9782 169.304 62.3606 169.505 62.9342 169.505C63.5078 169.505 63.9858 169.304 64.3682 169.003C64.7506 168.601 64.9418 167.999 64.9418 167.296V161.975H66.7581V167.196C66.7581 168.4 66.3757 169.505 65.7066 170.208C64.9418 171.011 64.0814 171.412 62.9342 171.412C61.787 171.412 60.831 171.011 60.1618 170.208C59.4926 169.404 59.1102 168.4 59.1102 167.196V161.975H60.9266V167.296C61.0222 168.099 61.2134 168.601 61.5958 169.003ZM68.0965 163.883V161.975H75.5533V163.883H72.7809V171.312H70.9645V163.883H68.0965ZM76.9873 171.412V162.076H78.8036V171.412H76.9873ZM87.1208 171.412C87.312 171.513 87.5032 171.513 87.6944 171.513C88.0768 171.513 88.4592 171.412 88.8416 171.011L89.224 170.709L90.2755 172.215L89.8931 172.517C89.224 173.019 88.4592 173.32 87.6944 173.32C87.0252 173.32 86.356 173.119 85.7824 172.717C85.3044 172.416 84.8264 171.914 84.5396 171.412C83.3924 171.312 82.4364 170.81 81.6716 170.007C80.9068 169.103 80.4288 167.999 80.4288 166.694C80.4288 165.389 80.8112 164.184 81.6716 163.28C82.532 162.377 83.5836 161.875 84.922 161.875C86.2604 161.875 87.312 162.377 88.1724 163.28C89.0328 164.184 89.4152 165.288 89.4152 166.694C89.4152 167.898 89.0327 168.902 88.3636 169.806C87.8856 170.509 87.2164 170.91 86.4516 171.211C86.7384 171.312 86.9296 171.412 87.1208 171.412ZM93.6215 169.003C94.0039 169.304 94.3863 169.505 94.9599 169.505C95.5335 169.505 96.0115 169.304 96.3939 169.003C96.7763 168.601 96.9675 167.999 96.9675 167.296V161.975H98.7839V167.196C98.7839 168.4 98.4015 169.505 97.7323 170.208C96.9675 171.011 96.1071 171.412 94.9599 171.412C93.8127 171.412 92.8567 171.011 92.1875 170.208C91.5183 169.404 91.1359 168.4 91.1359 167.196V161.975H92.9523V167.296C92.9523 167.999 93.1435 168.601 93.6215 169.003ZM107.197 165.69V167.597H102.799V169.404H107.77V171.312H100.983V161.975H107.77V163.883H102.799V165.69H107.197Z" fill="white"/>
<path d="M85.0177 163.782C84.1573 163.782 83.5837 164.083 83.1057 164.585C82.6277 165.087 82.4365 165.79 82.4365 166.593C82.4365 167.396 82.6277 168.099 83.1057 168.601C83.5837 169.103 84.2529 169.404 85.0177 169.404C85.8781 169.404 86.4517 169.103 86.9297 168.601C87.4077 168.099 87.5989 167.396 87.5989 166.593C87.5989 165.79 87.3121 165.087 86.9297 164.585C86.4517 164.083 85.7825 163.782 85.0177 163.782Z" fill="white"/>
<path d="M54.9995 168.702C55.4775 168.2 55.6687 167.497 55.6687 166.694C55.6687 165.891 55.3819 165.188 54.9995 164.686C54.5215 164.184 53.8523 163.883 53.0875 163.883C52.2271 163.883 51.6535 164.184 51.1755 164.686C50.6975 165.188 50.5063 165.891 50.5063 166.694C50.5063 167.497 50.6975 168.2 51.1755 168.702C51.6535 169.204 52.3227 169.505 53.0875 169.505C53.8523 169.505 54.4259 169.304 54.9995 168.702Z" fill="white"/>
<path d="M44.1009 167.597H41.7109V169.504H44.1965C44.6745 169.504 44.9613 169.404 45.1525 169.203C45.3437 169.103 45.4393 168.902 45.4393 168.601C45.4393 168.3 45.3437 168.099 45.1525 167.898C44.9613 167.698 44.5789 167.597 44.1009 167.597Z" fill="white"/>
<path d="M44.9617 165.187C45.0573 165.087 45.0573 164.987 45.0573 164.786C45.0573 164.585 45.0573 164.485 44.9617 164.385C44.9617 164.284 44.8661 164.184 44.7705 164.184C44.5793 163.983 44.2925 163.883 43.9101 163.883H41.6157V165.689H43.8145C44.5793 165.689 44.8661 165.489 44.9617 165.187Z" fill="white"/>
<path d="M17.7158 22.9313H23.8342L30.3349 42.006C32.3425 35.6812 37.218 21.9274 39.0344 18.514C41.8068 13.1932 46.6823 10.7838 52.7051 11.6873L52.0359 17.7109C48.3075 17.1085 45.7264 18.3132 44.1968 21.5258C41.1376 27.2482 33.4897 52.246 33.3941 52.4468L33.0117 52.748L28.0405 52.8484L17.7158 22.9313Z" fill="white"/>
<path d="M56.1467 27.7503H52.3228V22.3291H65.9934V27.7503H61.8827V46.6242H56.1467V27.7503ZM52.3228 47.5277H65.9934V52.9489H52.3228V47.5277Z" fill="white"/>
<path d="M77.6567 22.9312H83.5839L92.7614 40.6003V22.9312H98.4974V52.7479L98.115 52.9486H92.5702L83.3927 35.1791V52.9486H77.6567V22.9312Z" fill="white"/>
<path d="M114.845 89.6924V85.0744H123.448V79.0508H105.667V85.0744H109.013V95.716H127.75V89.6924H114.845Z" fill="white"/>
<path d="M114.845 71.2204H126.89V65.1968H109.013V77.9467H114.845V71.2204Z" fill="white"/>
<path d="M27.0853 71.7221H18.3857V65.5981H41.5207V71.7221H32.8212V95.7161H26.9897V71.7221H27.0853Z" fill="white"/>
<path d="M73.8325 122.32C73.8325 113.987 80.2377 107.361 88.1724 107.361C96.0115 107.361 102.417 114.088 102.417 122.32C102.417 130.552 96.0115 137.379 88.1724 137.379C80.2377 137.379 73.8325 130.652 73.8325 122.32ZM96.5851 122.32C96.5851 117.401 92.7611 113.485 88.0768 113.485C83.3924 113.485 79.5685 117.501 79.5685 122.32C79.5685 127.239 83.3924 131.255 88.0768 131.255C92.7611 131.255 96.5851 127.239 96.5851 122.32Z" fill="white"/>
<path d="M127.846 34.9785H105.667V40.8013H127.846V34.9785Z" fill="white"/>
<path d="M33.2036 119.509C32.4388 119.208 31.5784 119.007 30.6224 118.806C30.1444 118.706 29.6664 118.706 29.1885 118.605C28.8061 118.605 28.4237 118.505 28.1369 118.505C27.7545 118.405 27.3721 118.304 26.9897 118.204C26.4161 117.903 25.9381 117.501 25.5557 116.999C25.1733 116.497 24.9821 115.895 24.9821 115.293V115.192C24.9821 113.385 26.6073 111.879 28.7105 111.879C29.762 111.879 30.9092 112.381 31.5784 113.084C31.9608 113.485 32.7256 114.389 33.0124 115.192V115.293L37.9836 112.783H38.0792V112.682C36.932 108.867 33.0124 106.157 28.7105 106.157C23.2613 106.157 18.8637 110.172 18.8637 115.092C18.8637 115.995 19.0549 116.899 19.3417 117.802C19.6285 118.605 20.1065 119.409 20.5845 120.212C21.1581 120.915 21.8273 121.617 22.4965 122.119C23.2613 122.722 24.1217 123.123 24.9821 123.424C25.8425 123.726 26.7985 123.926 27.8501 124.027C28.0413 124.027 28.3281 124.027 28.5193 124.027H28.6149C29.1884 124.027 29.762 124.127 30.3356 124.227C31.0048 124.328 31.674 124.729 32.2476 125.231C32.8212 125.733 33.3948 126.537 33.586 127.239C33.6816 127.641 33.7772 128.042 33.7772 128.444C33.7772 130.853 31.5784 132.861 28.9017 132.861C27.4677 132.861 26.1293 132.259 25.1733 131.355C25.1733 131.355 25.0777 131.255 24.8865 131.054C24.7909 130.954 24.7909 130.954 24.6953 130.853C24.3129 130.351 23.7393 129.348 23.4525 128.143V128.042L18.3857 130.552V130.653C19.4373 135.17 23.9305 138.383 28.9017 138.383C34.8288 138.383 39.7044 133.966 39.7044 128.544C39.7044 124.629 37.1232 121.115 33.2036 119.509Z" fill="white"/>
<path d="M53.6608 114.389V113.084V107.061H47.9248V119.81H53.6608V114.389Z" fill="white"/>
<path d="M62.934 107.061V120.915H44.4834V126.938H47.925V137.58H53.6609V131.556V129.247V126.938H62.934V137.58H68.7656V107.061H62.934Z" fill="white"/>
<path d="M87.2163 81.6609V87.0821H93.717C92.1875 88.6884 90.2755 89.6924 87.9811 89.6924C83.2967 89.6924 79.4728 85.6766 79.4728 80.7574C79.4728 75.8381 83.2967 71.8224 87.9811 71.8224C91.2315 71.8224 94.195 73.7299 95.629 76.8421L100.696 73.9307C98.2102 68.911 93.3346 65.7988 87.9811 65.7988C80.0464 65.7988 73.7368 72.5252 73.7368 80.7574C73.7368 88.9896 80.142 95.8163 87.9811 95.8163C93.4302 95.8163 98.497 92.9049 100.791 87.1825V81.7613H87.2163V81.6609Z" fill="white"/>
<path d="M59.9704 66L54.6169 66.1004C54.6169 66.1004 47.8294 88.2872 44.4834 95.9171H47.8294H50.7929H64.0812H65.8976H67.9052H70.1995L59.9704 66ZM52.8005 90.4959C54.6169 85.5766 56.4333 80.1554 57.4849 76.8424L62.1692 90.4959H52.8005Z" fill="white"/>
<path d="M122.779 107.161C122.11 107.061 121.536 107.061 120.867 107.061H114.94H113.124H109.108V137.58H114.94V112.381H122.014C124.213 112.582 126.029 114.69 126.029 117.2C126.029 119.61 124.404 121.618 122.301 121.919H116.087V127.24H120.963H121.727C126.794 127.24 131.001 122.722 131.001 117.1C131.001 114.69 130.236 112.281 128.706 110.374C127.081 108.767 124.978 107.462 122.779 107.161Z" fill="white"/>
</g>
<defs>
<clipPath id="clip0_24_32481">
<rect width="145.514" height="179.804" fill="white" transform="translate(0.603516 0.0415039)"/>
</clipPath>
</defs>
</svg>
