<svg width="268" height="122" viewBox="0 0 268 122" fill="none" xmlns="http://www.w3.org/2000/svg">
<g clip-path="url(#clip0_24_32505)">
<path d="M87.4025 27.4475C86.5003 26.8546 85.4854 26.3804 84.3577 26.1432C83.23 25.7875 81.8767 25.6689 80.5235 25.6689H72.9678V41.0829H80.5235C83.4555 41.0829 85.7109 40.4901 87.5153 39.1858C89.2069 38.0002 90.109 36.103 90.109 33.2574C90.109 31.9531 89.8835 30.7674 89.4324 29.8189C88.8685 28.8703 88.1919 28.0403 87.4025 27.4475ZM79.6213 37.763H78.0425V29.4631H79.6213C83.0044 29.4631 84.8088 30.886 84.8088 33.6131C84.8088 36.3402 83.1172 37.763 79.6213 37.763Z" fill="white"/>
<path d="M86.6136 21.1636C87.8541 19.8593 88.4179 18.1993 88.4179 16.1837C88.4179 14.168 87.8541 12.508 86.6136 11.2038C85.3731 9.89949 83.3432 9.30664 80.6367 9.30664H73.0811V23.0607H80.6367C83.456 23.0607 85.4859 22.4678 86.6136 21.1636ZM78.043 19.1479V12.6266H79.6218C81.8772 12.6266 83.0049 13.6937 83.0049 15.9465C83.0049 18.0808 81.8772 19.2665 79.6218 19.2665H78.043V19.1479Z" fill="white"/>
<path d="M98.1161 28.8699C97.5522 27.447 96.9883 26.3799 96.3117 25.4314C95.5223 24.3642 94.6202 23.5343 93.6052 22.8229C94.2818 22.23 94.8457 21.5186 95.2968 20.6886C95.7479 19.9772 96.0862 19.1472 96.4245 18.0801C96.7628 17.013 96.9884 15.7087 96.9884 14.1673C96.9884 12.033 96.65 10.1359 95.8606 8.59455C95.0712 7.05315 94.0563 5.63029 92.703 4.56316C91.3498 3.49604 89.771 2.66606 87.8539 2.19178C85.9367 1.59893 83.9069 1.36182 81.6514 1.36182H63.9463V48.7895H82.3281C84.809 48.7895 87.1772 48.4338 89.2071 47.7224C91.237 47.011 93.0413 46.0624 94.3946 44.7582C95.8606 43.4539 96.8756 41.9125 97.665 40.0154C98.4544 38.1183 98.7927 36.1026 98.7927 33.8498C99.0183 31.9527 98.6799 30.2927 98.1161 28.8699ZM89.6582 40.8454C87.7411 42.7425 84.6963 43.691 80.6365 43.691H70.4871V6.81601H80.6365C83.7941 6.81601 86.3878 7.64599 88.3049 9.18739C90.2221 10.7288 91.1242 13.2187 91.1242 16.3015C91.1242 18.0801 90.7859 19.5029 90.1093 20.57C89.4327 21.6371 88.756 22.5857 87.9666 23.1786C87.4028 23.6528 86.8389 24.0085 86.1623 24.3642C87.0645 24.7199 87.9666 25.0757 88.756 25.6685C89.6582 26.3799 90.5604 27.3285 91.3498 28.5142C92.1392 29.6999 92.5903 31.3598 92.5903 33.3755C92.703 36.3397 91.6881 38.9483 89.6582 40.8454Z" fill="white"/>
<path d="M29.777 30.6489C13.4252 30.6489 0.118164 44.6401 0.118164 61.8326C0.118164 79.0251 13.4252 93.0164 29.777 93.0164C46.1289 93.0164 59.4359 79.0251 59.4359 61.8326C59.4359 44.6401 46.1289 30.6489 29.777 30.6489ZM45.9033 76.0609C45.0011 76.8909 43.8734 77.7209 42.7457 78.4323C41.618 79.2623 40.2648 79.8552 38.9115 80.5666C37.5582 81.1594 35.9794 81.6337 34.4006 81.9894C32.8218 82.3451 31.1303 82.5822 29.3259 82.5822C26.7322 82.5822 24.364 82.2265 22.4469 81.6337C20.5298 81.0408 18.951 80.2108 17.7105 79.0251C16.47 77.958 15.5678 76.6538 15.004 75.1124C14.4401 73.571 14.1018 72.0296 14.1018 70.2511C14.1018 67.7611 14.6657 65.7454 15.6806 64.0854C16.6955 62.4255 18.1616 61.0027 19.8531 59.817C18.951 58.8684 18.2743 57.6827 17.7105 56.2599C17.1466 54.9557 16.8083 53.5328 16.8083 51.8728C16.8083 50.2129 17.1466 48.5529 17.7105 47.1301C18.2743 45.7072 19.1765 44.403 20.1915 43.3358C21.3192 42.2687 22.5596 41.4388 24.0257 40.8459C25.4917 40.2531 27.0705 40.0159 28.7621 40.0159C30.6792 40.0159 32.3708 40.3716 33.8368 40.9645C35.4156 41.5573 36.6561 42.3873 37.7838 43.4544C38.9115 44.5215 39.7009 45.8258 40.2647 47.2486C40.8286 48.6714 41.1669 50.3315 41.1669 52.11C41.1669 54.1257 40.6031 55.9042 39.5881 57.4456C38.5732 58.987 37.3327 60.2912 35.8667 61.4769L41.0541 66.1011C41.5052 65.6269 41.9563 65.1526 42.4074 64.5598C42.8585 64.0855 43.4224 63.374 44.099 62.4255L51.7674 69.3025C50.978 70.4882 50.0759 71.6739 49.0609 72.741C48.046 74.0452 47.031 75.1124 45.9033 76.0609ZM42.9713 70.4882C42.2946 71.1996 41.5052 71.7924 40.8286 72.3853C39.4753 73.3338 37.7838 74.2824 35.8667 75.1124C33.9495 75.9423 31.6941 76.2981 29.1004 76.2981C28.1982 76.2981 27.296 76.1795 26.2811 75.9424C25.3789 75.7052 24.4768 75.3495 23.6874 74.8752C22.898 74.4009 22.2213 73.6896 21.7702 72.8596C21.2064 72.0296 20.9809 70.9624 20.9809 69.7768C20.9809 67.9982 21.4319 66.694 22.4469 65.6268C23.349 64.5597 24.7023 63.6112 26.5067 62.6626L28.1982 61.7141L37.2199 69.5396L38.3476 68.7097L29.5515 61.0027C31.6941 59.817 33.3857 58.5127 34.6262 57.0898C35.8667 55.667 36.5433 54.0071 36.5433 51.9914C36.5433 50.9243 36.3178 49.9757 35.9794 49.1458C35.5284 48.3158 35.0773 47.4858 34.2879 46.8929C33.6112 46.3001 32.8218 45.8258 31.8069 45.4701C30.9047 45.1144 29.8898 44.9958 28.7621 44.9958C27.8599 44.9958 26.9577 45.1144 26.0556 45.4701C25.1534 45.8258 24.364 46.3001 23.6874 46.8929C23.0107 47.4858 22.4469 48.3158 21.9958 49.1458C21.5447 49.9757 21.4319 51.0429 21.4319 52.11C21.4319 53.6514 21.7703 54.9556 22.5597 56.0228C23.3491 57.2085 24.364 58.2755 25.7172 59.4612L27.1833 60.7655L25.83 61.4769C25.0406 61.9512 24.1384 62.4255 23.4618 62.8998C22.6724 63.4926 22.1086 64.0854 21.5447 64.6783C20.9809 65.3897 20.5298 66.1012 20.3042 66.9311C19.9659 67.7611 19.8531 68.7097 19.8531 69.6582C19.8531 70.9625 20.0787 72.1482 20.6425 73.2153C21.2064 74.2824 21.883 74.9938 22.7852 75.7052C23.6873 76.2981 24.7023 76.8909 25.83 77.1281C26.9577 77.4838 28.1982 77.6024 29.4387 77.6024C32.0325 77.6024 34.4006 77.128 36.5433 76.2981C38.5732 75.4681 40.3775 74.401 41.8436 73.3338C43.5351 72.0296 45.0012 70.6067 46.3544 68.9468L45.2267 68.1168C44.3245 69.0654 43.6479 69.7768 42.9713 70.4882ZM26.5067 58.5127C24.9279 57.2084 24.0257 56.0228 23.4618 55.0742C23.0107 54.1257 22.7852 53.1771 22.7852 52.2285C22.7852 50.5686 23.3491 49.1457 24.364 48.0786C25.4917 47.0115 26.845 46.4186 28.5365 46.4186C29.3259 46.4186 30.1153 46.5372 30.7919 46.7744C31.5813 47.0115 32.1452 47.3672 32.8219 47.8415C33.3857 48.3157 33.8368 48.9086 34.1751 49.62C34.5134 50.3314 34.7389 51.1614 34.7389 52.11C34.7389 54.0071 34.1751 55.5485 33.0474 56.7341C31.9197 57.9198 30.3409 58.987 28.1982 60.1727L26.5067 58.5127ZM30.4536 53.6514C30.792 53.1771 31.0175 52.5843 31.0175 51.8728C31.0175 50.3314 30.3409 49.62 28.8749 49.62C28.1982 49.62 27.7471 49.8571 27.296 50.2128C26.8449 50.6871 26.7322 51.1614 26.7322 51.8728C26.7322 52.4657 26.845 52.9399 27.0705 53.5328C27.2961 54.007 27.8599 54.5999 28.5365 55.3113C29.4387 54.7185 30.0026 54.1257 30.4536 53.6514ZM25.9428 69.5396C25.9428 70.4882 26.2811 71.1996 27.0705 71.6739C27.7471 72.1482 28.6493 72.3853 29.5515 72.3853C30.1153 72.3853 30.6792 72.3853 31.3558 72.2668C31.9197 72.1482 32.4835 72.0296 33.0474 71.7924L27.5216 66.8125C26.3939 67.5239 25.9428 68.4725 25.9428 69.5396Z" fill="white"/>
<path d="M31.0176 2.07324H28.5366V33.4941H31.0176V2.07324Z" fill="white"/>
<path d="M31.0176 86.8511H28.5366V121.71H31.0176V86.8511Z" fill="white"/>
<path d="M209.196 99.7751V92.4238H212.354C213.03 92.4238 213.481 92.5423 213.82 92.6609C214.158 92.7795 214.383 93.0167 214.609 93.3724C214.835 93.7281 214.947 94.0837 214.947 94.4394C214.947 94.9137 214.834 95.388 214.496 95.7437C214.158 96.0995 213.707 96.3366 213.03 96.4551C213.256 96.5737 213.481 96.6923 213.594 96.8108C213.82 97.048 214.158 97.4037 214.383 97.7594L215.624 99.7751H214.496L213.594 98.2337C213.368 97.7594 213.143 97.4037 212.917 97.1666C212.692 96.9295 212.579 96.8109 212.466 96.6923C212.353 96.5737 212.241 96.5737 212.015 96.4551C211.902 96.4551 211.79 96.4551 211.451 96.4551H210.324V99.7751H209.196ZM210.098 95.6251H212.128C212.579 95.6251 212.917 95.6252 213.143 95.5066C213.368 95.388 213.594 95.2694 213.707 95.0323C213.819 94.7952 213.932 94.558 213.932 94.3209C213.932 93.9652 213.82 93.728 213.594 93.4909C213.368 93.2538 212.917 93.1352 212.466 93.1352H210.211V95.6251H210.098Z" fill="white"/>
<path d="M220.247 97.9955L221.15 98.1141C221.037 98.707 220.698 99.0626 220.36 99.4183C220.022 99.7741 219.458 99.8927 218.894 99.8927C218.105 99.8927 217.541 99.6555 217.09 99.1812C216.639 98.7069 216.413 97.9955 216.413 97.1655C216.413 96.217 216.639 95.6241 217.09 95.0312C217.541 94.5569 218.105 94.3198 218.781 94.3198C219.458 94.3198 220.022 94.5569 220.473 95.0312C220.924 95.5055 221.15 96.2169 221.15 97.0469C221.15 97.0469 221.15 97.1655 221.15 97.2841H217.315C217.315 97.8769 217.541 98.3512 217.766 98.5883C218.105 98.944 218.443 99.0626 218.781 99.0626C219.12 99.0626 219.345 98.9441 219.571 98.8255C219.909 98.7069 220.135 98.4698 220.247 97.9955ZM217.428 96.5727H220.247C220.247 96.0984 220.135 95.7427 219.909 95.5055C219.683 95.1498 219.232 95.0312 218.894 95.0312C218.443 95.0312 218.217 95.1498 217.879 95.5055C217.541 95.7427 217.428 96.0984 217.428 96.5727Z" fill="white"/>
<path d="M222.503 98.1144L223.405 97.9958C223.405 98.3515 223.631 98.5887 223.856 98.8258C224.082 99.063 224.42 99.063 224.758 99.063C225.209 99.063 225.435 98.9444 225.66 98.8258C225.886 98.7072 225.999 98.4701 225.999 98.233C225.999 97.9958 225.886 97.8773 225.773 97.7587C225.66 97.6402 225.322 97.5215 224.871 97.403C224.194 97.2844 223.743 97.0473 223.518 96.9287C223.292 96.8102 223.067 96.6916 222.954 96.4544C222.841 96.2173 222.728 95.9802 222.728 95.743C222.728 95.5059 222.728 95.2687 222.841 95.0316C222.954 94.7944 223.067 94.6759 223.292 94.5574C223.405 94.4388 223.631 94.3202 223.856 94.3202C224.082 94.2016 224.307 94.2017 224.646 94.2017C225.097 94.2017 225.435 94.3202 225.66 94.4387C225.886 94.5573 226.224 94.6759 226.337 94.913C226.45 95.1502 226.563 95.3873 226.675 95.743L225.886 95.8616C225.886 95.6244 225.773 95.3873 225.548 95.2687C225.322 95.1502 225.097 95.0316 224.758 95.0316C224.307 95.0316 224.082 95.1502 223.856 95.2687C223.631 95.3873 223.631 95.6245 223.631 95.743C223.631 95.8616 223.631 95.9802 223.743 96.0987C223.856 96.2173 223.969 96.3359 224.082 96.3359C224.194 96.3359 224.42 96.4545 224.871 96.573C225.435 96.6916 225.886 96.9287 226.112 97.0473C226.337 97.1658 226.563 97.2844 226.675 97.5216C226.788 97.7587 226.901 97.9959 226.901 98.3516C226.901 98.7073 226.788 98.9444 226.675 99.1815C226.563 99.4186 226.224 99.6558 225.999 99.7744C225.66 99.8929 225.322 100.012 224.871 100.012C224.194 100.012 223.743 99.893 223.405 99.5373C222.728 99.1816 222.503 98.7073 222.503 98.1144Z" fill="white"/>
<path d="M230.171 98.9454L230.284 99.7753C230.059 99.7753 229.833 99.8939 229.608 99.8939C229.269 99.8939 229.044 99.8939 228.931 99.7753C228.705 99.6567 228.593 99.5382 228.593 99.4196C228.48 99.301 228.48 98.9454 228.48 98.3525V95.2697H227.803V94.5583H228.48V93.254L229.382 92.6611V94.5583H230.284V95.2697H229.382V98.3525C229.382 98.5897 229.382 98.8267 229.382 98.8267C229.382 98.9453 229.495 98.9454 229.495 98.9454C229.608 98.9454 229.608 99.0639 229.833 99.0639C229.946 98.9453 230.059 98.9454 230.171 98.9454Z" fill="white"/>
<path d="M234.908 99.0634C234.57 99.3005 234.231 99.5377 234.006 99.6562C233.668 99.7748 233.442 99.7748 233.104 99.7748C232.54 99.7748 232.089 99.6562 231.863 99.3005C231.525 99.0634 231.412 98.5891 231.412 98.2334C231.412 97.9962 231.525 97.7591 231.638 97.522C231.75 97.2848 231.863 97.1662 232.089 97.0477C232.314 96.9291 232.427 96.8105 232.765 96.692C232.991 96.692 233.216 96.5734 233.555 96.5734C234.231 96.4548 234.795 96.3362 235.134 96.2176C235.134 96.0991 235.134 95.9806 235.134 95.9806C235.134 95.6249 235.021 95.3877 234.908 95.1506C234.682 94.9134 234.344 94.7949 233.893 94.7949C233.442 94.7949 233.216 94.9134 232.991 95.0319C232.765 95.1505 232.653 95.3877 232.54 95.8619L231.75 95.7434C231.863 95.3877 231.976 95.032 232.089 94.7949C232.314 94.5577 232.54 94.4391 232.878 94.202C233.216 94.0834 233.555 93.9648 234.006 93.9648C234.457 93.9648 234.795 93.9648 235.021 94.0834C235.246 94.202 235.472 94.3205 235.585 94.4391C235.697 94.5577 235.81 94.7948 235.81 95.0319C235.81 95.1505 235.81 95.5062 235.81 95.8619V97.0477C235.81 97.8777 235.81 98.4705 235.81 98.5891C235.81 98.7076 235.923 99.0634 236.036 99.1819H235.134C235.021 99.5376 235.021 99.3005 234.908 99.0634ZM234.908 97.0477C234.57 97.1662 234.119 97.2848 233.555 97.4034C233.216 97.4034 232.991 97.5219 232.765 97.6405C232.653 97.7591 232.54 97.7591 232.427 97.8777C232.314 97.9962 232.314 98.1148 232.314 98.352C232.314 98.5891 232.427 98.8263 232.54 98.9448C232.765 99.0634 232.991 99.1819 233.329 99.1819C233.668 99.1819 234.006 99.0634 234.231 98.9448C234.457 98.8263 234.682 98.5891 234.795 98.352C234.908 98.1148 234.908 97.8776 234.908 97.4034V97.0477Z" fill="white"/>
<path d="M240.997 99.774V98.9441C240.546 99.537 240.095 99.8927 239.419 99.8927C239.08 99.8927 238.855 99.7741 238.629 99.6555C238.404 99.5369 238.178 99.4183 238.065 99.1812C237.953 98.944 237.84 98.8255 237.84 98.4698C237.84 98.2327 237.84 97.9955 237.84 97.6398V94.3198H238.742V97.2841C238.742 97.7584 238.742 98.1141 238.742 98.2326C238.742 98.4698 238.968 98.7069 239.08 98.8255C239.306 98.9441 239.419 99.0626 239.757 99.0626C240.095 99.0626 240.208 98.9441 240.434 98.8255C240.659 98.7069 240.772 98.4698 240.885 98.2326C240.998 97.9955 240.997 97.6398 240.997 97.1655V94.3198H241.9V99.6555H240.997V99.774Z" fill="white"/>
<path d="M243.704 99.7741V94.4384H244.494V95.2684C244.719 94.9127 244.832 94.6756 245.057 94.557C245.17 94.4384 245.396 94.3198 245.621 94.3198C245.96 94.3198 246.185 94.4384 246.523 94.557L246.185 95.387C245.96 95.2684 245.734 95.1498 245.508 95.1498C245.283 95.1498 245.17 95.2684 244.945 95.387C244.832 95.5056 244.719 95.6241 244.606 95.8612C244.493 96.2169 244.494 96.5727 244.494 96.9284V99.7741H243.704Z" fill="white"/>
<path d="M250.921 99.0634C250.583 99.3005 250.245 99.5377 250.019 99.6562C249.681 99.7748 249.455 99.7748 249.117 99.7748C248.553 99.7748 248.102 99.6562 247.876 99.3005C247.538 99.0634 247.425 98.5891 247.425 98.2334C247.425 97.9962 247.538 97.7591 247.651 97.522C247.764 97.2848 247.876 97.1662 248.102 97.0477C248.327 96.9291 248.44 96.8105 248.779 96.692C249.004 96.692 249.23 96.5734 249.568 96.5734C250.245 96.4548 250.808 96.3362 251.147 96.2176C251.147 96.0991 251.147 95.9806 251.147 95.9806C251.147 95.6249 251.034 95.3877 250.921 95.1506C250.696 94.9134 250.357 94.7949 249.906 94.7949C249.455 94.7949 249.23 94.9134 249.004 95.0319C248.779 95.1505 248.666 95.3877 248.553 95.8619L247.764 95.7434C247.876 95.3877 247.989 95.032 248.102 94.7949C248.327 94.5577 248.553 94.4391 248.891 94.202C249.23 94.0834 249.568 93.9648 250.019 93.9648C250.47 93.9648 250.808 93.9648 251.034 94.0834C251.259 94.202 251.485 94.3205 251.598 94.4391C251.711 94.5577 251.823 94.7948 251.823 95.0319C251.823 95.1505 251.823 95.5062 251.823 95.8619V97.0477C251.823 97.8777 251.823 98.4705 251.823 98.5891C251.823 98.8262 251.936 99.0634 252.049 99.1819H251.147C251.034 99.5376 250.921 99.3005 250.921 99.0634ZM250.808 97.0477C250.47 97.1662 250.019 97.2848 249.455 97.4034C249.117 97.4034 248.891 97.5219 248.666 97.6405C248.553 97.7591 248.44 97.7591 248.327 97.8777C248.215 97.9962 248.215 98.1148 248.215 98.352C248.215 98.5891 248.327 98.8263 248.44 98.9448C248.666 99.0634 248.891 99.1819 249.23 99.1819C249.568 99.1819 249.906 99.0634 250.132 98.9448C250.357 98.8263 250.583 98.5891 250.696 98.352C250.808 98.1148 250.808 97.8776 250.808 97.4034V97.0477Z" fill="white"/>
<path d="M253.628 99.774V94.4384H254.417V95.1498C254.756 94.557 255.319 94.3198 255.996 94.3198C256.334 94.3198 256.56 94.3198 256.898 94.4384C257.124 94.5569 257.349 94.6755 257.462 94.9127C257.575 95.1498 257.688 95.2684 257.688 95.6241C257.688 95.7426 257.688 96.0984 257.688 96.4541V99.774H256.786V96.5727C256.786 96.217 256.786 95.9798 256.673 95.7427C256.56 95.5055 256.447 95.3869 256.334 95.2684C256.222 95.1498 255.996 95.1498 255.771 95.1498C255.432 95.1498 255.094 95.2684 254.868 95.5055C254.643 95.7427 254.417 96.217 254.417 96.9284V99.8927H253.628V99.774Z" fill="white"/>
<path d="M261.522 98.9454L261.634 99.7753C261.409 99.7753 261.183 99.8939 260.958 99.8939C260.619 99.8939 260.394 99.8939 260.281 99.7753C260.056 99.6567 259.943 99.5382 259.943 99.4196C259.83 99.301 259.83 98.9454 259.83 98.3525V95.2697H259.153V94.5583H259.83V93.254L260.732 92.6611V94.5583H261.634V95.2697H260.732V98.3525C260.732 98.5897 260.732 98.8267 260.732 98.8267C260.732 98.9453 260.845 98.9454 260.845 98.9454C260.958 98.9454 260.958 99.0639 261.183 99.0639C261.296 98.9453 261.409 98.9454 261.522 98.9454Z" fill="white"/>
<path d="M216.639 104.874H209.535V105.703H216.639V104.874Z" fill="white"/>
<path d="M87.4025 98.9446C86.5003 98.3517 85.4854 97.8774 84.3577 97.6403C83.23 97.2845 81.8767 97.166 80.5235 97.166H72.9678V112.58H80.5235C83.4555 112.58 85.7109 111.987 87.5153 110.683C89.2069 109.497 90.109 107.6 90.109 104.754C90.109 103.45 89.8835 102.265 89.4324 101.316C88.8685 100.367 88.1919 99.5374 87.4025 98.9446ZM79.6213 109.26H78.0425V100.96H79.6213C83.0044 100.96 84.8088 102.383 84.8088 105.11C84.8088 107.837 83.1172 109.26 79.6213 109.26Z" fill="white"/>
<path d="M86.6136 92.6601C87.8541 91.3559 88.4179 89.6959 88.4179 87.6803C88.4179 85.6646 87.8541 84.0046 86.6136 82.7004C85.3731 81.3961 83.3432 80.8032 80.6367 80.8032H73.0811V94.5573H80.6367C83.456 94.5573 85.4859 93.9644 86.6136 92.6601ZM78.043 90.6445V84.1232H79.6218C81.8772 84.1232 83.0049 85.1903 83.0049 87.4431C83.0049 89.5774 81.8772 90.763 79.6218 90.763H78.043V90.6445Z" fill="white"/>
<path d="M98.1161 100.486C97.5522 99.0633 96.9883 97.9961 96.3117 97.0476C95.5223 95.9804 94.6202 95.1504 93.6052 94.439C94.2818 93.8462 94.8457 93.1348 95.2968 92.3048C95.7479 91.5934 96.0862 90.7634 96.4245 89.6963C96.7628 88.6291 96.9884 87.3249 96.9884 85.7835C96.9884 83.6492 96.65 81.7521 95.8606 80.2107C95.0712 78.6693 94.0563 77.2465 92.703 76.1794C91.3498 75.1123 89.771 74.2823 87.8539 73.808C85.9367 73.2152 83.9069 72.978 81.6514 72.978H63.9463V120.406H82.3281C84.809 120.406 87.1772 120.05 89.2071 119.339C91.237 118.627 93.0413 117.679 94.3946 116.374C95.8606 115.07 96.8756 113.529 97.665 111.632C98.4544 109.734 98.7927 107.719 98.7927 105.466C99.0183 103.45 98.6799 101.79 98.1161 100.486ZM89.6582 112.343C87.7411 114.24 84.6963 115.189 80.6365 115.189H70.4871V78.3136H80.6365C83.7941 78.3136 86.3878 79.1436 88.3049 80.685C90.2221 82.2264 91.1242 84.7164 91.1242 87.7992C91.1242 89.5777 90.7859 91.0005 90.1093 92.0676C89.4327 93.1348 88.756 94.0833 87.9666 94.6762C87.4028 95.1505 86.8389 95.5062 86.1623 95.8619C87.0645 96.2176 87.9666 96.5733 88.756 97.1662C89.6582 97.8776 90.5604 98.8261 91.3498 100.012C92.1392 101.197 92.5903 102.857 92.5903 104.873C92.703 107.956 91.6881 110.446 89.6582 112.343Z" fill="white"/>
<path d="M102.063 1.48047V48.9082H117.4V1.48047H102.063ZM110.972 43.5726H108.379V6.69751H110.972V43.5726Z" fill="white"/>
<path d="M148.525 29.7005C147.962 28.0405 147.172 26.6177 146.27 25.3134C145.368 24.0092 144.466 22.942 143.338 21.8749C142.323 20.9264 141.308 19.9778 140.406 19.2664C139.504 18.555 138.827 17.8436 138.15 17.2507C137.587 16.6579 137.248 16.1836 137.248 15.8279C137.248 15.3536 137.361 15.1165 137.699 14.8793C137.925 14.6422 138.263 14.5236 138.602 14.4051C138.94 14.2865 139.391 14.2865 139.729 14.1679C140.18 14.1679 140.519 14.1679 140.744 14.1679C141.195 14.1679 141.759 14.1679 142.21 14.2865C142.661 14.2865 143.112 14.4051 143.451 14.4051C143.902 14.4051 144.353 14.5237 144.691 14.5237V1.24387C143.789 1.1253 142.774 1.00674 141.759 0.769604C140.857 0.651035 139.955 0.532444 138.827 0.413875C137.699 0.295305 136.684 0.176758 135.557 0.176758C133.527 0.176758 131.497 0.532444 129.693 1.00672C127.888 1.59957 126.31 2.42957 124.956 3.61526C123.603 4.80095 122.588 6.22379 121.799 7.88376C121.009 9.54373 120.671 11.5594 120.671 13.8122C120.671 15.8279 121.009 17.6064 121.573 19.1478C122.25 20.6892 123.039 22.1121 123.941 23.2978C124.956 24.4835 125.971 25.6691 127.099 26.6177C128.227 27.5663 129.242 28.3963 130.256 29.2262C131.271 30.0562 132.061 30.7676 132.625 31.3605C133.301 31.9533 133.527 32.6647 133.527 33.2576C133.527 34.9176 132.512 35.629 130.369 35.629C129.242 35.629 128.001 35.5104 126.873 35.3918C125.746 35.2733 124.731 35.0361 123.829 34.799C122.701 34.5618 121.686 34.3247 120.671 33.969V48.1973C121.799 48.553 122.926 48.7901 124.28 49.0273C125.407 49.2644 126.648 49.5016 128.114 49.6201C129.58 49.7387 131.159 49.8573 132.85 49.8573C135.67 49.8573 138.151 49.5016 140.18 48.6716C142.21 47.8416 143.902 46.7745 145.255 45.4702C146.608 44.1659 147.51 42.506 148.187 40.7274C148.864 38.9489 149.089 36.9332 149.089 34.9175C149.428 33.139 149.202 31.2419 148.525 29.7005ZM142.21 38.8304C141.646 40.0161 140.857 40.9646 139.842 41.676C138.827 42.3874 137.699 42.9803 136.459 43.2174C135.218 43.5731 133.978 43.6917 132.625 43.6917C131.835 43.6917 131.159 43.6917 130.482 43.5731C129.805 43.4546 129.129 43.4545 128.452 43.336C127.776 43.2174 127.099 43.0989 126.422 42.9803L126.084 42.8617V40.1346L126.535 40.2532C127.099 40.3717 127.776 40.4903 128.452 40.6089C129.693 40.846 131.046 40.9646 132.625 40.9646C135.106 40.9646 137.023 40.3717 138.376 39.3046C139.729 38.2375 140.406 36.5775 140.406 34.4433C140.406 33.2576 140.068 32.1905 139.504 31.1234C138.827 30.0562 138.038 28.9891 137.023 27.922C136.008 26.8548 134.993 25.7877 133.752 24.7206C132.625 23.6535 131.497 22.5863 130.482 21.4007C129.467 20.215 128.565 19.1478 127.888 17.9622C127.212 16.7765 126.873 15.3536 126.873 14.0493C126.873 11.4408 127.776 9.54372 129.467 8.23946C131.159 7.05376 133.189 6.46092 135.67 6.46092C136.121 6.46092 136.459 6.46092 136.91 6.46092C137.361 6.46092 137.699 6.57949 138.038 6.57949C138.376 6.57949 138.714 6.69807 138.94 6.69807H139.391V9.42515H138.94C138.602 9.42515 138.15 9.42514 137.812 9.30657C137.474 9.30657 137.136 9.18803 136.684 9.18803C133.978 9.06946 131.948 9.42514 130.82 10.4923C129.918 11.3223 129.354 12.508 129.354 14.1679C129.354 15.235 129.693 16.3022 130.256 17.2507C130.933 18.3179 131.722 19.385 132.737 20.3335C133.752 21.4007 134.88 22.4678 136.008 23.4163C137.136 24.4835 138.263 25.5506 139.278 26.7363C140.293 27.922 141.195 29.1077 141.872 30.4119C142.549 31.7162 142.887 33.139 142.887 34.5619C143.112 36.2218 142.774 37.6447 142.21 38.8304Z" fill="white"/>
<path d="M147.849 1.48047V13.9303H156.194V48.9082H171.08V13.9303H179.425V1.48047H147.849ZM174.575 9.30602H164.877V43.6911H162.283V9.30602H152.585V6.69751H174.463V9.30602H174.575Z" fill="white"/>
<path d="M208.52 19.7406C208.52 16.4207 207.392 13.8122 205.249 11.9151C202.994 10.1365 199.836 9.18799 195.889 9.18799H190.702V30.1747H195.889C199.836 30.1747 202.994 29.2262 205.249 27.4476C207.392 25.7877 208.52 23.1792 208.52 19.7406ZM201.302 23.5348C200.062 24.3648 198.708 24.7205 196.904 24.7205H196.115V14.2865H196.904C198.596 14.2865 200.062 14.6422 201.302 15.4721C202.543 16.3021 203.107 17.6064 203.107 19.5035C203.107 21.4006 202.43 22.7049 201.302 23.5348Z" fill="white"/>
<path d="M211.452 33.257C212.58 32.4271 213.595 31.3599 214.497 30.1742C215.286 29.1071 215.963 27.6843 216.639 26.0243C217.316 24.3643 217.542 22.3486 217.542 19.9773C217.542 17.013 217.09 14.4045 216.076 12.0331C215.061 9.78032 213.707 7.76464 211.903 6.22324C210.099 4.68184 207.956 3.49615 205.475 2.66616C202.994 1.83618 200.4 1.48047 197.468 1.48047H181.906V48.9082H196.34V36.8141L203.107 48.7896H220.023L211.452 33.257ZM210.211 43.5726H207.167L200.739 32.3085C199.16 32.6642 197.468 32.7828 195.777 32.7828H190.589V43.5726H187.995V6.69751H195.664C197.806 6.69751 199.836 6.93463 201.641 7.52748C203.445 8.12032 205.137 8.95032 206.49 10.0174C207.843 11.0846 208.971 12.5074 209.76 14.0488C210.55 15.7088 211.001 17.6059 211.001 19.7401C211.001 22.8229 210.211 25.3129 208.745 27.3286C207.392 29.1071 205.475 30.5299 203.22 31.4785L210.211 43.5726Z" fill="white"/>
<path d="M265.357 15.4723C264.116 12.3895 262.424 9.78092 260.282 7.52811C258.139 5.27529 255.658 3.49675 252.726 2.19249C249.794 0.888228 246.749 0.29541 243.479 0.29541C240.208 0.29541 237.164 1.0068 234.232 2.19249C231.3 3.49675 228.819 5.27529 226.676 7.52811C224.533 9.78092 222.842 12.3895 221.601 15.4723C220.361 18.5551 219.797 21.7564 219.797 25.195C219.797 28.6335 220.361 31.8348 221.601 34.9176C222.842 38.0004 224.533 40.6089 226.676 42.8617C228.819 45.1145 231.3 46.8931 234.232 48.1973C237.164 49.5016 240.208 50.0945 243.479 50.0945C246.749 50.0945 249.794 49.5016 252.726 48.1973C255.658 46.8931 258.139 45.1145 260.282 42.8617C262.424 40.6089 264.116 38.0004 265.357 34.9176C266.597 31.8348 267.161 28.6335 267.161 25.195C267.161 21.7564 266.597 18.5551 265.357 15.4723ZM259.831 32.4277C258.929 34.6805 257.688 36.6961 255.996 38.3561C254.418 40.0161 252.501 41.4389 250.358 42.3875C248.215 43.3361 245.96 43.8103 243.479 43.8103C240.998 43.8103 238.742 43.3361 236.6 42.3875C234.457 41.4389 232.54 40.0161 230.961 38.3561C229.382 36.6961 228.029 34.6805 227.127 32.4277C226.225 30.1748 225.774 27.6849 225.774 25.195C225.774 22.5864 226.225 20.215 227.127 17.9622C228.029 15.7094 229.27 13.6937 230.961 12.0338C232.54 10.3738 234.457 8.95097 236.6 8.00241C238.742 7.05386 241.111 6.57957 243.479 6.57957C245.96 6.57957 248.215 7.05386 250.358 8.00241C252.501 8.95097 254.418 10.2552 255.996 12.0338C257.575 13.6937 258.929 15.7094 259.831 17.9622C260.733 20.215 261.184 22.705 261.184 25.195C261.184 27.8035 260.733 30.1748 259.831 32.4277Z" fill="white"/>
<path d="M254.192 13.9309C252.839 12.508 251.147 11.3223 249.343 10.4923C247.538 9.66235 245.508 9.30664 243.479 9.30664C241.336 9.30664 239.419 9.78092 237.614 10.4923C235.81 11.3223 234.231 12.508 232.765 13.9309C231.412 15.3537 230.284 17.1322 229.495 19.0293C228.706 20.9264 228.367 23.0607 228.367 25.1949C228.367 27.4478 228.818 29.4634 229.495 31.3605C230.284 33.2576 231.412 34.9176 232.765 36.459C234.119 37.8818 235.81 39.0675 237.614 39.8975C239.419 40.7275 241.449 41.0832 243.479 41.0832C245.621 41.0832 247.538 40.6089 249.343 39.8975C251.147 39.0675 252.726 37.8818 254.192 36.459C255.545 35.0362 256.673 33.2576 257.462 31.3605C258.252 29.4634 258.59 27.3292 258.59 25.1949C258.59 23.0607 258.139 20.9264 257.462 19.0293C256.673 17.1322 255.545 15.3537 254.192 13.9309ZM252.275 29.1077C251.824 30.2934 251.147 31.3605 250.245 32.3091C249.343 33.2576 248.44 33.9691 247.2 34.4433C246.072 34.9176 244.832 35.2733 243.479 35.2733C242.125 35.2733 240.998 35.0362 239.757 34.4433C238.629 33.9691 237.614 33.2576 236.712 32.3091C235.81 31.3605 235.134 30.412 234.682 29.1077C234.231 27.922 233.893 26.6178 233.893 25.1949C233.893 23.7721 234.119 22.5864 234.682 21.2821C235.134 20.0964 235.81 19.0293 236.712 18.0808C237.614 17.1322 238.517 16.4208 239.757 15.9465C240.885 15.4722 242.125 15.1166 243.479 15.1166C244.832 15.1166 245.96 15.3537 247.2 15.9465C248.328 16.4208 249.343 17.1322 250.245 18.0808C251.147 19.0293 251.824 19.9779 252.275 21.2821C252.726 22.4678 253.064 23.7721 253.064 25.1949C252.951 26.6178 252.726 27.8035 252.275 29.1077Z" fill="white"/>
<path d="M130.482 109.023L120.558 81.6333L110.634 109.023H130.482ZM123.603 105.703H117.513L120.558 97.403L123.603 105.703Z" fill="white"/>
<path d="M125.971 72.978H115.145L98.0039 120.406H112.213L113.679 116.137H127.324L128.79 120.406H143L125.971 72.978ZM131.384 111.632H109.619L108.379 115.189H105.56L118.867 78.3136H122.024L135.331 115.189H132.512L131.384 111.632Z" fill="white"/>
<path d="M175.929 104.755C177.057 103.925 178.071 102.857 178.974 101.672C179.763 100.605 180.44 99.1818 181.116 97.5219C181.793 95.8619 182.018 93.8462 182.018 91.4748C182.018 88.5106 181.567 85.9021 180.552 83.5307C179.538 81.2779 178.184 79.2622 176.38 77.7208C174.576 76.1794 172.433 74.9937 169.952 74.1637C167.471 73.3337 164.877 72.978 161.945 72.978H146.383V120.406H160.818V108.43L167.584 120.406H184.499L175.929 104.755ZM174.801 115.189H171.756L165.328 103.925C163.75 104.28 162.058 104.399 160.366 104.399H155.179V115.189H152.585V78.3136H160.254C162.396 78.3136 164.426 78.5508 166.231 79.1436C168.035 79.7365 169.726 80.5664 171.08 81.6336C172.433 82.7007 173.561 84.1235 174.35 85.7835C175.139 87.4435 175.591 89.3405 175.591 91.4748C175.591 94.5576 174.801 97.0476 173.335 99.0633C171.982 100.842 170.065 102.265 167.809 103.213L174.801 115.189Z" fill="white"/>
<path d="M173.109 91.3559C173.109 88.036 171.982 85.4275 169.839 83.5304C167.584 81.7518 164.426 80.8032 160.479 80.8032H155.292V101.79H160.479C164.426 101.79 167.584 100.841 169.839 99.0629C171.982 97.2844 173.109 94.6758 173.109 91.3559ZM165.779 95.1501C164.539 95.9801 163.186 96.3358 161.381 96.3358H160.592V85.7831H161.381C163.073 85.7831 164.539 86.1388 165.779 86.9688C167.02 87.7988 167.584 89.1031 167.584 91.0002C167.584 92.8973 167.02 94.3201 165.779 95.1501Z" fill="white"/>
</g>
<defs>
<clipPath id="clip0_24_32505">
<rect width="267.043" height="121.533" fill="white" transform="translate(0.118164 0.176758)"/>
</clipPath>
</defs>
</svg>
