<svg width="258" height="120" viewBox="0 0 258 120" fill="none" xmlns="http://www.w3.org/2000/svg">
<g clip-path="url(#clip0_24_32547)">
<path d="M53.896 24.8662H44.8065L33.8455 53.3144L22.8846 24.8662H13.9287L33.8455 76.5149L53.896 24.8662Z" fill="white"/>
<path d="M74.0804 24.8662H65.6592V76.5149H74.0804V24.8662Z" fill="white"/>
<path d="M104.29 63.2575C114.448 63.2575 122.87 54.6954 122.87 44.0618C122.87 33.5664 114.582 24.8662 104.29 24.8662C93.997 24.8662 85.7095 33.5664 85.7095 44.0618C85.7095 54.6954 94.1307 63.2575 104.29 63.2575ZM104.29 33.4283C110.037 33.4283 114.582 38.1236 114.582 44.0618C114.582 50.0001 110.037 54.6954 104.29 54.6954C98.5418 54.6954 93.997 50.0001 93.997 44.0618C93.997 38.1236 98.5418 33.4283 104.29 33.4283Z" fill="white"/>
<path d="M120.597 67.9531H87.5806V76.5152H120.597V67.9531Z" fill="white"/>
<path d="M161.366 67.9528H142.92V24.8662H134.632V76.5149H161.366V67.9528Z" fill="white"/>
<path d="M207.081 67.9528H182.085V54.9716H202.804V46.4095H182.085V33.5664H207.081V24.8662H173.664V76.5149H207.081V67.9528Z" fill="white"/>
<path d="M225.528 76.5149H233.816V33.5664H242.103V24.8662H217.107V33.5664H225.528V76.5149Z" fill="white"/>
<path d="M104.29 65.4673C115.652 65.4673 124.875 55.9386 124.875 44.2002C124.875 32.4619 115.652 22.9331 104.29 22.9331C92.9278 22.9331 83.7045 32.4619 83.7045 44.2002C83.5709 55.9386 92.9278 65.4673 104.29 65.4673ZM104.29 24.0379C115.117 24.0379 123.805 33.0143 123.805 44.2002C123.805 55.2481 115.117 64.3625 104.29 64.3625C93.4624 64.3625 84.7739 55.3862 84.7739 44.2002C84.7739 33.0143 93.4624 24.0379 104.29 24.0379Z" fill="white"/>
<path d="M0.160645 0.00878906V104.411C0.160645 105.24 0.829002 105.93 1.63102 105.93H61.5151C62.3171 105.93 62.9855 105.24 62.9855 104.411C62.9855 103.582 62.3171 102.892 61.5151 102.892H3.10136V2.90885H254.668V102.892H217.107C216.305 102.892 215.636 103.582 215.636 104.411C215.636 105.24 216.305 105.93 217.107 105.93H256.138C256.94 105.93 257.609 105.24 257.609 104.411V0.00878906H0.160645Z" fill="white"/>
<path d="M252.396 101.097V4.56592H4.03711V101.097C4.03711 101.373 4.30444 101.649 4.57178 101.649H70.2037C70.3374 101.649 70.3374 101.649 70.4711 101.649C71.1394 101.373 71.8078 100.82 72.4761 100.544V100.682L72.3425 100.82C71.8078 101.235 71.2731 101.787 70.6047 102.478C70.2037 102.892 69.9364 103.168 69.6691 103.444C69.5354 103.582 69.2681 103.858 69.1344 103.997C68.3324 104.963 67.5303 105.93 66.862 106.759C66.06 107.725 65.3916 108.692 64.8569 109.521C64.3223 110.349 63.7876 111.178 63.5202 112.006C63.1192 112.697 62.9856 113.387 62.9856 113.94V114.078C63.1192 114.768 63.5202 114.906 63.9212 114.906C64.0549 114.906 64.0549 114.906 64.1886 114.906C64.4559 114.768 64.7233 114.63 64.9906 114.492C65.2579 114.354 65.5253 114.078 65.7926 113.802C66.3273 113.249 66.862 112.559 67.5303 111.868C68.1987 111.04 68.7334 110.211 69.4017 109.106C69.669 108.554 69.9364 108.14 70.2037 107.587C70.4711 107.035 70.7384 106.62 71.1394 106.068L71.5404 105.378C72.2088 105.516 73.0108 105.378 73.9465 104.825C74.7485 104.273 75.6842 103.582 76.3526 102.754L76.4862 102.616C77.5556 102.201 78.6249 101.787 79.6943 101.373C80.7637 100.958 81.5657 100.406 82.3677 99.8536L82.7687 99.5774C82.635 99.8536 82.3677 100.268 82.234 100.544C81.9667 101.097 81.833 101.511 81.833 101.925C81.6994 102.201 81.833 102.339 81.9667 102.478C82.1003 102.478 82.1004 102.616 82.234 102.616C82.3677 102.616 82.5014 102.616 82.5014 102.339C83.0361 101.787 83.7044 101.373 84.5064 100.82C85.4421 100.268 86.1105 99.8536 86.9125 99.5774C87.7145 99.1631 88.2492 99.025 88.7838 98.8869C88.9175 98.8869 89.1849 98.8869 89.1849 98.8869C89.3185 98.8869 89.4522 98.887 89.4522 99.0251C89.3185 99.1632 89.1849 99.4393 89.0512 99.7155C88.7839 99.9917 88.5165 100.406 88.3829 100.682C88.1155 100.958 87.9818 101.373 87.7145 101.649C87.5808 102.063 87.5808 102.339 87.5808 102.616C87.7145 102.892 87.9818 103.03 88.3829 103.03C88.7839 103.03 89.1849 102.892 89.8532 102.754C90.3879 102.616 90.9226 102.339 91.5909 102.063C92.2593 101.787 92.7939 101.511 93.3286 101.235C93.596 101.097 93.8633 100.958 94.1306 100.82C94.1306 100.958 94.1306 100.958 93.997 101.097C93.8633 101.649 94.1307 102.063 94.5317 102.478C94.799 102.754 95.3337 102.892 95.8684 102.892H96.002C96.5367 102.892 97.3387 102.616 98.1407 102.063C98.6754 102.201 99.2101 102.201 99.8785 102.063C100.547 101.925 101.215 101.787 102.017 101.511C102.686 101.235 103.354 100.958 104.022 100.682C104.156 100.544 104.423 100.544 104.557 100.406C104.557 100.544 104.423 100.682 104.423 100.82C104.423 101.097 104.29 101.235 104.29 101.511C104.29 101.925 104.423 102.339 104.691 102.478C104.958 102.754 105.225 102.892 105.626 102.892C105.894 103.03 106.295 103.03 106.829 103.03C107.23 103.03 107.765 103.03 108.433 102.892C109.636 102.616 110.839 102.339 112.042 101.925C113.112 101.511 114.181 101.097 115.251 100.682C115.251 100.82 115.251 100.82 115.251 100.958C115.117 101.511 115.384 101.925 115.785 102.339C116.052 102.616 116.587 102.754 117.122 102.754H117.256C117.79 102.754 118.592 102.477 119.394 101.925C119.929 102.063 120.464 102.063 121.132 101.925C121.8 101.787 122.469 101.649 123.271 101.373C123.404 101.373 123.672 101.235 123.805 101.097C123.538 101.649 123.538 102.063 123.805 102.478C124.206 103.306 124.875 103.444 125.944 103.03C126.746 102.616 127.815 101.925 129.019 100.682C128.35 101.649 127.682 102.616 127.147 103.582C126.211 104.963 125.142 106.482 123.805 108.001L123.672 108.14L122.335 108.968C120.865 109.935 119.394 110.901 118.058 111.868C116.721 112.835 115.518 113.663 114.448 114.492C113.513 115.321 112.577 116.149 111.909 116.84C111.24 117.53 110.839 118.221 110.839 118.773V118.911C110.973 119.325 111.107 119.602 111.508 119.74C111.641 119.74 111.775 119.878 112.042 119.878C112.176 119.878 112.31 119.878 112.443 119.878C112.711 119.74 113.112 119.602 113.513 119.325C113.914 119.049 114.315 118.773 114.716 118.497C115.651 117.806 116.587 116.978 117.657 116.011C118.86 114.906 119.929 113.663 120.998 112.559L122.602 110.763L124.206 108.968L127.281 107.035C128.618 106.206 129.687 105.516 130.623 104.825C131.692 104.135 132.761 103.444 133.831 102.754C134.766 102.063 135.702 101.511 136.638 100.958C136.905 100.682 137.172 100.544 137.573 100.406C137.841 100.13 138.242 99.9917 138.776 99.5774C139.311 99.3012 139.979 98.8869 140.781 98.1965C140.915 98.4726 140.915 98.6108 140.915 98.7489C140.915 99.0251 141.049 99.1631 141.316 99.5774C140.915 100.13 140.514 100.682 140.113 101.235C139.846 101.925 139.712 102.339 140.113 102.892C140.38 103.168 140.781 103.306 141.316 103.306C141.583 103.306 141.717 103.306 141.984 103.306C142.92 103.168 143.856 102.892 144.925 102.478C145.727 102.201 146.529 101.787 147.331 101.373C147.331 101.511 147.198 101.649 147.198 101.787C147.064 102.339 147.198 102.754 147.732 103.03C147.866 103.168 148 103.168 148.267 103.168C148.401 103.168 148.668 103.168 148.802 103.03C149.336 102.892 149.737 102.754 150.272 102.478C150.94 102.201 151.341 101.925 151.876 101.649C152.277 101.373 152.544 101.235 152.812 100.958C152.812 101.235 152.812 101.373 152.812 101.649C152.945 102.063 153.213 102.339 153.614 102.478C154.015 102.616 154.549 102.616 155.084 102.339C155.619 102.201 156.153 101.925 156.822 101.511C157.223 101.235 157.624 101.097 158.025 100.82L158.159 100.682C158.159 100.682 158.159 100.682 158.292 100.682C158.56 100.544 158.827 100.268 158.961 100.268C158.961 100.406 158.961 100.406 158.961 100.544L158.827 100.958L158.693 101.097C158.159 101.511 157.624 102.063 156.956 102.754C156.555 103.168 156.153 103.582 155.886 103.858L155.485 104.273C154.683 105.239 153.881 106.206 153.213 107.035C152.411 108.001 151.742 108.968 151.208 109.797C150.673 110.625 150.138 111.454 149.871 112.282C149.47 113.111 149.336 113.663 149.336 114.216V114.354C149.47 115.044 149.871 115.183 150.272 115.183C150.406 115.183 150.406 115.183 150.539 115.183C150.807 115.044 151.074 114.906 151.341 114.768C151.609 114.63 151.876 114.354 152.143 114.078C152.678 113.525 153.213 112.835 153.881 112.144C154.549 111.316 155.084 110.349 155.752 109.382C156.02 108.83 156.287 108.416 156.554 107.863C156.822 107.449 157.089 106.897 157.49 106.344L157.891 105.654C158.56 105.792 159.362 105.654 160.297 105.101C161.099 104.549 162.035 103.858 162.703 103.03L162.837 102.892H162.971C164.04 102.478 165.109 102.063 166.179 101.649C167.248 101.235 168.05 100.682 168.852 100.268L169.387 99.9917C169.253 100.268 168.986 100.682 168.852 100.958C168.585 101.511 168.451 101.925 168.451 102.339C168.317 102.616 168.451 102.754 168.585 102.892C168.718 102.892 168.718 103.03 168.852 103.03C168.986 103.03 169.119 103.03 169.119 102.754C169.654 102.201 170.323 101.787 171.125 101.235C172.06 100.682 172.729 100.268 173.531 99.9917C174.333 99.5774 174.867 99.4393 175.402 99.3012C175.536 99.3012 175.669 99.3012 175.803 99.3012C175.937 99.3012 176.07 99.3013 176.07 99.4394C175.937 99.5775 175.803 99.8536 175.669 100.13C175.402 100.406 175.268 100.82 175.001 101.097C174.734 101.373 174.6 101.787 174.333 102.063C174.199 102.478 174.199 102.754 174.199 103.03C174.333 103.306 174.6 103.444 175.001 103.444C175.402 103.444 175.803 103.306 176.338 103.168C176.872 103.03 177.407 102.754 178.075 102.478C178.476 102.339 178.877 102.063 179.278 101.925C179.412 102.201 179.546 102.339 179.679 102.616C179.947 102.892 180.348 103.168 180.749 103.306C181.15 103.444 181.551 103.582 182.085 103.582C182.754 103.582 183.556 103.444 184.358 103.306C185.16 103.168 185.828 102.892 186.63 102.616C187.299 102.339 187.967 102.063 188.769 101.649C189.437 101.235 189.972 100.958 190.507 100.544C190.507 100.544 190.507 100.544 190.507 100.406C190.64 100.268 190.774 100.268 191.041 100.13C191.309 99.9917 191.576 99.7155 191.843 99.5774L192.111 99.4394C192.244 99.4394 192.244 99.3012 192.244 99.3012C192.512 99.5774 192.779 99.7155 193.314 99.8536C193.715 99.9917 194.116 99.9917 194.517 99.9917C194.784 101.235 195.452 102.063 196.388 102.754C197.324 103.444 198.527 103.858 199.864 103.997C200.265 103.997 200.799 104.135 201.2 104.135C202.002 104.135 202.938 103.997 203.874 103.858C205.21 103.582 206.413 103.03 207.349 102.478H207.483H251.327C252.129 101.649 252.396 101.373 252.396 101.097ZM121.399 110.901C121.266 111.04 121.132 111.178 121.132 111.316C120.998 111.454 120.731 111.73 120.597 111.868C119.528 112.973 118.325 114.078 117.256 115.183C116.32 116.011 115.384 116.978 114.315 117.668C113.513 118.359 112.844 118.635 112.31 118.773C112.176 118.911 112.042 118.911 112.042 118.911V118.773C112.176 118.359 112.577 117.945 112.978 117.392C113.513 116.84 114.181 116.149 115.117 115.321C115.785 114.768 116.587 114.078 117.657 113.387C118.592 112.697 119.662 112.006 120.731 111.316L121.399 110.901ZM71.1394 103.582C70.7384 103.858 70.6048 104.135 70.4711 104.273V104.687L70.6047 104.963L70.3374 105.654L68.466 108.554C67.9314 109.521 67.263 110.349 66.7283 111.178C66.06 112.006 65.5253 112.559 65.1243 113.111C64.4559 113.802 64.1886 113.94 64.0549 113.94H63.9212L64.0549 113.802C64.0549 113.387 64.3222 112.835 64.7233 112.144C65.1243 111.454 65.5253 110.763 66.06 109.935C66.5946 109.244 67.1293 108.416 67.9313 107.449C68.5997 106.62 69.268 105.792 70.0701 104.963C70.3374 104.687 70.4711 104.411 70.6047 104.273C70.7384 104.135 70.8721 103.997 71.0058 103.858L71.2731 103.582L71.6741 103.168L71.1394 103.582ZM74.2138 103.444C73.6791 103.858 73.0108 104.273 72.6098 104.549C72.3424 104.687 72.0751 104.687 71.9414 104.687C71.9414 104.687 71.9415 104.687 71.8078 104.687L71.9414 104.273L72.2088 104.135C72.3424 104.135 72.3425 104.135 72.4761 103.997C72.7435 103.997 72.8771 103.858 73.1445 103.858C73.4118 103.582 73.8128 103.444 74.2138 103.444ZM77.0209 99.7155C76.8872 100.268 76.4862 100.82 75.9515 101.649L75.6842 101.787L74.4812 102.201C74.3475 102.201 74.2138 102.339 74.0801 102.339C73.9465 102.339 73.6791 102.478 73.5455 102.478C73.2781 102.616 72.8771 102.754 72.7434 102.754H72.6098C72.7434 102.616 72.7434 102.339 72.7434 102.201C72.8771 101.925 72.8771 101.787 73.0108 101.511L73.2781 100.958L73.4118 100.82C73.5455 100.682 73.8128 100.406 73.9465 100.406C74.0801 100.268 74.3475 100.13 74.4812 99.9917C75.9516 98.8869 76.4862 98.6108 76.7535 98.6108H76.8872C77.0209 99.025 77.2882 99.0251 77.0209 99.7155ZM97.4724 101.373C96.9377 101.649 96.5367 101.787 96.002 101.787C95.601 101.787 95.3337 101.649 95.2 101.373C95.0664 100.958 95.2 100.544 95.601 100.13C96.002 99.8536 96.403 99.5774 96.804 99.1631C97.0714 99.025 97.2051 98.7489 97.4724 98.6108C97.2051 99.025 97.0714 99.5774 97.0714 99.9917C97.0714 100.544 97.2051 100.958 97.4724 101.373ZM98.9428 99.8536C98.6754 100.13 98.4081 100.406 98.2744 100.682C98.1408 100.544 98.0071 100.268 98.1407 99.9917C98.2744 99.5774 98.4081 99.1631 98.5418 98.8869C98.8091 98.4726 99.0764 98.1965 99.3438 97.9203C99.6111 97.6441 99.7448 97.506 100.012 97.506C100.012 97.506 100.012 97.6441 100.012 97.7822C100.012 98.0584 99.8785 98.3346 99.6111 98.7489C99.3438 99.1632 99.2101 99.5774 98.9428 99.8536ZM118.459 101.373C117.924 101.649 117.523 101.787 116.988 101.787C116.587 101.787 116.32 101.649 116.186 101.373C116.053 100.958 116.186 100.544 116.587 100.13C116.988 99.8536 117.389 99.5774 117.79 99.1631C118.058 99.025 118.191 98.7489 118.459 98.6108C118.191 99.025 118.058 99.5774 118.058 99.9917C118.058 100.544 118.191 100.958 118.459 101.373ZM119.929 99.8536C119.662 100.13 119.528 100.406 119.261 100.682C119.127 100.544 119.127 100.268 119.127 99.9917C119.127 99.5774 119.394 99.1631 119.528 98.8869C119.795 98.4726 120.063 98.1965 120.33 97.9203C120.597 97.6441 120.731 97.506 120.998 97.506C120.998 97.506 120.998 97.6441 120.998 97.7822C120.998 98.0584 120.865 98.3346 120.597 98.7489C120.464 99.1632 120.196 99.5774 119.929 99.8536ZM152.812 99.9917C152.277 100.406 151.742 100.682 151.208 101.097C150.673 101.373 150.138 101.649 149.604 101.925C149.203 102.063 148.802 102.201 148.534 102.201C148.534 102.201 148.401 102.063 148.534 101.649C148.668 101.373 148.935 100.958 149.203 100.682C149.336 100.544 149.47 100.406 149.604 100.268C149.871 100.13 150.005 99.9917 150.138 99.9917C150.272 99.9917 150.272 99.8536 150.406 99.7155C150.807 99.4393 151.208 99.3012 151.609 99.3012C152.01 99.3012 152.277 99.4394 152.411 99.4394C152.544 99.5775 152.678 99.7155 152.945 99.7155H153.079C152.945 99.8536 152.945 99.9917 152.812 99.9917ZM158.025 103.582C157.624 103.858 157.357 104.135 157.357 104.273V104.687L157.49 104.963L157.223 105.654L155.352 108.554C154.817 109.521 154.148 110.349 153.614 111.178C152.945 112.006 152.411 112.559 152.01 113.111C151.341 113.802 151.074 113.94 150.94 113.94H150.807L150.94 113.802C150.94 113.387 151.208 112.835 151.609 112.144C152.01 111.454 152.411 110.763 152.945 109.935C153.48 109.244 154.015 108.416 154.817 107.449C155.485 106.62 156.154 105.792 156.956 104.963C157.089 104.687 157.357 104.549 157.49 104.273C157.624 104.135 157.758 103.997 157.891 103.858L158.159 103.582L158.56 103.168L158.025 103.582ZM161.099 103.444C160.565 103.858 160.03 104.273 159.495 104.549C159.228 104.687 158.961 104.687 158.827 104.687C158.827 104.687 158.827 104.687 158.693 104.687L158.827 104.273L159.094 104.135L159.362 103.997C159.629 103.997 159.763 103.858 160.03 103.858C160.431 103.582 160.832 103.444 161.099 103.444ZM164.04 99.7155C163.906 100.268 163.505 100.82 162.971 101.649L162.703 101.787L161.5 102.201C161.367 102.201 161.233 102.339 161.099 102.339C160.966 102.339 160.698 102.478 160.565 102.478C160.297 102.616 159.896 102.754 159.763 102.754H159.629C159.763 102.616 159.763 102.339 159.763 102.201C159.896 101.925 159.896 101.787 160.03 101.511L160.297 100.958L160.431 100.82C160.698 100.544 160.832 100.406 160.966 100.406C161.099 100.268 161.367 100.13 161.5 99.9917C162.971 98.8869 163.505 98.6108 163.773 98.6108C163.906 98.6108 163.906 98.6108 163.906 98.6108C163.906 99.025 164.174 99.0251 164.04 99.7155ZM251.193 100.406H207.884C207.75 100.406 207.75 100.406 207.616 100.544C207.616 100.544 207.616 100.544 207.483 100.544C206.28 101.373 204.943 101.787 203.606 102.063C202.27 102.339 200.933 102.339 199.864 102.201C198.661 101.925 197.725 101.511 196.923 100.958C196.121 100.406 195.72 99.5774 195.72 98.4726C195.72 98.3345 195.72 98.1965 195.319 98.1965C195.185 98.1965 195.051 98.1965 194.918 98.1965C194.517 98.3346 194.116 98.3346 193.715 98.1965C193.447 98.0584 193.314 97.9203 193.18 97.7822C193.314 97.6441 193.447 97.506 193.447 97.3679C193.447 97.2298 193.447 97.0917 193.447 96.9536C193.314 96.6774 193.046 96.6774 192.913 96.6774H192.779C192.512 96.6774 192.244 96.9536 192.111 97.506C191.843 97.6441 191.576 97.9203 191.041 98.3346L190.908 98.4726C190.64 98.6107 190.507 98.7488 190.373 98.8869C190.373 98.8869 190.239 98.887 190.239 99.0251C189.304 99.7155 188.234 100.268 187.031 100.82C185.828 101.373 184.491 101.787 183.288 101.925C182.62 102.063 181.952 101.925 181.551 101.787C181.15 101.511 180.749 101.235 180.615 100.958C180.615 100.958 180.615 100.958 180.749 100.958C180.882 100.958 181.016 100.82 181.283 100.682C181.684 100.544 182.085 100.268 182.486 99.9917C182.887 99.7155 183.288 99.4393 183.556 99.1631C183.823 98.8869 183.957 98.4726 183.957 98.1965C183.957 97.7822 183.689 97.506 183.288 97.506C182.887 97.3679 182.62 97.3679 182.219 97.506C181.684 97.6441 181.283 97.9203 180.749 98.1965C180.214 98.6107 179.947 99.025 179.679 99.5774C179.546 99.8536 179.546 99.9917 179.546 100.268C179.546 100.268 179.412 100.268 179.412 100.406C179.145 100.544 178.877 100.682 178.61 100.82C178.343 100.958 178.075 101.097 177.942 101.097L177.674 101.235C177.273 101.373 177.006 101.511 176.739 101.649C176.07 101.925 175.803 102.063 175.669 102.063C175.669 102.063 175.669 101.787 175.937 101.511C176.204 101.097 176.471 100.682 176.872 100.268C177.273 99.7155 177.407 99.3012 177.407 99.0251C177.273 98.4727 176.872 98.0584 176.338 98.0584C175.937 98.0584 175.402 98.0584 174.867 98.3346C174.333 98.6108 173.664 98.8869 172.996 99.1631C172.328 99.5774 171.659 99.8536 171.125 100.13C170.857 100.268 170.59 100.406 170.456 100.544L171.526 98.6108C172.328 98.0584 172.862 97.6441 173.397 97.2298C173.664 97.0917 174.065 96.8155 174.333 96.5393C177.273 94.744 179.278 93.0868 180.214 91.982C180.882 91.1535 181.283 90.463 181.15 89.9106C181.15 89.6344 181.016 89.4963 180.882 89.3582C180.615 89.082 180.214 89.082 179.679 89.2201C179.278 89.3582 178.744 89.6344 178.343 89.9106C177.942 90.1868 177.407 90.463 177.006 90.8773L176.872 91.0154C176.338 91.4296 175.669 91.9821 175.135 92.5344C174.333 93.363 173.531 94.1916 172.862 95.1583C172.194 95.9869 171.526 96.9536 170.991 97.9203L170.857 98.0584C170.59 98.3346 170.189 98.4727 169.921 98.7489C169.52 99.0251 169.253 99.1632 168.852 99.4394C168.317 99.7155 167.783 99.9917 167.114 100.406C166.312 100.82 165.51 101.097 164.842 101.511H164.708L164.976 101.235C165.377 100.682 165.51 100.13 165.644 99.5774C165.644 99.025 165.51 98.6107 164.976 98.1965C164.575 97.9203 163.906 98.0584 163.238 98.3346C162.703 98.6108 161.901 99.1632 161.233 99.7155C161.233 99.5774 161.233 99.4393 161.233 99.3012V98.6108C161.233 98.4727 161.233 98.1965 160.832 98.1965C160.698 98.1965 160.431 98.1965 160.297 98.6108C160.297 98.7489 160.164 98.887 160.03 99.0251C159.896 99.1632 159.629 99.3012 159.094 99.5774C158.56 99.8536 158.025 100.13 157.49 100.544C156.956 100.82 156.421 101.097 155.886 101.373C155.351 101.649 155.084 101.649 154.817 101.511C154.683 101.511 154.683 101.235 154.817 100.82C154.95 100.406 155.218 99.9917 155.619 99.7155C155.886 99.5774 155.886 99.3012 155.752 99.0251C155.619 98.887 155.485 98.7489 155.352 98.7489C155.218 98.7489 154.95 98.887 154.817 99.0251L154.683 99.1631C154.549 99.3012 154.416 99.4394 154.282 99.4394C154.282 99.3013 154.282 99.3012 154.282 99.3012C154.148 99.025 153.881 98.8869 153.614 98.6108C153.213 98.4727 152.945 98.3346 152.411 98.3346C151.742 98.3346 151.208 98.4726 150.539 98.8869C150.272 99.025 150.005 99.3013 149.737 99.4394C149.604 99.5775 149.336 99.5774 149.203 99.7155C148.668 99.9917 148 100.268 147.465 100.544C146.797 100.82 146.262 101.097 145.594 101.373C145.059 101.649 144.391 101.787 143.856 101.925C143.321 102.063 142.92 102.201 142.519 102.201C142.252 102.201 142.118 102.063 142.118 102.063C142.118 101.649 142.252 101.235 142.653 100.958C143.054 100.544 143.321 100.268 143.589 99.9917C143.722 99.9917 143.722 99.9917 143.722 99.8536C143.722 99.7155 143.722 99.5774 143.589 99.3012C143.054 98.6108 142.786 98.0584 142.786 97.506L143.99 96.5393C144.658 96.125 145.059 95.7107 145.326 95.4345C145.594 95.2964 145.727 95.0202 146.128 94.744L146.529 94.3297C146.93 93.9154 147.198 93.5011 147.331 93.2249C147.331 92.9487 147.331 92.8106 147.331 92.6725C147.198 92.5344 147.198 92.5344 147.064 92.5344C146.797 92.5344 146.396 92.5344 145.727 92.8106C145.193 93.0868 144.658 93.363 144.123 93.6392C143.589 94.0535 143.188 94.4678 142.786 95.0202C142.385 95.5726 142.118 96.125 141.984 96.6774L141.851 96.9536L141.316 97.3679C141.049 97.506 140.781 97.7822 140.514 97.9203C140.247 98.0584 139.979 98.3345 139.712 98.4726L139.578 98.6108C139.445 98.6108 139.311 98.6108 139.311 98.7489C139.177 98.887 139.044 98.887 138.91 99.0251C138.643 99.1632 138.509 99.3013 138.375 99.4394C138.108 99.7155 137.707 99.8536 137.306 100.13C136.504 100.682 135.568 101.235 134.633 101.925C134.232 102.201 133.831 102.477 133.43 102.616C132.761 103.03 132.227 103.444 131.558 103.858C130.355 104.549 129.286 105.239 128.217 105.93L127.414 106.482C128.751 104.687 129.687 103.306 130.355 102.063C131.157 100.682 131.826 99.5775 132.227 98.7489C132.227 98.6108 132.36 98.3346 132.093 98.0584C131.959 98.0584 131.826 97.9203 131.826 97.9203C131.692 97.9203 131.558 97.9203 131.558 98.0584C131.024 98.6108 130.489 99.1631 129.954 99.5774C129.42 100.13 128.751 100.682 128.217 101.097C127.682 101.511 127.147 101.925 126.612 102.063C126.211 102.201 125.944 102.339 125.81 102.063C125.677 101.925 125.543 101.787 125.81 101.373C125.944 100.958 126.345 100.682 126.746 100.268C126.88 100.13 127.147 99.9917 127.281 99.8536C127.548 99.7155 127.682 99.5775 127.815 99.4394C128.083 99.3013 128.216 99.1632 128.484 99.0251C129.286 98.6108 130.088 98.1965 130.89 97.9203C131.157 97.7822 131.291 97.506 131.291 97.2298V97.0917C131.157 96.9536 131.024 96.8155 130.623 96.8155C129.954 97.0917 129.152 97.506 128.484 97.7822C127.949 98.0584 127.548 98.3346 127.013 98.6108C126.746 98.7489 126.479 98.8869 126.078 99.1631C125.543 99.4393 124.875 99.7155 124.34 99.8536C123.805 99.9917 123.271 100.268 122.602 100.406C122.201 100.544 121.934 100.544 121.667 100.544C121.8 100.406 121.934 100.268 122.068 100.13C122.335 99.7155 122.602 99.4393 122.87 99.0251C123.137 98.6108 123.271 98.1964 123.271 97.7822C123.404 97.3679 123.271 96.9536 123.003 96.6774C122.87 96.5393 122.736 96.5393 122.736 96.4012C122.602 96.4012 122.602 96.4012 122.469 96.4012H122.335C121.934 96.4012 121.533 96.5393 121.132 96.9536C120.865 97.0917 120.731 97.3679 120.464 97.6441C120.464 97.6441 120.464 97.6441 120.464 97.506C120.464 97.3679 120.33 97.2298 120.063 97.2298C119.929 97.2298 119.795 97.2298 119.662 97.2298C119.261 97.3679 118.86 97.6441 118.325 97.9203C117.924 98.1965 117.657 98.4727 117.389 98.7489C117.256 98.7489 117.122 98.887 116.988 99.0251C116.32 99.3012 115.518 99.7155 114.716 99.9917C113.646 100.406 112.844 100.682 112.042 100.958C111.107 101.235 110.171 101.511 109.503 101.511C108.701 101.649 108.032 101.649 107.631 101.511C107.23 101.373 106.963 101.235 106.963 100.958C106.963 100.682 107.097 100.268 107.23 99.8536C107.364 99.4393 107.631 99.0251 107.899 98.7489C109.102 98.0584 110.438 97.3679 111.508 96.4012C112.711 95.5726 113.914 94.6059 114.983 93.6392C115.652 93.6392 116.454 93.6392 117.256 93.6392C118.058 93.6392 118.86 93.7773 119.528 93.7773C119.662 93.7773 119.795 93.7773 119.929 93.7773C120.33 93.7773 120.464 93.6392 120.464 93.5011C120.464 93.2249 120.464 93.0868 120.196 92.9487L119.795 92.8106L116.053 92.5344C116.721 91.9821 117.256 91.2915 117.79 90.8773C118.325 90.3249 118.592 89.7725 118.726 89.3582C118.726 89.2201 118.726 89.082 118.592 88.9439C118.459 88.8058 118.325 88.6677 118.058 88.6677C117.79 88.6677 117.256 88.8058 116.721 89.082C116.186 89.3582 115.652 89.7725 114.983 90.1868C114.448 90.6011 113.914 91.0154 113.245 91.4297C112.711 91.8439 112.31 92.1201 112.042 92.3963C110.973 92.3963 109.77 92.3963 108.3 92.5344C107.097 92.5344 106.027 92.6725 105.225 92.8106C105.092 92.8106 104.958 92.8106 104.958 92.8106C104.691 92.9487 104.557 93.0868 104.557 93.363C104.557 93.6392 104.824 93.7773 105.092 93.7773C105.225 93.7773 105.359 93.7773 105.493 93.7773C106.428 93.6392 107.23 93.6392 108.166 93.6392C108.968 93.6392 109.904 93.6392 110.839 93.6392C109.904 94.6059 109.235 95.2964 108.701 95.9869C108.032 96.6774 107.498 97.3679 107.097 97.9203L105.225 99.0251C104.691 99.3012 104.156 99.5774 103.621 99.7155C103.087 99.8536 102.552 100.13 101.884 100.268C101.483 100.406 101.215 100.406 100.948 100.406C101.081 100.268 101.215 100.13 101.349 99.9917C101.616 99.5774 101.884 99.3012 102.151 98.8869C102.418 98.4726 102.552 98.0584 102.552 97.6441C102.686 97.2298 102.552 96.8155 102.285 96.5393C102.151 96.4012 102.017 96.4012 102.017 96.2631C101.883 96.2631 101.883 96.2631 101.75 96.2631H101.616C101.215 96.2631 100.814 96.4012 100.413 96.8155C100.146 96.9536 100.012 97.2298 99.7448 97.506C99.7448 97.506 99.7448 97.506 99.7448 97.3679C99.7448 97.2298 99.6111 97.0917 99.3438 97.0917C99.2101 97.0917 99.0764 97.0917 98.9428 97.0917C98.5418 97.2298 98.1408 97.506 97.6061 97.7822C97.3387 97.9203 97.2051 98.0584 96.9377 98.3346C96.5367 98.6108 96.1357 98.7489 95.601 99.0251C95.0663 99.3012 94.5316 99.4393 94.1306 99.7155C93.8633 99.8536 93.596 99.9917 93.3286 100.13C93.0613 100.268 92.9276 100.268 92.6603 100.406L92.3929 100.544C91.9919 100.682 91.7246 100.82 91.4572 100.958C90.7889 101.235 90.5216 101.373 90.3879 101.373C90.3879 101.235 90.3879 101.097 90.6552 100.82C90.9226 100.406 91.1899 100.13 91.5909 99.5774C91.9919 99.025 92.1256 98.7489 92.1256 98.3346C91.9919 97.7822 91.5909 97.3679 91.0562 97.3679C90.6552 97.3679 90.1206 97.3679 89.5859 97.6441C89.0512 97.9203 88.3829 98.1964 87.7145 98.4726C87.0462 98.8869 86.3778 99.1632 85.8431 99.4394C85.5758 99.5775 85.3085 99.7155 85.1748 99.8536L86.2441 97.9203C87.0461 97.3679 87.5808 96.9536 88.1155 96.5393C88.3828 96.4012 88.7839 96.125 89.0512 95.8488C91.9919 94.0535 93.997 92.3963 94.9327 91.2915C95.601 90.463 96.002 89.7725 95.8684 89.2201C95.8684 88.9439 95.7347 88.8058 95.601 88.6677C95.3337 88.3915 94.9327 88.3915 94.398 88.5296C93.997 88.6677 93.4623 88.9439 93.0613 89.2201C92.6603 89.4963 92.1256 89.7725 91.7246 90.1868L91.5909 90.3249C91.0562 90.7392 90.3879 91.2916 89.8532 91.844C89.0512 92.6725 88.2492 93.5011 87.5808 94.4678C86.9125 95.2964 86.2441 96.2631 85.7095 97.2298L85.5758 97.3679C85.3084 97.6441 84.9074 97.7822 84.6401 98.0584C84.2391 98.3346 83.9717 98.4727 83.5707 98.7489C83.036 99.0251 82.5014 99.3012 81.833 99.7155C81.031 100.13 80.3626 100.406 79.5606 100.82H79.4269L79.6943 100.544C80.0953 99.9917 80.229 99.4393 80.3627 98.8869C80.3627 98.3346 80.229 97.9203 79.6943 97.506C79.2933 97.2298 78.6249 97.3679 77.9566 97.6441C77.4219 97.9203 76.7535 98.4727 75.9515 99.0251C75.9515 98.887 75.9515 98.7489 75.9515 98.6108V97.9203C75.9515 97.7822 75.9515 97.506 75.5505 97.506C75.4169 97.506 75.1495 97.506 75.0159 97.9203C74.8822 98.1965 74.6148 98.4727 74.3475 98.7489C73.9465 99.0251 73.6791 99.3012 73.4118 99.3012C73.2781 99.3012 73.2782 99.4394 73.1445 99.4394C72.8771 99.5775 72.6098 99.7155 72.3425 99.8536H7.37886V4.98022H253.332V100.406H251.193ZM181.016 99.5774C181.15 99.3012 181.417 99.0251 181.684 98.7489C182.086 98.3346 182.487 98.1965 183.021 98.1965C183.155 98.1965 183.155 98.1965 183.288 98.1965C183.288 98.3346 183.155 98.4727 183.021 98.6108L182.887 98.7489C182.887 98.7489 182.888 98.7489 182.754 98.7489C182.62 98.7489 182.62 98.7488 182.486 98.8869C181.952 99.025 181.551 99.3012 181.016 99.5774ZM172.729 96.4012C173.263 95.7107 173.932 94.744 174.867 93.9154C175.937 92.6725 177.273 91.7058 178.744 90.7392C179.412 90.3249 179.813 90.0487 179.947 90.0487C180.08 90.0487 180.214 90.0487 180.214 90.0487C180.348 90.3249 180.08 90.6011 179.813 91.0154C179.278 91.5677 178.744 92.1201 178.075 92.6725C177.407 93.363 176.605 93.9154 175.669 94.4678C174.867 95.0202 174.199 95.4345 173.664 95.8488L172.729 96.4012ZM112.042 94.0535C111.374 94.6059 110.706 95.0202 110.037 95.5726C109.369 95.9869 108.701 96.5393 107.899 97.0917C108.567 96.2631 109.102 95.7107 109.503 95.2964C109.904 94.8821 110.305 94.6059 110.572 94.3297L110.839 94.1916H112.042V94.0535ZM111.909 93.0868C112.711 92.3963 113.513 91.8439 114.181 91.4297C114.85 91.0154 115.384 90.7392 115.785 90.463C115.518 90.7392 115.251 91.1535 114.85 91.4297C114.315 91.982 113.78 92.3963 113.245 92.9487H111.909V93.0868ZM85.7095 96.4012C86.2441 95.7107 86.9125 94.744 87.8482 93.9154C88.9175 92.6725 90.2542 91.7058 91.7246 90.7392C92.3929 90.3249 92.7939 90.0487 92.9276 90.0487C93.0613 90.0487 93.195 90.0487 93.195 90.0487C93.3286 90.3249 93.0613 90.6011 92.7939 91.0154C92.3929 91.5677 91.7246 92.1201 91.0562 92.6725C90.3879 93.363 89.5859 93.9154 88.6502 94.4678L86.3778 95.9869L85.7095 96.4012Z" fill="white"/>
</g>
<defs>
<clipPath id="clip0_24_32547">
<rect width="257.448" height="119.869" fill="white" transform="translate(0.160645 0.00878906)"/>
</clipPath>
</defs>
</svg>
