<svg width="193" height="192" viewBox="0 0 193 192" fill="none" xmlns="http://www.w3.org/2000/svg">
<g clip-path="url(#clip0_24_32578)">
<path d="M15.3194 86.8143L15.6271 84.8831L9.33434 83.8005L10.5929 75.6955L10.6209 75.5785L8.80295 75.2859L7.51644 83.5079L2.70598 82.6886L4.10437 73.5595L4.13234 73.4425L2.3424 73.1499L0.636366 84.2102L0.608398 84.3272L15.2076 86.8143H15.3194Z" fill="white"/>
<path d="M13.6132 66.8296C14.4522 67.1808 15.2913 67.3856 16.1023 67.3856C16.7456 67.3856 17.3888 67.2685 18.0041 67.0345C19.4305 66.4785 20.4653 65.4252 21.0806 63.8451C21.7238 62.2358 21.6679 60.7436 20.9407 59.4269L22.3671 60.0413L23.0943 58.2272L12.6343 53.6919L11.9072 55.506L13.3615 56.1205C11.9351 56.5301 10.9283 57.525 10.313 59.0465C9.66973 60.685 9.66973 62.2651 10.341 63.6988C11.0122 65.1326 12.1029 66.1567 13.6132 66.8296ZM11.9631 59.6609C12.4106 58.5491 13.1377 57.8176 14.1166 57.4664C14.5082 57.3201 14.8997 57.2616 15.3192 57.2616C15.9065 57.2616 16.5218 57.4079 17.1651 57.6713C18.2558 58.1394 19.011 58.8417 19.4864 59.778C19.9619 60.7436 19.9898 61.7969 19.5423 62.9088C19.0949 64.0207 18.3677 64.7814 17.3609 65.1326C16.41 65.4837 15.3752 65.4252 14.2844 64.957C13.1937 64.4888 12.4385 63.7866 11.9911 62.821C11.5436 61.8554 11.5436 60.7728 11.9631 59.6609Z" fill="white"/>
<path d="M20.2976 45.9966C20.8849 46.4063 21.4443 46.5818 22.0036 46.5233C22.535 46.4355 23.0664 46.2307 23.5698 45.8796C24.0732 45.5285 24.5767 45.1188 25.0242 44.6507C25.4996 44.1825 25.9471 43.7436 26.3946 43.3925C26.8141 43.0121 27.2336 42.7488 27.6252 42.6025C27.9887 42.4562 28.3523 42.4855 28.6879 42.7488C29.2193 43.1292 29.3871 43.6851 29.2193 44.4166C29.1354 44.7385 29.0235 45.0603 28.8837 45.3529C28.7159 45.6748 28.5481 45.9674 28.3523 46.2892C28.1565 46.6111 27.8769 46.8744 27.5692 47.1378C26.7022 47.8108 25.8632 47.8693 24.9962 47.3719L24.9123 47.3133L23.7936 48.9812L23.9054 49.0397C24.5207 49.4201 25.164 49.6249 25.8073 49.6249C26.1429 49.6249 26.4785 49.5664 26.8141 49.4786C27.9328 49.1567 28.9396 48.3667 29.8066 47.0793C30.6177 45.8796 31.0093 44.7385 31.0093 43.6558C31.0093 42.5732 30.5618 41.6954 29.6388 41.0225C29.0515 40.5836 28.4642 40.408 27.9048 40.4958C27.3455 40.5836 26.8141 40.7884 26.3107 41.1102C25.8073 41.4321 25.3038 41.871 24.8284 42.3391C24.3809 42.8073 23.9334 43.217 23.4859 43.6266C23.0664 44.007 22.6469 44.2703 22.2553 44.4459C21.8918 44.5922 21.5561 44.5629 21.2205 44.3288C20.801 44.0362 20.6332 43.6558 20.6612 43.1584C20.6891 42.661 20.9409 42.0466 21.4163 41.3443C22.3672 39.9106 23.3181 39.5009 24.297 40.0276L24.3809 40.0861L25.4716 38.4476L25.3598 38.3891C24.5487 37.9209 23.6817 37.8039 22.8427 38.0379C21.8358 38.3305 20.9409 39.062 20.1298 40.2617C19.2908 41.5199 18.8992 42.6318 18.9272 43.6266C18.9831 44.5336 19.4306 45.3529 20.2976 45.9966Z" fill="white"/>
<path d="M37.4416 36.8384L38.84 35.4925L34.4211 30.489C33.7779 29.7575 33.4702 28.909 33.5261 28.0019C33.5821 27.0948 33.9457 26.3048 34.6169 25.6904C35.2601 25.0759 36.0153 24.7833 36.7984 24.8418C37.6094 24.9003 38.3366 25.31 39.0078 26.0707L43.4267 31.0742L44.8251 29.7282L40.3223 24.6955C39.3155 23.5544 38.1129 22.9399 36.8263 22.8814C36.239 22.8521 35.6517 22.9399 35.1203 23.174C34.5889 23.4081 34.0296 23.7885 33.4702 24.3151C32.9109 24.8418 32.5473 25.4855 32.3515 26.1878C32.2117 26.773 32.1557 27.3874 32.1557 27.9726L28.1284 23.3788L26.73 24.7248L37.3298 36.7506L37.4416 36.8384Z" fill="white"/>
<path d="M45.1825 9.96195L43.4834 11.0923L44.7737 13.2153L46.4728 12.0849L45.1825 9.96195Z" fill="white"/>
<path d="M51.7054 24.4906L51.7614 24.6076L53.3555 23.525L47.3425 13.6351L47.2865 13.5474L45.6924 14.6007L51.7054 24.4906Z" fill="white"/>
<path d="M61.0471 17.2926C61.7463 17.6437 62.5014 17.8193 63.2566 17.8193C63.9837 17.8193 64.7389 17.6437 65.522 17.3218C67.0882 16.6489 68.1509 15.5662 68.7103 14.0447C69.2137 12.611 69.1578 11.0602 68.5425 9.45091C67.9272 7.84161 66.9204 6.70048 65.6059 6.0275C64.2075 5.35452 62.6972 5.35452 61.159 5.99824C59.5928 6.67121 58.53 7.75383 57.9707 9.27535C57.4672 10.7091 57.5232 12.2599 58.1385 13.8692C58.7258 15.4785 59.7047 16.6196 61.0471 17.2926ZM63.2286 7.34419C63.76 7.34419 64.2634 7.49049 64.7668 7.75383C65.6618 8.25125 66.333 9.04127 66.7526 10.1824C67.2 11.3235 67.256 12.3769 66.9483 13.3717C66.6407 14.3958 65.9135 15.1566 64.8507 15.6248C63.76 16.0929 62.7532 16.0637 61.8582 15.537C60.9632 15.0688 60.292 14.2495 59.8725 13.1084C59.425 11.9673 59.3691 10.9139 59.6767 9.91907C59.9843 8.89497 60.7115 8.13421 61.7743 7.66605C62.2777 7.46123 62.7532 7.34419 63.2286 7.34419Z" fill="white"/>
<path d="M78.1352 12.8159L80.009 12.494L78.9742 5.76421C78.8344 4.76937 79.0022 3.92083 79.5336 3.16007C80.0649 2.42858 80.7641 1.98968 81.6591 1.84338C82.5261 1.69708 83.2812 1.87264 83.9245 2.39932C84.5677 2.89674 84.9593 3.68675 85.1271 4.71085L86.1619 11.4406L88.0358 11.1188L87.0009 4.38899C86.7772 2.83822 86.106 1.63856 85.0432 0.848539C84.5677 0.468159 84.0364 0.23408 83.477 0.0877799C82.9176 -0.0292599 82.2464 -0.0292599 81.4913 0.0877799C80.7362 0.20482 80.0929 0.526679 79.5615 1.0241C79.114 1.43374 78.7504 1.9019 78.4708 2.39932L78.2191 0.819279L76.3452 1.14114L78.1072 12.7281L78.1352 12.8159Z" fill="white"/>
<path d="M178.26 114.904L178.148 114.875L176.442 121.224C176.19 122.102 176.134 123.039 176.246 123.946C176.358 124.882 176.638 125.76 177.085 126.579C178.092 128.393 179.658 129.622 181.784 130.236C182.595 130.471 183.378 130.588 184.161 130.588C185.392 130.588 186.538 130.266 187.629 129.651C188.412 129.183 189.084 128.598 189.643 127.866C190.202 127.135 190.594 126.316 190.818 125.409L192.496 119.176L192.524 119.059L178.26 114.904ZM179.379 117.274L190.286 120.464L189.112 124.853C188.72 126.345 187.825 127.457 186.511 128.071C185.252 128.686 183.826 128.773 182.287 128.335C180.777 127.896 179.602 127.047 178.819 125.818C178.008 124.56 177.785 123.156 178.204 121.663L179.379 117.274Z" fill="white"/>
<path d="M176.582 137.902C175.155 137.054 173.673 136.79 172.219 137.171C170.708 137.551 169.534 138.546 168.695 140.067C168.023 141.267 167.772 142.467 167.884 143.549C168.023 144.661 168.415 145.656 169.114 146.534L169.226 146.651L170.205 144.837L170.233 144.778L170.205 144.72C169.478 143.52 169.45 142.291 170.177 140.945C170.708 139.98 171.435 139.365 172.33 139.073C173.197 138.809 174.064 138.868 174.931 139.219L170.401 147.558L170.345 147.646L171.016 148.055C172.051 148.67 173.086 148.992 174.12 148.992C174.54 148.992 174.931 148.933 175.351 148.845C176.861 148.465 178.036 147.499 178.875 145.978C179.714 144.456 179.91 142.906 179.434 141.355C178.987 139.95 178.036 138.78 176.582 137.902ZM177.365 145.129C176.889 146.036 176.19 146.622 175.323 146.914C174.54 147.178 173.701 147.148 172.862 146.826L176.47 140.214C177.169 140.828 177.616 141.56 177.812 142.379C178.008 143.315 177.868 144.222 177.365 145.129Z" fill="white"/>
<path d="M166.289 156.219C166.261 156.219 166.261 156.219 166.233 156.219C165.702 156.219 165.143 156.365 164.611 156.658C164.08 156.921 163.548 157.272 163.017 157.682C162.486 158.092 161.982 158.443 161.507 158.765C161.031 159.087 160.584 159.291 160.192 159.379C159.801 159.467 159.465 159.379 159.157 159.087C158.682 158.648 158.57 158.092 158.822 157.389C158.934 157.068 159.101 156.775 159.269 156.512C159.437 156.219 159.661 155.956 159.913 155.663C160.164 155.371 160.444 155.136 160.78 154.932C161.703 154.376 162.542 154.405 163.353 155.019L163.437 155.078L164.751 153.556L164.667 153.469C163.828 152.766 162.877 152.503 161.814 152.649C160.668 152.825 159.577 153.498 158.57 154.639C157.619 155.722 157.088 156.804 156.976 157.858C156.864 158.911 157.2 159.847 158.039 160.637C158.57 161.135 159.129 161.398 159.689 161.398C160.248 161.398 160.808 161.252 161.339 160.988C161.87 160.725 162.43 160.374 162.961 159.964C163.464 159.555 163.968 159.204 164.443 158.882C164.919 158.56 165.338 158.355 165.758 158.238C166.149 158.121 166.457 158.209 166.765 158.501C167.52 159.204 167.324 160.169 166.233 161.457C165.115 162.744 164.136 163.037 163.241 162.393L163.157 162.334L161.87 163.827L161.982 163.914C162.597 164.383 163.269 164.617 163.968 164.617C164.136 164.617 164.276 164.617 164.443 164.587C165.478 164.441 166.457 163.797 167.38 162.744C168.359 161.603 168.89 160.55 168.974 159.555C169.058 158.56 168.694 157.682 167.939 156.98C167.38 156.453 166.849 156.219 166.289 156.219Z" fill="white"/>
<path d="M156.109 175.735L157.592 177.694L159.186 176.378L157.676 174.418L156.109 175.735Z" fill="white"/>
<path d="M149.649 163.944L149.593 163.856L148.11 165.085L155.074 174.273L155.13 174.36L156.613 173.131L149.649 163.944Z" fill="white"/>
<path d="M141.202 172.312C139.776 171.785 138.322 171.902 136.895 172.721C135.441 173.541 134.574 174.711 134.294 176.233L133.735 175.121C133.204 174.097 133.064 173.16 133.287 172.37C133.511 171.58 134.182 170.849 135.301 170.264C136.728 169.474 137.93 169.474 138.853 170.264L138.909 170.322L140.727 169.298L140.615 169.181C139.86 168.42 138.965 167.952 137.902 167.835C136.839 167.718 135.609 168.04 134.238 168.801C132.868 169.561 131.945 170.585 131.526 171.814C131.106 173.072 131.274 174.448 132.029 175.94L137.063 185.888L137.119 186.005L138.797 185.069L138.07 183.635C139.384 184.25 140.783 184.162 142.181 183.401C143.691 182.553 144.642 181.382 145.034 179.832C145.398 178.339 145.202 176.847 144.447 175.326C143.664 173.833 142.573 172.809 141.202 172.312ZM143.188 179.393C142.936 180.446 142.293 181.265 141.258 181.85C140.251 182.406 139.245 182.494 138.294 182.114C137.371 181.733 136.644 181.002 136.112 179.949C135.581 178.895 135.413 177.842 135.637 176.847C135.749 176.35 135.972 175.911 136.28 175.472C136.588 175.062 137.007 174.711 137.539 174.418C138.154 174.067 138.769 173.892 139.384 173.892C139.776 173.892 140.168 173.95 140.559 174.097C141.51 174.477 142.265 175.179 142.797 176.233C143.272 177.315 143.412 178.369 143.188 179.393Z" fill="white"/>
<path d="M123.891 178.662L122.073 179.159L123.723 185.743C123.974 186.708 123.863 187.586 123.415 188.376C122.968 189.137 122.296 189.663 121.429 189.897C120.59 190.132 119.807 190.015 119.108 189.576C118.437 189.137 117.961 188.405 117.71 187.41L116.06 180.798L114.242 181.295L115.892 187.937C116.283 189.459 117.038 190.57 118.157 191.273C118.661 191.595 119.22 191.799 119.779 191.858C119.919 191.887 120.087 191.887 120.255 191.887C120.702 191.887 121.206 191.829 121.737 191.682C122.464 191.478 123.08 191.097 123.555 190.57C123.947 190.132 124.282 189.634 124.534 189.078L124.925 190.629L126.743 190.132L123.919 178.779L123.891 178.662Z" fill="white"/>
<path d="M108.564 87.9555L108.452 87.9263L106.746 90.0037L106.718 90.033V90.0915C106.662 90.5011 106.718 90.8815 106.858 91.2034C106.998 91.496 107.194 91.7593 107.417 92.0227C107.641 92.2567 107.865 92.5201 108.089 92.7542C108.312 92.9882 108.48 93.2223 108.648 93.4857L108.704 93.6027L108.816 93.5734C109.403 93.4271 109.571 93.1053 109.599 92.8419C109.655 92.5201 109.655 92.1982 109.655 91.8471C109.655 91.5252 109.655 91.2034 109.711 90.8815C109.739 90.6182 109.935 90.4426 110.27 90.2963L110.466 90.2085L110.354 90.033C110.214 89.8282 110.102 89.6234 110.018 89.4478C109.907 89.243 109.823 89.0674 109.711 88.8626C109.599 88.6578 109.459 88.4822 109.291 88.3359C109.068 88.1896 108.844 88.0726 108.564 87.9555Z" fill="white"/>
<path d="M168.023 105.277C168.499 105.072 169.002 104.838 169.45 104.575C169.561 104.517 169.673 104.429 169.785 104.341C169.869 104.253 169.953 104.195 170.065 104.165L173.197 102.585L173.477 102.878L173.589 102.79C174.036 102.41 174.484 102.117 174.987 101.912C175.463 101.708 175.966 101.474 176.442 101.21C176.609 101.21 176.777 101.122 176.889 100.947C176.973 100.801 177.085 100.654 177.197 100.508C177.309 100.362 177.42 100.215 177.56 100.098C177.644 100.011 177.784 99.9812 177.98 100.04L178.064 100.069L178.12 100.011C178.315 99.8642 178.483 99.6594 178.651 99.4546C178.791 99.279 178.959 99.0742 179.098 98.8986C179.294 98.6938 179.434 98.5182 179.518 98.4012C179.602 98.2842 179.686 98.1964 179.77 98.0794C179.826 97.9916 179.91 97.8745 180.021 97.7868C180.105 97.6697 180.245 97.5234 180.441 97.3479L180.553 97.2308L180.441 97.1138C180.441 97.1138 180.441 97.1138 180.441 97.0553C180.441 96.9675 180.469 96.9382 180.469 96.909L180.497 96.4993C180.497 96.3237 180.413 96.1774 180.245 96.0897L180.161 96.0604L180.077 96.1189C179.826 96.353 179.546 96.5578 179.266 96.7627C178.987 96.9675 178.707 97.143 178.427 97.3479C178.064 97.5819 177.812 97.7575 177.616 97.8745C177.42 97.9916 177.225 98.1379 177.085 98.2549C176.945 98.3719 176.777 98.5183 176.637 98.6646L175.966 99.3375L175.742 99.0157L175.603 99.162C175.379 99.396 175.127 99.6301 174.903 99.835C174.708 100.011 174.456 100.04 174.12 99.9227L174.036 99.8935L173.98 99.9227C173.841 100.011 173.701 100.069 173.533 100.098C173.337 100.128 173.169 100.157 173.002 100.215C172.834 100.274 172.666 100.332 172.526 100.449C172.358 100.566 172.246 100.771 172.135 101.064C171.883 101.093 171.631 101.122 171.379 101.152C171.1 101.181 170.848 101.21 170.596 101.298C170.345 101.356 170.093 101.474 169.897 101.62C169.673 101.766 169.478 101.971 169.31 102.234C169.226 102.41 169.142 102.527 169.114 102.673C169.058 102.79 169.03 102.937 169.002 103.054C168.89 103.083 168.75 103.083 168.611 103.054C168.471 103.054 168.387 102.966 168.303 102.849L168.247 102.761L168.135 102.79C167.632 102.878 167.128 103.024 166.653 103.2C166.177 103.375 165.702 103.58 165.282 103.785C164.835 103.99 164.387 104.195 163.912 104.37C163.465 104.546 162.989 104.663 162.514 104.721C162.01 104.37 161.311 104.458 160.612 104.517C160.304 104.546 159.969 104.546 159.689 104.517C159.465 104.487 159.269 104.399 159.102 104.253C159.241 103.961 159.437 103.727 159.661 103.551C159.941 103.346 160.22 103.171 160.528 103.054C160.836 102.907 161.171 102.79 161.479 102.702C161.814 102.615 162.122 102.468 162.402 102.293C162.681 102.117 162.905 101.883 163.101 101.62C163.269 101.386 163.353 101.064 163.381 100.654C163.52 100.683 163.632 100.713 163.772 100.742C163.968 100.771 164.164 100.83 164.332 100.888L164.415 100.918L164.471 100.888C164.667 100.771 164.807 100.566 164.919 100.332C165.003 100.157 165.087 99.9813 165.226 99.835C165.422 99.9813 165.59 100.069 165.73 100.04C165.814 100.04 165.898 99.9812 165.954 99.8935C166.038 99.7472 166.121 99.5716 166.205 99.3083C166.261 99.1034 166.345 98.8986 166.485 98.7231C166.569 98.606 166.765 98.5768 167.072 98.6646L167.128 98.6938L167.184 98.6646C167.66 98.3427 168.023 97.9623 168.303 97.4942C168.555 97.0553 168.778 96.5578 169.002 96.0604C169.142 95.7678 169.282 95.4752 169.422 95.2119C169.561 94.9485 169.701 94.6852 169.897 94.4511C170.093 94.1878 170.177 93.8659 170.177 93.5148C170.177 93.2222 170.093 92.9589 169.925 92.7248C170.205 92.52 170.289 92.1981 170.177 91.7592C170.037 91.291 169.757 90.9107 169.338 90.5595C168.918 90.2084 168.387 90.0036 167.8 89.9451C167.212 89.8866 166.653 90.1206 166.093 90.6766C165.73 90.4132 165.45 90.384 165.199 90.5303C165.003 90.6766 164.807 90.8521 164.611 91.057C164.443 91.2618 164.22 91.4373 163.996 91.6129C163.8 91.7592 163.548 91.7592 163.213 91.5836L163.129 91.5544L163.045 91.6422C162.709 91.9933 162.318 92.3151 161.954 92.6077C161.563 92.9003 161.171 93.2222 160.808 93.5441C160.416 93.8659 160.052 94.217 159.717 94.5682C159.353 94.9485 159.046 95.3582 158.794 95.8263L158.766 95.8849V95.9434C158.822 96.2067 158.822 96.3823 158.794 96.5286C158.766 96.6749 158.71 96.7919 158.626 96.909C158.542 97.026 158.458 97.143 158.346 97.2601C158.235 97.3771 158.095 97.5527 157.983 97.7575L157.927 97.816L157.955 97.9038C157.983 97.9916 158.039 98.0793 158.151 98.1671C158.179 98.1964 158.207 98.2549 158.207 98.3134C158.207 98.5182 158.151 98.5768 158.151 98.606C158.095 98.6645 158.039 98.6938 157.983 98.6938C157.871 98.6938 157.759 98.6938 157.647 98.6938C157.507 98.6938 157.396 98.6646 157.284 98.6646H157.116V98.8401C157.116 98.9864 157.116 99.1327 157.144 99.279C157.144 99.396 157.172 99.5424 157.172 99.6887C157.172 100.098 157.116 100.449 157.004 100.771C156.892 101.093 156.752 101.386 156.584 101.649C156.389 101.971 156.277 102.322 156.333 102.761C156.333 102.819 156.361 102.878 156.361 102.936C156.249 102.995 156.165 103.083 156.081 103.229L155.801 102.936L155.689 103.141C155.382 103.697 155.186 103.844 155.102 103.873C154.906 103.931 154.739 103.961 154.571 103.931C154.347 103.902 154.123 103.931 153.9 103.99C153.676 104.048 153.48 104.282 153.228 104.663C153.116 104.546 152.977 104.487 152.837 104.487C152.837 104.487 152.837 104.487 152.809 104.487C152.669 104.487 152.501 104.575 152.361 104.721C152.138 104.517 151.942 104.399 151.774 104.399C151.578 104.399 151.382 104.429 151.215 104.487C151.047 104.546 150.907 104.634 150.739 104.692C150.599 104.751 150.46 104.751 150.292 104.692C150.18 104.634 150.152 104.604 150.152 104.604C150.124 104.575 150.04 104.517 149.956 104.458C149.509 104.107 149.257 103.727 149.229 103.375C149.173 102.995 149.145 102.585 149.145 102.234C149.145 101.825 149.089 101.474 148.977 101.122C148.865 100.771 148.558 100.479 148.026 100.245C148.082 99.952 148.194 99.6886 148.334 99.5131C148.502 99.279 148.698 99.1035 148.921 98.9572C149.145 98.8109 149.397 98.6645 149.676 98.5475C149.956 98.4305 150.264 98.2549 150.543 98.0794L150.655 98.0208L150.627 97.9038C150.487 97.4942 150.459 97.1138 150.543 96.7919C150.627 96.47 150.739 96.1482 150.879 95.8263C151.019 95.5337 151.187 95.2119 151.327 94.8608C151.466 94.5096 151.522 94.1293 151.466 93.6904V93.6318L151.438 93.6026C151.299 93.4563 151.131 93.3392 150.935 93.2807C150.739 93.2222 150.543 93.1929 150.348 93.2515C150.152 93.2807 149.984 93.3685 149.816 93.4563C149.648 93.5733 149.537 93.7196 149.453 93.8952C148.921 94.4511 148.446 95.1241 148.026 95.9434C147.635 96.7626 147.215 97.4941 146.824 98.1379L146.796 98.1964C146.712 98.7523 146.46 99.1912 146.124 99.5424C145.761 99.8935 145.313 100.245 144.838 100.566C144.363 100.888 143.859 101.239 143.384 101.591C142.908 101.942 142.545 102.381 142.237 102.907C141.957 102.878 141.734 102.936 141.566 103.083C141.398 103.229 141.258 103.405 141.146 103.609C141.034 103.814 140.95 104.019 140.839 104.253C140.783 104.399 140.699 104.546 140.587 104.663C140.251 104.517 139.944 104.487 139.692 104.604C139.412 104.721 139.161 104.868 138.937 105.043C138.741 105.19 138.517 105.336 138.321 105.424C138.266 105.453 138.098 105.541 137.818 105.336L137.678 105.248L137.594 105.394C137.51 105.511 137.427 105.599 137.315 105.599C137.203 105.628 137.063 105.628 136.951 105.599C136.839 105.365 136.671 105.16 136.504 104.955C136.364 104.78 136.336 104.604 136.42 104.399C136.699 104.282 137.063 104.078 137.035 103.785C137.035 103.697 137.007 103.639 136.979 103.551L137.007 103.522L137.091 103.434L136.783 102.907L136.671 102.966C136.587 102.849 136.532 102.732 136.476 102.615C136.448 102.556 136.42 102.439 136.671 102.264L136.727 102.234L136.755 102.176C136.951 101.561 137.203 100.947 137.51 100.391C137.818 99.8057 138.098 99.2205 138.405 98.6353C138.685 98.0501 138.965 97.4356 139.216 96.8212C139.468 96.2067 139.664 95.563 139.776 94.9193C139.804 94.773 139.86 94.6559 139.916 94.4804C139.972 94.3048 139.972 94.1293 139.944 93.983C139.944 93.5733 139.776 93.2807 139.468 93.0759C139.188 92.9003 138.881 92.8126 138.573 92.8418C138.266 92.8711 137.986 93.0174 137.762 93.2515C137.538 93.4855 137.482 93.8367 137.594 94.2463C136.587 95.0656 135.804 96.1189 135.245 97.3186C134.686 98.5768 134.322 99.8642 134.154 101.21V101.298L134.238 101.356C134.322 101.415 134.322 101.474 134.294 101.561C134.21 101.737 134.154 101.883 134.07 102.059C133.986 102.264 133.959 102.439 133.959 102.644C133.986 102.936 134.266 103.083 134.462 103.171C134.462 103.288 134.462 103.434 134.434 103.551C134.434 103.58 134.434 103.697 134.21 103.814L134.098 103.873L134.126 103.99C134.154 104.195 134.21 104.399 134.266 104.575C134.07 104.721 133.875 104.838 133.679 104.985C133.455 105.16 133.259 105.365 133.064 105.541C132.868 105.745 132.672 105.921 132.448 106.097C132.42 106.126 132.364 106.155 132.252 106.243C132.113 106.331 131.973 106.448 131.805 106.565C131.637 106.682 131.497 106.77 131.358 106.857C131.19 106.945 131.134 107.004 131.106 107.033C130.77 107.208 130.491 107.325 130.323 107.443C130.155 107.53 129.903 107.735 129.54 107.998C129.092 108.028 128.645 108.116 128.169 108.233C127.75 108.35 127.358 108.437 126.967 108.525C126.855 108.116 126.687 107.735 126.491 107.384C126.267 106.974 126.044 106.565 125.82 106.155L125.764 106.097C125.596 105.98 125.428 105.862 125.261 105.745C125.121 105.628 124.953 105.541 124.813 105.453C124.841 105.277 124.897 105.072 124.953 104.868C125.009 104.634 125.065 104.399 125.093 104.165C125.149 104.048 125.261 103.873 125.372 103.58C125.512 103.258 125.652 102.937 125.792 102.556L126.156 101.561C126.267 101.269 126.323 101.093 126.351 101.035C126.435 100.771 126.519 100.479 126.575 100.215L126.743 99.3961C126.883 99.162 126.995 98.8986 127.078 98.606C127.162 98.3134 127.246 98.0501 127.358 97.816C127.498 97.4941 127.638 97.2015 127.75 96.9675C127.862 96.7334 127.973 96.4993 128.057 96.2652C128.141 96.0312 128.253 95.7971 128.337 95.563C128.421 95.3582 128.505 95.0948 128.617 94.8315C128.924 94.773 129.204 94.7145 129.484 94.6559C129.791 94.5974 130.127 94.5389 130.463 94.4804L130.658 94.4511L129.679 92.1396L127.722 91.5544L127.666 91.6129C127.582 91.6714 127.47 91.7299 127.33 91.7885C127.162 91.847 127.023 91.9055 126.827 91.9933C126.659 92.0518 126.491 92.1103 126.295 92.1688C126.128 92.2274 125.96 92.2859 125.848 92.3151L125.82 92.3444C125.736 92.4029 125.624 92.4907 125.484 92.5492C125.344 92.637 125.177 92.7248 124.981 92.8126L124.449 93.0466C124.282 93.1344 124.142 93.1929 124.058 93.2222C123.555 93.427 123.051 93.6318 122.576 93.8367C122.072 94.0415 121.569 94.3048 121.093 94.6267C120.814 94.8608 120.59 95.0363 120.422 95.1826C120.282 95.2996 120.059 95.4752 119.751 95.7093C119.555 95.9141 119.387 96.1482 119.22 96.4408C119.08 96.7041 118.94 96.9382 118.772 97.143C118.604 97.3186 118.408 97.4941 118.185 97.6697C117.933 97.8453 117.709 98.0208 117.513 98.1964L116.786 99.8057C116.786 99.8057 116.758 99.8642 116.618 100.04C116.507 100.157 116.395 100.303 116.255 100.449L115.891 100.83C115.752 100.976 115.696 101.064 115.668 101.152L115.024 102.673C114.829 102.907 114.661 103.141 114.521 103.375C114.353 103.609 114.213 103.873 114.045 104.136L114.018 104.195L114.045 104.282C114.073 104.37 114.101 104.458 114.101 104.546C113.85 104.604 113.626 104.721 113.458 104.955L113.43 104.985V105.014C113.374 105.307 113.29 105.482 113.178 105.541C113.011 105.599 112.843 105.628 112.647 105.658C112.423 105.658 112.2 105.716 111.976 105.775C111.724 105.862 111.556 106.067 111.444 106.448C111.221 106.535 111.025 106.535 110.857 106.506C110.661 106.477 110.466 106.418 110.27 106.36C110.074 106.301 109.85 106.272 109.627 106.301C109.403 106.301 109.151 106.418 108.843 106.594C108.508 106.565 108.172 106.594 107.809 106.623C107.473 106.653 107.193 106.565 106.942 106.36L106.858 106.301L106.774 106.331C106.578 106.418 106.298 106.477 106.187 106.36C106.075 106.214 105.991 106.009 105.935 105.745C105.879 105.453 105.851 105.16 105.851 104.838C105.851 104.575 105.795 104.37 105.739 104.224C105.879 104.136 105.963 104.019 106.019 103.902C106.075 103.756 106.131 103.58 106.159 103.405C106.187 103.258 106.242 103.141 106.298 103.024C106.326 102.937 106.438 102.907 106.606 102.907H106.858L106.746 102.673C106.522 102.176 106.466 101.795 106.606 101.503C106.774 101.181 106.97 100.83 107.249 100.537C107.529 100.215 107.781 99.8349 108.004 99.4838C108.256 99.0742 108.284 98.5768 108.144 97.9331C108.088 97.7282 108.004 97.5819 107.893 97.4649C107.893 97.4356 107.921 97.4356 107.921 97.4064L108.032 97.1138L107.725 97.2016C107.669 97.2308 107.613 97.2601 107.557 97.2601C107.501 97.2308 107.445 97.2016 107.389 97.1723C107.221 97.143 107.054 97.1138 106.886 97.143C106.718 97.143 106.55 97.1723 106.41 97.1723H106.354L106.298 97.2308C106.131 97.4064 105.963 97.5819 105.767 97.7575C105.571 97.9331 105.375 98.1671 105.208 98.372C105.04 98.606 104.928 98.8401 104.816 99.0742C104.536 99.3668 104.257 99.6301 104.005 99.952L102.439 101.737C101.963 102.293 101.376 102.761 100.761 103.141C100.509 103.054 100.285 103.054 100.09 103.112C99.8938 103.171 99.726 103.258 99.5582 103.405C99.3904 103.522 99.2505 103.697 99.1386 103.873C99.0268 104.019 98.9149 104.165 98.7751 104.312C98.4115 104.37 98.0759 104.517 97.7403 104.692C97.3767 104.897 97.0411 105.131 96.7334 105.394C96.4258 105.658 96.1181 105.98 95.8384 106.272C95.6147 106.535 95.4189 106.77 95.2232 107.004L94.468 105.892L93.9087 106.448C93.7968 106.301 93.6849 106.126 93.5731 105.95C93.4332 105.716 93.3214 105.453 93.2095 105.19C93.0976 104.926 93.0417 104.663 93.0137 104.37C92.9857 104.107 93.0137 103.873 93.0696 103.639V103.609V103.58C92.9578 102.615 92.8739 101.62 92.79 100.625C92.7061 99.6594 92.6781 98.6645 92.734 97.7282C93.2934 96.4993 93.8248 95.2411 94.3002 93.983C94.7477 92.754 95.2232 91.4666 95.6986 90.1206C95.8384 89.711 95.9783 89.3014 96.1181 88.8625L96.202 88.5991C96.3698 88.1017 96.5377 87.6043 96.7334 87.0776C96.9572 86.4046 97.2368 85.995 97.5725 85.8194C97.9081 85.6439 98.2996 85.5561 98.6632 85.5853C99.0827 85.5853 99.5022 85.6146 99.9217 85.6439C100.369 85.6731 100.789 85.5268 101.236 85.2635C101.488 85.4098 101.768 85.4683 102.019 85.4098C102.271 85.3513 102.467 85.2342 102.607 85.0587L103.054 85.5268H103.11C103.502 85.5561 103.893 85.5268 104.285 85.439C104.648 85.3513 105.04 85.2635 105.403 85.1757C105.767 85.0879 106.131 85.0001 106.466 84.9416C106.802 84.8831 107.137 84.9124 107.417 85.0001L107.529 85.0294L107.585 84.9416C107.781 84.649 108.004 84.4735 108.284 84.4735C108.592 84.4442 108.927 84.5027 109.235 84.5613C109.599 84.6198 109.934 84.649 110.298 84.649C110.689 84.649 111.053 84.4442 111.361 84.0931L111.416 84.0346L111.389 83.9468C111.305 83.6834 111.305 83.5079 111.333 83.3323C111.389 83.1568 111.416 82.9812 111.472 82.8057C111.5 82.6301 111.5 82.4253 111.416 82.2497C111.333 82.0742 111.137 81.8693 110.801 81.6645L110.745 81.6353H110.689C110.382 81.6938 110.018 81.7816 109.655 81.8693C109.263 81.9571 108.899 82.0449 108.508 82.1034C108.116 82.1619 107.753 82.2205 107.389 82.2205C107.026 82.2497 106.662 82.2205 106.382 82.1912H106.326L106.27 82.2205C106.131 82.3375 105.991 82.3667 105.851 82.3082C105.683 82.2497 105.515 82.1912 105.32 82.1034C105.124 82.0156 104.928 81.9279 104.676 81.8401C104.425 81.7523 104.145 81.8108 103.865 81.9571L103.837 81.9864L103.809 82.0156C103.697 82.1912 103.53 82.4253 103.362 82.4253C103.194 82.4253 102.998 82.396 102.802 82.3375C102.579 82.2497 102.383 82.1912 102.159 82.1619C101.935 82.1327 101.74 82.1912 101.516 82.396C101.264 82.1327 100.929 82.1912 100.593 82.3082C100.453 82.3667 100.285 82.4253 100.09 82.4838C99.9497 82.5131 99.8099 82.5131 99.67 82.4838C99.5022 82.2497 99.3065 82.0156 99.0827 81.7816C98.9149 81.5767 98.8869 81.3427 98.9988 81.0501C99.1666 80.9038 99.3344 80.6697 99.4743 80.3771C99.6141 80.143 99.7539 80.026 99.9217 79.9967H100.062L100.09 79.8797C100.118 79.7626 100.173 79.6163 100.285 79.4408C100.425 79.2359 100.509 79.0604 100.593 78.8556C100.705 78.6507 100.705 78.4459 100.677 78.2411C100.621 78.0655 100.509 77.9485 100.313 77.8315C100.481 77.5974 100.593 77.3633 100.677 77.1C100.789 76.8074 100.873 76.4855 100.957 76.1344C101.04 75.8125 101.096 75.4907 101.152 75.1395C101.208 74.8177 101.292 74.5251 101.404 74.2325L101.46 74.1154L101.292 73.7351C101.04 73.5888 100.789 73.4425 100.537 73.2962C100.257 73.1499 99.9217 73.0913 99.5861 73.1499L99.5302 73.1791C98.7751 73.618 98.2157 74.174 97.8521 74.8469C97.4886 75.4907 97.2089 76.1929 96.9851 76.9537C96.7614 77.7144 96.5656 78.4752 96.3978 79.2359C96.23 79.9674 96.0063 80.6697 95.6706 81.3427C95.2232 81.7523 94.8036 82.0742 94.3562 82.279C93.9087 82.4838 93.4332 82.6301 92.9578 82.6886C92.4823 82.7471 91.9789 82.7471 91.4755 82.7179C90.9721 82.6594 90.4127 82.5716 89.8533 82.4545H89.7974L89.7415 82.4838C89.5457 82.6008 89.3779 82.6594 89.1542 82.6594C88.9024 82.6594 88.7067 82.6886 88.5109 82.7179C88.2871 82.7471 88.1193 82.8349 87.9515 82.9812C87.7837 83.1275 87.6998 83.3908 87.6719 83.8005V84.1516C87.6998 84.3564 87.8397 84.532 88.0634 84.5905C88.399 84.6783 88.8185 84.6783 89.2101 84.6198C89.5457 84.5613 89.7135 84.5613 89.7974 84.5905C89.8533 84.6198 89.9372 84.649 90.0212 84.7075C90.3568 84.8538 90.7203 84.9124 91.0839 84.9416C91.7551 84.9709 92.4543 84.9709 93.1256 85.0294C93.3773 85.0587 93.657 85.1172 93.9366 85.205C93.3493 86.7265 92.79 88.2773 92.2586 89.8573C91.6992 91.4666 91.2238 93.1052 90.8042 94.773C90.6364 95.446 90.4966 96.1189 90.3288 96.7627C90.189 97.4356 90.0212 98.1086 89.8533 98.7816L89.7415 99.2498C89.7135 99.3961 89.6855 99.5716 89.7135 99.7764C89.7415 100.098 89.7694 100.391 89.8533 100.713C89.9372 101.005 89.9652 101.269 89.9932 101.532C89.9932 101.591 89.9932 101.678 89.9932 101.737C89.9093 101.795 89.8254 101.854 89.7415 101.912C89.6296 101.971 89.4898 102.029 89.3499 102.029H89.266V102.205C89.266 102.732 89.1821 102.819 89.1821 102.819C89.0982 102.849 88.9863 102.849 88.8465 102.819C88.6787 102.761 88.4829 102.732 88.2871 102.702C88.0914 102.702 87.9236 102.819 87.7837 103.083L87.5041 102.79L87.3922 102.995C87.0845 103.551 86.8888 103.697 86.8049 103.727C86.6091 103.785 86.4413 103.814 86.2735 103.785C86.0497 103.756 85.826 103.785 85.6022 103.844C85.3785 103.902 85.1827 104.136 84.931 104.517C84.8191 104.4 84.6793 104.341 84.5395 104.341C84.5395 104.341 84.5395 104.341 84.5115 104.341C84.3717 104.341 84.2039 104.429 84.064 104.575C83.8403 104.37 83.6445 104.253 83.4767 104.253C83.2809 104.253 83.0851 104.282 82.9173 104.341C82.7495 104.4 82.6097 104.487 82.4419 104.546C82.302 104.604 82.1622 104.604 81.9944 104.546C81.8825 104.487 81.8546 104.458 81.8546 104.458C81.8266 104.429 81.7427 104.37 81.6588 104.312C81.2113 103.961 80.9596 103.58 80.9316 103.229C80.8757 102.849 80.8477 102.439 80.8477 102.088C80.8477 101.678 80.7918 101.327 80.6799 100.976C80.568 100.625 80.2604 100.332 79.729 100.098C79.7849 99.8057 79.8968 99.5423 80.0367 99.3668C80.2045 99.1327 80.4002 98.9572 80.624 98.8109C80.8477 98.6646 81.0994 98.5182 81.3791 98.4012C81.6588 98.2842 81.9664 98.1086 82.2461 97.9331L82.358 97.8745L82.33 97.7575C82.1902 97.3479 82.1622 96.9675 82.2461 96.6456C82.33 96.3237 82.4419 96.0019 82.5817 95.68C82.7216 95.3874 82.8894 95.0656 83.0292 94.7145C83.1691 94.3633 83.225 93.983 83.1691 93.5441V93.4855L83.1411 93.4563C83.0012 93.31 82.8334 93.1929 82.6377 93.1344C82.4419 93.0759 82.2461 93.0466 82.0503 93.1052C81.8546 93.1344 81.6868 93.2222 81.5189 93.31C81.3511 93.427 81.2393 93.5733 81.1554 93.7489C80.624 94.3048 80.1485 94.9778 79.729 95.7971C79.3375 96.6163 78.9179 97.3478 78.5264 97.9916L78.4984 98.0501C78.4145 98.606 78.1628 99.0449 77.8272 99.3961C77.4636 99.7472 77.0161 100.098 76.5407 100.42C76.0652 100.742 75.5618 101.093 75.0864 101.444C74.6109 101.795 74.2473 102.234 73.9397 102.761C73.66 102.732 73.4363 102.79 73.2685 102.936C73.1007 103.083 72.9608 103.258 72.8489 103.463C72.7371 103.668 72.6532 103.873 72.5413 104.107C72.4854 104.253 72.4015 104.4 72.2896 104.517C71.954 104.37 71.6463 104.341 71.3946 104.458C71.1149 104.575 70.8632 104.721 70.6395 104.897C70.4437 105.043 70.22 105.19 70.0242 105.277C69.9683 105.307 69.8005 105.394 69.5208 105.19L69.3809 105.102L69.297 105.248C69.2131 105.365 69.1292 105.453 69.0174 105.453C68.9055 105.482 68.7656 105.482 68.6538 105.453C68.5419 105.219 68.3741 105.014 68.2063 104.809C68.0665 104.634 68.0385 104.458 68.1224 104.253C68.4021 104.136 68.7657 103.931 68.7377 103.639C68.7377 103.434 68.6538 103.229 68.486 103.024C68.3461 102.849 68.2622 102.673 68.1783 102.498C68.1504 102.439 68.1224 102.322 68.3741 102.146L68.43 102.117L68.458 102.059C68.6538 101.444 68.9055 100.83 69.2131 100.274C69.5208 99.6887 69.8005 99.1035 70.1081 98.5183C70.3878 97.9331 70.6675 97.3186 70.9192 96.7041C71.1709 96.0897 71.3666 95.446 71.4785 94.8022C71.5065 94.6559 71.5624 94.5389 71.6184 94.3633C71.6743 94.1878 71.6743 94.0122 71.6463 93.8659C71.6463 93.4563 71.4785 93.1637 71.1709 92.9589C70.8912 92.7833 70.5836 92.6955 70.2759 92.7248C69.9683 92.754 69.6886 92.9003 69.4648 93.1344C69.2411 93.3685 69.1852 93.7196 69.297 94.1293C68.2902 94.9485 67.5071 96.0019 66.9477 97.2016C66.8918 97.3479 66.8359 97.4649 66.7799 97.6112C66.6681 97.6697 66.5282 97.7575 66.4164 97.8745C66.2206 97.5819 65.9968 97.4356 65.7731 97.4356H65.7451C65.5214 97.4356 65.2697 97.5234 65.0739 97.6697C64.8781 97.7867 64.6824 97.9038 64.4866 97.9916C64.4027 98.0208 64.2349 98.0793 64.0111 97.8453L63.9272 97.7575L63.8154 97.816C63.256 98.1671 62.6687 98.3134 62.1093 98.2257C61.55 98.1671 60.9906 97.9623 60.4592 97.6405V95.1241C60.4313 94.9778 60.3753 94.773 60.2914 94.4804C60.2075 94.1878 60.1236 93.8952 60.0397 93.6026C59.9558 93.31 59.8439 92.9881 59.76 92.6955C59.6761 92.4029 59.5922 92.1981 59.5643 92.0225L59.5363 91.964L59.4804 91.9348C58.921 91.5251 58.4176 91.4081 57.9701 91.5251C57.5506 91.6422 57.159 91.8177 56.7675 92.1103C56.3759 92.3737 55.9844 92.637 55.5649 92.8711C55.1733 93.1052 54.6979 93.1637 54.1944 93.1052L53.8868 93.0466L54.0266 93.3392C54.0546 93.427 54.0826 93.5148 54.0266 93.6026C53.9707 93.7196 53.9148 93.8659 53.8868 93.983C53.8309 94.1 53.8029 94.2463 53.8029 94.3633C53.8029 94.4804 53.8309 94.5974 53.9427 94.7145C53.8588 94.8022 53.7749 94.8608 53.691 94.9193C53.5512 95.0071 53.4113 95.0948 53.2435 95.1534C53.0757 95.2411 52.9359 95.2997 52.7681 95.3874C52.6003 95.4752 52.4325 95.5923 52.2926 95.7386L52.2367 95.7971V95.8849C52.2926 96.2945 52.2087 96.6163 51.985 96.8212C51.7333 97.0552 51.4256 97.2601 51.146 97.4649C50.8103 97.6697 50.5586 97.9038 50.3069 98.1671C50.0552 98.4305 50.0272 98.8401 50.1671 99.3375C49.9713 99.4546 49.8594 99.6009 49.7755 99.7472C49.4959 99.8935 49.1882 100.04 48.9085 100.186C48.3771 100.479 47.8458 100.771 47.2864 101.064C46.811 101.298 46.3355 101.474 45.8041 101.591C45.7761 99.6887 45.4405 97.816 44.7413 96.0604C44.0421 94.2756 43.1751 92.5492 42.1124 90.9107C42.6997 89.711 43.2031 88.4236 43.5947 87.1069C44.0142 85.7609 44.2379 84.3564 44.2379 82.9227C44.2379 82.3668 44.154 81.7523 43.9862 81.0501C43.8464 80.4063 43.6786 79.8211 43.5387 79.2652C43.4828 79.0896 43.3989 78.9141 43.343 78.7093C43.287 78.5044 43.2311 78.3289 43.1751 78.1533V78.0948C43.0353 77.7144 42.8116 77.3926 42.5599 77.1585C42.3081 76.9244 42.0285 76.7488 41.6929 76.6318C41.3852 76.5148 41.0496 76.427 40.714 76.3685C40.3784 76.3099 40.0428 76.2514 39.7351 76.1929L39.3436 76.1051C39.0079 76.0466 38.8681 76.0173 38.3927 76.1344C38.1689 76.1929 37.9452 76.2514 37.6935 76.3099C37.4418 76.3685 37.218 76.4562 36.9943 76.5148L36.4629 76.6903C35.2323 77.1877 34.1416 77.8607 33.2186 78.68C32.3237 79.4993 31.5126 80.4356 30.8134 81.4304C30.1142 82.4253 29.4989 83.5372 28.9396 84.7075C28.4082 85.8487 27.8768 87.0191 27.3734 88.2187C26.8979 89.3306 26.3945 90.4425 25.8911 91.5251C25.3876 92.6077 24.8003 93.6611 24.1291 94.6267L24.1011 94.6852V94.7437C24.1291 95.2119 24.0732 95.6508 23.9333 96.0019C23.7935 96.4115 23.6536 96.7919 23.4858 97.143C23.318 97.5234 23.1502 97.9331 23.0104 98.3134C22.8705 98.6938 22.7866 99.1035 22.7866 99.5424C22.3392 99.6887 22.0875 99.8935 21.9476 100.186C21.8357 100.449 21.7798 100.771 21.7798 101.093C21.7798 101.386 21.7239 101.678 21.6679 101.942C21.612 102.176 21.4162 102.381 21.0526 102.527L20.9408 102.585L20.9687 102.732C21.0526 103.083 21.0806 103.463 21.0247 103.873C20.9967 104.312 20.9408 104.751 20.8569 105.219L20.6611 106.653C20.6052 107.15 20.6052 107.647 20.6611 108.145V108.262L20.773 108.291C21.2764 108.467 21.6959 108.496 22.0315 108.379C22.3392 108.262 22.6188 108.086 22.8146 107.823C23.0104 107.56 23.1502 107.267 23.2901 106.916C23.4019 106.565 23.5418 106.214 23.6816 105.892C23.8215 105.541 23.9893 105.219 24.185 104.926C24.3808 104.634 24.6325 104.4 24.9681 104.224L26.6742 105.511C26.7581 105.57 26.8699 105.658 26.9538 105.745C27.0657 105.862 27.1776 105.95 27.2895 106.009C27.8208 106.301 28.4082 106.623 29.0514 106.887C29.6947 107.179 30.3659 107.413 31.0651 107.647C31.7363 107.881 32.4355 108.086 33.1067 108.262C33.778 108.437 34.4212 108.554 35.0086 108.642C35.6798 108.73 36.379 108.788 37.0502 108.788C37.7214 108.788 38.4206 108.73 39.0919 108.642C40.4623 108.437 41.7208 107.911 42.8395 107.062L42.9234 107.004L42.8955 106.887C42.8116 106.594 42.8116 106.389 42.9514 106.243C43.0912 106.067 43.287 105.921 43.5108 105.804C43.7904 105.687 44.0421 105.57 44.2939 105.482C44.6015 105.365 44.8252 105.219 44.9651 105.014L45.049 104.897L44.7973 104.692C45.3007 104.341 45.8041 104.048 46.2796 103.756C46.783 103.463 47.3423 103.171 47.9297 102.907C48.3212 102.732 48.7128 102.527 49.0763 102.322C49.0763 102.351 49.0763 102.41 49.0763 102.439C48.9924 102.761 48.8806 103.083 48.7407 103.405C48.6009 103.727 48.4611 104.078 48.3212 104.399C48.1814 104.751 48.1254 105.16 48.1814 105.57V105.628L48.2093 105.658C48.4611 105.98 48.6568 106.36 48.7967 106.74C48.9365 107.121 49.0204 107.53 49.0484 107.94V108.145L49.2162 108.116C49.412 108.086 49.6077 108.086 49.7476 108.116C49.9154 108.174 50.0552 108.233 50.1951 108.35C50.3349 108.467 50.5027 108.584 50.6425 108.701C50.8103 108.847 50.9782 108.964 51.146 109.052L51.2019 109.081H51.2578C52.2087 108.964 53.1317 108.642 53.9987 108.203C54.8657 107.764 55.6208 107.179 56.2641 106.477C56.7115 106.535 57.0192 106.448 57.215 106.214C57.3828 106.009 57.5226 105.745 57.6065 105.453C57.6904 105.19 57.7743 104.897 57.8862 104.634C57.9701 104.4 58.1659 104.253 58.4735 104.136L58.6973 104.078L58.5854 103.902C58.5294 103.844 58.4735 103.756 58.3896 103.668C58.3616 103.639 58.3616 103.639 58.3616 103.609C58.7812 103.463 59.0888 103.2 59.2286 102.849C59.3685 102.498 59.4804 102.146 59.5643 101.766C59.6482 101.386 59.76 101.064 59.8999 100.801C60.0117 100.566 60.2914 100.42 60.7109 100.391C60.8228 100.362 60.9347 100.362 61.0465 100.391C61.1864 100.391 61.3262 100.42 61.4661 100.42C61.6898 100.391 61.9135 100.42 62.1373 100.479C62.389 100.537 62.6687 100.537 62.9484 100.508C63.8993 100.362 64.7103 100.215 65.4375 100.128C65.6053 100.098 65.8011 100.069 65.9968 100.04C65.9129 100.449 65.829 100.859 65.7731 101.269V101.356L65.857 101.415C65.9409 101.474 65.9409 101.532 65.9129 101.62C65.829 101.795 65.7731 101.942 65.6892 102.117C65.6053 102.322 65.5773 102.498 65.5773 102.702C65.6053 102.995 65.885 103.141 66.0807 103.229C66.0807 103.346 66.0807 103.492 66.0528 103.609C66.0528 103.639 66.0528 103.756 65.829 103.873L65.7172 103.931L65.7451 104.048C65.857 104.634 66.0248 105.19 66.2486 105.745C66.4723 106.301 66.696 106.828 66.9198 107.413L66.9477 107.53H67.0596C67.3113 107.53 67.5071 107.589 67.6469 107.706C67.8147 107.823 67.9546 107.969 68.0944 108.116C68.2343 108.262 68.4021 108.408 68.5699 108.554C68.7377 108.701 68.9614 108.759 69.2411 108.759C69.2691 108.759 69.325 108.759 69.353 108.759C69.3809 108.759 69.4089 108.759 69.6047 108.701C69.7445 108.671 69.8284 108.642 69.8564 108.613C70.3318 108.467 70.7793 108.291 71.1988 108.028C71.6184 107.764 71.898 107.413 72.0938 106.916C72.5693 106.887 73.0447 106.77 73.5481 106.535C74.0795 106.301 74.6109 105.98 75.0864 105.599C75.5618 105.219 76.0093 104.809 76.4008 104.312C76.7644 103.873 77.0441 103.434 77.2679 102.995C77.2679 102.995 77.2679 102.995 77.2958 102.995C77.6314 102.995 77.8552 103.083 77.967 103.229C78.1349 103.405 78.2188 103.639 78.2747 103.902C78.3306 104.195 78.3866 104.487 78.4145 104.78C78.4425 105.131 78.5544 105.424 78.7222 105.658C78.834 105.804 78.89 105.862 78.9739 105.862C79.0019 105.862 79.0298 105.892 79.0858 105.95C79.2256 106.038 79.3375 106.155 79.4493 106.272C79.5612 106.418 79.701 106.535 79.8689 106.653C81.0994 107.677 82.5538 108.057 84.1479 107.794H84.2039L84.2318 107.764C84.3717 107.618 84.5395 107.501 84.7073 107.443C84.9031 107.355 85.0709 107.296 85.2666 107.208C85.4624 107.121 85.6302 107.033 85.7701 106.887C85.9099 106.77 86.0218 106.565 86.1336 106.331C86.3014 106.214 86.4692 106.126 86.5811 106.067C86.693 106.009 86.8049 105.98 86.8888 105.95C87.0006 105.921 87.1125 105.921 87.2244 105.892C87.3642 105.892 87.532 105.862 87.7837 105.862H87.8397L89.7694 104.341C89.8813 105.043 90.0771 105.687 90.3847 106.301C90.8042 107.15 91.4195 107.881 92.2586 108.467C92.3984 108.554 92.5942 108.671 92.8459 108.788C93.0976 108.906 93.2934 108.993 93.4612 109.052C93.657 109.081 93.8527 109.11 94.0765 109.11C94.4401 109.11 94.8316 109.052 95.2232 108.935C95.8384 108.759 96.3698 108.525 96.7614 108.233C96.8733 108.233 96.9851 108.233 97.097 108.233C97.3207 108.203 97.6004 108.174 97.7682 108.262C97.8242 108.291 97.8801 108.35 97.936 108.437L98.0479 108.642L98.2157 108.467C98.6912 107.94 99.1666 107.443 99.698 107.004C100.201 106.565 100.761 106.155 101.292 105.775C101.46 105.658 101.628 105.541 101.824 105.424C102.019 105.307 102.187 105.19 102.355 105.072C102.691 104.868 102.97 104.604 103.222 104.341C103.222 104.546 103.194 104.751 103.194 104.926C103.222 105.336 103.278 105.716 103.39 106.097C103.502 106.477 103.669 106.828 103.921 107.062C104.033 107.179 104.145 107.296 104.285 107.384C104.397 107.472 104.508 107.589 104.62 107.735C104.76 107.911 104.9 108.086 105.068 108.291C105.236 108.496 105.403 108.701 105.599 108.847C105.795 109.023 106.019 109.14 106.242 109.198C106.438 109.257 106.662 109.257 106.886 109.227C106.97 109.374 107.109 109.461 107.221 109.491C107.249 109.491 107.249 109.491 107.277 109.491C107.389 109.491 107.501 109.461 107.641 109.374C107.753 109.286 107.865 109.198 107.976 109.11C108.06 109.023 108.116 108.993 108.172 108.964C108.284 108.935 108.424 108.935 108.592 108.935C108.788 108.964 108.955 108.964 109.095 108.964C109.487 108.964 109.794 108.964 110.046 108.993C110.298 109.023 110.633 108.964 110.997 108.847L111.081 108.818L111.109 108.73C111.193 108.554 111.305 108.32 111.472 108.291C111.836 108.203 112.256 108.262 112.591 108.145C112.787 108.086 112.927 107.881 113.011 107.56L113.123 107.53L113.178 107.501C113.738 107.091 114.213 106.799 114.521 106.594C114.577 106.565 114.633 106.535 114.689 106.477C114.745 106.565 114.773 106.623 114.829 106.711C115.024 107.033 115.192 107.267 115.332 107.443L115.388 107.501L117.066 107.677H117.094C117.318 107.618 117.569 107.56 117.849 107.472C118.129 107.413 118.408 107.325 118.632 107.208C119.052 107.033 119.527 106.74 120.031 106.36C120.087 106.331 120.114 106.272 120.17 106.243C120.087 106.477 120.003 106.74 119.919 106.974C119.835 107.238 119.751 107.501 119.695 107.764C119.639 107.998 119.639 108.291 119.639 108.584C119.639 108.847 119.639 109.14 119.611 109.403V109.432L120.114 110.837C120.059 111.042 119.975 111.246 119.863 111.48C119.751 111.744 119.667 111.978 119.611 112.241C119.583 112.475 119.527 112.739 119.471 113.031C119.415 113.295 119.359 113.558 119.275 113.763C119.164 113.997 119.052 114.231 118.94 114.465C118.8 114.699 118.688 114.933 118.576 115.196C118.464 115.431 118.38 115.694 118.269 115.957C118.157 116.221 118.073 116.455 117.961 116.689V116.747C117.933 117.04 117.877 117.303 117.849 117.537L117.737 118.093C117.709 118.269 117.681 118.327 117.681 118.356C117.597 118.591 117.486 118.825 117.374 119.029C117.234 119.293 117.122 119.527 117.01 119.79C116.898 120.054 116.814 120.346 116.758 120.61C116.702 120.873 116.646 121.136 116.563 121.37C116.451 121.663 116.367 121.926 116.283 122.19L116.031 123.009V123.038C116.059 123.272 116.115 123.565 116.171 123.857C116.227 124.179 116.283 124.501 116.339 124.823C116.395 125.145 116.479 125.467 116.535 125.818C116.591 126.11 116.674 126.403 116.786 126.608C116.758 126.754 116.702 126.93 116.674 127.134C116.646 127.339 116.591 127.515 116.563 127.69L116.535 127.837L118.325 128.715L120.17 128.861L120.226 128.832C120.674 128.539 121.121 128.188 121.569 127.837C121.988 127.486 122.436 127.105 122.827 126.754C123.023 126.579 123.219 126.403 123.443 126.227C123.694 126.023 123.89 125.847 124.058 125.642C124.142 125.525 124.282 125.35 124.449 125.086C124.617 124.823 124.813 124.56 124.981 124.267C125.149 123.974 125.316 123.711 125.484 123.418C125.652 123.155 125.764 122.921 125.82 122.775C125.932 122.511 126.016 122.248 126.1 121.955C126.183 121.663 126.267 121.429 126.379 121.195L127.023 119.702V119.644C127.023 119.615 127.05 119.527 127.078 119.41C127.106 119.264 127.162 119.088 127.218 118.883C127.274 118.678 127.33 118.503 127.386 118.327C127.442 118.093 127.47 118.005 127.47 117.976C127.498 117.684 127.554 117.42 127.582 117.128C127.61 116.835 127.638 116.572 127.694 116.308C127.722 116.045 127.778 115.782 127.862 115.489C127.945 115.226 128.001 114.933 128.029 114.64C128.113 114.114 128.169 113.558 128.169 112.973C128.169 112.387 128.141 111.802 128.029 111.246L127.945 110.837L127.917 110.866V110.837L128.141 110.807C128.225 110.778 128.337 110.778 128.421 110.778H128.533L128.589 110.69C128.617 110.603 128.673 110.515 128.729 110.456C128.757 110.398 128.784 110.369 128.812 110.31C128.896 110.339 129.008 110.369 129.092 110.369C129.232 110.398 129.344 110.427 129.456 110.456L129.54 110.486L129.624 110.398C129.651 110.369 129.735 110.281 129.847 110.193C129.987 110.105 130.099 109.988 130.239 109.871C130.379 109.754 130.491 109.637 130.602 109.549C130.714 109.461 130.77 109.403 130.798 109.374C130.826 109.374 130.882 109.344 130.938 109.344C131.05 109.315 131.162 109.286 131.274 109.257C131.385 109.227 131.553 109.169 131.749 109.11L131.777 109.081C131.889 108.993 131.973 108.935 132.029 108.906L132.225 108.701C132.252 108.671 132.308 108.613 132.42 108.554C132.644 108.408 132.84 108.203 133.036 108.028C133.231 107.823 133.399 107.647 133.595 107.472C133.763 107.296 133.986 107.15 134.21 107.033C134.462 106.887 134.686 106.74 134.881 106.594L134.909 106.565C135.021 106.799 135.105 107.033 135.217 107.296L135.245 107.413H135.357C135.609 107.413 135.804 107.472 135.944 107.589C136.112 107.706 136.252 107.852 136.392 107.998C136.532 108.145 136.699 108.291 136.867 108.437C137.035 108.584 137.259 108.642 137.538 108.642C137.566 108.642 137.622 108.642 137.65 108.642C137.678 108.642 137.706 108.642 137.902 108.584C138.042 108.554 138.126 108.525 138.154 108.496C138.629 108.35 139.077 108.174 139.496 107.911C139.916 107.647 140.195 107.296 140.391 106.799C140.867 106.77 141.342 106.653 141.845 106.418C142.377 106.184 142.908 105.862 143.384 105.482C143.859 105.102 144.307 104.692 144.698 104.195C145.062 103.756 145.341 103.317 145.565 102.878C145.565 102.878 145.565 102.878 145.593 102.878C145.929 102.878 146.152 102.966 146.264 103.112C146.432 103.288 146.516 103.522 146.572 103.785C146.628 104.078 146.684 104.37 146.712 104.663C146.74 105.014 146.852 105.307 147.019 105.541C147.131 105.687 147.187 105.745 147.271 105.745C147.299 105.745 147.327 105.775 147.383 105.833C147.523 105.921 147.635 106.038 147.747 106.155C147.858 106.301 147.998 106.418 148.166 106.535C149.397 107.56 150.851 107.94 152.445 107.677H152.501L152.529 107.647C152.669 107.501 152.837 107.384 153.005 107.325C153.2 107.238 153.368 107.179 153.564 107.091C153.76 107.004 153.928 106.916 154.067 106.77C154.207 106.653 154.319 106.448 154.431 106.214C154.599 106.097 154.767 106.009 154.878 105.95C154.99 105.892 155.102 105.863 155.186 105.833C155.298 105.804 155.41 105.804 155.522 105.775C155.662 105.775 155.829 105.745 156.081 105.745H156.137L157.116 104.955C157.256 105.219 157.396 105.424 157.507 105.57C157.675 105.833 157.871 106.097 158.039 106.418C158.235 106.74 158.43 107.033 158.626 107.267C158.85 107.501 159.102 107.677 159.381 107.794C159.493 107.823 159.605 107.852 159.745 107.852C159.941 107.852 160.164 107.794 160.416 107.677C161.003 107.794 161.479 107.794 162.094 107.706C162.346 107.677 162.625 107.647 162.877 107.618C163.129 107.618 163.381 107.618 163.604 107.677H163.66L163.716 107.647C163.912 107.53 164.164 107.472 164.527 107.443C164.919 107.413 165.254 107.355 165.59 107.296C165.926 107.208 166.205 107.062 166.373 106.887C166.569 106.682 166.597 106.389 166.457 105.98L166.709 105.892C167.044 105.658 167.548 105.482 168.023 105.277ZM167.268 93.1929C167.24 93.2807 167.184 93.3978 167.1 93.5733C166.988 93.8367 166.905 94.0415 166.849 94.1585C166.625 94.773 166.345 95.3874 166.01 95.9434C165.702 96.4993 165.226 96.8504 164.611 97.026L164.555 97.0553L164.527 97.1138C164.359 97.4649 164.108 97.7575 163.744 97.9916C163.381 98.2256 162.989 98.4597 162.598 98.6646C162.206 98.8694 161.786 99.1034 161.395 99.3375C161.059 99.5423 160.78 99.8057 160.556 100.098L160.472 100.011C160.36 99.8935 160.248 99.835 160.164 99.835C160.332 99.5716 160.444 99.3083 160.556 99.0157C160.668 98.6938 160.78 98.4012 160.919 98.1379C161.059 97.8745 161.199 97.6112 161.395 97.4064C161.563 97.2015 161.814 97.026 162.15 96.909L162.262 96.8797V96.7627C162.29 96.4408 162.318 96.0897 162.374 95.7678C162.43 95.5045 162.458 95.2119 162.514 94.9193C162.877 95.0071 163.213 95.0071 163.492 94.89C163.8 94.773 164.08 94.5974 164.304 94.3926C164.527 94.1878 164.751 93.9537 164.947 93.6904C165.143 93.4563 165.338 93.2515 165.562 93.1052C165.786 92.9589 166.01 92.8711 166.261 92.8711C166.513 92.8711 166.877 92.9881 167.268 93.1929ZM117.458 104.136L117.513 104.078V104.019C117.513 103.639 117.569 103.463 117.625 103.375C117.709 103.258 117.821 103.112 117.933 103.024C118.073 102.907 118.185 102.732 118.297 102.498C118.408 102.264 118.436 101.912 118.408 101.415V101.122L118.213 101.269C118.297 101.122 118.353 100.976 118.436 100.888C118.548 100.713 118.716 100.566 118.884 100.42C119.08 100.245 119.275 100.069 119.415 99.8935C119.583 99.6886 119.751 99.4838 119.891 99.2498C120.031 99.0449 120.17 98.8401 120.31 98.6353C120.814 97.9038 121.373 97.3478 121.932 96.9675C122.52 96.5578 123.163 96.1482 123.89 95.7386H123.946L124.002 95.68C124.282 95.3874 124.589 95.0948 124.869 94.8315C125.093 94.6267 125.316 94.4219 125.512 94.217C125.512 94.3048 125.512 94.3633 125.54 94.4511C125.54 94.6267 125.568 94.8022 125.568 94.9485C125.344 95.446 125.149 96.0019 124.981 96.5578C124.813 97.1138 124.645 97.6697 124.449 98.1964C124.449 98.2257 124.394 98.2842 124.142 98.6353C123.946 98.8986 123.722 99.162 123.499 99.4838C123.247 99.8057 123.023 100.098 122.827 100.391C122.632 100.683 122.52 100.888 122.464 101.064C121.988 101.356 121.513 101.737 121.093 102.146C120.674 102.585 120.254 102.995 119.835 103.434C119.639 103.668 119.415 103.873 119.192 104.048C118.968 104.224 118.772 104.429 118.576 104.634C118.241 104.663 117.933 104.692 117.597 104.751C117.374 104.78 117.15 104.809 116.898 104.868C117.038 104.604 117.234 104.399 117.458 104.136ZM124.785 109.023C124.617 109.052 124.422 109.081 124.226 109.14C123.974 109.169 123.694 109.169 123.415 109.169C123.443 109.052 123.499 108.964 123.555 108.847C123.638 108.701 123.694 108.525 123.722 108.379C123.862 108.379 124.002 108.35 124.142 108.291C124.282 108.233 124.422 108.233 124.561 108.262C124.645 108.262 124.729 108.262 124.813 108.291C124.869 108.32 124.953 108.35 125.037 108.35C125.065 108.467 125.093 108.584 125.121 108.671C125.149 108.759 125.149 108.847 125.177 108.935C125.009 108.964 124.897 108.993 124.785 109.023ZM121.205 115.665C121.261 115.401 121.317 115.138 121.401 114.904C121.569 114.406 121.765 113.938 121.96 113.47C122.156 113.031 122.352 112.592 122.548 112.153C123.079 112.036 123.666 111.949 124.226 111.861C124.757 111.802 125.289 111.714 125.792 111.627C125.82 111.861 125.876 112.095 125.904 112.329C125.96 112.592 125.988 112.856 126.044 113.148L126.183 115.021C125.988 115.518 125.876 116.103 125.792 116.718C125.708 117.332 125.652 117.918 125.596 118.444C125.484 118.708 125.4 118.942 125.289 119.176C125.177 119.41 125.065 119.673 124.953 119.878L124.142 121.282C124.03 121.517 123.89 121.78 123.778 122.014C123.666 122.248 123.527 122.453 123.387 122.628C123.359 122.658 123.303 122.716 123.191 122.804C123.079 122.892 122.939 123.009 122.799 123.097L122.352 123.418C122.212 123.506 122.128 123.594 122.1 123.594L122.044 123.653C121.793 124.033 121.541 124.472 121.317 124.969C121.093 125.086 120.898 125.203 120.702 125.32C120.506 125.467 120.31 125.584 120.087 125.701C119.779 125.847 119.387 126.023 118.968 126.14L118.604 125.73C118.492 125.584 118.353 125.437 118.241 125.291C118.269 125.086 118.325 124.852 118.38 124.618C118.464 124.355 118.52 124.091 118.548 123.828C118.604 123.565 118.632 123.301 118.688 123.038C118.716 122.775 118.772 122.511 118.8 122.277C118.912 121.751 119.024 121.253 119.192 120.756C119.359 120.258 119.499 119.761 119.639 119.234C119.667 119.059 119.751 118.795 119.863 118.474C119.975 118.152 120.059 117.918 120.142 117.771C120.254 117.537 120.394 117.303 120.562 117.098C120.73 116.864 120.87 116.63 120.953 116.367C121.065 116.221 121.149 115.957 121.205 115.665ZM121.793 104.985C121.821 104.985 121.848 104.955 121.876 104.955C121.793 105.102 121.709 105.248 121.625 105.394C121.373 105.511 121.149 105.628 120.926 105.745C120.73 105.862 120.506 105.95 120.282 106.067C120.646 105.775 120.981 105.511 121.261 105.277C121.457 105.131 121.597 105.043 121.793 104.985ZM58.054 97.4356C57.9981 97.4942 57.9421 97.5234 57.8582 97.5527C57.7184 97.5819 57.6065 97.6112 57.4667 97.5819C57.3268 97.5819 57.187 97.5527 57.0472 97.4942C56.9633 97.4649 56.8793 97.4356 56.8234 97.3771C56.8514 97.143 56.7675 96.9382 56.6276 96.7627C56.4878 96.6164 56.348 96.4701 56.2081 96.3238C56.0683 96.2067 55.9564 96.0604 55.8725 95.8849C55.8166 95.7971 55.8166 95.68 55.8445 95.5337C56.1522 95.563 56.4039 95.5045 56.5997 95.3582C56.8234 95.1826 56.9912 94.9778 57.159 94.7437L57.6065 94.0707C57.7184 93.8952 57.8582 93.7489 58.026 93.6318C58.2777 93.8367 58.4176 94.1 58.5015 94.3341C58.5574 94.6267 58.5854 94.9485 58.5294 95.2997C58.4735 95.6508 58.3896 96.0019 58.2777 96.3823C58.1379 96.7626 58.082 97.1138 58.054 97.4356ZM56.5997 103.288C56.32 103.434 56.0963 103.668 55.9564 103.99C55.7886 104.37 55.6488 104.721 55.481 105.072C55.3411 105.394 55.1733 105.628 54.9775 105.775C54.8097 105.892 54.4741 105.833 54.0266 105.57L53.9707 105.541L53.8868 105.57C53.691 105.658 53.4953 105.716 53.2715 105.745C53.0478 105.804 52.824 105.833 52.6003 105.892C52.3765 105.95 52.1528 106.038 51.9291 106.126C51.8172 106.184 51.6773 106.243 51.5655 106.331C51.5655 106.331 51.5655 106.301 51.5375 106.301C51.4816 106.184 51.3697 106.097 51.2858 106.038L51.2019 105.98L50.9222 106.184C51.0061 105.892 51.09 105.599 51.09 105.277C51.118 104.751 51.1739 104.253 51.2299 103.727C51.2858 103.229 51.3977 102.761 51.5375 102.322C51.6773 101.912 51.985 101.62 52.4325 101.386L52.5723 101.327L52.5164 101.181C52.3765 100.83 52.3206 100.508 52.3765 100.245C52.4325 99.952 52.5723 99.6886 52.7401 99.4546C52.9079 99.2205 53.1317 98.9571 53.3834 98.7523C53.6071 98.5475 53.8309 98.3134 53.9987 98.0794C54.3902 98.1379 54.7258 98.2549 55.0055 98.4597C55.3132 98.6938 55.6208 98.9279 55.9284 99.1912C56.2361 99.4546 56.5437 99.6886 56.8514 99.8935C57.1311 100.098 57.4667 100.215 57.8582 100.215C57.8582 100.713 57.7184 101.181 57.4946 101.62C57.215 102.088 56.9073 102.585 56.5717 103.024L56.4878 103.141L56.5997 103.288ZM43.0633 101.62L43.1751 101.795C43.343 102.059 43.3709 102.205 43.343 102.293C43.343 102.41 43.287 102.527 43.2031 102.615C43.0912 102.732 42.9514 102.819 42.7836 102.907C42.6158 102.995 42.448 103.054 42.2802 103.141C42.0564 103.258 41.8327 103.346 41.6649 103.434C41.4691 103.522 41.2454 103.697 41.1055 103.931C40.8818 103.961 40.658 104.019 40.4343 104.078C40.2106 104.136 39.9868 104.165 39.7631 104.224C39.3156 104.312 38.8961 104.4 38.5045 104.487C38.1409 104.575 37.7774 104.721 37.4138 104.955C37.3019 104.809 37.19 104.721 37.0502 104.721C36.9104 104.692 36.7705 104.721 36.6027 104.809C36.4908 104.868 36.351 104.926 36.2112 104.985C36.1273 105.043 36.0154 105.014 35.8756 104.985L35.7917 104.955L35.7357 105.014C35.484 105.19 35.2043 105.277 34.8967 105.277C34.8687 105.277 34.8687 105.277 34.8408 105.277C34.4772 105.277 34.1136 105.219 33.75 105.16C33.3864 105.102 33.0228 105.014 32.6313 104.897C32.2677 104.809 31.9321 104.751 31.5965 104.751H31.5685C31.2609 104.575 30.9532 104.429 30.6176 104.312L29.6387 103.99C28.9116 103.727 28.2124 103.346 27.5412 102.849C26.8979 102.381 26.2826 101.942 25.6394 101.532C26.5064 100.128 27.2335 98.6645 27.7649 97.1138C28.3243 95.563 28.8556 93.9537 29.387 92.3151C29.6108 91.5836 29.8625 90.8521 30.1142 90.1499C30.3659 89.4477 30.6176 88.7162 30.8693 88.0139V87.9847C31.2888 87.4287 31.6804 86.8143 31.988 86.1998C32.2957 85.5854 32.6033 84.9416 32.883 84.2687C32.911 84.2101 32.9389 84.1224 33.0228 83.9761C33.0788 83.8298 33.1627 83.6835 33.2186 83.5372C33.3025 83.3909 33.3585 83.2446 33.4144 83.0983C33.4983 82.8934 33.4983 82.8349 33.4983 82.8057V81.606C33.4983 81.3719 33.5542 81.1378 33.6661 80.9915C33.778 80.816 33.9178 80.6697 34.0856 80.5234C34.2534 80.3771 34.4492 80.26 34.645 80.143C34.8687 80.026 35.0645 79.9089 35.2603 79.7919C35.5399 79.6456 35.7637 79.4993 35.9595 79.353C36.1552 79.2067 36.351 78.9726 36.5188 78.7093L36.5748 78.6507C36.7985 78.5044 37.0782 78.3874 37.3578 78.3289C37.6655 78.2411 38.0011 78.2118 38.3088 78.1826C38.6444 78.1826 38.98 78.1826 39.2876 78.2411C39.5953 78.2704 39.875 78.3581 40.1267 78.4459C40.4063 78.563 40.6301 78.7678 40.8818 79.0896C41.1055 79.3822 41.3013 79.6748 41.4691 79.9382C41.4691 80.2308 41.4691 80.4941 41.4971 80.7575C41.525 81.0501 41.6929 81.3134 42.0005 81.489C42.1124 82.2497 42.1403 82.9227 42.1124 83.5079C42.0844 84.1223 42.0005 84.7075 41.8607 85.2342C41.7208 85.7902 41.553 86.3461 41.3013 86.902C41.0776 87.4872 40.7979 88.1017 40.4902 88.7747L39.9309 90.0914C39.5673 90.2669 39.1478 90.384 38.7003 90.3547C38.1969 90.3547 37.7494 90.2669 37.3858 90.0914L37.3299 90.0621L37.2739 90.0914C36.9104 90.2962 36.4629 90.4132 35.9874 90.4718C35.456 90.5303 34.9526 90.5888 34.4772 90.6766C33.9738 90.7644 33.5263 90.9692 33.1347 91.2325C32.7152 91.4959 32.4635 91.9933 32.3237 92.6663V92.7248L32.3516 92.7833C32.4635 93.0174 32.5194 93.2515 32.4635 93.4855C32.4076 93.7196 32.3237 93.983 32.2118 94.1878L31.9041 94.8315C31.7923 95.0656 31.7643 95.2997 31.8482 95.5045C31.9601 95.68 32.0999 95.8263 32.2677 95.8849C32.3516 95.9141 32.4635 95.9726 32.5474 96.0312C32.7711 96.4701 33.1067 96.7334 33.5263 96.7919C33.8898 96.8504 34.3094 96.8504 34.7289 96.7627C35.1484 96.6749 35.5679 96.5871 35.9874 96.4701C36.379 96.353 36.7426 96.3238 37.0502 96.3238H37.1061L37.1341 96.2945C37.4138 96.1482 37.7494 95.9434 38.113 95.7093C38.4766 95.4752 38.8401 95.2411 39.2037 94.9485C39.5673 94.6852 39.9029 94.3633 40.2106 94.0707C40.4623 93.8074 40.658 93.5733 40.7979 93.2807C41.2454 93.7781 41.6089 94.3341 41.9166 94.9193C42.2522 95.5922 42.5319 96.3238 42.7556 97.0553C42.9794 97.7868 43.1472 98.5768 43.287 99.3668C43.4269 100.069 43.5387 100.713 43.6786 101.356C43.5667 101.356 43.4269 101.415 43.343 101.532L43.0633 101.62ZM38.085 92.3737V92.9003C37.9172 92.9881 37.7214 93.0759 37.5536 93.1344C37.3579 93.2222 37.1341 93.31 36.9383 93.427C36.5748 93.6318 36.1832 93.8367 35.8196 94.0122C35.484 94.1585 35.1484 94.2756 34.7848 94.3633C34.9247 94.1293 35.0365 93.8952 35.1764 93.6318C35.3162 93.3392 35.484 93.1052 35.6518 92.8711C35.8196 92.6663 36.0154 92.4614 36.2671 92.3444C36.4629 92.2274 36.6866 92.1688 36.9663 92.1688C37.0222 92.1688 37.0502 92.1688 37.1061 92.1688C37.19 92.1688 37.246 92.1688 37.2739 92.1688C37.3579 92.1981 37.4418 92.1688 37.5257 92.1688C37.6655 92.1396 37.8053 92.1688 37.9172 92.1688C37.9731 92.2274 38.0291 92.2566 38.085 92.3737Z" fill="white"/>
<path d="M97.2929 187.82C49.1883 187.82 10.0335 146.856 10.0335 96.5288H8.27148C8.27148 147.88 48.2095 189.663 97.2929 189.663C98.8311 189.663 100.425 189.634 101.964 189.546L101.88 187.703C100.369 187.761 98.8311 187.82 97.2929 187.82Z" fill="white"/>
<path d="M184.552 96.5275H186.314C186.314 45.1763 146.376 3.39307 97.293 3.39307V5.23644C145.426 5.23644 184.552 46.2004 184.552 96.5275Z" fill="white"/>
<path d="M150.096 152.239C120.73 182.962 72.961 182.962 43.6228 152.239L42.3643 153.556C57.3829 169.269 77.1282 177.14 96.8455 177.14C116.591 177.14 136.308 169.269 151.327 153.556C152.278 152.561 153.229 151.537 154.123 150.484L152.809 149.226C151.942 150.25 151.047 151.274 150.096 152.239Z" fill="white"/>
<path d="M43.6227 40.8177C57.8303 25.9537 76.7645 17.7316 96.8733 17.7316C116.982 17.7316 135.888 25.9244 150.124 40.8177L151.382 39.501C121.345 8.07583 72.4574 8.07583 42.3921 39.501L43.6227 40.8177Z" fill="white"/>
</g>
<defs>
<clipPath id="clip0_24_32578">
<rect width="191.887" height="191.887" fill="white" transform="translate(0.608398)"/>
</clipPath>
</defs>
</svg>
