<svg xmlns="http://www.w3.org/2000/svg" xmlns:xlink="http://www.w3.org/1999/xlink"><symbol id="sprite-behance" viewBox="0 0 31 31"><path d="M20.662 14.574c-1.693 0-1.928 1.688-1.928 1.688h3.598s.023-1.688-1.67-1.688M12.5 16.262H9.313v2.93h3.029c.457-.012 1.312-.141 1.312-1.424 0-1.524-1.154-1.506-1.154-1.506"/><path d="M15.5 2.762c-7.248 0-13.125 5.877-13.125 13.125S8.252 29.012 15.5 29.012s13.125-5.877 13.125-13.125S22.748 2.762 15.5 2.762m2.766 8.062h4.517v1.348h-4.517zm-2.285 7.078c0 3.34-3.481 3.235-3.481 3.235H6.805V10.18H12.5c1.734 0 3.1.955 3.1 2.918 0 1.962-1.67 2.086-1.67 2.086 2.203 0 2.05 2.718 2.05 2.718m8.449-.181h-5.678c0 2.033 1.928 1.904 1.928 1.904 1.822 0 1.758-1.178 1.758-1.178h1.927c0 3.13-3.75 2.912-3.75 2.912-4.494 0-4.207-4.19-4.207-4.19s-.006-4.206 4.207-4.206c4.436.006 3.815 4.758 3.815 4.758"/><path d="M13.273 13.268c0-1.137-.773-1.137-.773-1.137H9.313v2.443H12.3c.515 0 .972-.17.972-1.306"/></symbol><use xlink:href="#sprite-behance" width="31" height="31" y="0"/><view id="sprite-behance-view" viewBox="0 0 31 31"/><symbol id="sprite-client-01" viewBox="0 0 172 184"><g><path d="M85.668 175.101c.034.069.1.104.168.104h1.208c.1 0 .201-.104.201-.208l-.067-7.821v-.208a.27.27 0 0 0-.067-.138c-.034-.035-.067-.069-.134-.069l-1.242.034c-.1 0-.201.104-.201.208l.033 5.052-3.02-5.017-.067-.104a.18.18 0 0 0-.167-.104h-1.208c-.101 0-.202.104-.202.208l.067 7.786v.242c0 .035.034.104.067.139.034.034.068.069.135.069l1.241-.035c.101 0 .202-.104.202-.208l-.034-5.017 3.02 5.017z"/><path d="m98.554 165.342-1.04.207c-.068 0-.135.07-.168.173l-1.242 8.098-.033.312c0 .069 0 .138.067.173.033.034.067.069.134.069h.033l1.242-.242c.067 0 .134-.07.168-.173l.268-2.077 2.416-.45 1.04 1.835c.034.069.135.103.202.103l1.208-.207c.067 0 .1-.035.134-.104s.034-.139 0-.173l-4.228-7.44q-.1-.105-.201-.104m-.37 4.914.303-2.111 1.073 1.834z"/><path d="M58.052 169.944c.034.035.067.104.1.104l1.142.519h.067a.18.18 0 0 0 .168-.103l3.12-7.371a.11.11 0 0 0 0-.139c-.033-.035-.067-.104-.1-.104l-.974-.415-.167-.069a.1.1 0 0 0-.135 0c-.033.034-.1.069-.1.104l-1.208 2.837-2.819-1.246 1.208-2.837c.034-.104 0-.208-.1-.242l-.974-.45-.168-.07a.1.1 0 0 0-.134 0c-.033.035-.1.07-.1.104l-3.121 7.371c-.034.104 0 .208.1.243l1.142.519c.033.034.1.034.134 0 .033-.035.1-.07.1-.104l1.31-3.149 2.818 1.245-1.309 3.15c-.033 0-.033.069 0 .103"/><path d="M67.817 166.207c.1.035.201-.035.235-.138l.335-1.142v-.139l-.1-.104-2.55-.761c-.101-.035-.202.035-.236.138l-.335 1.142v.139l.1.104.504.138-1.443 5.053-.503-.139c-.034-.034-.101 0-.134 0l-.101.104-.302 1.142c-.034.104.033.208.134.242l2.349.727.201.069h.067c.068 0 .168-.069.168-.138l.336-1.142c.033-.104-.034-.208-.135-.243l-.503-.173 1.443-5.052z"/><path d="M74.562 165.896a3.25 3.25 0 0 0-1.913.277c-.604.277-1.074.761-1.477 1.349-.402.623-.637 1.315-.771 2.146-.135.796-.101 1.557.1 2.249a4.16 4.16 0 0 0 1.007 1.765c.47.45 1.074.762 1.745.865.201.035.369.035.57.035.47 0 .94-.104 1.376-.311.604-.277 1.074-.762 1.477-1.35.402-.588.637-1.315.771-2.111a5.7 5.7 0 0 0-.1-2.284q-.303-1.09-1.007-1.765c-.503-.45-1.107-.727-1.779-.865m1.241 4.637c-.067.554-.235 1.038-.503 1.419-.235.381-.504.657-.84.83-.335.174-.637.208-1.006.174-.335-.035-.637-.208-.906-.485-.268-.277-.436-.623-.537-1.038-.1-.45-.134-.969-.033-1.523a3.5 3.5 0 0 1 .47-1.419c.234-.38.503-.657.838-.865.235-.138.47-.207.739-.207.1 0 .167 0 .268.034.336.069.638.208.906.485.269.277.436.623.537 1.072.134.485.168 1.004.067 1.523"/><path d="M50.234 158.317c.268-.035.537.069.872.277.302.173.537.415.671.657.135.242.235.588.269 1.004l.033.207c0 .07.034.104.068.139.033.034.1.034.134.034l1.107-.173.168-.069c.1-.034.134-.104.134-.208l-.033-.173a3.75 3.75 0 0 0-.571-1.626c-.302-.45-.705-.831-1.208-1.177-.705-.449-1.41-.622-2.013-.519-.671.104-1.208.485-1.577 1.142-.638 1.108-.336 2.319.94 3.634.402.415.637.796.737 1.107.067.243.034.45-.1.727-.135.242-.302.381-.537.415-.235.035-.537-.034-.906-.277a1.9 1.9 0 0 1-.772-.865 2.5 2.5 0 0 1-.302-1.246v-.242c0-.069-.033-.104-.067-.138s-.1-.069-.168-.035l-1.174.208-.168.069a.24.24 0 0 0-.134.208v.173c.067.657.235 1.28.57 1.834.336.588.738 1.038 1.275 1.349.47.312.94.485 1.41.554.134 0 .234.035.369.035.335 0 .67-.069.973-.208.402-.208.738-.484.973-.934.403-.658.503-1.35.302-1.973-.201-.588-.57-1.211-1.141-1.834-.436-.45-.671-.796-.772-1.038q-.1-.311.1-.623c.169-.311.303-.415.538-.415"/><path d="M130.599 158.213a1.96 1.96 0 0 1-1.04.415c-.436.035-.805-.034-1.208-.173l-.201-.069c-.067-.035-.101 0-.168 0a.5.5 0 0 0-.101.138l-.235 1.212v.173c0 .103.034.173.135.207l.167.07c.403.138.806.173 1.208.173.202 0 .437-.035.671-.07a3.53 3.53 0 0 0 1.678-.726 4 4 0 0 0 1.007-1.142c.235-.45.335-.9.335-1.35-.033-.45-.167-.9-.469-1.28-.47-.623-1.041-.969-1.678-1.004-.571-.069-1.275.104-2.081.415-.503.208-.906.346-1.241.346-.235 0-.403-.103-.537-.311s-.168-.381-.101-.623c.067-.277.269-.484.537-.727.302-.207.571-.346.839-.38q.453-.052 1.007.103l.201.07c.034.034.101 0 .168 0 .033-.035.067-.07.101-.139l.234-1.142v-.207a.24.24 0 0 0-.134-.208l-.168-.035c-.57-.138-1.14-.173-1.644-.069q-.754.156-1.51.727c-.671.519-1.074 1.107-1.241 1.73-.168.658 0 1.315.436 1.938.503.692 1.543 1.35 3.59.45.537-.208.94-.311 1.275-.311.235 0 .437.138.604.38.168.208.202.415.168.658-.1.277-.268.519-.604.761"/><path d="m112.11 162.885 1.946-.9 2.618 5.883.1.208a.19.19 0 0 0 .168.104c.034 0 .067 0 .067-.035l.94-.45.167-.069.101-.104c.034-.035.034-.104 0-.138l-2.718-6.091 1.745-.83.168-.07.1-.104c.034-.034.034-.103 0-.138l-.469-1.038c-.034-.104-.168-.139-.235-.104l-5.134 2.422-.168.07-.101.103a.11.11 0 0 0 0 .139l.47 1.038c.034.104.134.139.235.104"/><path d="m122.479 163.785.57 1.038.101.104h.033c.034 0 .067 0 .101-.035l2.282-1.418c.1-.07.134-.173.067-.277l-.571-1.038-.1-.104c-.034 0-.101 0-.135.034l-.436.277-2.584-4.533.437-.277c.1-.069.134-.173.067-.277l-.571-1.038-.1-.104c-.034 0-.101 0-.135.035l-2.281 1.419-.101.103c0 .035 0 .104.034.139l.604 1.003c.067.104.167.104.268.07l.436-.277 2.618 4.533-.437.277c-.201.138-.235.242-.167.346"/><path d="m110.197 170.706.068.069c.033.035.134.069.167.035l1.309-.415a.27.27 0 0 0 .134-.139c0-.069 0-.138-.067-.173l-2.751-2.595a2.55 2.55 0 0 0 .704-2.596 2.5 2.5 0 0 0-.704-1.142c-.336-.311-.705-.519-1.175-.588a3.1 3.1 0 0 0-1.376.104l-2.349.761-.201.069c-.033 0-.101.035-.101.104a.11.11 0 0 0 0 .139l2.282 7.44.067.207c.034.07.101.139.168.139h.067l1.175-.381c.033 0 .1-.034.1-.104.034-.034.034-.103 0-.138l-.906-3.011.772-.242zm-3.791-3.668-.571-1.938 1.074-.346c.336-.104.638-.104.839 0 .235.104.369.311.47.623.1.311.067.553-.034.796-.101.207-.335.38-.705.484z"/><path d="m137.444 153.645.168.173a.25.25 0 0 0 .134.069.24.24 0 0 0 .134-.069l.906-.865c.068-.069.068-.208 0-.277l-4.462-4.879 1.543-1.523c.067-.069.067-.208 0-.277l-.772-.83a.197.197 0 0 0-.268 0l-4.127 4.049-.135.138c-.033.035-.067.069-.067.138 0 .035.034.104.067.139l.772.83c.067.07.202.07.269 0l1.543-1.488z"/><path d="m72.817 18.926 1.174-.173h.135c.1 0 .167-.07.167-.174l.504-4.187c.033-.207.033-.38.067-.553.067.173.134.311.201.484l1.443 3.737.067.139c.034.069.134.138.201.138l1.141-.173h.135c.1 0 .167-.069.167-.173l1.007-7.924.034-.243c0-.069 0-.138-.068-.173a.25.25 0 0 0-.167-.069l-1.41.208c-.1 0-.134.069-.167.173l-.437 4.049-.033.311c0 .138-.034.242-.034.38-.067-.207-.168-.415-.235-.622l-1.375-3.634-.068-.138c-.033-.07-.134-.139-.2-.104l-1.142.173h-.168c-.1 0-.167.07-.167.173l-.47 4.118a5 5 0 0 0-.067.727c-.1-.243-.168-.485-.269-.692l-1.442-3.807c-.034-.07-.135-.138-.202-.138l-1.443.207c-.067 0-.1.035-.134.104-.034.035-.034.104 0 .173l3.054 7.544c.033.104.1.139.2.139"/><path d="M88.453 17.61c0 .035 0 .105.034.14.033.034.067.068.134.068l1.376.07c.1 0 .201-.07.201-.174l.134-3.287 2.752-4.395a.23.23 0 0 0 0-.208.18.18 0 0 0-.168-.103l-1.476-.07h-.101a.18.18 0 0 0-.168.104l-1.342 2.423c-.1.173-.168.311-.235.45-.1-.243-.201-.485-.335-.762l-.94-2.145-.034-.104a.18.18 0 0 0-.167-.104l-1.577-.07c-.067-.034-.135.035-.168.105a.23.23 0 0 0 0 .207l2.215 4.637-.135 3.08z"/><path d="M97.715 18.89c.235.035.47.07.671.07 1.946 0 3.389-1.419 3.758-3.703.403-2.491-.772-4.43-2.953-4.81-.234-.034-.436-.07-.67-.07-1.913 0-3.423 1.454-3.793 3.704-.2 1.176 0 2.284.504 3.149.604.9 1.443 1.488 2.483 1.66m-1.14-4.498c.234-1.453 1.04-2.353 2.012-2.353.101 0 .202 0 .336.035 1.309.242 1.678 1.66 1.476 2.906-.134.9-.537 1.627-1.073 2.042-.37.277-.806.38-1.275.312a1.54 1.54 0 0 1-1.074-.692c-.403-.589-.537-1.385-.403-2.25"/><path d="M116.573 16.122c.033-.034.033-.104 0-.138-.034-.035-.067-.104-.101-.104l-1.074-.485-.167-.069a.1.1 0 0 0-.135 0c-.033.035-.1.07-.1.104l-3.02 7.06-.067.173c-.034.104 0 .207.1.242l1.242.588c.033.035.1.035.134 0 .034-.034.101-.069.101-.104l1.141-2.664.335-.173.638 3.806v.104c0 .07.067.139.1.139l1.51.692c.034 0 .067.034.067.034.034 0 .068 0 .101-.034.067-.035.067-.104.067-.173l-.906-5.226 3.792-1.868a.19.19 0 0 0 .101-.174.19.19 0 0 0-.101-.173l-1.577-.726c-.067-.035-.101-.035-.168 0l-3.053 1.592.939-2.215z"/><path d="M110.768 16.054c.201-.693.134-1.35-.201-1.87-.369-.657-1.007-1.072-2.081-1.383-.671-.208-1.376-.381-1.879-.416h-.134c-.067 0-.168.07-.168.139l-2.114 7.267-.067.173v.138l.101.104 1.308.415c.101.035.202-.034.235-.138l.839-2.907.436.139c.638.242.772.519.705 1.418-.067 1.212-.101 1.73-.034 2.008l.034.103c0 .07.067.104.134.139l1.41.45h.067c.033 0 .1-.035.134-.035a.27.27 0 0 0 .067-.173l-.067-.38c-.067-.277 0-1.177.033-2.042.034-.623-.033-1.142-.268-1.523a2.41 2.41 0 0 0 1.51-1.626m-1.711-.416c-.168.589-.739.83-1.443.589l-.537-.174.537-1.868c.134.034.302.069.503.138 1.074.346 1.04.9.94 1.315"/><path d="M66.475 13.562c.1-.035.167-.139.134-.242l-.336-1.212c0-.034-.033-.104-.1-.104a.1.1 0 0 0-.135 0l-3.993 1.212-.167.069c-.101.034-.168.138-.135.242l2.114 7.371.067.208c0 .034.034.104.101.104.034 0 .067.034.1.034h.068l4.16-1.246.169-.069c.1-.034.167-.138.134-.242l-.336-1.211c-.033-.104-.134-.173-.235-.139l-2.852.865-.503-1.764 2.349-.727.167-.07c.101-.034.168-.138.135-.242l-.336-1.21c0-.035-.034-.105-.1-.105a.1.1 0 0 0-.135 0l-2.516.762-.403-1.454 2.517-.761z"/><path d="m53.79 16.607-.1-.07c-.067-.034-.134-.034-.168-.034l-1.107.485-.168.069c-.1.035-.134.173-.1.242l2.953 7.094.1.208.1.104h.135l1.208-.52.1-.103a.11.11 0 0 0 0-.139l-1.308-3.149c-.201-.45-.37-.865-.537-1.245.336.242.638.484.906.657l3.691 2.63a.36.36 0 0 0 .168.035l1.04-.45.168-.07c.1-.034.134-.138.1-.242L58.02 14.98l-.067-.173-.101-.103a.1.1 0 0 0-.134 0l-1.04.484-.168.07c-.1.034-.134.172-.1.242l1.274 3.08q.202.518.504 1.142c-.235-.174-.504-.381-.739-.554z"/><path d="m41.24 160.151.974.796c.034.035.067.035.1.035h.068a.27.27 0 0 0 .134-.138l2.55-8.133c.034-.069 0-.173-.067-.207l-.839-.658c-.067-.034-.134-.069-.201 0l-6.745 4.43-.235.138c-.067.035-.067.104-.1.138 0 .07.033.139.067.173l1.006.796c.068.035.168.07.235 0l1.678-1.176 1.946 1.557-.637 2.007c0 .104 0 .208.067.242m-.033-4.671 1.745-1.142-.637 2.041z"/><path d="m39.765 150.046.134.139a.2.2 0 0 0 .268 0l.772-.831c.067-.069.067-.207 0-.277l-3.087-3.01-.134-.139a.2.2 0 0 0-.269 0l-5.201 5.71-.134.139c-.067.069-.067.207 0 .277l.906.865c.033.034.067.069.134.069.034 0 .1-.035.134-.069l2.215-2.457 1.443 1.419.134.138a.2.2 0 0 0 .269 0l.738-.831a.26.26 0 0 0 .067-.138.26.26 0 0 0-.067-.138l-1.577-1.558 1.208-1.315z"/><path d="M1.95 67.823c1.108.346 2.215-.276 2.585-1.384C15.64 29.62 48.123 4.841 85.504 4.633c38.454.208 70.97 24.986 82.076 61.806.336 1.108 1.477 1.73 2.584 1.384a2.03 2.03 0 0 0 1.208-1.038c.269-.519.302-1.073.134-1.626C159.896 26.677 126.005.758 85.873.377h-.738C46.11.757 12.219 26.677.609 65.159c-.168.553-.101 1.107.134 1.626.268.485.704.865 1.208 1.038"/><path d="m169.859 97.896.134-.07c.738-.45 1.04-1.314.738-2.145-.234-.692-.973-1.384-2.214-1.004a313 313 0 0 1-5.805 2.18 54 54 0 0 0-4.832 2.077 15 15 0 0 0-2.047-2.11c-1.108-.935-2.148-1.627-3.121-2.112l-.033-.035-.067-.034c-.504-.208-1.041-.173-1.578.173-.805.588-1.845 1.107-3.087 1.592a35 35 0 0 1-4.194 1.35c-1.477.38-2.919.692-4.362.934-2.014.311-3.624.38-4.665.311.101-.207.168-.415.168-.657.067-.9-.436-1.661-1.241-1.8a2.8 2.8 0 0 1-.571-.173c.168-.104.336-.207.571-.311a12 12 0 0 1 1.308-.38 6 6 0 0 1 1.343-.14c.973 0 1.644-.726 1.644-1.764s-.671-1.765-1.644-1.765c-.705 0-1.443.104-2.182.277a7.5 7.5 0 0 0-2.08.796c-.671.346-1.208.796-1.678 1.28q-.302.312-.503.727c-2.416 1.211-4.799 2.11-7.08 2.699-2.517.657-4.463 1.004-5.772 1.004-.537 0-.772-.208-.906-.347-.369-.45-.671-.9-.872-1.245a22 22 0 0 0-.806-1.42c-.503-.76-1.241-1.176-2.08-1.176-.872 0-1.711.277-2.584.796l1.275-7.232c3.02-.312 6.208-.554 9.396-.727.637.07 1.074-.173 1.342-.415.369-.312.537-.796.537-1.35 0-1.073-.738-1.834-1.846-1.834-4.53.173-8.892.519-12.918 1.038-3.49.45-7.014 1.038-10.47 1.73a1.3 1.3 0 0 0-.235-.623c-.167-.276-.537-.622-1.174-.726-.906-.139-1.678.346-1.98 1.176a3.3 3.3 0 0 0-.235.9c-1.241.277-2.516.554-3.758.83L85.2 89.21c-.705.104-1.074.45-1.242.727-.201.276-.369.796-.201 1.488s.57 1.038.872 1.21c.436.243.906.243 1.376.07 1.51-.38 2.953-.727 4.295-1.004.839-.173 1.678-.38 2.517-.553-.1.934-.135 1.834-.135 2.699 0 .38 0 .761.034 1.177-1.913.519-4.127.796-6.61.796q-1.41 0-2.819-.104a22 22 0 0 1-2.181-.312c-.034-.138-.067-.277-.134-.415-.47-1.107-1.41-1.315-2.249-1.038-.503.207-.973.553-1.409 1.003-.805.346-1.644.623-2.382.9-2.618.97-4.262 1.557-4.228 2.942-.302.034-.906.034-2.181-.139-.537-.07-.974-.138-1.343-.138q-1.661 0-2.617-.623c-.201-.139-.369-.242-.503-.38.369-.209.704-.45 1.04-.658 1.04-.589 2.013-1.177 2.819-1.8q2.215-1.713 3.724-3.53c1.04-1.21 1.812-2.457 2.316-3.702.537-1.246.805-2.423.805-3.426 0-1.212-.336-2.215-.973-2.977-.705-.83-1.712-1.245-2.987-1.245s-2.617.415-3.96 1.246c-1.274.795-2.449 1.834-3.523 3.149a16.8 16.8 0 0 0-2.65 4.568c-.705 1.764-1.04 3.633-1.04 5.571 0 .45.033.934.1 1.384-6.644 3.738-13.992 6.541-21.81 8.375-5.27 1.246-10.336 1.869-15.1 1.869-5.605-.035-11.175-.658-13.624-5.607-3.054-6.09-.671-14.5 7.046-25.02 5.772-7.855 13.96-14.257 23.69-18.479 12.517-5.433 21.14-5.052 26.375 1.108.604.692 1.51.76 2.181.138.638-.588.94-1.661.201-2.526-5.335-6.333-14.093-7.648-25.3-3.772A66 66 0 0 0 32.315 57.2c11.543-19.137 31.643-30.8 53.756-30.8 24.16 0 45.87 13.878 56.709 36.267a2.04 2.04 0 0 0 1.845 1.177c.336 0 .638-.07.906-.242 1.007-.52 1.443-1.8.94-2.838-11.778-23.774-34.931-38.585-60.635-38.585-25.737 0-48.856 14.776-60.4 38.585a2.2 2.2 0 0 0-.2.934c-3.424 2.561-6.51 5.433-9.195 8.617C10.068 77.34 3.223 87.791 4.666 97.792c1.476 10.209 10.805 12.043 17.985 12.043 2.752 0 5.201-.277 6.745-.45 10.939-1.211 21.777-4.706 31.408-10.07.134.173.268.38.402.553 1.242 1.454 3.188 2.215 5.772 2.215 1.51 0 3.288-.311 5.302-.969a25 25 0 0 0 3.02-1.211c.033.381.1.727.235 1.038.168.519.772 1.696 2.516 1.696 1.309 0 2.383-.658 2.987-1.904a7.3 7.3 0 0 0 .57-1.557c.403.035.873.07 1.309.104.94.07 1.946.07 2.986.07 2.718 0 5.134-.278 7.215-.797.235.762.537 1.488.94 2.146.603 1.038 1.442 1.903 2.482 2.63s2.35 1.177 3.859 1.35c1.04.138 1.846-.45 2.047-1.419.101-.485 0-1.004-.268-1.385-.202-.276-.604-.657-1.343-.726-.973-.139-1.778-.416-2.348-.831a5.1 5.1 0 0 1-1.477-1.592q-.553-.935-.805-2.18a14 14 0 0 1-.235-2.699c0-.692.034-1.384.134-2.111l.201-1.384c3.725-.727 7.45-1.35 11.04-1.834l-2.248 12.562c-.168.899.302 1.695 1.208 1.937.772.208 1.544-.103 1.879-.726 1.074-1.592 1.98-2.734 2.718-3.392.436-.415.772-.623 1.007-.692.067.104.134.277.201.45.336.796.839 1.557 1.409 2.25.739.934 1.913 1.384 3.457 1.384.771 0 1.745-.104 2.885-.312a51 51 0 0 0 3.658-.83 41 41 0 0 0 4.161-1.35c.704-.277 1.409-.554 2.114-.865-.034.173-.034.312-.034.45 0 .761.269 2.111 2.181 2.734 1.745.553 4.228.726 7.987.104a48 48 0 0 0 4.731-1.004 38 38 0 0 0 4.631-1.523q1.61-.623 2.818-1.35c.504.312 1.04.727 1.611 1.177.436.346.805.692 1.141 1.038-.571.381-1.074.796-1.477 1.177-.839.831-1.241 1.696-1.241 2.63q0 1.142.805 1.973.806.83 1.913.83c1.409 0 2.55-.45 3.389-1.384.839-.9 1.241-1.973 1.241-3.184 0-.173 0-.311-.033-.484a171 171 0 0 1 4.597-1.938 393 393 0 0 0 5.805-2.284M63.656 90.49c.503-1.35 1.175-2.56 2.013-3.564q1.209-1.506 2.618-2.388c.872-.554 1.644-.796 2.349-.796.402 0 .503 0 .503.692 0 .554-.201 1.28-.537 2.111-.403.9-.973 1.8-1.778 2.734-.806.969-1.846 1.938-3.087 2.872-.806.623-1.779 1.212-2.82 1.73.068-1.176.303-2.318.74-3.39"/><path d="M170.127 116.063c-1.107-.346-2.214.277-2.583 1.385-11.107 36.82-43.589 61.598-82.077 61.805-37.347-.207-69.829-24.985-80.936-61.771-.335-1.107-1.476-1.73-2.583-1.384a2.04 2.04 0 0 0-1.208 1.038c-.269.519-.302 1.073-.135 1.627 11.61 38.447 45.502 64.401 84.527 64.747h.738c40.132-.381 74.023-26.3 85.633-64.782.168-.554.101-1.107-.134-1.626a2.2 2.2 0 0 0-1.242-1.039"/><path d="M144.39 120.043c-.772 0-1.476.45-1.845 1.177-10.839 22.355-32.549 36.266-56.709 36.266s-45.87-13.877-56.709-36.266a2 2 0 0 0-1.174-1.073c-.537-.173-1.074-.139-1.577.138-.504.242-.84.692-1.04 1.211a2.27 2.27 0 0 0 .1 1.627c11.51 23.809 34.663 38.585 60.4 38.585 25.703 0 48.857-14.776 60.4-38.585.503-1.038.1-2.319-.94-2.838-.268-.173-.604-.242-.906-.242"/></g></symbol><use xlink:href="#sprite-client-01" width="172" height="184" y="31"/><view id="sprite-client-01-view" viewBox="0 31 172 184"/><symbol id="sprite-client-02" viewBox="0 0 147 180"><g><path d="M145.149.042H1.655C1.082.042.604.543.604 1.146V178.74c0 .602.478 1.104 1.051 1.104h143.399c.573 0 1.051-.502 1.051-1.104V1.146c.096-.603-.382-1.104-.956-1.104m-1.051 2.108v150.99H2.707V2.15zM47.065 167.698c.095.301.19.602.19 1.004 0 1.204-.668 2.108-1.815 2.509-.383.101-.86.201-1.339.201H39.8v-9.336h4.015q1.434 0 2.295.903c.478.502.669 1.105.669 1.807q0 1.205-.574 1.807c.478.201.765.603.86 1.105m1.434-1.004c0-1.305.382-2.51 1.242-3.414.86-.903 1.913-1.405 3.25-1.405 1.34 0 2.39.502 3.251 1.405.86.904 1.243 2.008 1.243 3.414 0 1.305-.382 2.51-1.243 3.413-.86.904-1.912 1.406-3.25 1.406s-2.39-.502-3.25-1.406-1.243-2.108-1.243-3.413m13.097 2.309c.382.301.765.502 1.338.502s1.052-.201 1.434-.502c.383-.402.574-1.004.574-1.707v-5.321h1.816v5.221c0 1.204-.382 2.309-1.051 3.012-.765.803-1.626 1.204-2.773 1.204s-2.103-.401-2.772-1.204c-.67-.804-1.052-1.808-1.052-3.012v-5.221h1.817v5.321c.095.803.286 1.305.669 1.707m6.5-5.12v-1.908h7.457v1.908h-2.772v7.429h-1.817v-7.429zm8.891 7.529v-9.336h1.817v9.336zm10.134 0c.191.101.382.101.573.101.383 0 .765-.101 1.148-.502l.382-.302 1.051 1.506-.382.302c-.669.502-1.434.803-2.199.803a3.33 3.33 0 0 1-1.912-.603 3.96 3.96 0 0 1-1.242-1.305c-1.148-.1-2.104-.602-2.868-1.405-.765-.904-1.243-2.008-1.243-3.313s.382-2.51 1.243-3.414c.86-.903 1.912-1.405 3.25-1.405s2.39.502 3.25 1.405c.86.904 1.243 2.008 1.243 3.414 0 1.204-.382 2.208-1.051 3.112-.478.703-1.148 1.104-1.912 1.405.286.101.478.201.669.201m6.5-2.409c.383.301.765.502 1.339.502s1.052-.201 1.434-.502c.382-.402.573-1.004.573-1.707v-5.321h1.817v5.221c0 1.204-.383 2.309-1.052 3.012-.764.803-1.625 1.204-2.772 1.204s-2.103-.401-2.772-1.204c-.67-.804-1.052-1.808-1.052-3.012v-5.221h1.816v5.321c0 .703.192 1.305.67 1.707m13.576-3.313v1.907H102.8v1.807h4.971v1.908h-6.787v-9.337h6.787v1.908H102.8v1.807z"/><path d="M85.018 163.782c-.86 0-1.434.301-1.912.803s-.67 1.205-.67 2.008.192 1.506.67 2.008a2.6 2.6 0 0 0 1.912.803c.86 0 1.434-.301 1.912-.803s.669-1.205.669-2.008-.287-1.506-.67-2.008a2.6 2.6 0 0 0-1.911-.803"/><path d="M55 168.702c.477-.502.669-1.205.669-2.008s-.287-1.506-.67-2.008a2.6 2.6 0 0 0-1.912-.803c-.86 0-1.434.301-1.912.803-.477.502-.669 1.205-.669 2.008s.191 1.506.67 2.008a2.6 2.6 0 0 0 1.911.803c.765 0 1.339-.201 1.912-.803"/><path d="M44.1 167.597h-2.39v1.907h2.486c.479 0 .765-.1.957-.301q.285-.15.286-.602a.93.93 0 0 0-.286-.703c-.192-.2-.574-.301-1.052-.301"/><path d="M44.962 165.187c.095-.1.095-.2.095-.401s0-.301-.095-.401c0-.101-.096-.201-.192-.201q-.286-.301-.86-.301h-2.294v1.806h2.199c.764 0 1.051-.2 1.147-.502"/><path d="M17.716 22.931h6.118l6.5 19.075c2.009-6.325 6.884-20.079 8.7-23.492 2.773-5.32 7.648-7.73 13.671-6.827l-.67 6.024c-3.727-.602-6.309.602-7.838 3.815-3.06 5.722-10.707 30.72-10.803 30.92l-.382.302-4.971.1z"/><path d="M56.147 27.75h-3.824v-5.42h13.67v5.42h-4.11v18.874h-5.736zm-3.824 19.778h13.67v5.42h-13.67z"/><path d="M77.657 22.931h5.927l9.177 17.67V22.93h5.736v29.817l-.382.2H92.57L83.393 35.18v17.77h-5.736z"/><path d="M114.845 89.692v-4.618h8.603v-6.023h-17.781v6.023h3.346v10.642h18.737v-6.024z"/><path d="M114.845 71.22h12.045v-6.023h-17.877v12.75h5.832z"/><path d="M27.085 71.722h-8.7v-6.124h23.136v6.124h-8.7v23.994H26.99V71.722z"/><path d="M73.833 122.32c0-8.333 6.405-14.959 14.34-14.959 7.838 0 14.244 6.727 14.244 14.959s-6.406 15.059-14.245 15.059c-7.934 0-14.34-6.727-14.34-15.059m22.752 0c0-4.919-3.824-8.835-8.508-8.835-4.685 0-8.508 4.016-8.508 8.835 0 4.919 3.823 8.935 8.508 8.935s8.508-4.016 8.508-8.935"/><path d="M127.846 34.979h-22.179V40.8h22.179z"/><path d="M33.204 119.509c-.765-.301-1.626-.502-2.582-.703-.478-.1-.956-.1-1.433-.201-.383 0-.765-.1-1.052-.1l-1.147-.301a4.3 4.3 0 0 1-1.434-1.205 2.8 2.8 0 0 1-.574-1.706v-.101c0-1.807 1.625-3.313 3.729-3.313 1.051 0 2.198.502 2.867 1.205.383.401 1.148 1.305 1.434 2.108v.101l4.972-2.51h.095v-.101c-1.147-3.815-5.067-6.525-9.369-6.525-5.449 0-9.846 4.015-9.846 8.935 0 .903.19 1.807.478 2.71.287.803.765 1.607 1.242 2.41.574.703 1.243 1.405 1.913 1.907.764.603 1.625 1.004 2.485 1.305q1.29.452 2.868.603h.765c.573 0 1.147.1 1.72.2.67.101 1.339.502 1.913 1.004.573.502 1.147 1.306 1.338 2.008.096.402.191.803.191 1.205 0 2.409-2.199 4.417-4.875 4.417-1.434 0-2.773-.602-3.729-1.506l-.286-.301-.192-.201c-.382-.502-.956-1.505-1.242-2.71v-.101l-5.067 2.51v.101c1.051 4.517 5.544 7.73 10.516 7.73 5.927 0 10.802-4.417 10.802-9.839 0-3.915-2.58-7.429-6.5-9.035"/><path d="M53.66 114.389v-7.328h-5.735v12.749h5.736z"/><path d="M62.934 107.061v13.854h-18.45v6.023h3.441v10.642h5.736v-10.642h9.273v10.642h5.832v-30.519z"/><path d="M87.216 81.66v5.422h6.501c-1.53 1.606-3.442 2.61-5.736 2.61-4.684 0-8.508-4.015-8.508-8.935 0-4.919 3.824-8.935 8.508-8.935 3.25 0 6.214 1.908 7.648 5.02l5.067-2.911c-2.486-5.02-7.361-8.132-12.715-8.132-7.935 0-14.244 6.726-14.244 14.958 0 8.233 6.405 15.06 14.244 15.06 5.45 0 10.516-2.912 12.81-8.634V81.76H87.216z"/><path d="m59.97 66-5.353.1s-6.788 22.187-10.134 29.817H70.2zM52.8 90.496a341 341 0 0 0 4.685-13.654l4.684 13.654z"/><path d="M122.779 107.161c-.669-.1-1.243-.1-1.912-.1h-11.759v30.519h5.832v-25.199h7.074c2.199.201 4.015 2.309 4.015 4.819 0 2.41-1.625 4.418-3.728 4.719h-6.214v5.321h5.64c5.067 0 9.274-4.518 9.274-10.14 0-2.41-.765-4.819-2.295-6.726-1.625-1.607-3.728-2.912-5.927-3.213"/></g></symbol><use xlink:href="#sprite-client-02" width="147" height="180" y="215"/><view id="sprite-client-02-view" viewBox="0 215 147 180"/><symbol id="sprite-client-03" viewBox="0 0 268 122"><g><path d="M87.403 27.448c-.903-.593-1.918-1.068-3.045-1.305-1.128-.355-2.481-.474-3.835-.474h-7.555v15.414h7.555c2.933 0 5.188-.593 6.992-1.897 1.692-1.186 2.594-3.083 2.594-5.929 0-1.304-.225-2.49-.677-3.438-.564-.949-1.24-1.779-2.03-2.371M79.62 37.763h-1.578v-8.3h1.578c3.383 0 5.188 1.423 5.188 4.15s-1.692 4.15-5.188 4.15"/><path d="M86.614 21.164c1.24-1.305 1.804-2.965 1.804-4.98s-.564-3.676-1.804-4.98-3.27-1.897-5.977-1.897H73.08V23.06h7.556c2.819 0 4.849-.593 5.977-1.897m-8.571-2.016v-6.521h1.579c2.255 0 3.383 1.067 3.383 3.32 0 2.134-1.128 3.32-3.383 3.32h-1.579z"/><path d="M98.116 28.87c-.564-1.423-1.128-2.49-1.804-3.439-.79-1.067-1.692-1.897-2.707-2.608a7.7 7.7 0 0 0 1.692-2.134c.45-.712.79-1.542 1.127-2.609.339-1.067.564-2.371.564-3.913 0-2.134-.338-4.031-1.127-5.572-.79-1.542-1.805-2.965-3.158-4.032a12.6 12.6 0 0 0-4.85-2.371c-1.916-.593-3.946-.83-6.202-.83H63.946v47.427h18.382c2.481 0 4.85-.355 6.88-1.067 2.029-.711 3.833-1.66 5.187-2.964 1.466-1.304 2.48-2.846 3.27-4.743s1.128-3.912 1.128-6.165c.225-1.897-.113-3.557-.677-4.98m-8.458 11.975c-1.917 1.898-4.962 2.846-9.022 2.846H70.488V6.816h10.15c3.157 0 5.75.83 7.668 2.371 1.917 1.542 2.82 4.032 2.82 7.115q-.001 2.666-1.016 4.268c-.676 1.067-1.353 2.016-2.142 2.609-.564.474-1.128.83-1.805 1.185.902.356 1.805.712 2.594 1.305.902.71 1.804 1.66 2.594 2.845s1.24 2.846 1.24 4.862c.113 2.964-.902 5.572-2.932 7.47"/><path d="M29.777 30.649C13.425 30.649.118 44.64.118 61.833c0 17.192 13.307 31.183 29.659 31.183s29.659-13.99 29.659-31.183-13.307-31.184-29.659-31.184M45.903 76.06c-.902.83-2.03 1.66-3.157 2.371-1.128.83-2.481 1.423-3.835 2.135-1.353.592-2.932 1.067-4.51 1.422-1.58.356-3.27.593-5.075.593-2.594 0-4.962-.355-6.88-.948-1.916-.593-3.495-1.423-4.736-2.609a9.3 9.3 0 0 1-2.706-3.913c-.564-1.541-.902-3.082-.902-4.86 0-2.49.564-4.507 1.579-6.167s2.48-3.082 4.172-4.268c-.902-.949-1.579-2.134-2.143-3.557a10.8 10.8 0 0 1-.902-4.387c0-1.66.339-3.32.902-4.743.564-1.423 1.467-2.727 2.482-3.794 1.127-1.067 2.368-1.897 3.834-2.49s3.044-.83 4.736-.83c1.917 0 3.609.356 5.075.949 1.579.592 2.82 1.422 3.947 2.49 1.127 1.067 1.917 2.37 2.48 3.794.565 1.422.903 3.082.903 4.861 0 2.016-.564 3.794-1.579 5.336-1.015 1.541-2.255 2.845-3.721 4.03l5.187 4.625c.451-.474.902-.948 1.353-1.541q.677-.712 1.692-2.135l7.668 6.877c-.789 1.186-1.691 2.372-2.706 3.439-1.015 1.304-2.03 2.371-3.158 3.32m-2.932-5.573c-.676.712-1.466 1.304-2.142 1.897-1.354.949-3.045 1.897-4.962 2.727s-4.173 1.186-6.767 1.186c-.902 0-1.804-.118-2.819-.356-.902-.237-1.804-.592-2.594-1.067a5.35 5.35 0 0 1-1.917-2.015c-.564-.83-.79-1.898-.79-3.083 0-1.779.452-3.083 1.467-4.15.902-1.067 2.255-2.016 4.06-2.964l1.691-.949 9.022 7.826 1.128-.83-8.796-7.707q3.214-1.779 5.074-3.913c1.24-1.423 1.917-3.083 1.917-5.099a7.5 7.5 0 0 0-.564-2.845c-.45-.83-.902-1.66-1.691-2.253-.677-.593-1.466-1.067-2.481-1.423-.902-.356-1.917-.474-3.045-.474-.902 0-1.804.118-2.706.474a8 8 0 0 0-2.369 1.423c-.676.593-1.24 1.423-1.691 2.253s-.564 1.897-.564 2.964c0 1.541.338 2.846 1.128 3.913.79 1.185 1.804 2.252 3.157 3.438l1.466 1.305-1.353.71c-.79.475-1.692.95-2.368 1.424-.79.593-1.353 1.185-1.917 1.778-.564.712-1.015 1.423-1.24 2.253-.34.83-.452 1.779-.452 2.727 0 1.305.226 2.49.79 3.557.563 1.067 1.24 1.779 2.142 2.49.902.593 1.917 1.186 3.045 1.423 1.128.356 2.368.474 3.609.474 2.593 0 4.962-.474 7.104-1.304a25.5 25.5 0 0 0 5.3-2.964 27 27 0 0 0 4.511-4.387l-1.127-.83zM26.507 58.513c-1.58-1.305-2.481-2.49-3.045-3.439q-.677-1.422-.677-2.846c0-1.66.564-3.082 1.579-4.15 1.128-1.067 2.481-1.66 4.172-1.66.79 0 1.58.12 2.256.356.79.237 1.353.593 2.03 1.068a5.2 5.2 0 0 1 1.353 1.778c.338.711.564 1.541.564 2.49q0 2.845-1.692 4.624c-1.127 1.186-2.706 2.253-4.849 3.439zm3.947-4.862a3 3 0 0 0 .563-1.778c0-1.542-.676-2.253-2.142-2.253-.677 0-1.128.237-1.579.593-.451.474-.564.948-.564 1.66 0 .593.113 1.067.338 1.66.226.474.79 1.067 1.467 1.778.902-.593 1.466-1.185 1.917-1.66M25.943 69.54c0 .948.338 1.66 1.127 2.134.677.474 1.58.711 2.482.711.563 0 1.127 0 1.804-.118.564-.119 1.127-.237 1.691-.475l-5.525-4.98c-1.128.712-1.58 1.66-1.58 2.728"/><path d="M31.018 2.073h-2.481v31.421h2.48z"/><path d="M31.018 86.851h-2.481v34.859h2.48z"/><path d="M209.196 99.775v-7.351h3.158c.676 0 1.127.118 1.466.237.338.118.563.356.789.711q.338.534.338 1.067c0 .475-.113.949-.451 1.305s-.789.593-1.466.711c.226.119.451.237.564.356.226.237.564.593.789.948l1.241 2.016h-1.128l-.902-1.541q-.339-.712-.677-1.067l-.451-.475c-.113-.118-.225-.118-.451-.237h-1.691v3.32zm.902-4.15h2.03c.451 0 .789 0 1.015-.118.225-.119.451-.238.564-.475s.225-.474.225-.711c0-.356-.112-.593-.338-.83s-.677-.356-1.128-.356h-2.255v2.49z"/><path d="m220.247 97.996.903.118c-.113.593-.452.949-.79 1.304s-.902.475-1.466.475c-.789 0-1.353-.237-1.804-.712-.451-.474-.677-1.185-.677-2.016 0-.948.226-1.54.677-2.134q.677-.711 1.691-.711 1.016 0 1.692.711c.451.474.677 1.186.677 2.016v.237h-3.835c0 .593.226 1.067.451 1.304.339.356.677.475 1.015.475.339 0 .564-.119.79-.237.338-.12.564-.356.676-.83m-2.819-1.423h2.819q0-.712-.338-1.067c-.226-.356-.677-.475-1.015-.475-.451 0-.677.119-1.015.474-.338.238-.451.593-.451 1.068"/><path d="m222.503 98.114.902-.118c0 .356.226.593.451.83.226.237.564.237.902.237.451 0 .677-.119.902-.237a.66.66 0 0 0 .339-.593c0-.237-.113-.356-.226-.474-.113-.119-.451-.237-.902-.356a4.4 4.4 0 0 1-1.353-.474c-.226-.119-.451-.237-.564-.475-.113-.237-.226-.474-.226-.711s0-.474.113-.711a.9.9 0 0 1 .451-.475.84.84 0 0 1 .564-.237c.226-.118.451-.118.79-.118.451 0 .789.118 1.014.237.226.118.564.237.677.474s.226.474.338.83l-.789.119a.66.66 0 0 0-.338-.593c-.226-.119-.451-.237-.79-.237-.451 0-.676.118-.902.237-.225.118-.225.355-.225.474s0 .237.112.356c.113.118.226.237.339.237.112 0 .338.118.789.237.564.119 1.015.356 1.241.474.225.119.451.237.563.475.113.237.226.474.226.83 0 .355-.113.592-.226.83-.112.237-.451.474-.676.592-.339.119-.677.238-1.128.238-.677 0-1.128-.119-1.466-.475-.677-.355-.902-.83-.902-1.423"/><path d="m230.171 98.945.113.83c-.225 0-.451.119-.676.119-.339 0-.564 0-.677-.119q-.339-.177-.338-.355c-.113-.119-.113-.475-.113-1.067V95.27h-.677v-.712h.677v-1.304l.902-.593v1.897h.902v.712h-.902v3.557c0 .118.113.118.113.118.113 0 .113.119.338.119.113-.119.226-.119.338-.119"/><path d="M234.908 99.063c-.338.237-.677.475-.902.593-.338.119-.564.119-.902.119-.564 0-1.015-.119-1.241-.475-.338-.237-.451-.71-.451-1.067 0-.237.113-.474.226-.711a.9.9 0 0 1 .451-.474c.225-.119.338-.237.676-.356.226 0 .451-.119.79-.119.676-.118 1.24-.237 1.579-.355v-.237c0-.356-.113-.593-.226-.83q-.339-.356-1.015-.356c-.451 0-.677.118-.902.237-.226.118-.338.356-.451.83l-.79-.119c.113-.355.226-.711.339-.948.225-.237.451-.356.789-.593.338-.119.677-.237 1.128-.237s.789 0 1.015.118c.225.119.451.237.564.356a.94.94 0 0 1 .225.593v3.557c0 .119.113.474.226.593h-.902c-.113.356-.113.118-.226-.119m0-2.015q-.507.177-1.353.355c-.339 0-.564.119-.79.237-.112.12-.225.12-.338.238s-.113.237-.113.474a.93.93 0 0 0 .226.593c.225.118.451.237.789.237.339 0 .677-.119.902-.237.226-.119.451-.356.564-.593s.113-.474.113-.949z"/><path d="M240.997 99.774v-.83c-.451.593-.902.949-1.578.949-.339 0-.564-.119-.79-.237-.225-.12-.451-.238-.564-.475s-.225-.355-.225-.711v-4.15h.902v3.913c0 .237.226.474.338.593.226.118.339.237.677.237s.451-.119.677-.237c.225-.12.338-.356.451-.593s.112-.593.112-1.068V94.32h.903v5.336h-.903z"/><path d="M243.704 99.774v-5.336h.79v.83c.225-.355.338-.592.563-.711a.84.84 0 0 1 .564-.237c.339 0 .564.118.902.237l-.338.83c-.225-.119-.451-.237-.677-.237-.225 0-.338.118-.563.237-.113.119-.226.237-.339.474-.113.356-.112.712-.112 1.067v2.846z"/><path d="M250.921 99.063c-.338.237-.676.475-.902.593-.338.119-.564.119-.902.119-.564 0-1.015-.119-1.241-.475-.338-.237-.451-.71-.451-1.067 0-.237.113-.474.226-.711a.9.9 0 0 1 .451-.474c.225-.119.338-.237.677-.356.225 0 .451-.119.789-.119.677-.118 1.24-.237 1.579-.355v-.237c0-.356-.113-.593-.226-.83q-.338-.356-1.015-.356c-.451 0-.676.118-.902.237-.225.118-.338.356-.451.83l-.789-.119c.112-.355.225-.711.338-.948.225-.237.451-.356.789-.593.339-.119.677-.237 1.128-.237s.789 0 1.015.118c.225.119.451.237.564.356a.93.93 0 0 1 .225.593v3.557a.93.93 0 0 0 .226.593h-.902c-.113.356-.226.118-.226-.119m-.113-2.015q-.507.177-1.353.355c-.338 0-.564.119-.789.237-.113.12-.226.12-.339.238-.112.118-.112.237-.112.474s.112.474.225.593c.226.118.451.237.79.237.338 0 .676-.119.902-.237a1.4 1.4 0 0 0 .564-.593c.112-.237.112-.474.112-.949z"/><path d="M253.628 99.774v-5.336h.789v.712c.339-.593.902-.83 1.579-.83.338 0 .564 0 .902.118.226.119.451.237.564.475.113.237.226.355.226.711v4.15h-.902v-3.201c0-.356 0-.593-.113-.83a1.6 1.6 0 0 0-.339-.475c-.112-.118-.338-.118-.563-.118-.339 0-.677.118-.903.355-.225.238-.451.712-.451 1.423v2.965h-.789z"/><path d="m261.522 98.945.112.83c-.225 0-.451.119-.676.119-.339 0-.564 0-.677-.119q-.338-.177-.338-.355c-.113-.119-.113-.475-.113-1.067V95.27h-.677v-.712h.677v-1.304l.902-.593v1.897h.902v.712h-.902v3.557c0 .118.113.118.113.118.113 0 .113.119.338.119.113-.119.226-.119.339-.119"/><path d="M216.639 104.874h-7.104v.829h7.104z"/><path d="M87.403 98.945c-.903-.593-1.918-1.068-3.045-1.305-1.128-.356-2.481-.474-3.835-.474h-7.555v15.414h7.555c2.933 0 5.188-.593 6.992-1.897 1.692-1.186 2.594-3.083 2.594-5.929 0-1.304-.225-2.489-.677-3.438-.564-.949-1.24-1.779-2.03-2.371M79.62 109.26h-1.578v-8.3h1.578c3.383 0 5.188 1.423 5.188 4.15s-1.692 4.15-5.188 4.15"/><path d="M86.614 92.66c1.24-1.304 1.804-2.964 1.804-4.98 0-2.015-.564-3.675-1.804-4.98-1.24-1.304-3.27-1.897-5.977-1.897H73.08v13.754h7.556c2.819 0 4.849-.593 5.977-1.897m-8.571-2.016v-6.52h1.579c2.255 0 3.383 1.066 3.383 3.32 0 2.133-1.128 3.319-3.383 3.319h-1.579z"/><path d="M98.116 100.486c-.564-1.423-1.128-2.49-1.804-3.438-.79-1.068-1.692-1.898-2.707-2.609a7.7 7.7 0 0 0 1.692-2.134c.45-.712.79-1.542 1.127-2.609.339-1.067.564-2.371.564-3.912 0-2.135-.338-4.032-1.127-5.573-.79-1.542-1.805-2.965-3.158-4.032a12.6 12.6 0 0 0-4.85-2.371c-1.916-.593-3.946-.83-6.202-.83H63.946v47.428h18.382c2.481 0 4.85-.356 6.88-1.067 2.029-.712 3.833-1.66 5.187-2.965 1.466-1.304 2.48-2.845 3.27-4.742.79-1.898 1.128-3.913 1.128-6.166.225-2.016-.113-3.676-.677-4.98m-8.458 11.857c-1.917 1.897-4.962 2.846-9.022 2.846H70.488V78.314h10.15c3.157 0 5.75.83 7.668 2.371 1.917 1.541 2.82 4.031 2.82 7.114q-.001 2.668-1.016 4.269c-.676 1.067-1.353 2.015-2.142 2.608-.564.474-1.128.83-1.805 1.186.902.356 1.805.711 2.594 1.304.902.712 1.804 1.66 2.594 2.846.79 1.185 1.24 2.845 1.24 4.861.113 3.083-.902 5.573-2.932 7.47"/><path d="M102.063 1.48v47.428H117.4V1.48zm8.909 42.093h-2.593V6.698h2.593z"/><path d="M148.525 29.7c-.563-1.66-1.353-3.082-2.255-4.387a21 21 0 0 0-2.932-3.438c-1.015-.949-2.03-1.897-2.932-2.609-.902-.711-1.579-1.422-2.256-2.015-.563-.593-.902-1.067-.902-1.423 0-.474.113-.711.451-.949.226-.237.564-.355.903-.474.338-.118.789-.118 1.127-.237h1.015c.451 0 1.015 0 1.466.119.451 0 .902.118 1.241.118.451 0 .902.119 1.24.119V1.244c-.902-.119-1.917-.237-2.932-.474-.902-.119-1.804-.238-2.932-.356-1.128-.119-2.143-.237-3.27-.237-2.03 0-4.06.355-5.864.83-1.805.593-3.383 1.423-4.737 2.608-1.353 1.186-2.368 2.609-3.157 4.269s-1.128 3.675-1.128 5.928c0 2.016.338 3.794.902 5.336.677 1.541 1.466 2.964 2.368 4.15 1.015 1.186 2.03 2.371 3.158 3.32s2.143 1.778 3.157 2.608q1.523 1.245 2.369 2.134c.676.593.902 1.305.902 1.898 0 1.66-1.015 2.371-3.158 2.371-1.127 0-2.368-.119-3.496-.237-1.127-.119-2.142-.356-3.044-.593-1.128-.237-2.143-.474-3.158-.83v14.228c1.128.356 2.255.593 3.609.83 1.127.237 2.368.475 3.834.593 1.466.119 3.045.237 4.736.237 2.82 0 5.301-.355 7.33-1.185q3.045-1.245 5.075-3.202c1.353-1.304 2.255-2.964 2.932-4.743.677-1.778.902-3.794.902-5.81.339-1.778.113-3.675-.564-5.216m-6.315 9.13q-.846 1.78-2.368 2.846c-1.015.711-2.143 1.304-3.383 1.541-1.241.356-2.481.475-3.834.475-.79 0-1.466 0-2.143-.119-.677-.118-1.353-.118-2.03-.237l-2.03-.356-.338-.118v-2.727l.451.118c.564.119 1.241.237 1.917.356 1.241.237 2.594.356 4.173.356 2.481 0 4.398-.593 5.751-1.66 1.353-1.068 2.03-2.727 2.03-4.862 0-1.185-.338-2.252-.902-3.32a20.5 20.5 0 0 0-2.481-3.201c-1.015-1.067-2.03-2.134-3.271-3.201-1.127-1.067-2.255-2.135-3.27-3.32s-1.917-2.253-2.594-3.439-1.015-2.608-1.015-3.913c0-2.608.903-4.505 2.594-5.81 1.692-1.185 3.722-1.778 6.203-1.778h1.24c.451 0 .789.118 1.128.118s.676.12.902.12h.451v2.726h-.451c-.338 0-.79 0-1.128-.118-.338 0-.676-.119-1.128-.119-2.706-.119-4.736.237-5.864 1.304-.902.83-1.466 2.016-1.466 3.676 0 1.067.339 2.134.902 3.083.677 1.067 1.466 2.134 2.481 3.082a41 41 0 0 0 3.271 3.083c1.128 1.067 2.255 2.135 3.27 3.32s1.917 2.372 2.594 3.676a9 9 0 0 1 1.015 4.15 7.43 7.43 0 0 1-.677 4.268"/><path d="M147.849 1.48v12.45h8.345v34.978h14.886V13.93h8.345V1.48zm26.726 7.826h-9.698v34.385h-2.594V9.306h-9.698V6.698h21.878v2.608z"/><path d="M208.52 19.74c0-3.32-1.128-5.928-3.271-7.825-2.255-1.778-5.413-2.727-9.36-2.727h-5.187v20.987h5.187c3.947 0 7.105-.949 9.36-2.727 2.143-1.66 3.271-4.269 3.271-7.707m-7.218 3.795c-1.24.83-2.594 1.186-4.398 1.186h-.789V14.287h.789c1.692 0 3.158.355 4.398 1.185 1.241.83 1.805 2.134 1.805 4.031 0 1.898-.677 3.202-1.805 4.032"/><path d="M211.452 33.257c1.128-.83 2.143-1.897 3.045-3.083.789-1.067 1.466-2.49 2.142-4.15.677-1.66.903-3.675.903-6.047 0-2.964-.452-5.572-1.466-7.944-1.015-2.253-2.369-4.268-4.173-5.81q-2.706-2.312-6.428-3.557c-2.481-.83-5.075-1.186-8.007-1.186h-15.562v47.428h14.434V36.814l6.767 11.976h16.916zm-1.241 10.316h-3.044l-6.428-11.264c-1.579.355-3.271.474-4.962.474h-5.188v10.79h-2.594V6.698h7.669c2.142 0 4.172.237 5.977.83 1.804.592 3.496 1.422 4.849 2.49 1.353 1.067 2.481 2.49 3.27 4.03.79 1.66 1.241 3.558 1.241 5.692 0 3.083-.79 5.573-2.256 7.589-1.353 1.778-3.27 3.2-5.525 4.15z"/><path d="M265.357 15.472c-1.241-3.082-2.933-5.691-5.075-7.944a23.4 23.4 0 0 0-7.556-5.336C249.794.888 246.749.295 243.479.295c-3.271 0-6.315.712-9.247 1.897a23.4 23.4 0 0 0-7.556 5.336c-2.143 2.253-3.834 4.862-5.075 7.944-1.24 3.083-1.804 6.284-1.804 9.723s.564 6.64 1.804 9.723c1.241 3.082 2.932 5.69 5.075 7.944a23.4 23.4 0 0 0 7.556 5.335c2.932 1.305 5.976 1.897 9.247 1.897s6.315-.592 9.247-1.897a23.4 23.4 0 0 0 7.556-5.335c2.142-2.253 3.834-4.862 5.075-7.944 1.24-3.083 1.804-6.284 1.804-9.723s-.564-6.64-1.804-9.723m-5.526 16.956c-.902 2.253-2.143 4.268-3.835 5.928-1.578 1.66-3.495 3.083-5.638 4.032s-4.398 1.422-6.879 1.422-4.737-.474-6.879-1.422c-2.143-.95-4.06-2.372-5.639-4.032s-2.932-3.675-3.834-5.928-1.353-4.743-1.353-7.233c0-2.609.451-4.98 1.353-7.233s2.143-4.268 3.834-5.928c1.579-1.66 3.496-3.083 5.639-4.032 2.142-.948 4.511-1.422 6.879-1.422 2.481 0 4.736.474 6.879 1.422 2.143.949 4.06 2.253 5.638 4.032 1.579 1.66 2.933 3.675 3.835 5.928s1.353 4.743 1.353 7.233c0 2.608-.451 4.98-1.353 7.233"/><path d="M254.192 13.93c-1.353-1.422-3.045-2.608-4.849-3.438s-3.835-1.185-5.864-1.185c-2.143 0-4.06.474-5.865 1.185-1.804.83-3.383 2.016-4.849 3.439-1.353 1.423-2.481 3.201-3.27 5.098s-1.128 4.032-1.128 6.166c0 2.253.451 4.268 1.128 6.165.789 1.898 1.917 3.558 3.27 5.099 1.354 1.423 3.045 2.608 4.849 3.438s3.835 1.186 5.865 1.186c2.142 0 4.059-.474 5.864-1.185 1.804-.83 3.383-2.016 4.849-3.439 1.353-1.423 2.481-3.201 3.27-5.099.79-1.897 1.128-4.03 1.128-6.165s-.451-4.269-1.128-6.166c-.789-1.897-1.917-3.675-3.27-5.098m-1.917 15.178a9.5 9.5 0 0 1-2.03 3.201c-.902.949-1.805 1.66-3.045 2.134-1.128.475-2.368.83-3.721.83s-2.481-.237-3.722-.83q-1.692-.71-3.045-2.134c-.902-.948-1.578-1.897-2.03-3.201-.451-1.186-.789-2.49-.789-3.913s.226-2.609.789-3.913a9.5 9.5 0 0 1 2.03-3.201c.902-.949 1.805-1.66 3.045-2.134 1.128-.475 2.368-.83 3.722-.83 1.353 0 2.481.237 3.721.83q1.692.71 3.045 2.134c.902.948 1.579 1.897 2.03 3.201.451 1.186.789 2.49.789 3.913-.113 1.423-.338 2.608-.789 3.913"/><path d="m130.482 109.023-9.924-27.39-9.924 27.39zm-6.879-3.32h-6.09l3.045-8.3z"/><path d="M125.971 72.978h-10.826l-17.141 47.428h14.209l1.466-4.269h13.645l1.466 4.269H143zm5.413 38.654h-21.765l-1.24 3.557h-2.819l13.307-36.875h3.157l13.307 36.875h-2.819z"/><path d="M175.929 104.755c1.128-.83 2.142-1.898 3.045-3.083.789-1.067 1.466-2.49 2.142-4.15.677-1.66.902-3.676.902-6.047 0-2.964-.451-5.573-1.466-7.944-1.014-2.253-2.368-4.269-4.172-5.81q-2.706-2.312-6.428-3.557c-2.481-.83-5.075-1.186-8.007-1.186h-15.562v47.428h14.435V108.43l6.766 11.976h16.915zm-1.128 10.434h-3.045l-6.428-11.264c-1.578.355-3.27.474-4.962.474h-5.187v10.79h-2.594V78.314h7.669c2.142 0 4.172.237 5.977.83 1.804.593 3.495 1.422 4.849 2.49 1.353 1.067 2.481 2.49 3.27 4.15s1.241 3.557 1.241 5.69c0 3.084-.79 5.574-2.256 7.59-1.353 1.778-3.27 3.201-5.526 4.149z"/><path d="M173.109 91.356c0-3.32-1.127-5.928-3.27-7.826-2.255-1.778-5.413-2.727-9.36-2.727h-5.187v20.987h5.187c3.947 0 7.105-.949 9.36-2.727 2.143-1.779 3.27-4.387 3.27-7.707m-7.33 3.794c-1.24.83-2.593 1.186-4.398 1.186h-.789V85.783h.789c1.692 0 3.158.356 4.398 1.186 1.241.83 1.805 2.134 1.805 4.031s-.564 3.32-1.805 4.15"/></g></symbol><use xlink:href="#sprite-client-03" width="268" height="122" y="395"/><view id="sprite-client-03-view" viewBox="0 395 268 122"/><symbol id="sprite-client-04" viewBox="0 0 258 120"><g><path d="M53.896 24.866h-9.09l-10.96 28.448-10.961-28.448h-8.956l19.917 51.649z"/><path d="M74.08 24.866h-8.42v51.649h8.42z"/><path d="M104.29 63.258c10.158 0 18.58-8.563 18.58-19.196 0-10.496-8.288-19.196-18.58-19.196-10.293 0-18.58 8.7-18.58 19.196 0 10.633 8.42 19.196 18.58 19.196m0-29.83c5.747 0 10.292 4.696 10.292 10.634s-4.545 10.633-10.292 10.633c-5.748 0-10.293-4.695-10.293-10.633s4.545-10.634 10.293-10.634"/><path d="M120.597 67.953H87.581v8.562h33.016z"/><path d="M161.366 67.953H142.92V24.866h-8.288v51.649h26.734z"/><path d="M207.081 67.953h-24.996V54.972h20.719V46.41h-20.719V33.566h24.996v-8.7h-33.417v51.649h33.417z"/><path d="M225.528 76.515h8.288V33.566h8.287v-8.7h-24.996v8.7h8.421z"/><path d="M104.29 65.467c11.362 0 20.585-9.528 20.585-21.267s-9.223-21.267-20.585-21.267S83.704 32.462 83.704 44.2c-.133 11.739 9.224 21.267 20.586 21.267m0-41.43c10.827 0 19.515 8.977 19.515 20.163 0 11.048-8.688 20.162-19.515 20.162S84.774 55.387 84.774 44.2s8.688-20.162 19.516-20.162"/><path d="M.16.009V104.41c0 .829.669 1.519 1.471 1.519h59.884c.802 0 1.47-.69 1.47-1.519s-.668-1.519-1.47-1.519H3.101V2.909h251.567v99.983h-37.561c-.802 0-1.471.69-1.471 1.519s.669 1.519 1.471 1.519h39.031c.802 0 1.471-.69 1.471-1.519V.009z"/><path d="M252.396 101.097V4.566H4.037v96.531c0 .276.267.552.535.552H70.47c.668-.276 1.337-.829 2.005-1.105v.138l-.133.138c-.535.415-1.07.967-1.738 1.658l-.936.966-.535.553c-.802.966-1.604 1.933-2.272 2.762a29 29 0 0 0-2.005 2.762c-.535.828-1.07 1.657-1.337 2.485a3.9 3.9 0 0 0-.534 1.934v.138c.133.69.534.828.935.828h.268l.802-.414c.267-.138.534-.414.802-.69.534-.553 1.069-1.243 1.737-1.934.669-.828 1.203-1.657 1.872-2.762.267-.552.534-.966.802-1.519.267-.552.534-.967.935-1.519l.401-.69c.669.138 1.47 0 2.406-.553.803-.552 1.738-1.243 2.407-2.071l.133-.138 3.208-1.243c1.07-.415 1.872-.967 2.674-1.52l.4-.276c-.133.277-.4.691-.534.967-.267.553-.401.967-.401 1.381-.134.276 0 .414.134.553.133 0 .133.138.267.138s.267 0 .267-.277c.535-.552 1.203-.966 2.005-1.519.936-.552 1.605-.966 2.406-1.243.802-.414 1.337-.552 1.872-.69h.4c.135 0 .268 0 .268.138-.133.138-.267.414-.4.69a4.2 4.2 0 0 0-.67.967c-.267.276-.4.691-.668.967-.133.414-.133.69-.133.967q.2.414.802.414c.4 0 .802-.138 1.47-.276.535-.138 1.07-.415 1.738-.691s1.203-.552 1.738-.828l.802-.415c0 .138 0 .138-.134.277-.134.552.134.966.535 1.381.267.276.802.414 1.336.414h.134c.535 0 1.337-.276 2.139-.829.534.138 1.07.138 1.737 0 .669-.138 1.337-.276 2.139-.552l2.005-.829c.134-.138.401-.138.535-.276 0 .138-.134.276-.134.414 0 .277-.133.415-.133.691 0 .414.133.828.401.967.267.276.534.414.935.414.268.138.669.138 1.203.138.401 0 .936 0 1.604-.138 1.203-.276 2.406-.553 3.609-.967l3.209-1.243v.276c-.134.553.133.967.534 1.381.267.277.802.415 1.337.415h.134c.534 0 1.336-.277 2.138-.829.535.138 1.07.138 1.738 0s1.337-.276 2.139-.552c.133 0 .401-.138.534-.276-.267.552-.267.966 0 1.381.401.828 1.07.966 2.139.552.802-.414 1.871-1.105 3.075-2.348-.669.967-1.337 1.934-1.872 2.9-.936 1.381-2.005 2.9-3.342 4.419l-.133.139-1.337.828c-1.47.967-2.941 1.933-4.277 2.9s-2.54 1.795-3.61 2.624c-.935.829-1.871 1.657-2.539 2.348s-1.07 1.381-1.07 1.933v.138c.134.414.268.691.669.829.133 0 .267.138.534.138h.401c.268-.138.669-.276 1.07-.553l1.203-.828c.935-.691 1.871-1.519 2.941-2.486 1.203-1.105 2.272-2.348 3.341-3.452l1.604-1.796 1.604-1.795 3.075-1.933c1.337-.829 2.406-1.519 3.342-2.21l3.208-2.071c.935-.691 1.871-1.243 2.807-1.796.267-.276.534-.414.935-.552.268-.276.669-.414 1.203-.829.535-.276 1.203-.69 2.005-1.38.134.276.134.414.134.552 0 .276.134.414.401.828l-1.203 1.658c-.267.69-.401 1.104 0 1.657q.4.414 1.203.414h.668c.936-.138 1.872-.414 2.941-.828.802-.277 1.604-.691 2.406-1.105 0 .138-.133.276-.133.414-.134.552 0 .967.534 1.243.134.138.268.138.535.138.134 0 .401 0 .535-.138a6.4 6.4 0 0 0 1.47-.552c.668-.277 1.069-.553 1.604-.829.401-.276.668-.414.936-.691v.691q.2.62.802.829c.401.138.935.138 1.47-.139.535-.138 1.069-.414 1.738-.828.401-.276.802-.414 1.203-.691l.134-.138h.133c.268-.138.535-.414.669-.414v.276l-.134.414-.134.139c-.534.414-1.069.966-1.737 1.657l-1.07 1.104-.401.415c-.802.966-1.604 1.933-2.272 2.762a28 28 0 0 0-2.005 2.762c-.535.828-1.07 1.657-1.337 2.485-.401.829-.535 1.381-.535 1.934v.138c.134.69.535.829.936.829h.267l.802-.415c.268-.138.535-.414.802-.69.535-.553 1.07-1.243 1.738-1.934.668-.828 1.203-1.795 1.871-2.762.268-.552.535-.966.802-1.519.268-.414.535-.966.936-1.519l.401-.69c.669.138 1.471 0 2.406-.553.802-.552 1.738-1.243 2.406-2.071l.134-.138h.134l3.208-1.243c1.069-.414 1.871-.967 2.673-1.381l.535-.276c-.134.276-.401.69-.535.966-.267.553-.401.967-.401 1.381-.134.277 0 .415.134.553.133 0 .133.138.267.138s.267 0 .267-.276c.535-.553 1.204-.967 2.006-1.519.935-.553 1.604-.967 2.406-1.243.802-.415 1.336-.553 1.871-.69h.401c.134 0 .267 0 .267.137-.133.139-.267.415-.401.691-.267.276-.401.69-.668.967-.267.276-.401.69-.668.966-.134.415-.134.691-.134.967q.2.414.802.414c.401 0 .802-.138 1.337-.276s1.069-.414 1.737-.69c.401-.139.802-.415 1.203-.553.134.276.268.414.401.691.268.276.669.552 1.07.69s.802.276 1.336.276c.669 0 1.471-.138 2.273-.276s1.47-.414 2.272-.69c.669-.277 1.337-.553 2.139-.967.668-.414 1.203-.691 1.738-1.105v-.138c.133-.138.267-.138.534-.276.268-.138.535-.414.802-.553l.268-.138c.133 0 .133-.138.133-.138.268.276.535.415 1.07.553.401.138.802.138 1.203.138.267 1.243.935 2.071 1.871 2.762s2.139 1.104 3.476 1.243c.401 0 .935.138 1.336.138.802 0 1.738-.138 2.674-.277 1.336-.276 2.539-.828 3.475-1.38h43.978c.802-.829 1.069-1.105 1.069-1.381m-130.997 9.804c-.133.139-.267.277-.267.415l-.535.552c-1.069 1.105-2.272 2.21-3.341 3.315-.936.828-1.872 1.795-2.941 2.485-.802.691-1.471.967-2.005 1.105-.134.138-.268.138-.268.138v-.138c.134-.414.535-.828.936-1.381.535-.552 1.203-1.243 2.139-2.071.668-.553 1.47-1.243 2.54-1.934.935-.69 2.005-1.381 3.074-2.071zm-50.26-7.319c-.4.276-.534.553-.668.691v.414l.134.276-.268.691-1.871 2.9c-.535.967-1.203 1.795-1.738 2.624-.668.828-1.203 1.381-1.604 1.933-.668.691-.935.829-1.07.829h-.133l.134-.138c0-.415.267-.967.668-1.658.401-.69.802-1.381 1.337-2.209.535-.691 1.07-1.519 1.871-2.486.669-.829 1.337-1.657 2.14-2.486.266-.276.4-.552.534-.69l.4-.415.268-.276.401-.414zm3.075-.138c-.535.414-1.203.829-1.604 1.105-.268.138-.535.138-.669.138h-.133l.133-.414.268-.138c.133 0 .133 0 .267-.138.267 0 .401-.139.668-.139.268-.276.669-.414 1.07-.414m2.807-3.728c-.134.552-.535 1.104-1.07 1.933l-.267.138-1.203.414c-.133 0-.267.138-.4.138-.135 0-.402.139-.535.139-.268.138-.669.276-.803.276h-.133c.133-.138.133-.415.133-.553.134-.276.134-.414.268-.69l.267-.553.134-.138c.133-.138.4-.414.534-.414.134-.138.401-.276.535-.414 1.47-1.105 2.005-1.381 2.273-1.381h.133c.134.414.401.414.134 1.105m20.451 1.657c-.534.276-.935.414-1.47.414q-.601 0-.802-.414-.2-.622.401-1.243c.401-.276.802-.553 1.203-.967.267-.138.401-.414.668-.552a2.73 2.73 0 0 0-.4 1.38c0 .553.133.967.4 1.382m1.47-1.52c-.267.277-.534.553-.668.829-.133-.138-.267-.414-.133-.69.133-.415.267-.829.4-1.105.268-.414.535-.69.803-.967.267-.276.4-.414.668-.414v.276c0 .276-.133.553-.4.967-.268.414-.402.828-.67 1.105m19.517 1.52c-.535.276-.936.414-1.471.414q-.601 0-.802-.414-.2-.622.401-1.243c.401-.276.802-.553 1.203-.967.268-.138.401-.414.669-.552a2.7 2.7 0 0 0-.401 1.38c0 .553.133.967.401 1.382m1.47-1.52c-.267.277-.401.553-.668.829-.134-.138-.134-.414-.134-.69 0-.415.267-.829.401-1.105.267-.414.535-.69.802-.967.267-.276.401-.414.668-.414v.276c0 .276-.133.553-.401.967a3 3 0 0 1-.668 1.105m32.883.139c-.535.414-1.07.69-1.604 1.105l-1.604.828c-.401.138-.802.276-1.07.276 0 0-.133-.138 0-.552.134-.276.401-.691.669-.967l.401-.414c.267-.138.401-.276.534-.276.134 0 .134-.138.268-.276q.601-.415 1.203-.415c.401 0 .668.138.802.138.133.139.267.277.534.277h.134c-.134.138-.134.276-.267.276m5.213 3.59c-.401.276-.668.553-.668.691v.414l.133.276-.267.691-1.871 2.9c-.535.967-1.204 1.795-1.738 2.624-.669.828-1.203 1.381-1.604 1.933-.669.691-.936.829-1.07.829h-.133l.133-.138c0-.415.268-.967.669-1.658.401-.69.802-1.381 1.336-2.209.535-.691 1.07-1.519 1.872-2.486.668-.829 1.337-1.657 2.139-2.486.133-.276.401-.414.534-.69l.401-.415.268-.276.401-.414zm3.074-.138c-.534.414-1.069.829-1.604 1.105-.267.138-.534.138-.668.138h-.134l.134-.414.267-.138.268-.138c.267 0 .401-.139.668-.139.401-.276.802-.414 1.069-.414m2.941-3.728c-.134.552-.535 1.104-1.069 1.933l-.268.138-1.203.414c-.133 0-.267.138-.401.138-.133 0-.401.139-.534.139-.268.138-.669.276-.802.276h-.134c.134-.138.134-.415.134-.553.133-.276.133-.414.267-.69l.267-.553.134-.138c.267-.276.401-.414.535-.414.133-.138.401-.276.534-.414 1.471-1.105 2.005-1.381 2.273-1.381h.133c0 .414.268.414.134 1.105m87.153.69h-43.309c-.134 0-.134 0-.268.138h-.133c-1.203.829-2.54 1.243-3.877 1.519a11.6 11.6 0 0 1-3.742.138c-1.203-.276-2.139-.69-2.941-1.243q-1.203-.828-1.203-2.485c0-.138 0-.276-.401-.276h-.401a1.8 1.8 0 0 1-1.203 0c-.268-.139-.401-.277-.535-.415.134-.138.267-.276.267-.414v-.414c-.133-.277-.401-.277-.534-.277h-.134c-.267 0-.535.277-.668.829-.268.138-.535.414-1.07.829l-.133.138c-.268.138-.401.276-.535.414 0 0-.134 0-.134.138-.935.69-2.005 1.243-3.208 1.795-1.203.553-2.54.967-3.743 1.105-.668.138-1.336 0-1.737-.138-.401-.276-.802-.552-.936-.829h.134c.133 0 .267-.138.534-.276.401-.138.802-.414 1.203-.69s.802-.553 1.07-.829a1.52 1.52 0 0 0 .401-.966c0-.415-.268-.691-.669-.691-.401-.138-.668-.138-1.069 0-.535.138-.936.414-1.47.69-.535.415-.802.829-1.07 1.381-.133.277-.133.415-.133.691 0 0-.134 0-.134.138l-.802.414c-.267.138-.535.277-.668.277l-.268.138a6.4 6.4 0 0 0-.935.414c-.669.276-.936.414-1.07.414 0 0 0-.276.268-.552.267-.414.534-.829.935-1.243.401-.552.535-.967.535-1.243-.134-.552-.535-.967-1.069-.967-.401 0-.936 0-1.471.277-.534.276-1.203.552-1.871.828-.668.414-1.337.69-1.871.967-.268.138-.535.276-.669.414l1.07-1.933c.802-.553 1.336-.967 1.871-1.381.267-.138.668-.415.936-.69 2.94-1.796 4.945-3.453 5.881-4.558.668-.829 1.069-1.519.936-2.071 0-.277-.134-.415-.268-.553-.267-.276-.668-.276-1.203-.138a6.2 6.2 0 0 0-1.336.69c-.401.277-.936.553-1.337.967l-.134.138c-.534.415-1.203.967-1.737 1.52-.802.828-1.604 1.657-2.273 2.623a20 20 0 0 0-1.871 2.762l-.134.138c-.267.277-.668.415-.936.69-.401.277-.668.415-1.069.691-.535.277-1.069.553-1.738.967-.802.414-1.604.691-2.272 1.105h-.134l.268-.276c.401-.553.534-1.105.668-1.658 0-.552-.134-.966-.668-1.38-.401-.277-1.07-.139-1.738.138-.535.276-1.337.828-2.005 1.38v-1.104c0-.138 0-.415-.401-.415-.134 0-.401 0-.535.415 0 .138-.133.276-.267.414s-.401.276-.936.552c-.534.277-1.069.553-1.604.967l-1.604.829c-.535.276-.802.276-1.069.138-.134 0-.134-.276 0-.691a2.14 2.14 0 0 1 .802-1.104c.267-.139.267-.415.133-.69-.133-.139-.267-.277-.4-.277-.134 0-.402.138-.535.276l-.134.138c-.134.138-.267.276-.401.276v-.138c-.134-.276-.401-.414-.668-.69-.401-.138-.669-.276-1.203-.276-.669 0-1.203.138-1.872.552-.267.138-.534.414-.802.552-.133.139-.401.138-.534.277-.535.276-1.203.552-1.738.828-.668.276-1.203.553-1.871.829-.535.276-1.203.414-1.738.552s-.936.276-1.337.276c-.267 0-.401-.138-.401-.138 0-.414.134-.828.535-1.105l.936-.966c.133 0 .133 0 .133-.138s0-.277-.133-.553c-.535-.69-.803-1.243-.803-1.795l1.204-.967a6.6 6.6 0 0 0 1.336-1.105c.268-.138.401-.414.802-.69l.401-.414a4.5 4.5 0 0 0 .802-1.105v-.552c-.133-.139-.133-.139-.267-.139-.267 0-.668 0-1.337.277l-1.604.828a6.5 6.5 0 0 0-1.337 1.381q-.601.83-.802 1.657l-.133.277-.535.414c-.267.138-.535.414-.802.552s-.535.415-.802.553l-.134.138c-.133 0-.267 0-.267.138-.134.138-.267.138-.401.276a1.9 1.9 0 0 0-.535.414c-.267.277-.668.415-1.069.691-.802.552-1.738 1.105-2.673 1.795-.401.276-.802.552-1.203.691-.669.414-1.203.828-1.872 1.242-1.203.691-2.272 1.381-3.341 2.072l-.803.552c1.337-1.795 2.273-3.176 2.941-4.419.802-1.381 1.471-2.486 1.872-3.314 0-.138.133-.414-.134-.69-.134 0-.267-.139-.267-.139-.134 0-.268 0-.268.138-.534.553-1.069 1.105-1.604 1.52-.534.552-1.203 1.104-1.737 1.519-.535.414-1.07.828-1.605.966-.401.138-.668.276-.802 0-.133-.138-.267-.276 0-.69.134-.415.535-.691.936-1.105.134-.138.401-.276.535-.414.267-.138.401-.276.534-.415.268-.138.401-.276.669-.414.802-.414 1.604-.829 2.406-1.105a.76.76 0 0 0 .401-.69v-.138c-.134-.138-.267-.276-.668-.276-.669.276-1.471.69-2.139.966-.535.276-.936.553-1.471.829a8 8 0 0 0-.935.552c-.535.276-1.203.553-1.738.69-.535.139-1.069.415-1.738.553-.401.138-.668.138-.935.138l.401-.414c.267-.414.534-.69.802-1.105q.4-.621.401-1.243a1.1 1.1 0 0 0-.268-1.105c-.133-.138-.267-.138-.267-.276h-.401c-.401 0-.802.138-1.203.553-.267.138-.401.414-.668.69v-.138c0-.138-.134-.276-.401-.276h-.401c-.401.138-.802.414-1.337.69-.401.276-.668.553-.936.829-.133 0-.267.138-.401.276-.668.276-1.47.69-2.272.967-1.07.414-1.872.69-2.674.966-.935.277-1.871.553-2.539.553-.802.138-1.471.138-1.872 0s-.668-.276-.668-.553c0-.276.134-.69.267-1.104a3 3 0 0 1 .669-1.105c1.203-.69 2.539-1.381 3.609-2.348a34 34 0 0 0 3.475-2.762h2.273c.802 0 1.604.138 2.272.138h.401c.401 0 .535-.138.535-.276 0-.276 0-.414-.268-.552l-.401-.138-3.742-.277c.668-.552 1.203-1.243 1.737-1.657a3.9 3.9 0 0 0 .936-1.519c0-.138 0-.276-.134-.414-.133-.138-.267-.276-.534-.276-.268 0-.802.138-1.337.414s-1.069.69-1.738 1.105c-.535.414-1.069.828-1.738 1.243-.534.414-.935.69-1.203.966-1.069 0-2.272 0-3.742.138a18 18 0 0 0-3.075.277h-.267c-.267.138-.401.276-.401.552s.267.414.535.414h.401c.935-.138 1.737-.138 2.673-.138h2.673c-.935.967-1.604 1.657-2.138 2.348a18 18 0 0 0-1.604 1.933l-1.872 1.105c-.534.276-1.069.552-1.604.69-.534.139-1.069.415-1.737.553-.401.138-.669.138-.936.138l.401-.414c.267-.415.535-.69.802-1.105q.4-.621.401-1.243c.134-.414 0-.829-.267-1.105-.134-.138-.268-.138-.268-.276h-.401c-.401 0-.802.138-1.203.552-.267.139-.401.415-.668.691v-.138c0-.138-.134-.276-.401-.276h-.401c-.401.138-.802.414-1.337.69-.267.138-.4.276-.668.553-.401.276-.802.414-1.337.69s-1.07.414-1.47.69l-.802.415c-.268.138-.401.138-.669.276l-.267.138c-.401.138-.668.276-.936.414-.668.277-.935.415-1.07.415 0-.138 0-.276.268-.553.268-.414.535-.69.936-1.243.4-.552.535-.828.535-1.242-.134-.553-.535-.967-1.07-.967-.4 0-.935 0-1.47.276s-1.203.552-1.871.829c-.669.414-1.337.69-1.872.966-.267.139-.535.277-.668.415l1.07-1.934a38 38 0 0 0 1.87-1.38c.268-.139.669-.415.936-.691 2.94-1.796 4.946-3.453 5.882-4.558.668-.828 1.069-1.519.935-2.07 0-.277-.133-.415-.267-.553-.267-.277-.668-.277-1.203-.138a6.2 6.2 0 0 0-1.337.69c-.4.276-.935.552-1.336.967l-.134.138c-.535.414-1.203.967-1.738 1.519-.802.829-1.604 1.657-2.272 2.624a20 20 0 0 0-1.871 2.762l-.134.138c-.268.276-.669.414-.936.69-.4.277-.668.415-1.07.69-.534.277-1.069.553-1.737.968-.802.414-1.47.69-2.272 1.104h-.134l.267-.276c.401-.552.535-1.105.669-1.657 0-.552-.134-.967-.669-1.381-.4-.276-1.07-.138-1.737.138-.535.276-1.203.829-2.005 1.381v-1.104c0-.139 0-.415-.401-.415-.134 0-.401 0-.535.414-.134.276-.401.553-.669.829-.4.276-.668.552-.935.552-.134 0-.134.138-.268.138l-.802.415H7.38V4.98h245.953v95.426zm-70.177-.829c.134-.276.401-.552.668-.828.402-.414.803-.552 1.337-.552h.267c0 .138-.133.276-.267.414l-.134.138h-.133c-.134 0-.134 0-.268.138-.534.138-.935.414-1.47.69m-8.287-3.176c.534-.69 1.203-1.657 2.138-2.486 1.07-1.243 2.406-2.21 3.877-3.176.668-.414 1.069-.69 1.203-.69h.267c.134.276-.134.552-.401.966-.535.553-1.069 1.105-1.738 1.657-.668.691-1.47 1.243-2.406 1.796-.802.552-1.47.966-2.005 1.38zm-60.687-2.347c-.668.552-1.336.966-2.005 1.519-.668.414-1.336.966-2.138 1.519.668-.829 1.203-1.381 1.604-1.796.401-.414.802-.69 1.069-.966l.267-.138h1.203zm-.133-.967a18 18 0 0 1 2.272-1.657c.669-.415 1.203-.69 1.604-.967-.267.276-.534.69-.935.967-.535.552-1.07.966-1.605 1.519h-1.336zm-26.2 3.314c.535-.69 1.203-1.657 2.14-2.486 1.069-1.243 2.405-2.21 3.876-3.176.668-.414 1.069-.69 1.203-.69h.267c.134.276-.134.552-.401.966-.401.553-1.07 1.105-1.738 1.657-.668.691-1.47 1.243-2.406 1.796l-2.272 1.519z"/></g></symbol><use xlink:href="#sprite-client-04" width="258" height="120" y="517"/><view id="sprite-client-04-view" viewBox="0 517 258 120"/><symbol id="sprite-client-05" viewBox="0 0 193 192"><g><path d="m15.32 86.814.307-1.93L9.334 83.8l1.259-8.105.028-.116-1.818-.293-1.287 8.222-4.81-.82 1.398-9.129.028-.117-1.79-.292L.636 84.21l-.028.117 14.6 2.487z"/><path d="M13.613 66.83c.84.35 1.678.556 2.49.556a5.3 5.3 0 0 0 1.901-.352c1.426-.556 2.461-1.609 3.077-3.189.643-1.61.587-3.101-.14-4.418l1.426.614.727-1.814-10.46-4.535-.727 1.814 1.454.614c-1.426.41-2.433 1.405-3.048 2.927-.643 1.638-.643 3.218.028 4.652s1.762 2.458 3.272 3.13m-1.65-7.17c.448-1.11 1.175-1.842 2.154-2.194a3.4 3.4 0 0 1 1.202-.204c.587 0 1.203.146 1.846.41 1.09.467 1.846 1.17 2.321 2.106.476.966.504 2.019.056 3.13-.447 1.113-1.174 1.873-2.181 2.225-.951.35-1.986.292-3.077-.176s-1.846-1.17-2.293-2.136-.447-2.048-.028-3.16"/><path d="M20.298 45.997c.587.41 1.146.585 1.706.526a3.8 3.8 0 0 0 1.566-.643 9.7 9.7 0 0 0 1.454-1.23c.476-.468.923-.906 1.37-1.258.42-.38.84-.643 1.231-.79.364-.146.727-.116 1.063.147.531.38.7.936.531 1.668a5.3 5.3 0 0 1-.335.936c-.168.322-.336.614-.532.936-.195.322-.475.585-.783.849-.867.673-1.706.731-2.573.234l-.084-.059-1.118 1.668.111.059c.616.38 1.259.585 1.902.585.336 0 .672-.059 1.007-.146 1.119-.322 2.126-1.112 2.993-2.4.81-1.2 1.202-2.34 1.202-3.423s-.447-1.96-1.37-2.633c-.587-.44-1.175-.615-1.734-.527q-.839.132-1.594.614c-.504.322-1.007.761-1.483 1.23a27 27 0 0 1-1.342 1.287c-.42.38-.84.643-1.23.819a1.02 1.02 0 0 1-1.035-.117c-.42-.293-.588-.673-.56-1.17.028-.498.28-1.112.755-1.815.951-1.433 1.902-1.843 2.881-1.316l.084.058 1.09-1.638-.111-.059c-.811-.468-1.678-.585-2.517-.351-1.007.293-1.902 1.024-2.713 2.224-.84 1.258-1.23 2.37-1.203 3.365.056.907.504 1.726 1.37 2.37"/><path d="m37.442 36.838 1.398-1.346-4.419-5.003c-.643-.732-.95-1.58-.895-2.487.056-.907.42-1.697 1.09-2.312.644-.614 1.4-.907 2.182-.848.811.058 1.539.468 2.21 1.229l4.419 5.003 1.398-1.346-4.503-5.033c-1.007-1.14-2.21-1.755-3.496-1.814a3.76 3.76 0 0 0-1.706.293c-.531.234-1.09.614-1.65 1.141a4 4 0 0 0-1.118 1.873 7.8 7.8 0 0 0-.196 1.785l-4.028-4.594-1.398 1.346 10.6 12.026z"/><path d="m45.183 9.962-1.7 1.13 1.29 2.123 1.7-1.13z"/><path d="m51.705 24.49.056.118 1.594-1.083-6.012-9.89-.057-.088-1.594 1.054z"/><path d="M61.047 17.293c.7.35 1.454.526 2.21.526.727 0 1.482-.175 2.265-.497 1.566-.673 2.629-1.756 3.188-3.277.504-1.434.448-2.985-.167-4.594-.616-1.61-1.623-2.75-2.937-3.424-1.398-.672-2.909-.672-4.447-.029-1.566.673-2.629 1.756-3.188 3.277-.504 1.434-.448 2.985.168 4.594.587 1.61 1.566 2.75 2.908 3.424m2.182-9.949c.531 0 1.034.146 1.538.41.895.497 1.566 1.287 1.986 2.428.447 1.141.503 2.195.195 3.19-.307 1.024-1.034 1.785-2.097 2.253-1.091.468-2.098.439-2.993-.088-.895-.468-1.566-1.288-1.985-2.429-.448-1.14-.504-2.194-.196-3.189.307-1.024 1.035-1.785 2.097-2.253.504-.205.98-.322 1.455-.322"/><path d="m78.135 12.816 1.874-.322-1.035-6.73c-.14-.995.028-1.843.56-2.604.53-.731 1.23-1.17 2.125-1.317.867-.146 1.622.03 2.265.556.644.498 1.035 1.288 1.203 2.312l1.035 6.73 1.874-.322L87 4.389c-.224-1.55-.895-2.75-1.958-3.54a4.1 4.1 0 0 0-1.566-.761c-.56-.117-1.23-.117-1.986 0a3.57 3.57 0 0 0-1.93.936c-.447.41-.81.878-1.09 1.375L78.219.82l-1.874.322 1.762 11.587z"/><path d="m178.26 114.904-.112-.029-1.706 6.349a6.9 6.9 0 0 0-.196 2.722q.168 1.404.839 2.633c1.007 1.814 2.573 3.043 4.699 3.657a8.5 8.5 0 0 0 2.377.352c1.231 0 2.377-.322 3.468-.937a7 7 0 0 0 2.014-1.785 6.6 6.6 0 0 0 1.175-2.457l1.678-6.233.028-.117zm1.119 2.37 10.907 3.19-1.174 4.389c-.392 1.492-1.287 2.604-2.601 3.218-1.259.615-2.685.702-4.224.264-1.51-.439-2.685-1.288-3.468-2.517-.811-1.258-1.034-2.662-.615-4.155z"/><path d="M176.582 137.902c-1.427-.848-2.909-1.112-4.363-.731-1.511.38-2.685 1.375-3.524 2.896-.672 1.2-.923 2.4-.811 3.482.139 1.112.531 2.107 1.23 2.985l.112.117.979-1.814.028-.059-.028-.058c-.727-1.2-.755-2.429-.028-3.775.531-.965 1.258-1.58 2.153-1.872.867-.264 1.734-.205 2.601.146l-4.53 8.339-.056.088.671.409c1.035.615 2.07.937 3.104.937.42 0 .811-.059 1.231-.147 1.51-.38 2.685-1.346 3.524-2.867.839-1.522 1.035-3.072.559-4.623-.447-1.405-1.398-2.575-2.852-3.453m.783 7.227c-.476.907-1.175 1.493-2.042 1.785-.783.264-1.622.234-2.461-.088l3.608-6.612c.699.614 1.146 1.346 1.342 2.165.196.936.056 1.843-.447 2.75"/><path d="M166.289 156.219h-.056a3.4 3.4 0 0 0-1.622.439 9.7 9.7 0 0 0-1.594 1.024c-.531.41-1.035.761-1.51 1.083s-.923.526-1.315.614-.727 0-1.035-.292c-.475-.439-.587-.995-.335-1.698a4.3 4.3 0 0 1 .447-.877c.168-.293.392-.556.644-.849.251-.292.531-.527.867-.731.923-.556 1.762-.527 2.573.087l.084.059 1.314-1.522-.084-.087c-.839-.703-1.79-.966-2.853-.82-1.146.176-2.237.849-3.244 1.99-.951 1.083-1.482 2.165-1.594 3.219s.224 1.989 1.063 2.779c.531.498 1.09.761 1.65.761s1.119-.146 1.65-.41a10 10 0 0 0 1.622-1.024 21 21 0 0 1 1.482-1.082c.476-.322.895-.527 1.315-.644.391-.117.699-.029 1.007.263.755.703.559 1.668-.532 2.956-1.118 1.287-2.097 1.58-2.992.936l-.084-.059-1.287 1.493.112.087c.615.469 1.287.703 1.986.703.168 0 .308 0 .475-.03 1.035-.146 2.014-.79 2.937-1.843.979-1.141 1.51-2.194 1.594-3.189s-.28-1.873-1.035-2.575c-.559-.527-1.09-.761-1.65-.761"/><path d="m156.109 175.735 1.483 1.959 1.594-1.316-1.51-1.96z"/><path d="m149.649 163.944-.056-.088-1.483 1.229 6.964 9.188.056.087 1.483-1.229z"/><path d="M141.202 172.312c-1.426-.527-2.88-.41-4.307.409q-2.181 1.23-2.601 3.512l-.559-1.112c-.531-1.024-.671-1.961-.448-2.751s.895-1.521 2.014-2.106c1.427-.79 2.629-.79 3.552 0l.056.058 1.818-1.024-.112-.117c-.755-.761-1.65-1.229-2.713-1.346s-2.293.205-3.664.966c-1.37.76-2.293 1.784-2.712 3.013q-.63 1.888.503 4.126l5.034 9.948.056.117 1.678-.936-.727-1.434c1.314.615 2.713.527 4.111-.234 1.51-.848 2.461-2.019 2.853-3.569.364-1.493.168-2.985-.587-4.506-.783-1.493-1.874-2.517-3.245-3.014m1.986 7.081q-.378 1.58-1.93 2.457c-1.007.556-2.013.644-2.964.264-.923-.381-1.65-1.112-2.182-2.165-.531-1.054-.699-2.107-.475-3.102.112-.497.335-.936.643-1.375q.462-.615 1.259-1.054.922-.526 1.845-.526c.392 0 .784.058 1.175.205.951.38 1.706 1.082 2.238 2.136.475 1.082.615 2.136.391 3.16"/><path d="m123.891 178.662-1.818.497 1.65 6.584c.251.965.14 1.843-.308 2.633a3.22 3.22 0 0 1-1.986 1.521c-.839.235-1.622.118-2.321-.321-.671-.439-1.147-1.171-1.398-2.166l-1.65-6.612-1.818.497 1.65 6.642q.587 2.282 2.265 3.336a3.8 3.8 0 0 0 1.622.585c.14.029.308.029.476.029.447 0 .951-.058 1.482-.205a3.8 3.8 0 0 0 1.818-1.112c.392-.438.727-.936.979-1.492l.391 1.551 1.818-.497-2.824-11.353z"/><path d="m108.564 87.956-.112-.03-1.706 2.078-.028.029v.058c-.056.41 0 .79.14 1.112.14.293.336.556.559.82.224.234.448.497.672.731.223.234.391.468.559.732l.056.117.112-.03c.587-.146.755-.468.783-.731.056-.322.056-.644.056-.995 0-.322 0-.644.056-.965.028-.264.224-.44.559-.586l.196-.088-.112-.175a4.5 4.5 0 0 1-.336-.585c-.111-.205-.195-.38-.307-.585a1.9 1.9 0 0 0-.42-.527 4.3 4.3 0 0 0-.727-.38"/><path d="M168.023 105.277c.476-.205.979-.439 1.427-.702a2.3 2.3 0 0 0 .335-.234.6.6 0 0 1 .28-.176l3.132-1.58.28.293.112-.088c.447-.38.895-.673 1.398-.878.476-.204.979-.438 1.455-.702a.53.53 0 0 0 .447-.263c.084-.146.196-.293.308-.439s.223-.293.363-.41c.084-.087.224-.117.42-.058l.084.029.056-.058c.195-.147.363-.352.531-.556.14-.176.308-.38.447-.556.196-.205.336-.38.42-.498s.168-.205.252-.322c.056-.087.14-.204.251-.292q.126-.176.42-.44l.112-.116-.112-.117v-.059c0-.088.028-.117.028-.146l.028-.41a.44.44 0 0 0-.252-.41l-.084-.029-.084.059c-.251.234-.531.439-.811.644-.279.204-.559.38-.839.585-.363.234-.615.41-.811.526a4.4 4.4 0 0 0-.531.38c-.14.118-.308.264-.448.41l-.671.674-.224-.322-.139.146c-.224.234-.476.468-.7.673-.195.176-.447.205-.783.088l-.084-.03-.056.03a1.2 1.2 0 0 1-.447.175c-.196.03-.364.059-.531.117s-.336.117-.476.234c-.168.117-.28.322-.391.615l-.756.088c-.279.029-.531.058-.783.146a1.9 1.9 0 0 0-.699.322 2 2 0 0 0-.587.614c-.084.176-.168.293-.196.439-.056.117-.084.264-.112.381a.9.9 0 0 1-.391 0c-.14 0-.224-.088-.308-.205l-.056-.088-.112.029a8.6 8.6 0 0 0-1.482.41c-.476.175-.951.38-1.371.585-.447.205-.895.41-1.37.585a5.7 5.7 0 0 1-1.398.351c-.504-.351-1.203-.263-1.902-.204a5 5 0 0 1-.923 0 1.1 1.1 0 0 1-.587-.264c.139-.292.335-.526.559-.702.28-.205.559-.38.867-.497.308-.147.643-.264.951-.352.335-.087.643-.234.923-.409.279-.176.503-.41.699-.673.168-.234.252-.556.28-.966.139.029.251.059.391.088.196.029.392.088.56.146l.083.03.056-.03c.196-.117.336-.322.448-.556.084-.175.168-.35.307-.497.196.146.364.234.504.205.084 0 .168-.059.224-.147.084-.146.167-.321.251-.585.056-.205.14-.41.28-.585.084-.117.28-.146.587-.058l.056.029.056-.03a3.65 3.65 0 0 0 1.119-1.17c.252-.439.475-.936.699-1.434.14-.292.28-.585.42-.848.139-.264.279-.527.475-.76.196-.264.28-.586.28-.937q0-.44-.252-.79.42-.308.252-.966c-.14-.468-.42-.848-.839-1.2-.42-.35-.951-.555-1.538-.614s-1.147.176-1.707.732c-.363-.264-.643-.293-.894-.147a5 5 0 0 0-.588.527c-.168.205-.391.38-.615.556-.196.146-.448.146-.783-.03l-.084-.029-.084.088a11 11 0 0 1-1.091.966 18 18 0 0 0-1.146.936c-.392.322-.756.673-1.091 1.024-.364.38-.671.79-.923 1.258l-.028.059v.058c.056.264.056.44.028.586a.9.9 0 0 1-.168.38 3 3 0 0 1-.28.351 2.5 2.5 0 0 0-.363.497l-.056.059.028.088a.54.54 0 0 0 .196.263.23.23 0 0 1 .056.146c0 .205-.056.264-.056.293q-.084.088-.168.088h-.336c-.14 0-.251-.03-.363-.03h-.168v.176c0 .146 0 .293.028.439 0 .117.028.263.028.41 0 .409-.056.76-.168 1.082a4.2 4.2 0 0 1-.42.878c-.195.322-.307.673-.251 1.112 0 .058.028.117.028.175a.7.7 0 0 0-.28.293l-.28-.293-.112.205c-.307.556-.503.703-.587.732-.196.058-.363.088-.531.058a1.7 1.7 0 0 0-.671.059c-.224.058-.42.292-.672.673a.54.54 0 0 0-.391-.176h-.028c-.14 0-.308.088-.448.234-.223-.204-.419-.322-.587-.322-.196 0-.392.03-.559.088-.168.059-.308.147-.476.205a.6.6 0 0 1-.447 0 .6.6 0 0 1-.14-.088c-.028-.029-.112-.087-.196-.146-.447-.351-.699-.731-.727-1.083a8 8 0 0 1-.084-1.141c0-.409-.056-.76-.168-1.112-.112-.351-.419-.643-.951-.877.056-.293.168-.556.308-.732a2.2 2.2 0 0 1 .587-.556c.224-.146.476-.292.755-.41.28-.117.588-.292.867-.468l.112-.058-.028-.117c-.14-.41-.168-.79-.084-1.112q.126-.483.336-.966c.14-.292.308-.614.448-.965.139-.351.195-.732.139-1.17v-.06l-.028-.028a1.16 1.16 0 0 0-.503-.322c-.196-.059-.392-.088-.587-.03-.196.03-.364.117-.532.205a1.1 1.1 0 0 0-.363.44c-.532.555-1.007 1.228-1.427 2.047a25 25 0 0 1-1.202 2.195l-.028.058a2.44 2.44 0 0 1-.672 1.346 9.7 9.7 0 0 1-1.286 1.024c-.475.322-.979.673-1.454 1.025-.476.351-.839.79-1.147 1.316q-.42-.044-.671.176a1.9 1.9 0 0 0-.42.526c-.112.205-.196.41-.307.644a1.2 1.2 0 0 1-.252.41c-.336-.146-.643-.176-.895-.059q-.42.176-.755.439a3.5 3.5 0 0 1-.616.381c-.055.029-.223.117-.503-.088l-.14-.088-.084.146c-.084.117-.167.205-.279.205a.8.8 0 0 1-.364 0c-.112-.234-.28-.439-.447-.644a.51.51 0 0 1-.084-.556c.279-.117.643-.321.615-.614 0-.088-.028-.146-.056-.234l.028-.029.084-.088-.308-.527-.112.059c-.084-.117-.139-.234-.195-.351-.028-.059-.056-.176.195-.351l.056-.03.028-.058c.196-.615.448-1.229.755-1.785.308-.585.588-1.17.895-1.756.28-.585.56-1.2.811-1.814a9.2 9.2 0 0 0 .56-1.902c.028-.146.084-.263.14-.439a1 1 0 0 0 .028-.497c0-.41-.168-.702-.476-.907a1.43 1.43 0 0 0-.895-.234 1.3 1.3 0 0 0-.811.41c-.224.234-.28.585-.168.994-1.007.82-1.79 1.873-2.349 3.073a13.7 13.7 0 0 0-1.091 3.891v.088l.084.058c.084.059.084.118.056.205-.084.176-.14.322-.224.498-.084.205-.111.38-.111.585.027.292.307.439.503.527 0 .117 0 .263-.028.38 0 .029 0 .146-.224.263l-.112.059.028.117c.028.205.084.409.14.585-.196.146-.391.263-.587.41-.224.175-.42.38-.615.556-.196.204-.392.38-.616.556-.028.029-.084.058-.196.146-.139.088-.279.205-.447.322s-.308.205-.447.292c-.168.088-.224.147-.252.176-.336.175-.615.292-.783.41-.168.087-.42.292-.783.555-.448.03-.895.118-1.371.235-.419.117-.811.204-1.202.292a5 5 0 0 0-.476-1.141l-.671-1.229-.056-.058-.503-.352c-.14-.117-.308-.204-.448-.292.028-.176.084-.381.14-.585.056-.234.112-.469.14-.703.056-.117.168-.292.279-.585.14-.322.28-.643.42-1.024l.364-.995c.111-.292.167-.468.195-.526.084-.264.168-.556.224-.82l.168-.819q.21-.35.335-.79a5 5 0 0 1 .28-.79c.14-.322.28-.615.392-.849s.223-.468.307-.702.196-.468.28-.702c.084-.205.168-.468.28-.731.307-.059.587-.117.867-.176.307-.059.643-.117.979-.176l.195-.029-.979-2.311-1.957-.586-.056.059a2 2 0 0 1-.336.175 6 6 0 0 0-.503.205c-.168.059-.336.117-.532.176a7 7 0 0 1-.447.146l-.028.03c-.084.058-.196.146-.336.204q-.21.132-.503.264l-.532.234a3 3 0 0 1-.391.175c-.503.205-1.007.41-1.482.615a8 8 0 0 0-1.483.79c-.279.234-.503.41-.671.556q-.21.175-.671.526a3.6 3.6 0 0 0-.531.732c-.14.263-.28.497-.448.702a6 6 0 0 1-.587.527 7 7 0 0 0-.672.526l-.727 1.61s-.028.058-.168.234c-.111.117-.223.263-.363.409l-.364.381c-.139.146-.195.234-.223.322l-.644 1.521a5.6 5.6 0 0 0-.503.702c-.168.234-.308.498-.476.761l-.027.059.027.087c.028.088.056.176.056.264a1.04 1.04 0 0 0-.643.409l-.028.03v.029q-.084.439-.252.527a3 3 0 0 1-.531.117c-.224 0-.447.058-.671.117-.252.087-.42.292-.532.673a1.07 1.07 0 0 1-.587.058c-.196-.029-.391-.088-.587-.146a1.6 1.6 0 0 0-.643-.059c-.224 0-.476.117-.784.293-.335-.029-.671 0-1.034.029a1.14 1.14 0 0 1-.867-.263l-.084-.059-.084.03c-.196.087-.476.146-.587.029q-.168-.219-.252-.615a4.7 4.7 0 0 1-.084-.907c0-.263-.056-.468-.112-.614a.75.75 0 0 0 .28-.322c.056-.146.112-.322.14-.497.028-.147.083-.264.139-.381.028-.087.14-.117.308-.117h.252l-.112-.234c-.224-.497-.28-.878-.14-1.17.168-.322.364-.673.643-.966.28-.322.532-.702.755-1.053.252-.41.28-.907.14-1.55a1.06 1.06 0 0 0-.251-.47c0-.028.028-.028.028-.058l.111-.292-.307.088c-.056.029-.112.058-.168.058l-.168-.088c-.168-.029-.335-.058-.503-.029-.168 0-.336.03-.476.03h-.056l-.056.058a9 9 0 0 1-.531.526c-.196.176-.392.41-.559.615a4.4 4.4 0 0 0-.392.702c-.28.293-.559.556-.811.878l-1.566 1.785a7.2 7.2 0 0 1-1.678 1.404 1.08 1.08 0 0 0-.671-.029 1.4 1.4 0 0 0-.532.293 1.6 1.6 0 0 0-.42.468 5 5 0 0 1-.363.439c-.364.058-.7.205-1.035.38q-.545.307-1.007.702c-.307.264-.615.586-.895.878-.223.263-.42.498-.615.732l-.755-1.112-.56.556a7 7 0 0 1-.335-.498 6 6 0 0 1-.363-.76 2.7 2.7 0 0 1-.196-.82 2.1 2.1 0 0 1 .056-.731v-.059a96 96 0 0 1-.28-2.955 20 20 0 0 1-.056-2.897 62 62 0 0 0 1.566-3.745c.448-1.229.923-2.516 1.399-3.862.14-.41.28-.82.42-1.258l.083-.264c.168-.497.336-.995.531-1.521.224-.673.504-1.083.84-1.259a2.05 2.05 0 0 1 1.09-.234c.42 0 .84.03 1.259.059.447.03.867-.117 1.314-.38.252.146.532.204.783.146q.378-.088.588-.351l.447.468h.056q.587.044 1.175-.088c.363-.088.755-.175 1.118-.263s.728-.176 1.063-.234a2.04 2.04 0 0 1 .951.058l.112.03.056-.088c.196-.293.419-.468.699-.468.308-.03.643.029.951.087a6.5 6.5 0 0 0 1.063.088c.391 0 .755-.205 1.063-.556l.055-.058-.027-.088a1.2 1.2 0 0 1-.056-.615c.056-.175.083-.35.139-.526.028-.176.028-.38-.056-.556-.083-.176-.279-.38-.615-.585l-.056-.03h-.056c-.307.059-.671.147-1.034.234-.392.088-.756.176-1.147.234-.392.059-.755.118-1.119.118-.363.029-.727 0-1.007-.03h-.056l-.056.03q-.209.176-.419.087a6 6 0 0 1-.531-.205 8 8 0 0 0-.644-.263c-.251-.088-.531-.03-.811.117l-.028.03-.028.029c-.112.175-.279.41-.447.41s-.364-.03-.56-.088a2.6 2.6 0 0 0-.643-.176c-.224-.03-.419.03-.643.234-.252-.263-.587-.205-.923-.088q-.21.088-.503.176-.21.045-.42 0a6.5 6.5 0 0 0-.587-.702c-.168-.205-.196-.44-.084-.732.168-.146.335-.38.475-.673.14-.234.28-.351.448-.38h.14l.028-.117c.028-.117.083-.264.195-.44.14-.204.224-.38.308-.584.112-.205.112-.41.084-.615-.056-.175-.168-.293-.364-.41.168-.234.28-.468.364-.731a8 8 0 0 0 .28-.966c.083-.322.139-.643.195-.995.056-.321.14-.614.252-.906l.056-.118-.168-.38-.755-.439a1.5 1.5 0 0 0-.95-.146l-.057.03q-1.132.657-1.678 1.667a10 10 0 0 0-.867 2.107q-.336 1.14-.587 2.282c-.168.731-.392 1.434-.727 2.107-.448.41-.867.731-1.315.936a4.8 4.8 0 0 1-1.398.41 8.3 8.3 0 0 1-1.483.029 18 18 0 0 1-1.622-.264h-.056l-.055.03a1.07 1.07 0 0 1-.588.175c-.252 0-.447.03-.643.059-.224.03-.392.117-.56.263-.167.147-.251.41-.28.82v.35a.52.52 0 0 0 .392.44c.336.087.755.087 1.147.029.336-.059.504-.059.587-.03.056.03.14.059.224.117.336.147.7.205 1.063.235.671.029 1.37.029 2.042.087.251.03.531.088.81.176a113 113 0 0 0-1.677 4.652 58 58 0 0 0-1.455 4.916c-.168.673-.307 1.346-.475 1.99-.14.673-.308 1.346-.476 2.019l-.111.468a1.6 1.6 0 0 0-.029.526c.029.322.056.615.14.937.084.292.112.556.14.819v.205l-.251.175a.9.9 0 0 1-.392.117h-.084v.176c0 .527-.084.614-.084.614a.63.63 0 0 1-.335 0c-.168-.058-.364-.087-.56-.117-.196 0-.363.117-.503.381l-.28-.293-.112.205c-.307.556-.503.702-.587.732-.196.058-.364.087-.532.058-.223-.029-.447 0-.67.059s-.42.292-.672.673a.54.54 0 0 0-.391-.176h-.029c-.14 0-.307.088-.447.234-.224-.205-.42-.322-.587-.322-.196 0-.392.029-.56.088s-.307.146-.475.205a.6.6 0 0 1-.448 0c-.112-.059-.14-.088-.14-.088a2 2 0 0 0-.195-.146c-.448-.351-.7-.732-.727-1.083a8 8 0 0 1-.084-1.141c0-.41-.056-.761-.168-1.112s-.42-.644-.951-.878c.056-.292.168-.556.308-.731a2.2 2.2 0 0 1 .587-.556c.224-.146.475-.293.755-.41s.587-.292.867-.468l.112-.059-.028-.117c-.14-.41-.168-.79-.084-1.111q.126-.483.336-.966c.14-.293.307-.614.447-.966.14-.35.196-.731.14-1.17v-.058l-.028-.03a1.16 1.16 0 0 0-.503-.322c-.196-.058-.392-.087-.588-.029-.195.03-.363.117-.531.205a1.1 1.1 0 0 0-.364.439 8.6 8.6 0 0 0-1.426 2.048c-.391.82-.811 1.55-1.203 2.195l-.028.058a2.44 2.44 0 0 1-.67 1.346 10 10 0 0 1-1.287 1.024c-.476.322-.98.673-1.455 1.024s-.839.79-1.146 1.317q-.42-.044-.671.175a1.9 1.9 0 0 0-.42.527c-.112.205-.196.41-.308.644-.056.146-.14.293-.251.41-.336-.147-.644-.176-.895-.059q-.42.175-.755.439c-.196.146-.42.293-.616.38-.056.03-.224.117-.503-.087l-.14-.088-.084.146c-.084.117-.168.205-.28.205a.8.8 0 0 1-.363 0c-.112-.234-.28-.439-.448-.644a.51.51 0 0 1-.084-.556c.28-.117.644-.322.616-.614q0-.307-.252-.615c-.14-.175-.224-.351-.308-.526-.028-.059-.056-.176.196-.352l.056-.029.028-.058a10 10 0 0 1 .755-1.785c.308-.585.588-1.17.895-1.756.28-.585.56-1.2.811-1.814a9.2 9.2 0 0 0 .56-1.902c.028-.146.083-.263.14-.439a1 1 0 0 0 .027-.497c0-.41-.168-.702-.475-.907a1.43 1.43 0 0 0-.895-.234 1.28 1.28 0 0 0-.811.41c-.224.233-.28.585-.168.994-1.007.82-1.79 1.873-2.35 3.073-.055.146-.111.263-.167.41a1.4 1.4 0 0 0-.364.263c-.195-.293-.42-.44-.643-.44h-.028a1.17 1.17 0 0 0-.671.235 6 6 0 0 1-.587.322c-.084.029-.252.087-.476-.147l-.084-.088-.112.059c-.559.351-1.146.497-1.706.41-.559-.059-1.118-.264-1.65-.585v-2.517a8 8 0 0 0-.168-.644l-.251-.877c-.084-.293-.196-.615-.28-.907s-.168-.498-.196-.674l-.028-.058-.056-.03c-.559-.409-1.062-.526-1.51-.409-.42.117-.811.293-1.203.585a17 17 0 0 1-1.202.761c-.392.234-.867.293-1.37.234l-.308-.058.14.292c.028.088.056.176 0 .264a2 2 0 0 0-.14.38.9.9 0 0 0-.084.38c0 .117.028.234.14.352a1.6 1.6 0 0 1-.252.204c-.14.088-.28.176-.448.234-.167.088-.307.147-.475.234a1.8 1.8 0 0 0-.475.352l-.056.058v.088c.056.41-.028.731-.252.936-.252.234-.56.44-.839.644a4 4 0 0 0-.84.702c-.25.263-.279.673-.139 1.17a1.1 1.1 0 0 0-.392.41c-.28.147-.587.293-.867.439-.53.293-1.062.585-1.622.878a6.4 6.4 0 0 1-1.482.527c-.028-1.902-.364-3.775-1.063-5.53a28.6 28.6 0 0 0-2.629-5.15 25 25 0 0 0 1.483-3.804c.42-1.346.643-2.75.643-4.184 0-.556-.084-1.17-.252-1.873-.14-.644-.307-1.229-.447-1.785-.056-.175-.14-.35-.196-.556a13 13 0 0 0-.168-.556v-.058a2.44 2.44 0 0 0-1.482-1.463 5.4 5.4 0 0 0-.979-.264 67 67 0 0 1-.979-.175l-.391-.088c-.336-.058-.476-.088-.951.03-.224.058-.448.116-.7.175s-.475.146-.699.205l-.531.175a11.2 11.2 0 0 0-3.244 1.99 17 17 0 0 0-2.406 2.75c-.699.995-1.314 2.107-1.873 3.277a100 100 0 0 0-1.567 3.512 117 117 0 0 1-1.482 3.306 21 21 0 0 1-1.762 3.102l-.028.058v.059c.028.468-.028.907-.168 1.258-.14.41-.28.79-.447 1.141-.168.38-.336.79-.476 1.17s-.223.79-.223 1.23c-.448.146-.7.35-.84.643a2.4 2.4 0 0 0-.167.907c0 .293-.056.585-.112.849-.056.234-.252.439-.615.585l-.112.058.028.147c.084.351.112.731.056 1.141-.028.439-.084.878-.168 1.346l-.196 1.434a6.7 6.7 0 0 0 0 1.492v.117l.112.029q.755.264 1.259.088c.307-.117.587-.293.783-.556.195-.263.335-.556.475-.907.112-.351.252-.702.392-1.024q.21-.526.503-.966a2.1 2.1 0 0 1 .783-.702l1.706 1.287c.084.059.196.147.28.234q.168.175.335.264c.532.292 1.12.614 1.762.878.644.292 1.315.526 2.014.76.671.234 1.37.439 2.042.615.671.175 1.314.292 1.902.38.67.088 1.37.146 2.041.146s1.37-.058 2.042-.146a8.1 8.1 0 0 0 3.748-1.58l.083-.058-.028-.117c-.083-.293-.083-.498.056-.644.14-.176.336-.322.56-.439.28-.117.531-.234.783-.322.308-.117.531-.263.671-.468l.084-.117-.252-.205c.504-.351 1.007-.644 1.483-.936a18 18 0 0 1 1.65-.849c.391-.175.783-.38 1.146-.585v.117a6.6 6.6 0 0 1-.335.966c-.14.322-.28.673-.42.994-.14.352-.196.761-.14 1.171v.058l.028.03c.252.322.448.702.588 1.082s.223.79.251 1.2v.205l.168-.029c.196-.03.392-.03.532 0 .167.058.307.117.447.234s.308.234.447.351q.252.219.504.351l.056.029h.056c.95-.117 1.874-.439 2.74-.878a7.9 7.9 0 0 0 2.266-1.726c.447.058.755-.029.951-.263.168-.205.308-.469.391-.761.084-.263.168-.556.28-.819.084-.234.28-.381.587-.498l.224-.058-.112-.176c-.056-.058-.111-.146-.195-.234-.028-.029-.028-.029-.028-.059.42-.146.727-.409.867-.76s.251-.703.335-1.083a3.8 3.8 0 0 1 .336-.965c.112-.235.391-.381.81-.41a.66.66 0 0 1 .337 0c.14 0 .28.029.42.029.223-.029.447 0 .67.059.252.058.532.058.811.029.951-.146 1.762-.293 2.49-.38.167-.03.363-.059.559-.088-.084.409-.168.819-.224 1.229v.087l.084.059c.084.059.084.117.056.205-.084.175-.14.322-.224.497a1.5 1.5 0 0 0-.112.585c.028.293.308.439.504.527 0 .117 0 .263-.028.38 0 .03 0 .147-.224.264l-.112.058.028.117c.112.586.28 1.142.504 1.697s.447 1.083.67 1.668l.029.117h.112q.377 0 .587.176a3 3 0 0 1 .447.41c.14.146.308.292.476.438s.391.205.671.205h.112c.028 0 .056 0 .252-.058q.21-.045.251-.088c.476-.146.923-.322 1.343-.585.42-.264.699-.615.895-1.112a4 4 0 0 0 1.454-.381 7 7 0 0 0 1.538-.936c.476-.38.923-.79 1.315-1.287a7 7 0 0 0 .867-1.317h.028c.335 0 .56.088.671.234.168.176.252.41.308.673.056.293.112.585.14.878.027.351.14.644.307.878.112.146.168.204.252.204.028 0 .056.03.112.088.14.088.252.205.363.322.112.146.252.263.42.381 1.23 1.024 2.685 1.404 4.279 1.141h.056l.028-.03a1.26 1.26 0 0 1 .475-.321c.196-.088.364-.147.56-.235.195-.087.363-.175.503-.321.14-.117.252-.322.364-.556.167-.117.335-.205.447-.264.112-.058.224-.087.308-.117.112-.029.224-.029.335-.058.14 0 .308-.03.56-.03h.056l1.93-1.521c.111.702.307 1.346.615 1.96a5.7 5.7 0 0 0 1.874 2.166 7.3 7.3 0 0 0 1.202.585c.196.029.392.058.615.058a4 4 0 0 0 1.147-.175c.615-.176 1.147-.41 1.538-.702h.336c.224-.03.503-.059.671.029a.5.5 0 0 1 .168.175l.112.205.168-.175c.475-.527.95-1.024 1.482-1.463a21 21 0 0 1 1.594-1.229c.168-.117.336-.234.532-.351.195-.117.363-.234.531-.352.336-.204.615-.468.867-.731 0 .205-.028.41-.028.585.028.41.084.79.196 1.171.112.38.279.731.531.965.112.117.224.234.364.322q.167.132.335.351c.14.176.28.351.448.556s.335.41.531.556c.196.176.42.293.643.351.196.059.42.059.644.029a.57.57 0 0 0 .335.264h.056c.112 0 .224-.03.364-.117l.335-.264a.7.7 0 0 1 .196-.146c.112-.029.252-.029.42-.029.196.029.363.029.503.029.392 0 .699 0 .951.029s.587-.029.951-.146l.084-.029.028-.088c.084-.176.196-.41.363-.439.364-.088.784-.029 1.119-.146.196-.059.336-.264.42-.585l.112-.03.055-.029c.56-.41 1.035-.702 1.343-.907a.6.6 0 0 0 .168-.117c.056.088.084.146.14.234.195.322.363.556.503.732l.056.058 1.678.176h.028c.224-.059.475-.117.755-.205.28-.059.559-.147.783-.264.42-.175.895-.468 1.399-.848.056-.029.083-.088.139-.117-.083.234-.167.497-.251.731-.084.264-.168.527-.224.79-.056.234-.056.527-.056.82 0 .263 0 .556-.028.819v.029l.503 1.405a3.7 3.7 0 0 1-.251.643 4 4 0 0 0-.252.761c-.028.234-.084.498-.14.79-.056.264-.112.527-.196.732l-.335.702c-.14.234-.252.468-.364.731-.112.235-.196.498-.307.761-.112.264-.196.498-.308.732v.058c-.028.293-.084.556-.112.79l-.112.556c-.028.176-.056.234-.056.263a5 5 0 0 1-.307.673c-.14.264-.252.498-.364.761a4.6 4.6 0 0 0-.252.82 6 6 0 0 1-.195.76c-.112.293-.196.556-.28.82l-.252.819v.029c.028.234.084.527.14.819l.168.966c.056.322.14.644.196.995.056.292.139.585.251.79-.028.146-.084.322-.112.526s-.083.381-.111.556l-.028.147 1.79.878 1.845.146.056-.029c.448-.293.895-.644 1.343-.995.419-.351.867-.732 1.258-1.083.196-.175.392-.351.616-.527.251-.204.447-.38.615-.585.084-.117.224-.292.391-.556.168-.263.364-.526.532-.819s.335-.556.503-.849a4 4 0 0 0 .336-.643c.112-.264.196-.527.28-.82.083-.292.167-.526.279-.76l.644-1.493v-.058c0-.029.027-.117.055-.234.028-.146.084-.322.14-.527s.112-.38.168-.556c.056-.234.084-.322.084-.351.028-.292.084-.556.112-.848.028-.293.056-.556.112-.82.028-.263.084-.526.168-.819.083-.263.139-.556.167-.849.084-.526.14-1.082.14-1.667 0-.586-.028-1.171-.14-1.727l-.084-.409-.028.029v-.029l.224-.03c.084-.029.196-.029.28-.029h.112l.056-.088a.65.65 0 0 1 .14-.234c.028-.058.055-.087.083-.146a1 1 0 0 0 .28.059c.14.029.252.058.364.087l.084.03.084-.088c.027-.029.111-.117.223-.205.14-.088.252-.205.392-.322s.252-.234.363-.322c.112-.088.168-.146.196-.175.028 0 .084-.03.14-.03l.336-.087c.111-.03.279-.088.475-.147l.028-.029a2 2 0 0 1 .252-.175l.196-.205a.7.7 0 0 1 .195-.147c.224-.146.42-.351.616-.526a9 9 0 0 1 .559-.556c.168-.176.391-.322.615-.439a7 7 0 0 0 .671-.439l.028-.029c.112.234.196.468.308.731l.028.117h.112q.378 0 .587.176c.168.117.308.263.448.409.14.147.307.293.475.439s.392.205.671.205h.112c.028 0 .056 0 .252-.058q.21-.045.252-.088c.475-.146.923-.322 1.342-.585.42-.264.699-.615.895-1.112a3.9 3.9 0 0 0 1.454-.381 7 7 0 0 0 1.539-.936c.475-.38.923-.79 1.314-1.287a7 7 0 0 0 .867-1.317h.028c.336 0 .559.088.671.234.168.176.252.41.308.673.056.293.112.585.14.878.028.351.14.644.307.878.112.146.168.204.252.204.028 0 .056.03.112.088.14.088.252.205.364.322.111.146.251.263.419.38 1.231 1.025 2.685 1.405 4.279 1.142h.056l.028-.03a1.3 1.3 0 0 1 .476-.322c.195-.087.363-.146.559-.234.196-.087.364-.175.503-.321.14-.117.252-.322.364-.556.168-.117.336-.205.447-.264.112-.058.224-.087.308-.117.112-.029.224-.029.336-.058.14 0 .307-.03.559-.03h.056l.979-.79c.14.264.28.469.391.615.168.263.364.527.532.848.196.322.391.615.587.849q.336.351.755.527c.112.029.224.058.364.058q.293 0 .671-.175c.587.117 1.063.117 1.678.029l.783-.088c.252 0 .504 0 .727.059h.056l.056-.03c.196-.117.448-.175.811-.204.392-.03.727-.088 1.063-.147.336-.088.615-.234.783-.409.196-.205.224-.498.084-.907l.252-.088c.335-.234.839-.41 1.314-.615m-.755-12.084a4 4 0 0 1-.168.38c-.112.264-.195.469-.251.586a10.4 10.4 0 0 1-.839 1.784c-.308.556-.784.907-1.399 1.083l-.056.03-.028.058a2.1 2.1 0 0 1-.783.878c-.363.234-.755.468-1.146.673-.392.204-.812.438-1.203.672a3.1 3.1 0 0 0-.839.761l-.084-.087c-.112-.117-.224-.176-.308-.176a4.4 4.4 0 0 0 .392-.82c.112-.321.224-.614.363-.877.14-.264.28-.527.476-.732.168-.205.419-.38.755-.497l.112-.03v-.116c.028-.322.056-.673.112-.995.056-.264.084-.556.14-.849.363.088.699.088.978-.029a2.6 2.6 0 0 0 .812-.497c.223-.205.447-.44.643-.703.196-.234.391-.439.615-.585s.448-.234.699-.234c.252 0 .616.117 1.007.322m-49.81 10.943.055-.058v-.059c0-.38.056-.556.112-.644.084-.117.196-.263.308-.351.14-.117.252-.292.364-.526s.139-.586.111-1.083v-.293l-.195.147c.084-.147.14-.293.223-.381.112-.175.28-.322.448-.468.196-.175.391-.351.531-.526.168-.205.336-.41.476-.644l.419-.615c.504-.731 1.063-1.287 1.622-1.668.588-.41 1.231-.819 1.958-1.228h.056l.056-.059c.28-.293.587-.585.867-.849.224-.204.447-.41.643-.614 0 .088 0 .146.028.234 0 .176.028.351.028.498a14 14 0 0 0-.587 1.609 28 28 0 0 1-.532 1.638c0 .03-.055.088-.307.44-.196.263-.42.526-.643.848a15 15 0 0 0-.672.907c-.195.292-.307.497-.363.673a8 8 0 0 0-1.371 1.082c-.419.439-.839.849-1.258 1.288-.196.234-.42.439-.643.614-.224.176-.42.381-.616.586-.335.029-.643.058-.979.117-.223.029-.447.058-.699.117.14-.264.336-.469.56-.732m7.327 4.887c-.168.029-.363.058-.559.117-.252.029-.532.029-.811.029.028-.117.084-.205.14-.322.083-.146.139-.322.167-.468q.21 0 .42-.088a.7.7 0 0 1 .419-.029.8.8 0 0 1 .252.029c.056.029.14.059.224.059.028.117.056.234.084.321.028.088.028.176.056.264-.168.029-.28.058-.392.088m-3.58 6.642c.056-.264.112-.527.196-.761.168-.498.364-.966.559-1.434l.588-1.317c.531-.117 1.118-.204 1.678-.292a26 26 0 0 0 1.566-.234c.028.234.084.468.112.702.056.263.084.527.14.819l.139 1.873c-.195.497-.307 1.082-.391 1.697-.084.614-.14 1.2-.196 1.726-.112.264-.196.498-.307.732-.112.234-.224.497-.336.702l-.811 1.404c-.112.235-.252.498-.364.732a3.2 3.2 0 0 1-.391.614c-.028.03-.084.088-.196.176s-.252.205-.392.293l-.447.321c-.14.088-.224.176-.252.176l-.056.059a9.4 9.4 0 0 0-.727 1.316c-.224.117-.419.234-.615.351a4.4 4.4 0 0 1-.615.381 7 7 0 0 1-1.119.439l-.364-.41c-.112-.146-.251-.293-.363-.439.028-.205.084-.439.139-.673a4 4 0 0 0 .168-.79c.056-.263.084-.527.14-.79.028-.263.084-.527.112-.761a13 13 0 0 1 .392-1.521c.167-.498.307-.995.447-1.522.028-.175.112-.439.224-.76.112-.322.196-.556.279-.703.112-.234.252-.468.42-.673a2.6 2.6 0 0 0 .391-.731c.112-.146.196-.41.252-.702m.588-10.68c.028 0 .055-.03.083-.03l-.251.439c-.252.117-.476.234-.699.351-.196.117-.42.205-.644.322.364-.292.699-.556.979-.79.196-.146.336-.234.532-.292m-63.739-7.55a.45.45 0 0 1-.196.118c-.14.029-.252.058-.391.029q-.21 0-.42-.088c-.084-.03-.168-.058-.224-.117.028-.234-.056-.439-.195-.614l-.42-.44a1.3 1.3 0 0 1-.335-.438c-.056-.088-.056-.205-.029-.351q.462.043.756-.176c.223-.175.391-.38.559-.614l.447-.673q.168-.263.42-.44c.252.206.392.469.475.703.056.293.084.614.028.966a9 9 0 0 1-.251 1.082c-.14.38-.196.732-.224 1.054m-1.454 5.853c-.28.146-.504.38-.644.702-.167.38-.307.731-.475 1.082q-.21.483-.504.703c-.167.117-.503.058-.95-.205l-.056-.029-.084.029a2.1 2.1 0 0 1-.615.175c-.224.059-.448.088-.672.147a6 6 0 0 0-.67.234c-.113.058-.253.117-.364.205 0 0 0-.03-.029-.03a.74.74 0 0 0-.251-.263l-.084-.058-.28.204c.084-.292.168-.585.168-.907.028-.526.084-1.024.14-1.55.056-.498.168-.966.308-1.405.14-.41.447-.702.895-.936l.14-.059-.057-.146c-.14-.351-.195-.673-.14-.936.056-.293.196-.556.364-.79s.392-.498.643-.703c.224-.204.448-.439.616-.673.391.059.727.176 1.006.38.308.235.616.469.923.732q.462.396.923.703c.28.204.616.321 1.007.321 0 .498-.14.966-.363 1.405-.28.468-.588.965-.923 1.404l-.084.117zm-13.537-1.668.112.175c.168.264.196.41.168.498a.48.48 0 0 1-.14.322 1.6 1.6 0 0 1-.42.292c-.167.088-.335.147-.503.234-.224.117-.447.205-.615.293a1.3 1.3 0 0 0-.56.497 6 6 0 0 0-.67.147c-.224.058-.448.087-.672.146q-.671.132-1.258.263a3.5 3.5 0 0 0-1.091.468c-.112-.146-.224-.234-.364-.234-.14-.029-.28 0-.447.088-.112.059-.252.117-.392.176-.084.058-.196.029-.335 0l-.084-.03-.056.059a1.43 1.43 0 0 1-.84.263h-.055c-.364 0-.727-.058-1.091-.117a9 9 0 0 1-1.119-.263 4.4 4.4 0 0 0-1.035-.146h-.027a5.6 5.6 0 0 0-.951-.439l-.98-.322a8.2 8.2 0 0 1-2.097-1.141 38 38 0 0 0-1.902-1.317c.867-1.404 1.595-2.867 2.126-4.418.56-1.551 1.09-3.16 1.622-4.799.224-.731.476-1.463.727-2.165.252-.702.504-1.434.755-2.136v-.03c.42-.555.811-1.17 1.119-1.784s.615-1.258.895-1.931c.028-.059.056-.147.14-.293.056-.146.14-.293.196-.439.084-.146.14-.292.195-.439.084-.205.084-.263.084-.292v-1.2c0-.234.056-.468.168-.614.112-.176.252-.322.42-.469s.363-.263.559-.38c.224-.117.42-.234.615-.351.28-.146.504-.293.7-.439s.391-.38.559-.644l.056-.058a2.4 2.4 0 0 1 .783-.322c.308-.088.643-.117.95-.146.336 0 .672 0 .98.058.307.03.587.117.839.205.28.117.503.322.755.644.224.292.42.585.587.848 0 .293 0 .556.028.82.028.292.196.555.504.731.111.76.14 1.434.111 2.019a8.2 8.2 0 0 1-.251 1.726 10 10 0 0 1-.56 1.668 33 33 0 0 1-.81 1.873l-.56 1.316a2.46 2.46 0 0 1-1.23.264c-.504 0-.952-.088-1.315-.264l-.056-.029-.056.03c-.364.204-.811.321-1.287.38a21 21 0 0 0-1.51.205c-.503.087-.95.292-1.342.555-.42.264-.671.761-.811 1.434v.059l.028.058c.112.234.167.468.112.703s-.14.497-.252.702l-.308.644c-.112.234-.14.468-.056.672.112.176.252.322.42.38.084.03.196.089.28.147.223.44.559.702.978.76.364.06.783.06 1.203-.028s.839-.176 1.258-.293a3.7 3.7 0 0 1 1.063-.146h.056l.028-.03c.28-.146.615-.35.979-.585a12 12 0 0 0 1.09-.76c.364-.264.7-.586 1.008-.878.251-.264.447-.498.587-.79a8 8 0 0 1 1.119 1.638c.335.673.615 1.405.839 2.136s.391 1.522.531 2.312c.14.702.252 1.346.392 1.989a.43.43 0 0 0-.336.176zm-4.978-9.246v.526a4 4 0 0 1-.531.234c-.196.088-.42.176-.616.293-.363.205-.755.41-1.118.585a6 6 0 0 1-1.035.351c.14-.234.252-.468.391-.731a5 5 0 0 1 .476-.76c.168-.206.363-.41.615-.528.196-.117.42-.175.7-.175h.307c.084.03.168 0 .252 0 .14-.03.28 0 .391 0 .056.058.112.088.168.205"/><path d="M97.293 187.82c-48.105 0-87.26-40.964-87.26-91.291H8.272c0 51.351 39.938 93.134 89.022 93.134 1.538 0 3.132-.029 4.671-.117l-.084-1.843c-1.511.058-3.049.117-4.587.117"/><path d="M184.552 96.528h1.762c0-51.352-39.938-93.135-89.021-93.135v1.843c48.133 0 87.259 40.964 87.259 91.292"/><path d="M150.096 152.239c-29.366 30.723-77.135 30.723-106.473 0l-1.259 1.317c15.019 15.713 34.764 23.584 54.482 23.584 19.745 0 39.462-7.871 54.481-23.584a71 71 0 0 0 2.796-3.072l-1.314-1.258c-.867 1.024-1.762 2.048-2.713 3.013"/><path d="M43.623 40.818c14.207-14.864 33.142-23.086 53.25-23.086 20.109 0 39.015 8.192 53.251 23.086l1.258-1.317c-30.037-31.425-78.925-31.425-108.99 0z"/></g></symbol><use xlink:href="#sprite-client-05" width="193" height="192" y="637"/><view id="sprite-client-05-view" viewBox="0 637 193 192"/><symbol id="sprite-clipboard" viewBox="0 0 61 60"><path d="M38 35H23a2.5 2.5 0 0 0 0 5h15a2.5 2.5 0 0 0 0-5m0-10H28a2.5 2.5 0 0 0 0 5h10a2.5 2.5 0 0 0 0-5m5-15h-2.95A7.5 7.5 0 0 0 33 5h-5a7.5 7.5 0 0 0-7.05 5H18a7.5 7.5 0 0 0-7.5 7.5v30A7.5 7.5 0 0 0 18 55h25a7.5 7.5 0 0 0 7.5-7.5v-30A7.5 7.5 0 0 0 43 10m-17.5 2.5A2.5 2.5 0 0 1 28 10h5a2.5 2.5 0 0 1 2.5 2.5V15h-10zm20 35A2.5 2.5 0 0 1 43 50H18a2.5 2.5 0 0 1-2.5-2.5v-30A2.5 2.5 0 0 1 18 15h2.5v2.5A2.5 2.5 0 0 0 23 20h15a2.5 2.5 0 0 0 2.5-2.5V15H43a2.5 2.5 0 0 1 2.5 2.5z"/></symbol><use xlink:href="#sprite-clipboard" width="61" height="60" y="829"/><view id="sprite-clipboard-view" viewBox="0 829 61 60"/><symbol id="sprite-coffee" viewBox="0 0 60 60"><path d="M22.5 42.5h10A12.5 12.5 0 0 0 45 30v-2.5h2.5a7.5 7.5 0 0 0 0-15H45V10a2.5 2.5 0 0 0-2.5-2.5h-30A2.5 2.5 0 0 0 10 10v20a12.5 12.5 0 0 0 12.5 12.5m22.5-25h2.5a2.5 2.5 0 0 1 0 5H45zm-30-5h25V30a7.5 7.5 0 0 1-7.5 7.5h-10A7.5 7.5 0 0 1 15 30zm37.5 35h-45a2.5 2.5 0 0 0 0 5h45a2.5 2.5 0 0 0 0-5"/></symbol><use xlink:href="#sprite-coffee" width="60" height="60" y="889"/><view id="sprite-coffee-view" viewBox="0 889 60 60"/><symbol id="sprite-comment" viewBox="0 0 60 60"><path d="M30 20a2.5 2.5 0 0 0-2.5 2.5v10a2.5 2.5 0 0 0 5 0v-10A2.5 2.5 0 0 0 30 20m-10 7.5a2.5 2.5 0 0 0-2.5 2.5v2.5a2.5 2.5 0 0 0 5 0V30a2.5 2.5 0 0 0-2.5-2.5M47.5 5h-35A7.5 7.5 0 0 0 5 12.5v25a7.5 7.5 0 0 0 7.5 7.5h28.975l9.25 9.275A2.5 2.5 0 0 0 52.5 55c.328.008.653-.06.95-.2A2.5 2.5 0 0 0 55 52.5v-40A7.5 7.5 0 0 0 47.5 5M50 46.475l-5.725-5.75A2.5 2.5 0 0 0 42.5 40h-30a2.5 2.5 0 0 1-2.5-2.5v-25a2.5 2.5 0 0 1 2.5-2.5h35a2.5 2.5 0 0 1 2.5 2.5zM40 15a2.5 2.5 0 0 0-2.5 2.5v15a2.5 2.5 0 0 0 5 0v-15A2.5 2.5 0 0 0 40 15"/></symbol><use xlink:href="#sprite-comment" width="60" height="60" y="949"/><view id="sprite-comment-view" viewBox="0 949 60 60"/><symbol id="sprite-desktop" viewBox="0 0 61 60"><path d="M48 5H13a7.5 7.5 0 0 0-7.5 7.5v25A7.5 7.5 0 0 0 13 45h7.5v5H13a2.5 2.5 0 0 0 0 5h35a2.5 2.5 0 0 0 0-5h-7.5v-5H48a7.5 7.5 0 0 0 7.5-7.5v-25A7.5 7.5 0 0 0 48 5M35.5 50h-10v-5h10zm15-12.5A2.5 2.5 0 0 1 48 40H13a2.5 2.5 0 0 1-2.5-2.5V35h40zm0-7.5h-40V12.5A2.5 2.5 0 0 1 13 10h35a2.5 2.5 0 0 1 2.5 2.5z"/></symbol><use xlink:href="#sprite-desktop" width="61" height="60" y="1009"/><view id="sprite-desktop-view" viewBox="0 1009 61 60"/><symbol id="sprite-facebook" viewBox="0 0 31 31"><path fill-rule="evenodd" clip-rule="evenodd" d="M28.625 15.966c0-7.248-5.877-13.125-13.125-13.125S2.375 8.718 2.375 15.966c0 6.55 4.799 11.98 11.074 12.966v-9.171h-3.333v-3.795h3.333v-2.892c0-3.289 1.96-5.107 4.958-5.107 1.436 0 2.938.257 2.938.257v3.23H19.69c-1.63 0-2.14 1.011-2.14 2.05v2.462h3.64l-.581 3.795H17.55v9.172c6.275-.985 11.074-6.415 11.074-12.967"/></symbol><use xlink:href="#sprite-facebook" width="31" height="31" y="1069"/><view id="sprite-facebook-view" viewBox="0 1069 31 31"/><symbol id="sprite-instagram" viewBox="0 0 31 31"><path d="M20.969 4.949a5.485 5.485 0 0 1 5.469 5.47v10.936a5.485 5.485 0 0 1-5.47 5.47H10.032a5.485 5.485 0 0 1-5.469-5.47V10.418a5.486 5.486 0 0 1 5.47-5.469zm0-2.187H10.03c-4.21 0-7.656 3.445-7.656 7.656v10.937c0 4.211 3.445 7.657 7.656 7.657h10.94c4.21 0 7.656-3.446 7.656-7.657V10.418c0-4.211-3.445-7.656-7.656-7.656"/><path d="M22.61 10.418a1.641 1.641 0 1 1 0-3.282 1.641 1.641 0 0 1 0 3.282m-7.11 1.093a4.375 4.375 0 1 1 0 8.75 4.375 4.375 0 0 1 0-8.75m0-2.187a6.563 6.563 0 1 0 0 13.125 6.563 6.563 0 0 0 0-13.125"/></symbol><use xlink:href="#sprite-instagram" width="31" height="31" y="1100"/><view id="sprite-instagram-view" viewBox="0 1100 31 31"/><symbol id="sprite-pinterest" viewBox="0 0 31 31"><path d="M15.503 2.762c-7.248 0-13.125 5.877-13.125 13.125 0 5.373 3.234 9.99 7.857 12.023-.035-.914-.005-2.015.229-3.012l1.687-7.154s-.421-.838-.421-2.074c0-1.945 1.124-3.399 2.53-3.399 1.196 0 1.77.897 1.77 1.97 0 1.2-.767 2.993-1.16 4.657-.328 1.395.697 2.526 2.074 2.526 2.485 0 4.16-3.193 4.16-6.979 0-2.877-1.939-5.027-5.46-5.027-3.979 0-6.463 2.97-6.463 6.287 0 1.143.34 1.951.867 2.572.24.287.275.405.187.733-.064.24-.205.82-.27 1.054-.087.334-.357.452-.655.329-1.834-.75-2.69-2.754-2.69-5.016 0-3.727 3.147-8.197 9.381-8.197 5.01 0 8.309 3.627 8.309 7.517 0 5.15-2.866 8.994-7.084 8.994-1.418 0-2.748-.767-3.205-1.634 0 0-.762 3.023-.926 3.609-.276 1.014-.82 2.021-1.319 2.813a13.2 13.2 0 0 0 3.721.539c7.248 0 13.125-5.877 13.125-13.125S22.751 2.762 15.502 2.762"/></symbol><use xlink:href="#sprite-pinterest" width="31" height="31" y="1131"/><view id="sprite-pinterest-view" viewBox="0 1131 31 31"/><symbol id="sprite-quotes" viewBox="0 0 56 42"><path d="M55.908.904q-1.476 6.232-3.116 13.448a409 409 0 0 0-2.952 14.104q-1.312 6.888-2.132 12.628h-15.58L30.98 39.28q1.476-5.74 3.772-12.3a225 225 0 0 1 5.084-13.448A548 548 0 0 1 45.248.904zm-30.34 0q-1.476 6.232-3.116 13.448A409 409 0 0 0 19.5 28.456q-1.312 6.888-2.132 12.628H1.952L.968 39.28q1.476-5.74 3.772-12.3a333 333 0 0 1 4.92-13.448A548 548 0 0 1 15.072.904z"/></symbol><use xlink:href="#sprite-quotes" width="56" height="42" y="1162"/><view id="sprite-quotes-view" viewBox="0 1162 56 42"/><symbol id="sprite-twitter" viewBox="0 0 31 31"><path d="M29.563 7.303a11.8 11.8 0 0 1-3.314.896 5.7 5.7 0 0 0 2.539-3.14 11.6 11.6 0 0 1-3.666 1.377 5.8 5.8 0 0 0-4.213-1.8c-3.189 0-5.77 2.544-5.77 5.679q-.003.656.15 1.294A16.45 16.45 0 0 1 3.394 5.674a5.6 5.6 0 0 0-.785 2.853c0 1.97 1.028 3.71 2.579 4.729a5.7 5.7 0 0 1-2.624-.71v.071c0 2.754 1.992 5.045 4.629 5.567a6 6 0 0 1-1.52.199 5.5 5.5 0 0 1-1.085-.106c.733 2.256 2.866 3.897 5.394 3.944a11.7 11.7 0 0 1-7.168 2.431q-.691 0-1.376-.082a16.33 16.33 0 0 0 8.832 2.567c10.627 0 16.432-8.655 16.432-16.16q0-.372-.018-.733a11.6 11.6 0 0 0 2.878-2.941"/></symbol><use xlink:href="#sprite-twitter" width="31" height="31" y="1204"/><view id="sprite-twitter-view" viewBox="0 1204 31 31"/></svg>