<svg xmlns="http://www.w3.org/2000/svg" xmlns:xlink="http://www.w3.org/1999/xlink"><symbol id="sprite-behance" viewBox="0 0 31 31"><path d="M20.662 14.574c-1.693 0-1.928 1.688-1.928 1.688h3.598s.023-1.688-1.67-1.688M12.5 16.262H9.313v2.93h3.029c.457-.012 1.312-.141 1.312-1.424 0-1.524-1.154-1.506-1.154-1.506"/><path d="M15.5 2.762c-7.248 0-13.125 5.877-13.125 13.125S8.252 29.012 15.5 29.012s13.125-5.877 13.125-13.125S22.748 2.762 15.5 2.762m2.766 8.062h4.517v1.348h-4.517zm-2.285 7.078c0 3.34-3.481 3.235-3.481 3.235H6.805V10.18H12.5c1.734 0 3.1.955 3.1 2.918 0 1.962-1.67 2.086-1.67 2.086 2.203 0 2.05 2.718 2.05 2.718m8.449-.181h-5.678c0 2.033 1.928 1.904 1.928 1.904 1.822 0 1.758-1.178 1.758-1.178h1.927c0 3.13-3.75 2.912-3.75 2.912-4.494 0-4.207-4.19-4.207-4.19s-.006-4.206 4.207-4.206c4.436.006 3.815 4.758 3.815 4.758"/><path d="M13.273 13.268c0-1.137-.773-1.137-.773-1.137H9.313v2.443H12.3c.515 0 .972-.17.972-1.306"/></symbol><use xlink:href="#sprite-behance" width="31" height="31" y="0"/><view id="sprite-behance-view" viewBox="0 0 31 31"/><symbol id="sprite-client-03" viewBox="0 0 268 122"><g><path d="M87.403 27.448c-.903-.593-1.918-1.068-3.045-1.305-1.128-.355-2.481-.474-3.835-.474h-7.555v15.414h7.555c2.933 0 5.188-.593 6.992-1.897 1.692-1.186 2.594-3.083 2.594-5.929 0-1.304-.225-2.49-.677-3.438-.564-.949-1.24-1.779-2.03-2.371M79.62 37.763h-1.578v-8.3h1.578c3.383 0 5.188 1.423 5.188 4.15s-1.692 4.15-5.188 4.15"/><path d="M86.614 21.164c1.24-1.305 1.804-2.965 1.804-4.98s-.564-3.676-1.804-4.98-3.27-1.897-5.977-1.897H73.08V23.06h7.556c2.819 0 4.849-.593 5.977-1.897m-8.571-2.016v-6.521h1.579c2.255 0 3.383 1.067 3.383 3.32 0 2.134-1.128 3.32-3.383 3.32h-1.579z"/><path d="M98.116 28.87c-.564-1.423-1.128-2.49-1.804-3.439-.79-1.067-1.692-1.897-2.707-2.608a7.7 7.7 0 0 0 1.692-2.134c.45-.712.79-1.542 1.127-2.609.339-1.067.564-2.371.564-3.913 0-2.134-.338-4.031-1.127-5.572-.79-1.542-1.805-2.965-3.158-4.032a12.6 12.6 0 0 0-4.85-2.371c-1.916-.593-3.946-.83-6.202-.83H63.946v47.427h18.382c2.481 0 4.85-.355 6.88-1.067 2.029-.711 3.833-1.66 5.187-2.964 1.466-1.304 2.48-2.846 3.27-4.743s1.128-3.912 1.128-6.165c.225-1.897-.113-3.557-.677-4.98m-8.458 11.975c-1.917 1.898-4.962 2.846-9.022 2.846H70.488V6.816h10.15c3.157 0 5.75.83 7.668 2.371 1.917 1.542 2.82 4.032 2.82 7.115q-.001 2.666-1.016 4.268c-.676 1.067-1.353 2.016-2.142 2.609-.564.474-1.128.83-1.805 1.185.902.356 1.805.712 2.594 1.305.902.71 1.804 1.66 2.594 2.845s1.24 2.846 1.24 4.862c.113 2.964-.902 5.572-2.932 7.47"/><path d="M29.777 30.649C13.425 30.649.118 44.64.118 61.833c0 17.192 13.307 31.183 29.659 31.183s29.659-13.99 29.659-31.183-13.307-31.184-29.659-31.184M45.903 76.06c-.902.83-2.03 1.66-3.157 2.371-1.128.83-2.481 1.423-3.835 2.135-1.353.592-2.932 1.067-4.51 1.422-1.58.356-3.27.593-5.075.593-2.594 0-4.962-.355-6.88-.948-1.916-.593-3.495-1.423-4.736-2.609a9.3 9.3 0 0 1-2.706-3.913c-.564-1.541-.902-3.082-.902-4.86 0-2.49.564-4.507 1.579-6.167s2.48-3.082 4.172-4.268c-.902-.949-1.579-2.134-2.143-3.557a10.8 10.8 0 0 1-.902-4.387c0-1.66.339-3.32.902-4.743.564-1.423 1.467-2.727 2.482-3.794 1.127-1.067 2.368-1.897 3.834-2.49s3.044-.83 4.736-.83c1.917 0 3.609.356 5.075.949 1.579.592 2.82 1.422 3.947 2.49 1.127 1.067 1.917 2.37 2.48 3.794.565 1.422.903 3.082.903 4.861 0 2.016-.564 3.794-1.579 5.336-1.015 1.541-2.255 2.845-3.721 4.03l5.187 4.625c.451-.474.902-.948 1.353-1.541q.677-.712 1.692-2.135l7.668 6.877c-.789 1.186-1.691 2.372-2.706 3.439-1.015 1.304-2.03 2.371-3.158 3.32m-2.932-5.573c-.676.712-1.466 1.304-2.142 1.897-1.354.949-3.045 1.897-4.962 2.727s-4.173 1.186-6.767 1.186c-.902 0-1.804-.118-2.819-.356-.902-.237-1.804-.592-2.594-1.067a5.35 5.35 0 0 1-1.917-2.015c-.564-.83-.79-1.898-.79-3.083 0-1.779.452-3.083 1.467-4.15.902-1.067 2.255-2.016 4.06-2.964l1.691-.949 9.022 7.826 1.128-.83-8.796-7.707q3.214-1.779 5.074-3.913c1.24-1.423 1.917-3.083 1.917-5.099a7.5 7.5 0 0 0-.564-2.845c-.45-.83-.902-1.66-1.691-2.253-.677-.593-1.466-1.067-2.481-1.423-.902-.356-1.917-.474-3.045-.474-.902 0-1.804.118-2.706.474a8 8 0 0 0-2.369 1.423c-.676.593-1.24 1.423-1.691 2.253s-.564 1.897-.564 2.964c0 1.541.338 2.846 1.128 3.913.79 1.185 1.804 2.252 3.157 3.438l1.466 1.305-1.353.71c-.79.475-1.692.95-2.368 1.424-.79.593-1.353 1.185-1.917 1.778-.564.712-1.015 1.423-1.24 2.253-.34.83-.452 1.779-.452 2.727 0 1.305.226 2.49.79 3.557.563 1.067 1.24 1.779 2.142 2.49.902.593 1.917 1.186 3.045 1.423 1.128.356 2.368.474 3.609.474 2.593 0 4.962-.474 7.104-1.304a25.5 25.5 0 0 0 5.3-2.964 27 27 0 0 0 4.511-4.387l-1.127-.83zM26.507 58.513c-1.58-1.305-2.481-2.49-3.045-3.439q-.677-1.422-.677-2.846c0-1.66.564-3.082 1.579-4.15 1.128-1.067 2.481-1.66 4.172-1.66.79 0 1.58.12 2.256.356.79.237 1.353.593 2.03 1.068a5.2 5.2 0 0 1 1.353 1.778c.338.711.564 1.541.564 2.49q0 2.845-1.692 4.624c-1.127 1.186-2.706 2.253-4.849 3.439zm3.947-4.862a3 3 0 0 0 .563-1.778c0-1.542-.676-2.253-2.142-2.253-.677 0-1.128.237-1.579.593-.451.474-.564.948-.564 1.66 0 .593.113 1.067.338 1.66.226.474.79 1.067 1.467 1.778.902-.593 1.466-1.185 1.917-1.66M25.943 69.54c0 .948.338 1.66 1.127 2.134.677.474 1.58.711 2.482.711.563 0 1.127 0 1.804-.118.564-.119 1.127-.237 1.691-.475l-5.525-4.98c-1.128.712-1.58 1.66-1.58 2.728"/><path d="M31.018 2.073h-2.481v31.421h2.48z"/><path d="M31.018 86.851h-2.481v34.859h2.48z"/><path d="M209.196 99.775v-7.351h3.158c.676 0 1.127.118 1.466.237.338.118.563.356.789.711q.338.534.338 1.067c0 .475-.113.949-.451 1.305s-.789.593-1.466.711c.226.119.451.237.564.356.226.237.564.593.789.948l1.241 2.016h-1.128l-.902-1.541q-.339-.712-.677-1.067l-.451-.475c-.113-.118-.225-.118-.451-.237h-1.691v3.32zm.902-4.15h2.03c.451 0 .789 0 1.015-.118.225-.119.451-.238.564-.475s.225-.474.225-.711c0-.356-.112-.593-.338-.83s-.677-.356-1.128-.356h-2.255v2.49z"/><path d="m220.247 97.996.903.118c-.113.593-.452.949-.79 1.304s-.902.475-1.466.475c-.789 0-1.353-.237-1.804-.712-.451-.474-.677-1.185-.677-2.016 0-.948.226-1.54.677-2.134q.677-.711 1.691-.711 1.016 0 1.692.711c.451.474.677 1.186.677 2.016v.237h-3.835c0 .593.226 1.067.451 1.304.339.356.677.475 1.015.475.339 0 .564-.119.79-.237.338-.12.564-.356.676-.83m-2.819-1.423h2.819q0-.712-.338-1.067c-.226-.356-.677-.475-1.015-.475-.451 0-.677.119-1.015.474-.338.238-.451.593-.451 1.068"/><path d="m222.503 98.114.902-.118c0 .356.226.593.451.83.226.237.564.237.902.237.451 0 .677-.119.902-.237a.66.66 0 0 0 .339-.593c0-.237-.113-.356-.226-.474-.113-.119-.451-.237-.902-.356a4.4 4.4 0 0 1-1.353-.474c-.226-.119-.451-.237-.564-.475-.113-.237-.226-.474-.226-.711s0-.474.113-.711a.9.9 0 0 1 .451-.475.84.84 0 0 1 .564-.237c.226-.118.451-.118.79-.118.451 0 .789.118 1.014.237.226.118.564.237.677.474s.226.474.338.83l-.789.119a.66.66 0 0 0-.338-.593c-.226-.119-.451-.237-.79-.237-.451 0-.676.118-.902.237-.225.118-.225.355-.225.474s0 .237.112.356c.113.118.226.237.339.237.112 0 .338.118.789.237.564.119 1.015.356 1.241.474.225.119.451.237.563.475.113.237.226.474.226.83 0 .355-.113.592-.226.83-.112.237-.451.474-.676.592-.339.119-.677.238-1.128.238-.677 0-1.128-.119-1.466-.475-.677-.355-.902-.83-.902-1.423"/><path d="m230.171 98.945.113.83c-.225 0-.451.119-.676.119-.339 0-.564 0-.677-.119q-.339-.177-.338-.355c-.113-.119-.113-.475-.113-1.067V95.27h-.677v-.712h.677v-1.304l.902-.593v1.897h.902v.712h-.902v3.557c0 .118.113.118.113.118.113 0 .113.119.338.119.113-.119.226-.119.338-.119"/><path d="M234.908 99.063c-.338.237-.677.475-.902.593-.338.119-.564.119-.902.119-.564 0-1.015-.119-1.241-.475-.338-.237-.451-.71-.451-1.067 0-.237.113-.474.226-.711a.9.9 0 0 1 .451-.474c.225-.119.338-.237.676-.356.226 0 .451-.119.79-.119.676-.118 1.24-.237 1.579-.355v-.237c0-.356-.113-.593-.226-.83q-.339-.356-1.015-.356c-.451 0-.677.118-.902.237-.226.118-.338.356-.451.83l-.79-.119c.113-.355.226-.711.339-.948.225-.237.451-.356.789-.593.338-.119.677-.237 1.128-.237s.789 0 1.015.118c.225.119.451.237.564.356a.94.94 0 0 1 .225.593v3.557c0 .119.113.474.226.593h-.902c-.113.356-.113.118-.226-.119m0-2.015q-.507.177-1.353.355c-.339 0-.564.119-.79.237-.112.12-.225.12-.338.238s-.113.237-.113.474a.93.93 0 0 0 .226.593c.225.118.451.237.789.237.339 0 .677-.119.902-.237.226-.119.451-.356.564-.593s.113-.474.113-.949z"/><path d="M240.997 99.774v-.83c-.451.593-.902.949-1.578.949-.339 0-.564-.119-.79-.237-.225-.12-.451-.238-.564-.475s-.225-.355-.225-.711v-4.15h.902v3.913c0 .237.226.474.338.593.226.118.339.237.677.237s.451-.119.677-.237c.225-.12.338-.356.451-.593s.112-.593.112-1.068V94.32h.903v5.336h-.903z"/><path d="M243.704 99.774v-5.336h.79v.83c.225-.355.338-.592.563-.711a.84.84 0 0 1 .564-.237c.339 0 .564.118.902.237l-.338.83c-.225-.119-.451-.237-.677-.237-.225 0-.338.118-.563.237-.113.119-.226.237-.339.474-.113.356-.112.712-.112 1.067v2.846z"/><path d="M250.921 99.063c-.338.237-.676.475-.902.593-.338.119-.564.119-.902.119-.564 0-1.015-.119-1.241-.475-.338-.237-.451-.71-.451-1.067 0-.237.113-.474.226-.711a.9.9 0 0 1 .451-.474c.225-.119.338-.237.677-.356.225 0 .451-.119.789-.119.677-.118 1.24-.237 1.579-.355v-.237c0-.356-.113-.593-.226-.83q-.338-.356-1.015-.356c-.451 0-.676.118-.902.237-.225.118-.338.356-.451.83l-.789-.119c.112-.355.225-.711.338-.948.225-.237.451-.356.789-.593.339-.119.677-.237 1.128-.237s.789 0 1.015.118c.225.119.451.237.564.356a.93.93 0 0 1 .225.593v3.557a.93.93 0 0 0 .226.593h-.902c-.113.356-.226.118-.226-.119m-.113-2.015q-.507.177-1.353.355c-.338 0-.564.119-.789.237-.113.12-.226.12-.339.238-.112.118-.112.237-.112.474s.112.474.225.593c.226.118.451.237.79.237.338 0 .676-.119.902-.237a1.4 1.4 0 0 0 .564-.593c.112-.237.112-.474.112-.949z"/><path d="M253.628 99.774v-5.336h.789v.712c.339-.593.902-.83 1.579-.83.338 0 .564 0 .902.118.226.119.451.237.564.475.113.237.226.355.226.711v4.15h-.902v-3.201c0-.356 0-.593-.113-.83a1.6 1.6 0 0 0-.339-.475c-.112-.118-.338-.118-.563-.118-.339 0-.677.118-.903.355-.225.238-.451.712-.451 1.423v2.965h-.789z"/><path d="m261.522 98.945.112.83c-.225 0-.451.119-.676.119-.339 0-.564 0-.677-.119q-.338-.177-.338-.355c-.113-.119-.113-.475-.113-1.067V95.27h-.677v-.712h.677v-1.304l.902-.593v1.897h.902v.712h-.902v3.557c0 .118.113.118.113.118.113 0 .113.119.338.119.113-.119.226-.119.339-.119"/><path d="M216.639 104.874h-7.104v.829h7.104z"/><path d="M87.403 98.945c-.903-.593-1.918-1.068-3.045-1.305-1.128-.356-2.481-.474-3.835-.474h-7.555v15.414h7.555c2.933 0 5.188-.593 6.992-1.897 1.692-1.186 2.594-3.083 2.594-5.929 0-1.304-.225-2.489-.677-3.438-.564-.949-1.24-1.779-2.03-2.371M79.62 109.26h-1.578v-8.3h1.578c3.383 0 5.188 1.423 5.188 4.15s-1.692 4.15-5.188 4.15"/><path d="M86.614 92.66c1.24-1.304 1.804-2.964 1.804-4.98 0-2.015-.564-3.675-1.804-4.98-1.24-1.304-3.27-1.897-5.977-1.897H73.08v13.754h7.556c2.819 0 4.849-.593 5.977-1.897m-8.571-2.016v-6.52h1.579c2.255 0 3.383 1.066 3.383 3.32 0 2.133-1.128 3.319-3.383 3.319h-1.579z"/><path d="M98.116 100.486c-.564-1.423-1.128-2.49-1.804-3.438-.79-1.068-1.692-1.898-2.707-2.609a7.7 7.7 0 0 0 1.692-2.134c.45-.712.79-1.542 1.127-2.609.339-1.067.564-2.371.564-3.912 0-2.135-.338-4.032-1.127-5.573-.79-1.542-1.805-2.965-3.158-4.032a12.6 12.6 0 0 0-4.85-2.371c-1.916-.593-3.946-.83-6.202-.83H63.946v47.428h18.382c2.481 0 4.85-.356 6.88-1.067 2.029-.712 3.833-1.66 5.187-2.965 1.466-1.304 2.48-2.845 3.27-4.742.79-1.898 1.128-3.913 1.128-6.166.225-2.016-.113-3.676-.677-4.98m-8.458 11.857c-1.917 1.897-4.962 2.846-9.022 2.846H70.488V78.314h10.15c3.157 0 5.75.83 7.668 2.371 1.917 1.541 2.82 4.031 2.82 7.114q-.001 2.668-1.016 4.269c-.676 1.067-1.353 2.015-2.142 2.608-.564.474-1.128.83-1.805 1.186.902.356 1.805.711 2.594 1.304.902.712 1.804 1.66 2.594 2.846.79 1.185 1.24 2.845 1.24 4.861.113 3.083-.902 5.573-2.932 7.47"/><path d="M102.063 1.48v47.428H117.4V1.48zm8.909 42.093h-2.593V6.698h2.593z"/><path d="M148.525 29.7c-.563-1.66-1.353-3.082-2.255-4.387a21 21 0 0 0-2.932-3.438c-1.015-.949-2.03-1.897-2.932-2.609-.902-.711-1.579-1.422-2.256-2.015-.563-.593-.902-1.067-.902-1.423 0-.474.113-.711.451-.949.226-.237.564-.355.903-.474.338-.118.789-.118 1.127-.237h1.015c.451 0 1.015 0 1.466.119.451 0 .902.118 1.241.118.451 0 .902.119 1.24.119V1.244c-.902-.119-1.917-.237-2.932-.474-.902-.119-1.804-.238-2.932-.356-1.128-.119-2.143-.237-3.27-.237-2.03 0-4.06.355-5.864.83-1.805.593-3.383 1.423-4.737 2.608-1.353 1.186-2.368 2.609-3.157 4.269s-1.128 3.675-1.128 5.928c0 2.016.338 3.794.902 5.336.677 1.541 1.466 2.964 2.368 4.15 1.015 1.186 2.03 2.371 3.158 3.32s2.143 1.778 3.157 2.608q1.523 1.245 2.369 2.134c.676.593.902 1.305.902 1.898 0 1.66-1.015 2.371-3.158 2.371-1.127 0-2.368-.119-3.496-.237-1.127-.119-2.142-.356-3.044-.593-1.128-.237-2.143-.474-3.158-.83v14.228c1.128.356 2.255.593 3.609.83 1.127.237 2.368.475 3.834.593 1.466.119 3.045.237 4.736.237 2.82 0 5.301-.355 7.33-1.185q3.045-1.245 5.075-3.202c1.353-1.304 2.255-2.964 2.932-4.743.677-1.778.902-3.794.902-5.81.339-1.778.113-3.675-.564-5.216m-6.315 9.13q-.846 1.78-2.368 2.846c-1.015.711-2.143 1.304-3.383 1.541-1.241.356-2.481.475-3.834.475-.79 0-1.466 0-2.143-.119-.677-.118-1.353-.118-2.03-.237l-2.03-.356-.338-.118v-2.727l.451.118c.564.119 1.241.237 1.917.356 1.241.237 2.594.356 4.173.356 2.481 0 4.398-.593 5.751-1.66 1.353-1.068 2.03-2.727 2.03-4.862 0-1.185-.338-2.252-.902-3.32a20.5 20.5 0 0 0-2.481-3.201c-1.015-1.067-2.03-2.134-3.271-3.201-1.127-1.067-2.255-2.135-3.27-3.32s-1.917-2.253-2.594-3.439-1.015-2.608-1.015-3.913c0-2.608.903-4.505 2.594-5.81 1.692-1.185 3.722-1.778 6.203-1.778h1.24c.451 0 .789.118 1.128.118s.676.12.902.12h.451v2.726h-.451c-.338 0-.79 0-1.128-.118-.338 0-.676-.119-1.128-.119-2.706-.119-4.736.237-5.864 1.304-.902.83-1.466 2.016-1.466 3.676 0 1.067.339 2.134.902 3.083.677 1.067 1.466 2.134 2.481 3.082a41 41 0 0 0 3.271 3.083c1.128 1.067 2.255 2.135 3.27 3.32s1.917 2.372 2.594 3.676a9 9 0 0 1 1.015 4.15 7.43 7.43 0 0 1-.677 4.268"/><path d="M147.849 1.48v12.45h8.345v34.978h14.886V13.93h8.345V1.48zm26.726 7.826h-9.698v34.385h-2.594V9.306h-9.698V6.698h21.878v2.608z"/><path d="M208.52 19.74c0-3.32-1.128-5.928-3.271-7.825-2.255-1.778-5.413-2.727-9.36-2.727h-5.187v20.987h5.187c3.947 0 7.105-.949 9.36-2.727 2.143-1.66 3.271-4.269 3.271-7.707m-7.218 3.795c-1.24.83-2.594 1.186-4.398 1.186h-.789V14.287h.789c1.692 0 3.158.355 4.398 1.185 1.241.83 1.805 2.134 1.805 4.031 0 1.898-.677 3.202-1.805 4.032"/><path d="M211.452 33.257c1.128-.83 2.143-1.897 3.045-3.083.789-1.067 1.466-2.49 2.142-4.15.677-1.66.903-3.675.903-6.047 0-2.964-.452-5.572-1.466-7.944-1.015-2.253-2.369-4.268-4.173-5.81q-2.706-2.312-6.428-3.557c-2.481-.83-5.075-1.186-8.007-1.186h-15.562v47.428h14.434V36.814l6.767 11.976h16.916zm-1.241 10.316h-3.044l-6.428-11.264c-1.579.355-3.271.474-4.962.474h-5.188v10.79h-2.594V6.698h7.669c2.142 0 4.172.237 5.977.83 1.804.592 3.496 1.422 4.849 2.49 1.353 1.067 2.481 2.49 3.27 4.03.79 1.66 1.241 3.558 1.241 5.692 0 3.083-.79 5.573-2.256 7.589-1.353 1.778-3.27 3.2-5.525 4.15z"/><path d="M265.357 15.472c-1.241-3.082-2.933-5.691-5.075-7.944a23.4 23.4 0 0 0-7.556-5.336C249.794.888 246.749.295 243.479.295c-3.271 0-6.315.712-9.247 1.897a23.4 23.4 0 0 0-7.556 5.336c-2.143 2.253-3.834 4.862-5.075 7.944-1.24 3.083-1.804 6.284-1.804 9.723s.564 6.64 1.804 9.723c1.241 3.082 2.932 5.69 5.075 7.944a23.4 23.4 0 0 0 7.556 5.335c2.932 1.305 5.976 1.897 9.247 1.897s6.315-.592 9.247-1.897a23.4 23.4 0 0 0 7.556-5.335c2.142-2.253 3.834-4.862 5.075-7.944 1.24-3.083 1.804-6.284 1.804-9.723s-.564-6.64-1.804-9.723m-5.526 16.956c-.902 2.253-2.143 4.268-3.835 5.928-1.578 1.66-3.495 3.083-5.638 4.032s-4.398 1.422-6.879 1.422-4.737-.474-6.879-1.422c-2.143-.95-4.06-2.372-5.639-4.032s-2.932-3.675-3.834-5.928-1.353-4.743-1.353-7.233c0-2.609.451-4.98 1.353-7.233s2.143-4.268 3.834-5.928c1.579-1.66 3.496-3.083 5.639-4.032 2.142-.948 4.511-1.422 6.879-1.422 2.481 0 4.736.474 6.879 1.422 2.143.949 4.06 2.253 5.638 4.032 1.579 1.66 2.933 3.675 3.835 5.928s1.353 4.743 1.353 7.233c0 2.608-.451 4.98-1.353 7.233"/><path d="M254.192 13.93c-1.353-1.422-3.045-2.608-4.849-3.438s-3.835-1.185-5.864-1.185c-2.143 0-4.06.474-5.865 1.185-1.804.83-3.383 2.016-4.849 3.439-1.353 1.423-2.481 3.201-3.27 5.098s-1.128 4.032-1.128 6.166c0 2.253.451 4.268 1.128 6.165.789 1.898 1.917 3.558 3.27 5.099 1.354 1.423 3.045 2.608 4.849 3.438s3.835 1.186 5.865 1.186c2.142 0 4.059-.474 5.864-1.185 1.804-.83 3.383-2.016 4.849-3.439 1.353-1.423 2.481-3.201 3.27-5.099.79-1.897 1.128-4.03 1.128-6.165s-.451-4.269-1.128-6.166c-.789-1.897-1.917-3.675-3.27-5.098m-1.917 15.178a9.5 9.5 0 0 1-2.03 3.201c-.902.949-1.805 1.66-3.045 2.134-1.128.475-2.368.83-3.721.83s-2.481-.237-3.722-.83q-1.692-.71-3.045-2.134c-.902-.948-1.578-1.897-2.03-3.201-.451-1.186-.789-2.49-.789-3.913s.226-2.609.789-3.913a9.5 9.5 0 0 1 2.03-3.201c.902-.949 1.805-1.66 3.045-2.134 1.128-.475 2.368-.83 3.722-.83 1.353 0 2.481.237 3.721.83q1.692.71 3.045 2.134c.902.948 1.579 1.897 2.03 3.201.451 1.186.789 2.49.789 3.913-.113 1.423-.338 2.608-.789 3.913"/><path d="m130.482 109.023-9.924-27.39-9.924 27.39zm-6.879-3.32h-6.09l3.045-8.3z"/><path d="M125.971 72.978h-10.826l-17.141 47.428h14.209l1.466-4.269h13.645l1.466 4.269H143zm5.413 38.654h-21.765l-1.24 3.557h-2.819l13.307-36.875h3.157l13.307 36.875h-2.819z"/><path d="M175.929 104.755c1.128-.83 2.142-1.898 3.045-3.083.789-1.067 1.466-2.49 2.142-4.15.677-1.66.902-3.676.902-6.047 0-2.964-.451-5.573-1.466-7.944-1.014-2.253-2.368-4.269-4.172-5.81q-2.706-2.312-6.428-3.557c-2.481-.83-5.075-1.186-8.007-1.186h-15.562v47.428h14.435V108.43l6.766 11.976h16.915zm-1.128 10.434h-3.045l-6.428-11.264c-1.578.355-3.27.474-4.962.474h-5.187v10.79h-2.594V78.314h7.669c2.142 0 4.172.237 5.977.83 1.804.593 3.495 1.422 4.849 2.49 1.353 1.067 2.481 2.49 3.27 4.15s1.241 3.557 1.241 5.69c0 3.084-.79 5.574-2.256 7.59-1.353 1.778-3.27 3.201-5.526 4.149z"/><path d="M173.109 91.356c0-3.32-1.127-5.928-3.27-7.826-2.255-1.778-5.413-2.727-9.36-2.727h-5.187v20.987h5.187c3.947 0 7.105-.949 9.36-2.727 2.143-1.779 3.27-4.387 3.27-7.707m-7.33 3.794c-1.24.83-2.593 1.186-4.398 1.186h-.789V85.783h.789c1.692 0 3.158.356 4.398 1.186 1.241.83 1.805 2.134 1.805 4.031s-.564 3.32-1.805 4.15"/></g></symbol><use xlink:href="#sprite-client-03" width="268" height="122" y="31"/><view id="sprite-client-03-view" viewBox="0 31 268 122"/><symbol id="sprite-clipboard" viewBox="0 0 61 60"><path d="M38 35H23a2.5 2.5 0 0 0 0 5h15a2.5 2.5 0 0 0 0-5m0-10H28a2.5 2.5 0 0 0 0 5h10a2.5 2.5 0 0 0 0-5m5-15h-2.95A7.5 7.5 0 0 0 33 5h-5a7.5 7.5 0 0 0-7.05 5H18a7.5 7.5 0 0 0-7.5 7.5v30A7.5 7.5 0 0 0 18 55h25a7.5 7.5 0 0 0 7.5-7.5v-30A7.5 7.5 0 0 0 43 10m-17.5 2.5A2.5 2.5 0 0 1 28 10h5a2.5 2.5 0 0 1 2.5 2.5V15h-10zm20 35A2.5 2.5 0 0 1 43 50H18a2.5 2.5 0 0 1-2.5-2.5v-30A2.5 2.5 0 0 1 18 15h2.5v2.5A2.5 2.5 0 0 0 23 20h15a2.5 2.5 0 0 0 2.5-2.5V15H43a2.5 2.5 0 0 1 2.5 2.5z"/></symbol><use xlink:href="#sprite-clipboard" width="61" height="60" y="153"/><view id="sprite-clipboard-view" viewBox="0 153 61 60"/><symbol id="sprite-coffee" viewBox="0 0 60 60"><path d="M22.5 42.5h10A12.5 12.5 0 0 0 45 30v-2.5h2.5a7.5 7.5 0 0 0 0-15H45V10a2.5 2.5 0 0 0-2.5-2.5h-30A2.5 2.5 0 0 0 10 10v20a12.5 12.5 0 0 0 12.5 12.5m22.5-25h2.5a2.5 2.5 0 0 1 0 5H45zm-30-5h25V30a7.5 7.5 0 0 1-7.5 7.5h-10A7.5 7.5 0 0 1 15 30zm37.5 35h-45a2.5 2.5 0 0 0 0 5h45a2.5 2.5 0 0 0 0-5"/></symbol><use xlink:href="#sprite-coffee" width="60" height="60" y="213"/><view id="sprite-coffee-view" viewBox="0 213 60 60"/><symbol id="sprite-comment" viewBox="0 0 60 60"><path d="M30 20a2.5 2.5 0 0 0-2.5 2.5v10a2.5 2.5 0 0 0 5 0v-10A2.5 2.5 0 0 0 30 20m-10 7.5a2.5 2.5 0 0 0-2.5 2.5v2.5a2.5 2.5 0 0 0 5 0V30a2.5 2.5 0 0 0-2.5-2.5M47.5 5h-35A7.5 7.5 0 0 0 5 12.5v25a7.5 7.5 0 0 0 7.5 7.5h28.975l9.25 9.275A2.5 2.5 0 0 0 52.5 55c.328.008.653-.06.95-.2A2.5 2.5 0 0 0 55 52.5v-40A7.5 7.5 0 0 0 47.5 5M50 46.475l-5.725-5.75A2.5 2.5 0 0 0 42.5 40h-30a2.5 2.5 0 0 1-2.5-2.5v-25a2.5 2.5 0 0 1 2.5-2.5h35a2.5 2.5 0 0 1 2.5 2.5zM40 15a2.5 2.5 0 0 0-2.5 2.5v15a2.5 2.5 0 0 0 5 0v-15A2.5 2.5 0 0 0 40 15"/></symbol><use xlink:href="#sprite-comment" width="60" height="60" y="273"/><view id="sprite-comment-view" viewBox="0 273 60 60"/><symbol id="sprite-desktop" viewBox="0 0 61 60"><path d="M48 5H13a7.5 7.5 0 0 0-7.5 7.5v25A7.5 7.5 0 0 0 13 45h7.5v5H13a2.5 2.5 0 0 0 0 5h35a2.5 2.5 0 0 0 0-5h-7.5v-5H48a7.5 7.5 0 0 0 7.5-7.5v-25A7.5 7.5 0 0 0 48 5M35.5 50h-10v-5h10zm15-12.5A2.5 2.5 0 0 1 48 40H13a2.5 2.5 0 0 1-2.5-2.5V35h40zm0-7.5h-40V12.5A2.5 2.5 0 0 1 13 10h35a2.5 2.5 0 0 1 2.5 2.5z"/></symbol><use xlink:href="#sprite-desktop" width="61" height="60" y="333"/><view id="sprite-desktop-view" viewBox="0 333 61 60"/><symbol id="sprite-facebook" viewBox="0 0 31 31"><path fill-rule="evenodd" clip-rule="evenodd" d="M28.625 15.966c0-7.248-5.877-13.125-13.125-13.125S2.375 8.718 2.375 15.966c0 6.55 4.799 11.98 11.074 12.966v-9.171h-3.333v-3.795h3.333v-2.892c0-3.289 1.96-5.107 4.958-5.107 1.436 0 2.938.257 2.938.257v3.23H19.69c-1.63 0-2.14 1.011-2.14 2.05v2.462h3.64l-.581 3.795H17.55v9.172c6.275-.985 11.074-6.415 11.074-12.967"/></symbol><use xlink:href="#sprite-facebook" width="31" height="31" y="393"/><view id="sprite-facebook-view" viewBox="0 393 31 31"/><symbol id="sprite-instagram" viewBox="0 0 31 31"><path d="M20.969 4.949a5.485 5.485 0 0 1 5.469 5.47v10.936a5.485 5.485 0 0 1-5.47 5.47H10.032a5.485 5.485 0 0 1-5.469-5.47V10.418a5.486 5.486 0 0 1 5.47-5.469zm0-2.187H10.03c-4.21 0-7.656 3.445-7.656 7.656v10.937c0 4.211 3.445 7.657 7.656 7.657h10.94c4.21 0 7.656-3.446 7.656-7.657V10.418c0-4.211-3.445-7.656-7.656-7.656"/><path d="M22.61 10.418a1.641 1.641 0 1 1 0-3.282 1.641 1.641 0 0 1 0 3.282m-7.11 1.093a4.375 4.375 0 1 1 0 8.75 4.375 4.375 0 0 1 0-8.75m0-2.187a6.563 6.563 0 1 0 0 13.125 6.563 6.563 0 0 0 0-13.125"/></symbol><use xlink:href="#sprite-instagram" width="31" height="31" y="424"/><view id="sprite-instagram-view" viewBox="0 424 31 31"/><symbol id="sprite-pinterest" viewBox="0 0 31 31"><path d="M15.503 2.762c-7.248 0-13.125 5.877-13.125 13.125 0 5.373 3.234 9.99 7.857 12.023-.035-.914-.005-2.015.229-3.012l1.687-7.154s-.421-.838-.421-2.074c0-1.945 1.124-3.399 2.53-3.399 1.196 0 1.77.897 1.77 1.97 0 1.2-.767 2.993-1.16 4.657-.328 1.395.697 2.526 2.074 2.526 2.485 0 4.16-3.193 4.16-6.979 0-2.877-1.939-5.027-5.46-5.027-3.979 0-6.463 2.97-6.463 6.287 0 1.143.34 1.951.867 2.572.24.287.275.405.187.733-.064.24-.205.82-.27 1.054-.087.334-.357.452-.655.329-1.834-.75-2.69-2.754-2.69-5.016 0-3.727 3.147-8.197 9.381-8.197 5.01 0 8.309 3.627 8.309 7.517 0 5.15-2.866 8.994-7.084 8.994-1.418 0-2.748-.767-3.205-1.634 0 0-.762 3.023-.926 3.609-.276 1.014-.82 2.021-1.319 2.813a13.2 13.2 0 0 0 3.721.539c7.248 0 13.125-5.877 13.125-13.125S22.751 2.762 15.502 2.762"/></symbol><use xlink:href="#sprite-pinterest" width="31" height="31" y="455"/><view id="sprite-pinterest-view" viewBox="0 455 31 31"/><symbol id="sprite-quotes" viewBox="0 0 56 42"><path d="M55.908.904q-1.476 6.232-3.116 13.448a409 409 0 0 0-2.952 14.104q-1.312 6.888-2.132 12.628h-15.58L30.98 39.28q1.476-5.74 3.772-12.3a225 225 0 0 1 5.084-13.448A548 548 0 0 1 45.248.904zm-30.34 0q-1.476 6.232-3.116 13.448A409 409 0 0 0 19.5 28.456q-1.312 6.888-2.132 12.628H1.952L.968 39.28q1.476-5.74 3.772-12.3a333 333 0 0 1 4.92-13.448A548 548 0 0 1 15.072.904z"/></symbol><use xlink:href="#sprite-quotes" width="56" height="42" y="486"/><view id="sprite-quotes-view" viewBox="0 486 56 42"/><symbol id="sprite-twitter" viewBox="0 0 31 31"><path d="M29.563 7.303a11.8 11.8 0 0 1-3.314.896 5.7 5.7 0 0 0 2.539-3.14 11.6 11.6 0 0 1-3.666 1.377 5.8 5.8 0 0 0-4.213-1.8c-3.189 0-5.77 2.544-5.77 5.679q-.003.656.15 1.294A16.45 16.45 0 0 1 3.394 5.674a5.6 5.6 0 0 0-.785 2.853c0 1.97 1.028 3.71 2.579 4.729a5.7 5.7 0 0 1-2.624-.71v.071c0 2.754 1.992 5.045 4.629 5.567a6 6 0 0 1-1.52.199 5.5 5.5 0 0 1-1.085-.106c.733 2.256 2.866 3.897 5.394 3.944a11.7 11.7 0 0 1-7.168 2.431q-.691 0-1.376-.082a16.33 16.33 0 0 0 8.832 2.567c10.627 0 16.432-8.655 16.432-16.16q0-.372-.018-.733a11.6 11.6 0 0 0 2.878-2.941"/></symbol><use xlink:href="#sprite-twitter" width="31" height="31" y="528"/><view id="sprite-twitter-view" viewBox="0 528 31 31"/></svg>