<svg xmlns="http://www.w3.org/2000/svg" xmlns:xlink="http://www.w3.org/1999/xlink"><symbol id="sprite-behance" viewBox="0 0 31 31"><path d="M20.662 14.574c-1.693 0-1.928 1.688-1.928 1.688h3.598s.023-1.688-1.67-1.688M12.5 16.262H9.313v2.93h3.029c.457-.012 1.312-.141 1.312-1.424 0-1.524-1.154-1.506-1.154-1.506"/><path d="M15.5 2.762c-7.248 0-13.125 5.877-13.125 13.125S8.252 29.012 15.5 29.012s13.125-5.877 13.125-13.125S22.748 2.762 15.5 2.762m2.766 8.062h4.517v1.348h-4.517zm-2.285 7.078c0 3.34-3.481 3.235-3.481 3.235H6.805V10.18H12.5c1.734 0 3.1.955 3.1 2.918 0 1.962-1.67 2.086-1.67 2.086 2.203 0 2.05 2.718 2.05 2.718m8.449-.181h-5.678c0 2.033 1.928 1.904 1.928 1.904 1.822 0 1.758-1.178 1.758-1.178h1.927c0 3.13-3.75 2.912-3.75 2.912-4.494 0-4.207-4.19-4.207-4.19s-.006-4.206 4.207-4.206c4.436.006 3.815 4.758 3.815 4.758"/><path d="M13.273 13.268c0-1.137-.773-1.137-.773-1.137H9.313v2.443H12.3c.515 0 .972-.17.972-1.306"/></symbol><use xlink:href="#sprite-behance" width="31" height="31" y="0"/><view id="sprite-behance-view" viewBox="0 0 31 31"/><symbol id="sprite-clipboard" viewBox="0 0 61 60"><path d="M38 35H23a2.5 2.5 0 0 0 0 5h15a2.5 2.5 0 0 0 0-5m0-10H28a2.5 2.5 0 0 0 0 5h10a2.5 2.5 0 0 0 0-5m5-15h-2.95A7.5 7.5 0 0 0 33 5h-5a7.5 7.5 0 0 0-7.05 5H18a7.5 7.5 0 0 0-7.5 7.5v30A7.5 7.5 0 0 0 18 55h25a7.5 7.5 0 0 0 7.5-7.5v-30A7.5 7.5 0 0 0 43 10m-17.5 2.5A2.5 2.5 0 0 1 28 10h5a2.5 2.5 0 0 1 2.5 2.5V15h-10zm20 35A2.5 2.5 0 0 1 43 50H18a2.5 2.5 0 0 1-2.5-2.5v-30A2.5 2.5 0 0 1 18 15h2.5v2.5A2.5 2.5 0 0 0 23 20h15a2.5 2.5 0 0 0 2.5-2.5V15H43a2.5 2.5 0 0 1 2.5 2.5z"/></symbol><use xlink:href="#sprite-clipboard" width="61" height="60" y="31"/><view id="sprite-clipboard-view" viewBox="0 31 61 60"/><symbol id="sprite-coffee" viewBox="0 0 60 60"><path d="M22.5 42.5h10A12.5 12.5 0 0 0 45 30v-2.5h2.5a7.5 7.5 0 0 0 0-15H45V10a2.5 2.5 0 0 0-2.5-2.5h-30A2.5 2.5 0 0 0 10 10v20a12.5 12.5 0 0 0 12.5 12.5m22.5-25h2.5a2.5 2.5 0 0 1 0 5H45zm-30-5h25V30a7.5 7.5 0 0 1-7.5 7.5h-10A7.5 7.5 0 0 1 15 30zm37.5 35h-45a2.5 2.5 0 0 0 0 5h45a2.5 2.5 0 0 0 0-5"/></symbol><use xlink:href="#sprite-coffee" width="60" height="60" y="91"/><view id="sprite-coffee-view" viewBox="0 91 60 60"/><symbol id="sprite-comment" viewBox="0 0 60 60"><path d="M30 20a2.5 2.5 0 0 0-2.5 2.5v10a2.5 2.5 0 0 0 5 0v-10A2.5 2.5 0 0 0 30 20m-10 7.5a2.5 2.5 0 0 0-2.5 2.5v2.5a2.5 2.5 0 0 0 5 0V30a2.5 2.5 0 0 0-2.5-2.5M47.5 5h-35A7.5 7.5 0 0 0 5 12.5v25a7.5 7.5 0 0 0 7.5 7.5h28.975l9.25 9.275A2.5 2.5 0 0 0 52.5 55c.328.008.653-.06.95-.2A2.5 2.5 0 0 0 55 52.5v-40A7.5 7.5 0 0 0 47.5 5M50 46.475l-5.725-5.75A2.5 2.5 0 0 0 42.5 40h-30a2.5 2.5 0 0 1-2.5-2.5v-25a2.5 2.5 0 0 1 2.5-2.5h35a2.5 2.5 0 0 1 2.5 2.5zM40 15a2.5 2.5 0 0 0-2.5 2.5v15a2.5 2.5 0 0 0 5 0v-15A2.5 2.5 0 0 0 40 15"/></symbol><use xlink:href="#sprite-comment" width="60" height="60" y="151"/><view id="sprite-comment-view" viewBox="0 151 60 60"/><symbol id="sprite-desktop" viewBox="0 0 61 60"><path d="M48 5H13a7.5 7.5 0 0 0-7.5 7.5v25A7.5 7.5 0 0 0 13 45h7.5v5H13a2.5 2.5 0 0 0 0 5h35a2.5 2.5 0 0 0 0-5h-7.5v-5H48a7.5 7.5 0 0 0 7.5-7.5v-25A7.5 7.5 0 0 0 48 5M35.5 50h-10v-5h10zm15-12.5A2.5 2.5 0 0 1 48 40H13a2.5 2.5 0 0 1-2.5-2.5V35h40zm0-7.5h-40V12.5A2.5 2.5 0 0 1 13 10h35a2.5 2.5 0 0 1 2.5 2.5z"/></symbol><use xlink:href="#sprite-desktop" width="61" height="60" y="211"/><view id="sprite-desktop-view" viewBox="0 211 61 60"/><symbol id="sprite-facebook" viewBox="0 0 31 31"><path fill-rule="evenodd" clip-rule="evenodd" d="M28.625 15.966c0-7.248-5.877-13.125-13.125-13.125S2.375 8.718 2.375 15.966c0 6.55 4.799 11.98 11.074 12.966v-9.171h-3.333v-3.795h3.333v-2.892c0-3.289 1.96-5.107 4.958-5.107 1.436 0 2.938.257 2.938.257v3.23H19.69c-1.63 0-2.14 1.011-2.14 2.05v2.462h3.64l-.581 3.795H17.55v9.172c6.275-.985 11.074-6.415 11.074-12.967"/></symbol><use xlink:href="#sprite-facebook" width="31" height="31" y="271"/><view id="sprite-facebook-view" viewBox="0 271 31 31"/><symbol id="sprite-instagram" viewBox="0 0 31 31"><path d="M20.969 4.949a5.485 5.485 0 0 1 5.469 5.47v10.936a5.485 5.485 0 0 1-5.47 5.47H10.032a5.485 5.485 0 0 1-5.469-5.47V10.418a5.486 5.486 0 0 1 5.47-5.469zm0-2.187H10.03c-4.21 0-7.656 3.445-7.656 7.656v10.937c0 4.211 3.445 7.657 7.656 7.657h10.94c4.21 0 7.656-3.446 7.656-7.657V10.418c0-4.211-3.445-7.656-7.656-7.656"/><path d="M22.61 10.418a1.641 1.641 0 1 1 0-3.282 1.641 1.641 0 0 1 0 3.282m-7.11 1.093a4.375 4.375 0 1 1 0 8.75 4.375 4.375 0 0 1 0-8.75m0-2.187a6.563 6.563 0 1 0 0 13.125 6.563 6.563 0 0 0 0-13.125"/></symbol><use xlink:href="#sprite-instagram" width="31" height="31" y="302"/><view id="sprite-instagram-view" viewBox="0 302 31 31"/><symbol id="sprite-pinterest" viewBox="0 0 31 31"><path d="M15.503 2.762c-7.248 0-13.125 5.877-13.125 13.125 0 5.373 3.234 9.99 7.857 12.023-.035-.914-.005-2.015.229-3.012l1.687-7.154s-.421-.838-.421-2.074c0-1.945 1.124-3.399 2.53-3.399 1.196 0 1.77.897 1.77 1.97 0 1.2-.767 2.993-1.16 4.657-.328 1.395.697 2.526 2.074 2.526 2.485 0 4.16-3.193 4.16-6.979 0-2.877-1.939-5.027-5.46-5.027-3.979 0-6.463 2.97-6.463 6.287 0 1.143.34 1.951.867 2.572.24.287.275.405.187.733-.064.24-.205.82-.27 1.054-.087.334-.357.452-.655.329-1.834-.75-2.69-2.754-2.69-5.016 0-3.727 3.147-8.197 9.381-8.197 5.01 0 8.309 3.627 8.309 7.517 0 5.15-2.866 8.994-7.084 8.994-1.418 0-2.748-.767-3.205-1.634 0 0-.762 3.023-.926 3.609-.276 1.014-.82 2.021-1.319 2.813a13.2 13.2 0 0 0 3.721.539c7.248 0 13.125-5.877 13.125-13.125S22.751 2.762 15.502 2.762"/></symbol><use xlink:href="#sprite-pinterest" width="31" height="31" y="333"/><view id="sprite-pinterest-view" viewBox="0 333 31 31"/><symbol id="sprite-quotes" viewBox="0 0 56 42"><path d="M55.908.904q-1.476 6.232-3.116 13.448a409 409 0 0 0-2.952 14.104q-1.312 6.888-2.132 12.628h-15.58L30.98 39.28q1.476-5.74 3.772-12.3a225 225 0 0 1 5.084-13.448A548 548 0 0 1 45.248.904zm-30.34 0q-1.476 6.232-3.116 13.448A409 409 0 0 0 19.5 28.456q-1.312 6.888-2.132 12.628H1.952L.968 39.28q1.476-5.74 3.772-12.3a333 333 0 0 1 4.92-13.448A548 548 0 0 1 15.072.904z"/></symbol><use xlink:href="#sprite-quotes" width="56" height="42" y="364"/><view id="sprite-quotes-view" viewBox="0 364 56 42"/><symbol id="sprite-twitter" viewBox="0 0 31 31"><path d="M29.563 7.303a11.8 11.8 0 0 1-3.314.896 5.7 5.7 0 0 0 2.539-3.14 11.6 11.6 0 0 1-3.666 1.377 5.8 5.8 0 0 0-4.213-1.8c-3.189 0-5.77 2.544-5.77 5.679q-.003.656.15 1.294A16.45 16.45 0 0 1 3.394 5.674a5.6 5.6 0 0 0-.785 2.853c0 1.97 1.028 3.71 2.579 4.729a5.7 5.7 0 0 1-2.624-.71v.071c0 2.754 1.992 5.045 4.629 5.567a6 6 0 0 1-1.52.199 5.5 5.5 0 0 1-1.085-.106c.733 2.256 2.866 3.897 5.394 3.944a11.7 11.7 0 0 1-7.168 2.431q-.691 0-1.376-.082a16.33 16.33 0 0 0 8.832 2.567c10.627 0 16.432-8.655 16.432-16.16q0-.372-.018-.733a11.6 11.6 0 0 0 2.878-2.941"/></symbol><use xlink:href="#sprite-twitter" width="31" height="31" y="406"/><view id="sprite-twitter-view" viewBox="0 406 31 31"/></svg>