<svg width="52" height="52" viewBox="0 0 52 52" fill="none" xmlns="http://www.w3.org/2000/svg">
<path d="M48.4065 28.5274C41.1843 43.8978 24.5177 54.0829 12.851 50.9348C2.66588 48.157 0.814038 36.12 7.2955 24.083C13.5918 12.6016 26.1844 3.34231 37.1103 3.15713C49.1473 2.78676 55.0732 13.8978 48.4065 28.5274Z" fill="#F9A01E"/>
<path d="M44.8879 25.3793C37.6657 40.7496 20.9991 50.9348 9.33249 47.7867C-0.85267 45.0089 -2.70452 32.9719 3.77695 20.9349C10.0732 9.45342 22.6657 0.194179 33.5916 0.00899425C45.6287 -0.361375 51.5545 10.7497 44.8879 25.3793Z" fill="#FFE779"/>
<path d="M38.9622 24.6386C33.5918 36.12 20.9993 43.8978 12.1104 41.8607C4.14745 40.0089 2.29553 30.7497 7.29552 21.3052C12.1103 12.2312 22.2955 5.00897 30.6289 5.00897C40.0733 5.19416 44.1473 13.7127 38.9622 24.6386Z" fill="#F9A01E"/>
<path d="M14.8883 34.4533L15.629 33.157C15.8142 32.6015 15.8142 32.2311 15.4439 32.046C14.6246 31.8888 13.8961 31.4252 13.4068 30.7496C13.2216 30.5645 13.2217 30.0089 13.592 29.4534L13.7772 29.2682C14.1475 28.7126 14.8883 28.5274 15.0735 28.8978C15.7142 29.5794 16.5591 30.0344 17.4809 30.1941C18.4301 30.3297 19.3976 30.1493 20.2342 29.6808C21.0708 29.2123 21.7301 28.4817 22.1105 27.6015C22.3214 27.2654 22.4603 26.8891 22.5184 26.4966C22.5765 26.104 22.5526 25.7037 22.4482 25.3209C22.3438 24.938 22.1611 24.581 21.9118 24.2723C21.6624 23.9636 21.3518 23.71 20.9994 23.5274C20.5083 23.2896 20.0743 22.9486 19.7268 22.5278C19.3794 22.107 19.1268 21.6163 18.9862 21.089C18.8456 20.5618 18.8203 20.0104 18.912 19.4725C19.0038 18.9345 19.2105 18.4227 19.518 17.9719C20.0381 16.871 20.8135 15.9102 21.7798 15.1694C22.746 14.4285 23.8753 13.9291 25.0735 13.7126C25.4439 13.7126 25.8142 13.3423 26.1846 12.7867L26.9253 11.4904C27.0203 11.2218 27.1956 10.9888 27.4275 10.8231C27.6594 10.6575 27.9366 10.5672 28.2215 10.5645C28.5919 10.5645 28.7771 10.9349 28.5919 11.4904L28.0364 12.6016C27.8512 13.1571 27.8512 13.5275 28.4068 13.5275C29.0183 13.6219 29.5935 13.8776 30.0734 14.2682C30.4438 14.4534 30.2586 15.0089 29.8883 15.5645L29.7031 15.7497C29.3327 16.3052 28.592 16.4904 28.4068 16.1201C27.7724 15.6266 26.9882 15.3652 26.1846 15.3793C25.3423 15.3252 24.5032 15.5259 23.7766 15.9553C23.05 16.3847 22.4694 17.0228 22.1105 17.7867C21.3697 19.2682 21.9253 20.1941 23.5919 21.4904C24.1041 21.7831 24.5486 22.1808 24.8963 22.6573C25.2439 23.1339 25.4868 23.6785 25.6093 24.2555C25.7317 24.8326 25.7307 25.429 25.6064 26.0056C25.4822 26.5822 25.2374 27.1261 24.8882 27.6015C24.3039 28.834 23.4228 29.9021 22.3239 30.7102C21.225 31.5182 19.9427 32.0408 18.592 32.2311C18.3389 32.2665 18.1007 32.3719 17.9044 32.5356C17.708 32.6992 17.5613 32.9144 17.4809 33.157L16.7402 34.6385C16.6229 34.892 16.4417 35.1106 16.2145 35.2729C15.9872 35.4352 15.7217 35.5357 15.4439 35.5645C14.7031 35.5645 14.518 35.0089 14.8883 34.4533Z" fill="#FFE779"/>
</svg>
